<?xml version="1.0" standalone="no"?>
<!DOCTYPE svg PUBLIC "-//W3C//DTD SVG 1.1//EN" "http://www.w3.org/Graphics/SVG/1.1/DTD/svg11.dtd" >
<svg xmlns="http://www.w3.org/2000/svg" xmlns:xlink="http://www.w3.org/1999/xlink" version="1.1">
<metadata>
Created by FontForge 20170731 at Fri May  5 00:27:38 2017
 By Aleksey,,,
Copyright (c) 2015 by Noel Leu. All rights reserved.
</metadata>
<defs>
<font id="GTWalsheimPro-CondensedMedium" horiz-adv-x="540" >
  <font-face 
    font-family="GT Walsheim Pro Cond Medium"
    font-weight="500"
    font-stretch="condensed"
    units-per-em="1000"
    panose-1="0 0 6 6 0 0 0 0 0 0"
    ascent="700"
    descent="-300"
    x-height="465"
    cap-height="700"
    bbox="-357 -224 999 902"
    underline-thickness="50"
    underline-position="-300"
    unicode-range="U+000D-FB02"
  />
<missing-glyph horiz-adv-x="800" 
d="M400 -17q-109 0 -193.5 52.5t-127.5 135.5t-43 179t43 179t127.5 135.5t193.5 52.5t193.5 -52.5t127.5 -135.5t43 -179t-43 -179t-127.5 -135.5t-193.5 -52.5zM400 6q140 0 239.5 100.5t99.5 243.5q0 138 -98 241.5t-241 103.5t-241.5 -103t-98.5 -242q0 -143 99 -243.5
t241 -100.5zM243 457q-17 0 -29.5 13t-12.5 30q0 18 12.5 30.5t29.5 12.5q18 0 30.5 -12.5t12.5 -30.5q0 -17 -12.5 -30t-30.5 -13zM540 457q-17 0 -29.5 13t-12.5 30q0 18 12.5 30.5t29.5 12.5q18 0 30.5 -12.5t12.5 -30.5q0 -17 -12.5 -30t-30.5 -13zM219 259l179 268
l-110 -243h178v-25h-247zM132 207q0 38 26 52l23 13q11 6 13 17.5t2 39.5h17q0 -57 -20 -69l-22 -13q-23 -13 -23 -40h-16zM616 157l-16 4q5 17 3 26t-16 15l-41 20q-55 27 -31 98l15 -5q-20 -61 27 -82l40 -19q20 -9 22.5 -26.5t-3.5 -30.5zM366 66q-102 0 -198 162
q82 -49 116 -60q35 -11 72 -11q148 0 220 37q1 0 3 2q-22 -49 -88 -89.5t-125 -40.5zM366 92q31 0 71.5 16.5t62.5 30t32 21.5q-9 -2 -40.5 -9.5t-45 -10t-39 -5.5t-49.5 -3q-30 0 -69.5 11.5t-63.5 30.5q26 -42 69 -62t72 -20z" />
    <glyph glyph-name="fi" unicode="fi" horiz-adv-x="500" 
d="M81 557q0 72 37.5 110.5t99.5 38.5q25 0 50 -5v-93q-24 4 -31 4q-50 0 -50 -64v-83h79v-88h-79v-377h-106v377h-66v88h66v92zM392 690q34 0 55.5 -21t21.5 -56t-21.5 -56.5t-55.5 -21.5t-56 21.5t-22 56.5t22 56t56 21zM338 0v465h107v-465h-107z" />
    <glyph glyph-name="fl" unicode="fl" horiz-adv-x="510" 
d="M81 557q0 72 37.5 110.5t99.5 38.5q25 0 50 -5v-93q-24 4 -31 4q-50 0 -50 -64v-83h79v-88h-79v-377h-106v377h-66v88h66v92zM343 700h106v-700h-106v700z" />
    <glyph glyph-name="f_f" unicode="ff" horiz-adv-x="576" 
d="M81 557q0 72 37.5 110.5t99.5 38.5q25 0 50 -5v-93q-24 4 -31 4q-50 0 -50 -64v-83h79v-88h-79v-377h-106v377h-66v88h66v92zM530 612q-50 0 -50 -64v-83h79v-88h-79v-377h-106v377h-66v88h66v92q0 72 37.5 110.5t99.5 38.5q25 0 50 -5v-93q-24 4 -31 4z" />
    <glyph glyph-name="f_f_i" unicode="ffi" horiz-adv-x="793" 
d="M81 557q0 72 37.5 110.5t99.5 38.5q25 0 50 -5v-93q-24 4 -31 4q-50 0 -50 -64v-83h79v-88h-79v-377h-106v377h-66v88h66v92zM374 557q0 72 37.5 110.5t99.5 38.5q25 0 50 -5v-93q-24 4 -31 4q-50 0 -50 -64v-83h79v-88h-79v-377h-106v377h-66v88h66v92zM685 690
q34 0 55.5 -21t21.5 -56t-21.5 -56.5t-55.5 -21.5t-56 21.5t-22 56.5t22 56t56 21zM631 0v465h107v-465h-107z" />
    <glyph glyph-name="f_f_l" unicode="ffl" horiz-adv-x="803" 
d="M81 557q0 72 37.5 110.5t99.5 38.5q25 0 50 -5v-93q-24 4 -31 4q-50 0 -50 -64v-83h79v-88h-79v-377h-106v377h-66v88h66v92zM374 557q0 72 37.5 110.5t99.5 38.5q25 0 50 -5v-93q-24 4 -31 4q-50 0 -50 -64v-83h79v-88h-79v-377h-106v377h-66v88h66v92zM636 700h106
v-700h-106v700z" />
    <glyph glyph-name=".notdef" horiz-adv-x="800" 
d="M400 -17q-109 0 -193.5 52.5t-127.5 135.5t-43 179t43 179t127.5 135.5t193.5 52.5t193.5 -52.5t127.5 -135.5t43 -179t-43 -179t-127.5 -135.5t-193.5 -52.5zM400 6q140 0 239.5 100.5t99.5 243.5q0 138 -98 241.5t-241 103.5t-241.5 -103t-98.5 -242q0 -143 99 -243.5
t241 -100.5zM243 457q-17 0 -29.5 13t-12.5 30q0 18 12.5 30.5t29.5 12.5q18 0 30.5 -12.5t12.5 -30.5q0 -17 -12.5 -30t-30.5 -13zM540 457q-17 0 -29.5 13t-12.5 30q0 18 12.5 30.5t29.5 12.5q18 0 30.5 -12.5t12.5 -30.5q0 -17 -12.5 -30t-30.5 -13zM219 259l179 268
l-110 -243h178v-25h-247zM132 207q0 38 26 52l23 13q11 6 13 17.5t2 39.5h17q0 -57 -20 -69l-22 -13q-23 -13 -23 -40h-16zM616 157l-16 4q5 17 3 26t-16 15l-41 20q-55 27 -31 98l15 -5q-20 -61 27 -82l40 -19q20 -9 22.5 -26.5t-3.5 -30.5zM366 66q-102 0 -198 162
q82 -49 116 -60q35 -11 72 -11q148 0 220 37q1 0 3 2q-22 -49 -88 -89.5t-125 -40.5zM366 92q31 0 71.5 16.5t62.5 30t32 21.5q-9 -2 -40.5 -9.5t-45 -10t-39 -5.5t-49.5 -3q-30 0 -69.5 11.5t-63.5 30.5q26 -42 69 -62t72 -20z" />
    <glyph glyph-name=".null" horiz-adv-x="0" 
 />
    <glyph glyph-name="nonmarkingreturn" horiz-adv-x="333" 
 />
    <glyph glyph-name="CR" unicode="&#xd;" horiz-adv-x="250" 
 />
    <glyph glyph-name="space" unicode=" " horiz-adv-x="200" 
 />
    <glyph glyph-name="exclam" unicode="!" horiz-adv-x="278" 
d="M86 221v479h106v-479h-106zM138 -8q-34 0 -58 24.5t-24 59.5q0 34 24 58t58 24q35 0 59.5 -24t24.5 -58t-25 -59t-59 -25z" />
    <glyph glyph-name="quotedbl" unicode="&#x22;" horiz-adv-x="416" 
d="M192 617q0 -12 -3 -24l-47 -189h-51l-47 189q-3 12 -3 24q0 31 21.5 53t53.5 22t54 -21.5t22 -53.5zM375 617q0 -12 -3 -24l-47 -189h-51l-47 189q-3 12 -3 24q0 31 22 53t53 22q32 0 54 -21.5t22 -53.5z" />
    <glyph glyph-name="numbersign" unicode="#" horiz-adv-x="533" 
d="M82 0l28 205h-90v82h102l17 126h-89v82h101l28 205h87l-28 -205h105l28 205h87l-28 -205h82v-82h-94l-17 -126h81v-82h-93l-29 -205h-86l28 205h-105l-29 -205h-86zM209 287h105l17 126h-105z" />
    <glyph glyph-name="dollar" unicode="$" horiz-adv-x="461" 
d="M440 177q0 -78 -47.5 -129.5t-127.5 -59.5v-88h-80v89q-164 25 -164 204h111q0 -54 27 -81.5t76 -27.5q42 0 66.5 23.5t24.5 63.5q0 36 -21 60.5t-67 48.5l-83 42q-63 33 -92.5 79t-29.5 116q0 68 41 114.5t111 57.5v91h80v-90q156 -19 156 -204h-110q-1 106 -86 106
q-39 0 -61 -20t-22 -54q0 -37 21 -59.5t68 -47.5l78 -42q70 -38 100.5 -81.5t30.5 -110.5z" />
    <glyph glyph-name="percent" unicode="%" horiz-adv-x="684" 
d="M159 -16l-67 37l421 682l68 -37zM158 346q-69 0 -108.5 45.5t-39.5 124.5t39.5 124.5t108.5 45.5t108.5 -45.5t39.5 -124.5t-39.5 -124.5t-108.5 -45.5zM158 425q60 0 60 91t-60 91t-60 -91t60 -91zM526 -5q-69 0 -108.5 45.5t-39.5 124.5t39.5 124.5t108.5 45.5
t108.5 -45.5t39.5 -124.5t-39.5 -124.5t-108.5 -45.5zM526 74q60 0 60 91t-60 91t-60 -91t60 -91z" />
    <glyph glyph-name="ampersand" unicode="&#x26;" horiz-adv-x="510" 
d="M499 307v-99h-33q0 -107 -55.5 -166t-157.5 -59q-103 0 -163 54.5t-60 155.5q0 66 31.5 113t85.5 63q-100 37 -100 159q0 88 55 138.5t152 50.5t148 -52t51 -151h-117q0 52 -22 79.5t-63 27.5q-42 0 -65 -26t-23 -74q0 -105 88 -105h8v-101h-6q-53 0 -80.5 -29.5
t-27.5 -84.5q0 -58 28 -89t78 -31q55 0 81 30.5t29 96.5h-52v99h190z" />
    <glyph glyph-name="quotesingle" unicode="'" horiz-adv-x="233" 
d="M192 617q0 -12 -3 -24l-47 -189h-51l-47 189q-3 12 -3 24q0 31 21.5 53t53.5 22t54 -21.5t22 -53.5z" />
    <glyph glyph-name="parenleft" unicode="(" horiz-adv-x="299" 
d="M254 -195q-192 192 -192 468t192 468l65 -60q-75 -90 -113 -187t-38 -221q0 -119 39 -214.5t112 -193.5z" />
    <glyph glyph-name="parenright" unicode=")" horiz-adv-x="299" 
d="M45 -195l-65 60q73 98 112 193.5t39 214.5q0 124 -38 221t-113 187l65 60q192 -192 192 -468t-192 -468z" />
    <glyph glyph-name="asterisk" unicode="*" horiz-adv-x="413" 
d="M126 349l-68 47l101 122l-138 35l25 74l131 -54l-11 144h82l-12 -144l131 54l25 -74l-138 -35l102 -122l-69 -47l-80 133z" />
    <glyph glyph-name="plus" unicode="+" horiz-adv-x="484" 
d="M191 113v154h-151v95h151v155h102v-155h151v-95h-151v-154h-102z" />
    <glyph glyph-name="comma" unicode="," horiz-adv-x="236" 
d="M70 -121q-14 0 -29 3v48q12 -2 34 -2q37 0 56 26q18 23 20 57q-13 -17 -44 -17q-32 0 -54 21.5t-22 56.5q0 36 23 58t59 22q37 0 67 -30t30 -90q0 -68 -36.5 -110.5t-103.5 -42.5z" />
    <glyph glyph-name="hyphen" unicode="-" horiz-adv-x="359" 
d="M40 217v94h279v-94h-279z" />
    <glyph glyph-name="period" unicode="." horiz-adv-x="229" 
d="M114 -8q-34 0 -58.5 24.5t-24.5 59.5q0 34 24.5 58t58.5 24t58.5 -24t24.5 -58q0 -35 -24.5 -59.5t-58.5 -24.5z" />
    <glyph glyph-name="slash" unicode="/" horiz-adv-x="449" 
d="M96 -68l-86 37l343 795l86 -37z" />
    <glyph glyph-name="zero" unicode="0" horiz-adv-x="525" 
d="M263 -12q-122 0 -177.5 84t-55.5 268t55.5 268t177.5 84q121 0 176.5 -84t55.5 -268t-55.5 -268t-176.5 -84zM263 82q70 0 98 57t28 201t-28 201t-98 57q-71 0 -99 -57t-28 -201t28 -201t99 -57z" />
    <glyph glyph-name="one" unicode="1" horiz-adv-x="346" 
d="M149 0v470h-124v94q81 0 107.5 25t26.5 91h101v-680h-111z" />
    <glyph glyph-name="two" unicode="2" horiz-adv-x="493" 
d="M40 0q0 124 34.5 195t116.5 124l71 46q52 33 69.5 63.5t17.5 72.5q0 45 -21.5 69.5t-60.5 24.5q-101 0 -101 -136h-116q0 108 56 170.5t160 62.5q99 0 150.5 -50t51.5 -138q0 -64 -27.5 -115t-95.5 -94l-65 -42q-58 -37 -81.5 -67.5t-31.5 -78.5h288v-107h-415z" />
    <glyph glyph-name="three" unicode="3" horiz-adv-x="500" 
d="M246 -12q-105 0 -160.5 61t-55.5 169h113q0 -135 114 -135q43 0 69 30.5t26 81.5q0 52 -31.5 79.5t-92.5 27.5h-42v98h43q106 0 106 103q0 44 -23.5 70t-65.5 26q-43 0 -68 -30t-25 -83h-113q0 94 56 150t156 56q94 0 145.5 -48t51.5 -126q0 -141 -129 -165
q68 -10 106 -55.5t38 -110.5q0 -86 -58 -142.5t-160 -56.5z" />
    <glyph glyph-name="four" unicode="4" horiz-adv-x="514" 
d="M479 305v-97h-90v-208h-106v208h-233v472h106v-375h127v177h106v-177h90z" />
    <glyph glyph-name="five" unicode="5" horiz-adv-x="503" 
d="M255 -12q-100 0 -154.5 54.5t-60.5 155.5h108q8 -112 104 -112q51 0 80 38t29 109t-28 110.5t-77 39.5q-79 0 -99 -70h-105v367h381v-99h-285v-171q42 69 135 69q86 0 138 -67.5t52 -178.5q0 -109 -60.5 -177t-157.5 -68z" />
    <glyph glyph-name="six" unicode="6" horiz-adv-x="490" 
d="M249 477q98 -1 155 -67t57 -177q0 -113 -58 -179t-158 -66q-99 0 -157 66t-58 179q0 104 51 169l183 278h119zM245 82q53 0 81.5 39t28.5 112t-28.5 112t-81.5 39t-81 -39t-28 -112t28 -112t81 -39z" />
    <glyph glyph-name="seven" unicode="7" horiz-adv-x="434" 
d="M51 0l235 579h-266v101h414l-269 -680h-114z" />
    <glyph glyph-name="eight" unicode="8" horiz-adv-x="522" 
d="M261 -12q-109 0 -167.5 54t-58.5 146q0 126 118 170q-98 40 -98 157q0 81 57.5 129t148.5 48t148.5 -48t57.5 -129q0 -117 -98 -157q118 -44 118 -170q0 -92 -58.5 -146t-167.5 -54zM261 403q41 0 65.5 27t24.5 75q0 46 -24.5 72t-65.5 26q-40 0 -65 -26t-25 -72
q0 -48 24.5 -75t65.5 -27zM261 83q51 0 80 30t29 88q0 52 -30 83t-79 31t-79 -31t-30 -83q0 -58 29 -88t80 -30z" />
    <glyph glyph-name="nine" unicode="9" horiz-adv-x="490" 
d="M460 447q0 -104 -51 -169l-183 -278h-119l134 203q-98 1 -155 67t-57 177q0 113 58 179t158 66q99 0 157 -66t58 -179zM135 447q0 -73 28.5 -112t81.5 -39t81 39t28 112t-28 112t-81 39t-81.5 -39t-28.5 -112z" />
    <glyph glyph-name="colon" unicode=":" horiz-adv-x="229" 
d="M114 311q-34 0 -58.5 24.5t-24.5 59.5q0 34 24.5 58t58.5 24t58.5 -24t24.5 -58q0 -35 -24.5 -59.5t-58.5 -24.5zM114 -8q-34 0 -58.5 24.5t-24.5 59.5q0 34 24.5 58t58.5 24t58.5 -24t24.5 -58q0 -35 -24.5 -59.5t-58.5 -24.5z" />
    <glyph glyph-name="semicolon" unicode=";" horiz-adv-x="236" 
d="M114 310q-34 0 -58.5 24.5t-24.5 59.5q0 34 24.5 58t58.5 24t58.5 -24t24.5 -58q0 -35 -24.5 -59.5t-58.5 -24.5zM70 -121q-14 0 -29 3v48q12 -2 34 -2q37 0 56 26q18 23 20 57q-13 -17 -44 -17q-32 0 -54 21.5t-22 56.5q0 36 23 58t59 22q37 0 67 -30t30 -90
q0 -68 -36.5 -110.5t-103.5 -42.5z" />
    <glyph glyph-name="less" unicode="&#x3c;" horiz-adv-x="469" 
d="M428 101l-388 175v75l388 176v-100l-250 -113l250 -113v-100z" />
    <glyph glyph-name="equal" unicode="=" horiz-adv-x="484" 
d="M40 354v95h404v-95h-404zM40 178v95h404v-95h-404z" />
    <glyph glyph-name="greater" unicode="&#x3e;" horiz-adv-x="469" 
d="M41 101v100l250 113l-250 113v100l388 -176v-75z" />
    <glyph glyph-name="question" unicode="?" horiz-adv-x="435" 
d="M143 221v12q0 53 13 84t49 65l43 41q49 48 49 111q0 42 -21 64t-57 22q-39 0 -62.5 -24.5t-23.5 -72.5h-112q0 94 51.5 144t145.5 50q92 0 143.5 -48.5t51.5 -129.5q0 -85 -69 -159l-43 -41q-30 -29 -41 -50.5t-11 -53.5v-14h-106zM197 -8q-37 0 -60.5 23.5t-23.5 60.5
q0 36 23.5 59.5t60.5 23.5t60 -23.5t23 -59.5q0 -37 -23 -60.5t-60 -23.5z" />
    <glyph glyph-name="at" unicode="@" horiz-adv-x="770" 
d="M370 -193q-151 0 -248 113.5t-97 294.5q0 184 97 296.5t263 112.5q169 0 264 -97t95 -307q0 -242 -143 -242q-112 0 -121 110q-40 -77 -118 -77q-73 0 -118.5 57.5t-45.5 149.5q0 91 45 147.5t117 56.5q79 0 111 -65v55h85v-292q0 -72 45 -72q59 0 59 160q0 185 -71 263
t-204 78q-129 0 -202.5 -91.5t-73.5 -243.5q0 -149 73.5 -240.5t190.5 -91.5q82 0 160 39l29 -67q-92 -47 -192 -47zM381 91q42 0 66 33.5t24 92.5q0 58 -24 91.5t-66 33.5q-43 0 -68 -34t-25 -92t25 -91.5t68 -33.5z" />
    <glyph glyph-name="A" unicode="A" 
d="M406 0l-30 117h-213l-30 -117h-118l210 700h89l210 -700h-118zM188 215h163l-81 321z" />
    <glyph glyph-name="B" unicode="B" horiz-adv-x="514" 
d="M343 360q62 -6 101.5 -52t39.5 -113q0 -91 -60.5 -143t-167.5 -52h-196v700h203q98 0 155 -48.5t57 -132.5q0 -130 -132 -159zM247 603h-76v-198h74q54 0 83.5 25.5t29.5 73.5q0 99 -111 99zM247 97q62 0 91 25.5t29 81.5q0 47 -28.5 75t-76.5 28h-91v-210h76z" />
    <glyph glyph-name="C" unicode="C" horiz-adv-x="561" 
d="M288 -17q-129 0 -196 94.5t-67 272.5t67 272.5t196 94.5q113 0 174 -65t67 -191h-119q-5 79 -33 117t-88 38q-77 0 -112 -66.5t-35 -199.5t35 -199.5t112 -66.5q60 0 88 38t33 117h119q-6 -126 -67 -191t-174 -65z" />
    <glyph glyph-name="D" unicode="D" horiz-adv-x="563" 
d="M60 0v700h196q131 0 206.5 -94.5t75.5 -255.5q0 -159 -78 -254.5t-214 -95.5h-186zM171 99h78q84 0 128 63t44 188t-44 188t-128 63h-78v-502z" />
    <glyph glyph-name="E" unicode="E" horiz-adv-x="462" 
d="M60 0v700h352v-99h-241v-200h241v-100h-241v-202h241v-99h-352z" />
    <glyph glyph-name="F" unicode="F" horiz-adv-x="443" 
d="M60 0v700h343v-99h-231v-224h231v-99h-231v-278h-112z" />
    <glyph glyph-name="G" unicode="G" horiz-adv-x="581" 
d="M566 349v-100h-38q-5 -129 -66 -197.5t-171 -68.5q-127 0 -196.5 97t-69.5 275q0 169 71 265.5t196 96.5q219 0 233 -226h-113q-5 63 -33.5 94t-86.5 31q-150 0 -150 -261q0 -141 37.5 -206.5t118.5 -65.5q121 0 123 166h-139v100h284z" />
    <glyph glyph-name="H" unicode="H" horiz-adv-x="567" 
d="M60 0v700h111v-302h224v302h111v-700h-111v297h-224v-297h-111z" />
    <glyph glyph-name="I" unicode="I" horiz-adv-x="232" 
d="M60 0v700h111v-700h-111z" />
    <glyph glyph-name="J" unicode="J" horiz-adv-x="459" 
d="M216 -17q-199 0 -201 236h112q0 -71 20.5 -103t64.5 -32q45 0 65.5 31t20.5 101v484h111v-484q0 -113 -49 -173t-144 -60z" />
    <glyph glyph-name="K" unicode="K" horiz-adv-x="504" 
d="M499 0h-127l-201 339v-339h-111v700h111v-341l201 341h126l-216 -350z" />
    <glyph glyph-name="L" unicode="L" horiz-adv-x="423" 
d="M60 0v700h111v-595h217v-105h-328z" />
    <glyph glyph-name="M" unicode="M" horiz-adv-x="666" 
d="M60 0v700h117l156 -536l156 536h117v-700h-105v449l-135 -449h-66l-134 449v-449h-106z" />
    <glyph glyph-name="N" unicode="N" horiz-adv-x="561" 
d="M60 0v700h104l235 -509v509h101v-700h-103l-235 489v-489h-102z" />
    <glyph glyph-name="O" unicode="O" horiz-adv-x="602" 
d="M301 -17q-134 0 -205 94.5t-71 272.5t71 272.5t205 94.5t205 -94.5t71 -272.5t-71 -272.5t-205 -94.5zM301 84q159 0 159 266t-159 266t-159 -266t159 -266z" />
    <glyph glyph-name="P" unicode="P" horiz-adv-x="501" 
d="M235 700q123 0 189 -65.5t66 -179.5t-66 -179t-189 -65h-64v-211h-111v700h175zM241 308q64 0 98 39.5t34 107.5q0 69 -34 109t-98 40h-70v-296h70z" />
    <glyph glyph-name="Q" unicode="Q" horiz-adv-x="602" 
d="M577 350q0 -249 -136 -332l78 -105l-90 -55l-91 127q-24 -2 -37 -2q-134 0 -205 94.5t-71 272.5t71 272.5t205 94.5t205 -94.5t71 -272.5zM142 350q0 -266 159 -266t159 266t-159 266t-159 -266z" />
    <glyph glyph-name="R" unicode="R" horiz-adv-x="517" 
d="M492 0h-128l-116 211h-13h-64v-211h-111v700h175q123 0 189 -65.5t66 -179.5q0 -167 -133 -222zM171 604v-296h70q64 0 98 39.5t34 107.5q0 69 -34 109t-98 40h-70z" />
    <glyph glyph-name="S" unicode="S" horiz-adv-x="468" 
d="M243 -17q-108 0 -165 59.5t-57 175.5h114q0 -65 28 -99.5t79 -34.5q42 0 66 25t24 67q0 39 -20.5 65.5t-66.5 50.5l-83 43q-67 34 -98 80.5t-31 115.5q0 84 55.5 135t145.5 51q204 0 204 -218h-115q0 117 -91 117q-40 0 -62.5 -22.5t-22.5 -61.5q0 -37 21 -59.5t70 -48.5
l78 -44q70 -39 100.5 -84t30.5 -113q0 -89 -56.5 -144.5t-147.5 -55.5z" />
    <glyph glyph-name="T" unicode="T" horiz-adv-x="427" 
d="M158 0v595h-153v105h417v-105h-153v-595h-111z" />
    <glyph glyph-name="U" unicode="U" horiz-adv-x="562" 
d="M280 -17q-105 0 -167.5 65.5t-62.5 184.5v467h113v-458q0 -75 32 -116.5t85 -41.5q54 0 86.5 41.5t32.5 116.5v458h113v-467q0 -120 -62.5 -185t-169.5 -65z" />
    <glyph glyph-name="V" unicode="V" horiz-adv-x="510" 
d="M209 0l-209 700h118l137 -514l137 514h118l-209 -700h-92z" />
    <glyph glyph-name="W" unicode="W" horiz-adv-x="689" 
d="M135 0l-125 700h114l73 -509l106 509h82l107 -509l73 509h114l-125 -700h-106l-104 473l-104 -473h-105z" />
    <glyph glyph-name="X" unicode="X" horiz-adv-x="502" 
d="M11 0l173 347l-173 353h125l115 -266l115 266h126l-174 -353l174 -347h-126l-115 259l-115 -259h-125z" />
    <glyph glyph-name="Y" unicode="Y" horiz-adv-x="476" 
d="M375 700h116l-295 -700h-117l111 262l-190 438h119l131 -313z" />
    <glyph glyph-name="Z" unicode="Z" horiz-adv-x="460" 
d="M20 0l260 601h-246v99h401l-261 -601h259v-99h-413z" />
    <glyph glyph-name="bracketleft" unicode="[" horiz-adv-x="262" 
d="M60 -193v926h162v-85h-65v-757h65v-84h-162z" />
    <glyph glyph-name="backslash" unicode="\" horiz-adv-x="449" 
d="M353 -68l-343 795l86 37l343 -795z" />
    <glyph glyph-name="bracketright" unicode="]" horiz-adv-x="262" 
d="M202 -193h-162v84h65v757h-65v85h162v-926z" />
    <glyph glyph-name="asciicircum" unicode="^" horiz-adv-x="569" 
d="M50 304l195 398h74l200 -398h-120l-116 263l-117 -263h-116z" />
    <glyph glyph-name="underscore" unicode="_" horiz-adv-x="419" 
d="M0 -210v73h419v-73h-419z" />
    <glyph glyph-name="grave" unicode="`" horiz-adv-x="600" 
d="M272 515l-215 99l37 74l215 -98z" />
    <glyph glyph-name="a" unicode="a" horiz-adv-x="511" 
d="M216 -12q-86 0 -138.5 67t-52.5 178q0 110 52.5 177t138.5 67q94 0 133 -81v69h106v-465h-106v70q-39 -82 -133 -82zM240 82q53 0 82 39.5t29 111.5q0 71 -29 110.5t-82 39.5q-52 0 -80.5 -39t-28.5 -111t28.5 -111.5t80.5 -39.5z" />
    <glyph glyph-name="b" unicode="b" horiz-adv-x="511" 
d="M295 477q86 0 138 -67t52 -177q0 -111 -52 -178t-138 -67q-94 0 -133 82v-70h-107v700h106v-235h1v-69q39 81 133 81zM270 82q52 0 80.5 39.5t28.5 111.5t-28.5 111t-80.5 39t-81 -39.5t-29 -110.5q0 -72 29 -111.5t81 -39.5z" />
    <glyph glyph-name="c" unicode="c" horiz-adv-x="448" 
d="M231 -12q-97 0 -151.5 65t-54.5 180q0 112 55.5 178t150.5 66q91 0 141.5 -46.5t49.5 -130.5h-106q-6 85 -85 85q-47 0 -73.5 -40t-26.5 -112q0 -152 102 -152q75 0 84 79h106q-7 -83 -56.5 -127.5t-135.5 -44.5z" />
    <glyph glyph-name="d" unicode="d" horiz-adv-x="511" 
d="M454 465h1v-465h-106v70q-39 -82 -133 -82q-86 0 -138.5 67t-52.5 178q0 110 52.5 177t138.5 67q94 0 133 -81v44h-1v260h106v-235zM240 82q53 0 82 39.5t29 111.5q0 71 -29 110.5t-82 39.5q-52 0 -80.5 -39t-28.5 -111t28.5 -111.5t80.5 -39.5z" />
    <glyph glyph-name="e" unicode="e" horiz-adv-x="447" 
d="M422 265q0 -38 -4 -67h-290q2 -57 29 -88t77 -31q69 0 86 57h96q-10 -71 -56.5 -109.5t-125.5 -38.5q-100 0 -154.5 63.5t-54.5 179.5t54 181t150 65q94 0 143.5 -58t49.5 -154zM128 278h191q0 116 -91 116q-46 0 -72.5 -30.5t-27.5 -85.5z" />
    <glyph glyph-name="f" unicode="f" horiz-adv-x="283" 
d="M237 612q-50 0 -50 -64v-83h79v-88h-79v-377h-106v377h-66v88h66v92q0 72 37.5 110.5t99.5 38.5q25 0 50 -5v-93q-24 4 -31 4z" />
    <glyph glyph-name="g" unicode="g" horiz-adv-x="510" 
d="M349 465h105v-473q0 -125 -76 -179q-52 -35 -132 -35q-81 0 -136 41q-59 43 -64 118h107q4 -32 28.5 -52.5t67.5 -20.5q100 0 100 114v91q-40 -81 -133 -81q-86 0 -138.5 67t-52.5 178q0 110 52.5 177t138.5 67q94 0 133 -81v69zM240 83q53 0 82 39.5t29 110.5t-29 110.5
t-82 39.5q-52 0 -80.5 -39t-28.5 -111t28.5 -111t80.5 -39z" />
    <glyph glyph-name="h" unicode="h" horiz-adv-x="489" 
d="M297 477q142 0 142 -175v-302h-106v271q0 60 -18.5 88t-59.5 28q-88 0 -88 -132v-255h-107v700h106v-235h1v-67q37 79 130 79z" />
    <glyph glyph-name="i" unicode="i" horiz-adv-x="217" 
d="M109 535q-34 0 -56 21.5t-22 56.5t22 56t56 21t55.5 -21t21.5 -56t-21.5 -56.5t-55.5 -21.5zM55 0v465h107v-465h-107z" />
    <glyph glyph-name="j" unicode="j" horiz-adv-x="216" 
d="M108 535q-34 0 -56 21.5t-22 56.5t22 56t56 21t55.5 -21t21.5 -56t-21.5 -56.5t-55.5 -21.5zM40 -216q-33 0 -60 9v95q13 -4 36 -4q39 0 39 50v531h106v-543q0 -138 -121 -138z" />
    <glyph glyph-name="k" unicode="k" horiz-adv-x="453" 
d="M433 465l-160 -218l158 -247h-126l-139 226v-226h-106v700h106v-446l144 211h123z" />
    <glyph glyph-name="l" unicode="l" horiz-adv-x="227" 
d="M60 0v700h106v-700h-106z" />
    <glyph glyph-name="m" unicode="m" horiz-adv-x="726" 
d="M55 0v465h107v-66q30 78 119 78q96 0 121 -84q15 38 47.5 61t78.5 23q70 0 108.5 -45.5t38.5 -129.5v-302h-106v288q0 99 -69 99q-82 0 -82 -116v-271h-106v288q0 99 -69 99q-81 0 -81 -116v-271h-107z" />
    <glyph glyph-name="n" unicode="n" horiz-adv-x="484" 
d="M55 0v465h107v-67q37 79 130 79q142 0 142 -175v-302h-106v271q0 60 -18.5 88t-59.5 28q-88 0 -88 -132v-255h-107z" />
    <glyph glyph-name="o" unicode="o" horiz-adv-x="481" 
d="M240 -12q-99 0 -157 66t-58 179q0 112 58 178t157 66q100 0 158 -66t58 -178q0 -113 -58 -179t-158 -66zM240 82q53 0 81 39t28 112t-28 112t-81 39t-81 -39t-28 -112t28 -112t81 -39z" />
    <glyph glyph-name="p" unicode="p" horiz-adv-x="511" 
d="M295 477q86 0 138 -67t52 -177q0 -111 -52 -178t-138 -67q-94 0 -133 82v-280h-106v210h-1v465h107v-69q39 81 133 81zM270 82q52 0 80.5 39.5t28.5 111.5t-28.5 111t-80.5 39t-81 -39.5t-29 -110.5q0 -72 29 -111.5t81 -39.5z" />
    <glyph glyph-name="q" unicode="q" horiz-adv-x="511" 
d="M349 465h106v-675h-106v280q-39 -82 -133 -82q-86 0 -138.5 67t-52.5 178q0 110 52.5 177t138.5 67q94 0 133 -81v69zM240 82q53 0 82 39.5t29 111.5q0 71 -29 110.5t-82 39.5q-52 0 -80.5 -39t-28.5 -111t28.5 -111.5t80.5 -39.5z" />
    <glyph glyph-name="r" unicode="r" horiz-adv-x="315" 
d="M55 0v465h107v-100q9 50 38 78t70 28q10 0 24 -2v-108q-10 1 -22 1q-57 0 -83.5 -39t-26.5 -121v-202h-107z" />
    <glyph glyph-name="s" unicode="s" horiz-adv-x="398" 
d="M206 -12q-80 0 -130.5 45t-50.5 109h107q0 -30 21.5 -49.5t55.5 -19.5q29 0 45 15t16 41q0 41 -44 55l-91 28q-48 15 -73.5 49t-25.5 80q0 57 45.5 96.5t119.5 39.5q80 0 124 -40.5t44 -103.5h-106q0 63 -64 63q-27 0 -44.5 -13.5t-17.5 -35.5q0 -38 45 -53l95 -33
q46 -15 71 -48t25 -74q0 -68 -43 -109.5t-124 -41.5z" />
    <glyph glyph-name="t" unicode="t" horiz-adv-x="296" 
d="M240 91q13 0 31 3v-94q-32 -6 -60 -6q-63 0 -97.5 37t-34.5 105v241h-64v88h64v142h106v-142h80v-88h-80v-215q0 -71 55 -71z" />
    <glyph glyph-name="u" unicode="u" horiz-adv-x="482" 
d="M188 -12q-65 0 -101.5 46.5t-36.5 128.5v302h107v-280q0 -106 77 -106q42 0 64.5 31.5t22.5 90.5v264h106v-465h-106v67q-37 -79 -133 -79z" />
    <glyph glyph-name="v" unicode="v" horiz-adv-x="437" 
d="M176 0l-171 465h114l99 -309l100 309h114l-172 -465h-84z" />
    <glyph glyph-name="w" unicode="w" horiz-adv-x="631" 
d="M136 0l-131 465h109l70 -308l79 308h105l79 -308l69 308h109l-130 -465h-91l-89 336l-88 -336h-91z" />
    <glyph glyph-name="x" unicode="x" horiz-adv-x="423" 
d="M10 0l141 238l-140 227h116l84 -151l85 151h116l-141 -227l141 -238h-116l-85 160l-85 -160h-116z" />
    <glyph glyph-name="y" unicode="y" horiz-adv-x="482" 
d="M321 465h106v-470q0 -127 -68 -181q-47 -36 -122 -36q-81 0 -127 34q-58 42 -59 125h104q2 -34 23.5 -53.5t59.5 -19.5q43 0 63 29.5t20 93.5v80q-37 -79 -133 -79q-67 0 -102.5 48t-35.5 127v302h107v-280q0 -106 77 -106q42 0 64.5 31.5t22.5 90.5v264z" />
    <glyph glyph-name="z" unicode="z" horiz-adv-x="373" 
d="M10 0l198 372h-186v93h336l-192 -371h190v-94h-346z" />
    <glyph glyph-name="braceleft" unicode="{" horiz-adv-x="318" 
d="M248 -205q-53 0 -94.5 36.5t-41.5 102.5v197q0 46 -30.5 69.5t-61.5 23.5v87q31 0 61.5 22t30.5 64v213q0 66 41.5 102.5t94.5 36.5h65v-84h-49q-55 0 -55 -77v-205q0 -56 -32.5 -83.5t-66.5 -30.5q99 -16 99 -123v-190q0 -77 55 -77h49v-84h-65z" />
    <glyph glyph-name="bar" unicode="|" horiz-adv-x="203" 
d="M60 -192v925h82v-925h-82z" />
    <glyph glyph-name="braceright" unicode="}" horiz-adv-x="318" 
d="M70 -205h-65v84h49q55 0 55 77v190q0 107 99 123q-34 3 -66.5 30.5t-32.5 83.5v205q0 77 -55 77h-49v84h65q53 0 94.5 -36.5t41.5 -102.5v-213q0 -42 30.5 -64t61.5 -22v-87q-31 0 -61.5 -23.5t-30.5 -69.5v-197q0 -66 -41.5 -102.5t-94.5 -36.5z" />
    <glyph glyph-name="asciitilde" unicode="~" horiz-adv-x="546" 
d="M386 183q-43 0 -109 33q-66 35 -121 35q-49 0 -106 -55v91q45 58 110 58q41 0 118 -32q7 -3 23 -9.5t24.5 -10t21 -8t22 -6.5t17.5 -2q53 0 110 55v-91q-43 -58 -110 -58z" />
    <glyph glyph-name="uni00A0" unicode="&#xa0;" horiz-adv-x="175" 
 />
    <glyph glyph-name="exclamdown" unicode="&#xa1;" horiz-adv-x="278" 
d="M138 498q34 0 59 -25t25 -59t-24.5 -58t-59.5 -24q-34 0 -58 24t-24 58q0 35 24 59.5t58 24.5zM86 269h106v-479h-106v479z" />
    <glyph glyph-name="cent" unicode="&#xa2;" horiz-adv-x="448" 
d="M423 265q-12 -147 -149 -169v-96h-80v96q-80 12 -124.5 75.5t-44.5 166.5q0 101 45 164.5t124 76.5v101h80v-101q72 -11 110.5 -56t37.5 -118h-106q-6 85 -85 85q-47 0 -73.5 -40t-26.5 -112q0 -152 102 -152q75 0 84 79h106z" />
    <glyph glyph-name="sterling" unicode="&#xa3;" horiz-adv-x="485" 
d="M206 272q0 -52 -11 -101t-27 -71h288v-100h-416v73q55 41 55 176v71h-59v80h59v95q0 92 49 144.5t145 52.5q194 0 194 -198h-113q0 106 -82 106t-82 -105v-95h127v-80h-127v-48z" />
    <glyph glyph-name="currency" unicode="&#xa4;" horiz-adv-x="524" 
d="M98 101l-67 66l52 53q-37 62 -37 151q0 87 37 149l-51 52l66 67l52 -52q50 28 111 28q64 0 113 -29l52 52l67 -66l-53 -53q37 -60 37 -148q0 -89 -38 -150l53 -53l-66 -67l-54 54q-46 -28 -111 -28q-63 0 -110 28zM261 220q53 0 81.5 39.5t28.5 111.5t-28.5 111.5
t-81.5 39.5q-52 0 -80.5 -39.5t-28.5 -111.5t28.5 -111.5t80.5 -39.5z" />
    <glyph glyph-name="yen" unicode="&#xa5;" horiz-adv-x="482" 
d="M291 276v-4h131v-73h-131v-53h131v-73h-131v-73h-100v73h-131v73h131v53h-131v73h131v4l-185 404h121l114 -296l114 296h121z" />
    <glyph glyph-name="brokenbar" unicode="&#xa6;" horiz-adv-x="203" 
d="M60 333v400h82v-400h-82zM60 -192v417h82v-417h-82z" />
    <glyph glyph-name="section" unicode="&#xa7;" horiz-adv-x="514" 
d="M456 234q0 -92 -75 -136q59 -54 59 -147q0 -81 -52.5 -127t-140.5 -46q-95 0 -146 52.5t-51 139.5h113q0 -46 21.5 -73t63.5 -27q38 0 59 21.5t21 57.5q0 43 -28 72.5t-67.5 49t-79 41t-67.5 61.5t-28 98q0 89 70 133q-55 53 -55 139q0 81 52.5 127.5t140.5 46.5
q96 0 147 -53t51 -139h-113q0 46 -21.5 72.5t-63.5 26.5q-39 0 -59.5 -21t-20.5 -58q0 -42 28 -70.5t67.5 -47t79 -39t67.5 -59.5t28 -95zM166 277q0 -14 3 -26t12 -22.5t15.5 -17.5t22 -16.5t23 -13.5t28 -14t27.5 -14q51 25 51 75q0 14 -3.5 26t-12 22t-16 17.5t-23 16
t-24 13t-29 14t-28.5 13.5q-46 -25 -46 -73z" />
    <glyph glyph-name="dieresis" unicode="&#xa8;" horiz-adv-x="600" 
d="M119 541q-30 0 -49.5 18.5t-19.5 50.5q0 31 19.5 50t49.5 19t49.5 -19t19.5 -50q0 -32 -19.5 -50.5t-49.5 -18.5zM298 541q-30 0 -49.5 18.5t-19.5 50.5q0 31 19.5 50t49.5 19t49.5 -19t19.5 -50q0 -32 -19 -50.5t-50 -18.5z" />
    <glyph glyph-name="copyright" unicode="&#xa9;" horiz-adv-x="774" 
d="M387 -17q-165 0 -263.5 105t-98.5 262t98.5 262t263.5 105t263.5 -105t98.5 -262t-98.5 -262t-263.5 -105zM387 56q125 0 200.5 84.5t75.5 209.5t-75.5 209.5t-200.5 84.5t-200.5 -84.5t-75.5 -209.5t75.5 -209.5t200.5 -84.5zM393 146q-92 0 -147 59.5t-55 144.5
t55 144.5t147 59.5q76 0 122.5 -39.5t55.5 -102.5h-73q-7 35 -35 57.5t-71 22.5q-59 0 -94.5 -41.5t-35.5 -100.5t35.5 -100.5t94.5 -41.5q43 0 71 22.5t35 57.5h73q-9 -63 -55.5 -102.5t-122.5 -39.5z" />
    <glyph glyph-name="ordfeminine" unicode="&#xaa;" horiz-adv-x="325" 
d="M129 394q-53 0 -83.5 38.5t-30.5 102.5q0 65 30.5 104.5t83.5 39.5q57 0 80 -50v43h84v-272h-84v42q-22 -48 -80 -48zM156 463q26 0 40.5 19t14.5 53q0 35 -14.5 54t-40.5 19q-56 0 -56 -73q0 -72 56 -72z" />
    <glyph glyph-name="guillemotleft" unicode="&#xab;" horiz-adv-x="473" 
d="M203 65l-208 196l208 195l59 -61l-142 -134l142 -134zM414 65l-208 196l208 195l59 -61l-142 -134l142 -134z" />
    <glyph glyph-name="logicalnot" unicode="&#xac;" horiz-adv-x="484" 
d="M338 191v153h-298v94h404v-247h-106z" />
    <glyph glyph-name="uni00AD" unicode="&#xad;" horiz-adv-x="359" 
d="M40 217v94h279v-94h-279z" />
    <glyph glyph-name="registered" unicode="&#xae;" horiz-adv-x="592" 
d="M296 167q-124 0 -197.5 78.5t-73.5 196.5t73.5 196.5t197.5 78.5q123 0 197 -78.5t74 -196.5t-74 -196.5t-197 -78.5zM296 222q93 0 149.5 63t56.5 157t-56.5 157t-149.5 63q-94 0 -150.5 -63.5t-56.5 -156.5t56.5 -156.5t150.5 -63.5zM206 304v283h114q44 0 71.5 -29
t27.5 -71q0 -30 -16 -54.5t-45 -35.5l58 -93h-59l-51 86h-48v-86h-52zM259 435h57q22 0 35.5 15t13.5 37q0 23 -13 38.5t-36 15.5h-57v-106z" />
    <glyph glyph-name="macron" unicode="&#xaf;" horiz-adv-x="600" 
d="M50 557v83h257v-83h-257z" />
    <glyph glyph-name="degree" unicode="&#xb0;" horiz-adv-x="355" 
d="M178 378q-66 0 -111.5 45t-45.5 111q0 67 45 112.5t112 45.5q66 0 111.5 -45.5t45.5 -112.5q0 -65 -45.5 -110.5t-111.5 -45.5zM178 458q34 0 54 22t20 54q0 33 -20 55t-54 22q-35 0 -54.5 -22t-19.5 -55q0 -32 20 -54t54 -22z" />
    <glyph glyph-name="plusminus" unicode="&#xb1;" horiz-adv-x="484" 
d="M188 269v113h-148v94h148v114h107v-114h149v-94h-149v-113h-107zM40 124v95h404v-95h-404z" />
    <glyph glyph-name="uni00B2" unicode="&#xb2;" horiz-adv-x="346" 
d="M40 400q0 74 21 116t70 74l47 31q42 26 42 65q0 44 -39 44q-47 0 -47 -63h-88q0 64 36.5 100t101.5 36q63 0 96 -29.5t33 -81.5q0 -75 -73 -123l-39 -25q-27 -18 -39 -32t-17 -35h159v-77h-264z" />
    <glyph glyph-name="uni00B3" unicode="&#xb3;" horiz-adv-x="350" 
d="M174 391q-137 0 -137 136h89q0 -64 53 -64q20 0 31 14t11 39q0 52 -61 52h-31v70h33q53 0 53 51q0 46 -40 46q-20 0 -32 -14.5t-12 -39.5h-88q0 56 35.5 89t99.5 33q60 0 93 -29t33 -77q0 -37 -19 -61.5t-55 -31.5q38 -7 59 -33.5t21 -63.5q0 -50 -37 -83t-99 -33z" />
    <glyph glyph-name="acute" unicode="&#xb4;" horiz-adv-x="600" 
d="M87 515l-37 75l215 98l37 -74z" />
    <glyph glyph-name="uni00B5" unicode="&#xb5;" horiz-adv-x="487" 
d="M326 465h106v-465h-106v67q-37 -79 -133 -79q-16 0 -31 3v-201h-107v675h107v-280q0 -106 77 -106q42 0 64.5 31.5t22.5 90.5v264z" />
    <glyph glyph-name="paragraph" unicode="&#xb6;" horiz-adv-x="678" 
d="M266 -148v477q-97 0 -156.5 48.5t-59.5 142.5q0 50 18 87.5t44 58t62.5 32.5t65 15.5t59.5 3.5h329v-88h-53v-777h-100v776h-109v-776h-100z" />
    <glyph glyph-name="periodcentered" unicode="&#xb7;" horiz-adv-x="222" 
d="M111 233q-34 0 -57 22.5t-23 57.5t23 57.5t57 22.5t57 -22.5t23 -57.5t-23 -57.5t-57 -22.5z" />
    <glyph glyph-name="cedilla" unicode="&#xb8;" horiz-adv-x="600" 
d="M139 -216q-38 0 -61.5 19t-27.5 55h54q1 -13 11 -21t23 -8q37 0 37 43q0 41 -36 41q-21 0 -32 -17h-48v104h56v-59q13 11 41 11q32 0 54 -20.5t22 -58.5q0 -39 -24 -64t-69 -25z" />
    <glyph glyph-name="uni00B9" unicode="&#xb9;" horiz-adv-x="255" 
d="M99 400v251h-68v72q46 0 63 16.5t19 54.5h77v-394h-91z" />
    <glyph glyph-name="ordmasculine" unicode="&#xba;" horiz-adv-x="308" 
d="M154 393q-64 0 -101.5 38.5t-37.5 104.5q0 67 37 105t102 38t102 -38t37 -105q0 -66 -37.5 -104.5t-101.5 -38.5zM154 463q55 0 55 73t-55 73q-26 0 -41 -19t-15 -54q0 -73 56 -73z" />
    <glyph glyph-name="guillemotright" unicode="&#xbb;" horiz-adv-x="473" 
d="M59 65l-59 62l142 134l-142 134l59 61l208 -195zM270 65l-59 62l142 134l-142 134l59 61l208 -195z" />
    <glyph glyph-name="onequarter" unicode="&#xbc;" horiz-adv-x="736" 
d="M497 717l67 -35l-422 -714l-68 35zM99 283v251h-68v72q46 0 63 16.5t19 54.5h77v-394h-91zM704 187v-76h-46v-111h-84v111h-142v283h85v-207h57v99h84v-99h46z" />
    <glyph glyph-name="onehalf" unicode="&#xbd;" horiz-adv-x="702" 
d="M142 -32l-68 35l423 714l67 -35zM99 283v251h-68v72q46 0 63 16.5t19 54.5h77v-394h-91zM396 0q0 74 21 116t70 74l47 31q42 26 42 65q0 44 -39 44q-47 0 -47 -63h-88q0 64 36.5 100t101.5 36q63 0 96 -29.5t33 -81.5q0 -75 -73 -123l-39 -25q-27 -18 -39 -32t-17 -35
h159v-77h-264z" />
    <glyph glyph-name="threequarters" unicode="&#xbe;" horiz-adv-x="821" 
d="M582 717l67 -35l-422 -714l-68 35zM310 393q0 -50 -37 -83t-99 -33q-137 0 -137 136h89q0 -64 53 -64q20 0 31 14t11 39q0 52 -61 52h-31v70h33q53 0 53 51q0 46 -40 46q-20 0 -32 -14.5t-12 -39.5h-88q0 56 35.5 89t99.5 33q60 0 93 -29t33 -77q0 -37 -19 -61.5
t-55 -31.5q38 -7 59 -33.5t21 -63.5zM789 187v-76h-46v-111h-84v111h-142v283h85v-207h57v99h84v-99h46z" />
    <glyph glyph-name="questiondown" unicode="&#xbf;" horiz-adv-x="435" 
d="M238 527q37 0 60.5 -23.5t23.5 -60.5q0 -36 -23.5 -59.5t-60.5 -23.5t-60 23.5t-23 59.5q0 37 23 60.5t60 23.5zM292 298v-12q0 -53 -13 -84t-49 -65l-43 -41q-49 -48 -49 -111q0 -42 21 -64t57 -22q39 0 62.5 24.5t23.5 72.5h112q0 -94 -51.5 -144t-145.5 -50
q-92 0 -143.5 48.5t-51.5 129.5q0 85 69 159l43 41q30 29 41 50.5t11 53.5v14h106z" />
    <glyph glyph-name="Agrave" unicode="&#xc0;" 
d="M380 803l-36 -71l-205 93l36 71zM406 0l-30 117h-213l-30 -117h-118l210 700h89l210 -700h-118zM188 215h163l-81 321z" />
    <glyph glyph-name="Aacute" unicode="&#xc1;" 
d="M405 825l-205 -93l-36 71l205 93zM406 0l-30 117h-213l-30 -117h-118l210 700h89l210 -700h-118zM188 215h163l-81 321z" />
    <glyph glyph-name="Acircumflex" unicode="&#xc2;" 
d="M271 810l-85 -77l-56 49l141 119l140 -119l-56 -49zM406 0l-30 117h-213l-30 -117h-118l210 700h89l210 -700h-118zM188 215h163l-81 321z" />
    <glyph glyph-name="Atilde" unicode="&#xc3;" 
d="M209 787q-27 0 -51 -30l-41 49q42 59 98 59q28 0 61 -22.5t48 -22.5q26 0 50 32l41 -48q-40 -62 -97 -62q-28 0 -60.5 22.5t-48.5 22.5zM406 0l-30 117h-213l-30 -117h-118l210 700h89l210 -700h-118zM188 215h163l-81 321z" />
    <glyph glyph-name="Adieresis" unicode="&#xc4;" 
d="M179 743q-31 0 -51.5 20t-20.5 52t20.5 52t51.5 20t51.5 -20t20.5 -52t-20.5 -52t-51.5 -20zM360 743q-31 0 -51.5 20t-20.5 52t20.5 52t51.5 20t51.5 -20t20.5 -52t-20.5 -52t-51.5 -20zM406 0l-30 117h-213l-30 -117h-118l210 700h89l210 -700h-118zM188 215h163
l-81 321z" />
    <glyph glyph-name="Aring" unicode="&#xc5;" 
d="M406 0l-30 117h-213l-30 -117h-118l202 674q-31 14 -49 42t-18 63q0 50 34 83.5t86 33.5t86.5 -33.5t34.5 -83.5q0 -36 -18.5 -64t-50.5 -42l202 -673h-118zM270 837q-26 0 -42 -16t-16 -42q0 -25 16 -41.5t42 -16.5t42 16t16 42t-16 42t-42 16zM188 215h163l-81 321z
" />
    <glyph glyph-name="AE" unicode="&#xc6;" horiz-adv-x="710" 
d="M660 601h-206v-200h206v-100h-206v-202h206v-99h-312v147h-174l-57 -147h-112l294 700h361v-99zM210 240h138v354z" />
    <glyph glyph-name="Ccedilla" unicode="&#xc7;" horiz-adv-x="561" 
d="M289 84q60 0 88 38t33 117h119q-11 -238 -213 -255v-43q13 11 41 11q32 0 54 -20.5t22 -58.5q0 -39 -24 -64t-69 -25q-38 0 -61.5 19t-27.5 55h54q1 -13 11 -21t23 -8q37 0 37 43q0 41 -36 41q-21 0 -32 -17h-48v88q-116 10 -175.5 104t-59.5 262q0 178 67 272.5
t196 94.5q113 0 174 -65t67 -191h-119q-5 79 -33 117t-88 38q-77 0 -112 -66.5t-35 -199.5t35 -199.5t112 -66.5z" />
    <glyph glyph-name="Egrave" unicode="&#xc8;" horiz-adv-x="462" 
d="M317 732l-205 93l36 71l205 -93zM60 0v700h352v-99h-241v-200h241v-100h-241v-202h241v-99h-352z" />
    <glyph glyph-name="Eacute" unicode="&#xc9;" horiz-adv-x="462" 
d="M173 732l-36 71l205 93l36 -71zM60 0v700h352v-99h-241v-200h241v-100h-241v-202h241v-99h-352z" />
    <glyph glyph-name="Ecircumflex" unicode="&#xca;" horiz-adv-x="462" 
d="M244 901l140 -119l-56 -49l-84 77l-85 -77l-56 49zM60 0v700h352v-99h-241v-200h241v-100h-241v-202h241v-99h-352z" />
    <glyph glyph-name="Edieresis" unicode="&#xcb;" horiz-adv-x="462" 
d="M152 743q-31 0 -51.5 20t-20.5 52t20.5 52t51.5 20t51.5 -20t20.5 -52t-20.5 -52t-51.5 -20zM333 743q-31 0 -51.5 20t-20.5 52t20.5 52t51.5 20t51.5 -20t20.5 -52t-20.5 -52t-51.5 -20zM60 0v700h352v-99h-241v-200h241v-100h-241v-202h241v-99h-352z" />
    <glyph glyph-name="Igrave" unicode="&#xcc;" horiz-adv-x="232" 
d="M169 737l-155 92l44 65l155 -93zM60 0v700h111v-700h-111z" />
    <glyph glyph-name="Iacute" unicode="&#xcd;" horiz-adv-x="232" 
d="M73 732l-44 64l155 93l44 -65zM60 0v700h111v-700h-111z" />
    <glyph glyph-name="Icircumflex" unicode="&#xce;" horiz-adv-x="232" 
d="M184 739l-68 56l-67 -56l-48 52l115 94l116 -94zM60 0v700h111v-700h-111z" />
    <glyph glyph-name="Idieresis" unicode="&#xcf;" horiz-adv-x="232" 
d="M38 744q-29 0 -49 19.5t-20 49.5t20 49.5t49 19.5t49 -19.5t20 -49.5t-20 -49.5t-49 -19.5zM194 744q-30 0 -49.5 19.5t-19.5 49.5t19.5 49.5t49.5 19.5q29 0 49 -19.5t20 -49.5t-20 -49.5t-49 -19.5zM60 0v700h111v-700h-111z" />
    <glyph glyph-name="Eth" unicode="&#xd0;" horiz-adv-x="563" 
d="M256 700q131 0 206.5 -94.5t75.5 -255.5q0 -159 -78 -254.5t-214 -95.5h-186v303h-62v95h62v302h196zM249 99q84 0 128 63t44 188t-44 188t-128 63h-78v-203h140v-95h-140v-204h78z" />
    <glyph glyph-name="Ntilde" unicode="&#xd1;" horiz-adv-x="561" 
d="M333 742q-28 0 -60.5 22.5t-48.5 22.5q-27 0 -51 -30l-41 49q42 59 98 59q28 0 61 -22.5t48 -22.5q26 0 50 32l41 -48q-40 -62 -97 -62zM60 0v700h104l235 -509v509h101v-700h-103l-235 489v-489h-102z" />
    <glyph glyph-name="Ograve" unicode="&#xd2;" horiz-adv-x="602" 
d="M375 732l-205 93l36 71l205 -93zM301 -17q-134 0 -205 94.5t-71 272.5t71 272.5t205 94.5t205 -94.5t71 -272.5t-71 -272.5t-205 -94.5zM301 84q159 0 159 266t-159 266t-159 -266t159 -266z" />
    <glyph glyph-name="Oacute" unicode="&#xd3;" horiz-adv-x="602" 
d="M231 732l-36 71l205 93l36 -71zM301 -17q-134 0 -205 94.5t-71 272.5t71 272.5t205 94.5t205 -94.5t71 -272.5t-71 -272.5t-205 -94.5zM301 84q159 0 159 266t-159 266t-159 -266t159 -266z" />
    <glyph glyph-name="Ocircumflex" unicode="&#xd4;" horiz-adv-x="602" 
d="M302 901l140 -119l-56 -49l-84 77l-85 -77l-56 49zM301 -17q-134 0 -205 94.5t-71 272.5t71 272.5t205 94.5t205 -94.5t71 -272.5t-71 -272.5t-205 -94.5zM301 84q159 0 159 266t-159 266t-159 -266t159 -266z" />
    <glyph glyph-name="Otilde" unicode="&#xd5;" horiz-adv-x="602" 
d="M349 742q-28 0 -60.5 22.5t-48.5 22.5q-27 0 -51 -30l-41 49q42 59 98 59q28 0 61 -22.5t48 -22.5q26 0 50 32l41 -48q-40 -62 -97 -62zM301 -17q-134 0 -205 94.5t-71 272.5t71 272.5t205 94.5t205 -94.5t71 -272.5t-71 -272.5t-205 -94.5zM301 84q159 0 159 266
t-159 266t-159 -266t159 -266z" />
    <glyph glyph-name="Odieresis" unicode="&#xd6;" horiz-adv-x="602" 
d="M210 743q-31 0 -51.5 20t-20.5 52t20.5 52t51.5 20t51.5 -20t20.5 -52t-20.5 -52t-51.5 -20zM391 743q-31 0 -51.5 20t-20.5 52t20.5 52t51.5 20t51.5 -20t20.5 -52t-20.5 -52t-51.5 -20zM301 -17q-134 0 -205 94.5t-71 272.5t71 272.5t205 94.5t205 -94.5t71 -272.5
t-71 -272.5t-205 -94.5zM301 84q159 0 159 266t-159 266t-159 -266t159 -266z" />
    <glyph glyph-name="multiply" unicode="&#xd7;" horiz-adv-x="443" 
d="M403 422l-111 -111l107 -107l-68 -66l-105 107l-111 -111l-75 75l111 111l-106 105l66 67l106 -106l111 111z" />
    <glyph glyph-name="Oslash" unicode="&#xd8;" horiz-adv-x="602" 
d="M474 657q103 -91 103 -307q0 -178 -71 -272.5t-205 -94.5q-71 0 -125 27l-29 -63l-52 19l35 75q-105 91 -105 309q0 178 71 272.5t205 94.5q71 0 127 -28l29 63l52 -19zM142 350q0 -130 39 -197l202 438q-34 25 -82 25q-159 0 -159 -266zM301 84q159 0 159 266
q0 127 -38 195l-201 -437q33 -24 80 -24z" />
    <glyph glyph-name="Ugrave" unicode="&#xd9;" horiz-adv-x="562" 
d="M355 732l-205 93l36 71l205 -93zM280 -17q-105 0 -167.5 65.5t-62.5 184.5v467h113v-458q0 -75 32 -116.5t85 -41.5q54 0 86.5 41.5t32.5 116.5v458h113v-467q0 -120 -62.5 -185t-169.5 -65z" />
    <glyph glyph-name="Uacute" unicode="&#xda;" horiz-adv-x="562" 
d="M211 732l-36 71l205 93l36 -71zM280 -17q-105 0 -167.5 65.5t-62.5 184.5v467h113v-458q0 -75 32 -116.5t85 -41.5q54 0 86.5 41.5t32.5 116.5v458h113v-467q0 -120 -62.5 -185t-169.5 -65z" />
    <glyph glyph-name="Ucircumflex" unicode="&#xdb;" horiz-adv-x="562" 
d="M282 901l140 -119l-56 -49l-84 77l-85 -77l-56 49zM280 -17q-105 0 -167.5 65.5t-62.5 184.5v467h113v-458q0 -75 32 -116.5t85 -41.5q54 0 86.5 41.5t32.5 116.5v458h113v-467q0 -120 -62.5 -185t-169.5 -65z" />
    <glyph glyph-name="Udieresis" unicode="&#xdc;" horiz-adv-x="562" 
d="M190 743q-31 0 -51.5 20t-20.5 52t20.5 52t51.5 20t51.5 -20t20.5 -52t-20.5 -52t-51.5 -20zM371 743q-31 0 -51.5 20t-20.5 52t20.5 52t51.5 20t51.5 -20t20.5 -52t-20.5 -52t-51.5 -20zM280 -17q-105 0 -167.5 65.5t-62.5 184.5v467h113v-458q0 -75 32 -116.5t85 -41.5
q54 0 86.5 41.5t32.5 116.5v458h113v-467q0 -120 -62.5 -185t-169.5 -65z" />
    <glyph glyph-name="Yacute" unicode="&#xdd;" horiz-adv-x="476" 
d="M388 825l-205 -93l-36 71l205 93zM375 700h116l-295 -700h-117l111 262l-190 438h119l131 -313z" />
    <glyph glyph-name="Thorn" unicode="&#xde;" horiz-adv-x="496" 
d="M264 594q100 0 161 -71t61 -173t-61 -173t-161 -71h-92v-106h-112v700h112v-106h92zM257 206q51 0 84 42t33 102t-33 102t-84 42h-85v-288h85z" />
    <glyph glyph-name="germandbls" unicode="&#xdf;" horiz-adv-x="490" 
d="M257 -12q-39 0 -63 8v92q26 -6 50 -6q53 0 81.5 30.5t28.5 87.5q0 61 -32 90t-86 29h-39v95h36q48 0 76 27t28 80q0 48 -23.5 74.5t-63.5 26.5q-88 0 -88 -108v-514h-106v514q0 96 51.5 149.5t145.5 53.5q87 0 138.5 -46.5t51.5 -133.5q0 -66 -33.5 -110.5t-95.5 -56.5
q67 -8 106.5 -56.5t39.5 -130.5q0 -89 -56 -142t-147 -53z" />
    <glyph glyph-name="agrave" unicode="&#xe0;" horiz-adv-x="511" 
d="M317 515l-215 99l37 74l215 -98zM216 -12q-86 0 -138.5 67t-52.5 178q0 110 52.5 177t138.5 67q94 0 133 -81v69h106v-465h-106v70q-39 -82 -133 -82zM240 82q53 0 82 39.5t29 111.5q0 71 -29 110.5t-82 39.5q-52 0 -80.5 -39t-28.5 -111t28.5 -111.5t80.5 -39.5z" />
    <glyph glyph-name="aacute" unicode="&#xe1;" horiz-adv-x="511" 
d="M147 515l-37 75l215 98l37 -74zM216 -12q-86 0 -138.5 67t-52.5 178q0 110 52.5 177t138.5 67q94 0 133 -81v69h106v-465h-106v70q-39 -82 -133 -82zM240 82q53 0 82 39.5t29 111.5q0 71 -29 110.5t-82 39.5q-52 0 -80.5 -39t-28.5 -111t28.5 -111.5t80.5 -39.5z" />
    <glyph glyph-name="acircumflex" unicode="&#xe2;" horiz-adv-x="511" 
d="M240 689l144 -132l-56 -52l-88 82l-87 -82l-56 52zM216 -12q-86 0 -138.5 67t-52.5 178q0 110 52.5 177t138.5 67q94 0 133 -81v69h106v-465h-106v70q-39 -82 -133 -82zM240 82q53 0 82 39.5t29 111.5q0 71 -29 110.5t-82 39.5q-52 0 -80.5 -39t-28.5 -111t28.5 -111.5
t80.5 -39.5z" />
    <glyph glyph-name="atilde" unicode="&#xe3;" horiz-adv-x="511" 
d="M296 527q-30 0 -64 22t-50 22q-22 0 -55 -33l-38 50q47 65 98 65q30 0 64 -22t50 -22q22 0 55 33l38 -50q-45 -65 -98 -65zM216 -12q-86 0 -138.5 67t-52.5 178q0 110 52.5 177t138.5 67q94 0 133 -81v69h106v-465h-106v70q-39 -82 -133 -82zM240 82q53 0 82 39.5
t29 111.5q0 71 -29 110.5t-82 39.5q-52 0 -80.5 -39t-28.5 -111t28.5 -111.5t80.5 -39.5z" />
    <glyph glyph-name="adieresis" unicode="&#xe4;" horiz-adv-x="511" 
d="M150 541q-30 0 -49.5 18.5t-19.5 50.5q0 31 19.5 50t49.5 19t49.5 -19t19.5 -50q0 -32 -19.5 -50.5t-49.5 -18.5zM329 541q-30 0 -49.5 18.5t-19.5 50.5q0 31 19.5 50t49.5 19t49.5 -19t19.5 -50q0 -32 -19 -50.5t-50 -18.5zM216 -12q-86 0 -138.5 67t-52.5 178
q0 110 52.5 177t138.5 67q94 0 133 -81v69h106v-465h-106v70q-39 -82 -133 -82zM240 82q53 0 82 39.5t29 111.5q0 71 -29 110.5t-82 39.5q-52 0 -80.5 -39t-28.5 -111t28.5 -111.5t80.5 -39.5z" />
    <glyph glyph-name="aring" unicode="&#xe5;" horiz-adv-x="511" 
d="M240 502q-48 0 -80.5 31t-32.5 79t32.5 79t80.5 31q49 0 81.5 -31t32.5 -79t-32.5 -79t-81.5 -31zM240 556q24 0 39 15.5t15 40.5t-15 40.5t-39 15.5q-23 0 -38.5 -15.5t-15.5 -40.5t15.5 -40.5t38.5 -15.5zM216 -12q-86 0 -138.5 67t-52.5 178q0 110 52.5 177t138.5 67
q94 0 133 -81v69h106v-465h-106v70q-39 -82 -133 -82zM240 82q53 0 82 39.5t29 111.5q0 71 -29 110.5t-82 39.5q-52 0 -80.5 -39t-28.5 -111t28.5 -111.5t80.5 -39.5z" />
    <glyph glyph-name="ae" unicode="&#xe6;" horiz-adv-x="702" 
d="M676 254q0 -28 -4 -53h-279q2 -57 27.5 -90t72.5 -33q61 0 77 65h100q-9 -73 -54 -114t-122 -41q-103 0 -150 72q-46 -72 -149 -72q-81 0 -125.5 38.5t-44.5 106.5q0 65 42 101q49 43 149 43h85v39q0 37 -22 57.5t-61 20.5q-72 0 -80 -73h-101q5 74 51.5 115t129.5 41
q96 0 137 -60q48 60 134 60q90 0 138.5 -62t48.5 -161zM393 277h179q0 117 -84 117q-44 0 -69.5 -31.5t-25.5 -85.5zM301 180v21h-71q-97 0 -97 -67q0 -65 71 -65q46 0 71.5 29.5t25.5 81.5z" />
    <glyph glyph-name="ccedilla" unicode="&#xe7;" horiz-adv-x="448" 
d="M300 -48q32 0 54 -20.5t22 -58.5q0 -39 -24 -64t-69 -25q-38 0 -61.5 19t-27.5 55h54q1 -13 11 -21t23 -8q37 0 37 43q0 41 -36 41q-21 0 -32 -17h-48v94q-85 9 -131.5 72.5t-46.5 170.5q0 112 55.5 178t150.5 66q91 0 141.5 -46.5t49.5 -130.5h-106q-6 85 -85 85
q-47 0 -73.5 -40t-26.5 -112q0 -152 102 -152q75 0 84 79h106q-6 -76 -48 -119.5t-116 -51.5v-48q13 11 41 11z" />
    <glyph glyph-name="egrave" unicode="&#xe8;" horiz-adv-x="447" 
d="M346 590l-37 -75l-215 99l37 74zM422 265q0 -38 -4 -67h-290q2 -57 29 -88t77 -31q69 0 86 57h96q-10 -71 -56.5 -109.5t-125.5 -38.5q-100 0 -154.5 63.5t-54.5 179.5t54 181t150 65q94 0 143.5 -58t49.5 -154zM128 278h191q0 116 -91 116q-46 0 -72.5 -30.5
t-27.5 -85.5z" />
    <glyph glyph-name="eacute" unicode="&#xe9;" horiz-adv-x="447" 
d="M354 614l-215 -99l-37 75l215 98zM422 265q0 -38 -4 -67h-290q2 -57 29 -88t77 -31q69 0 86 57h96q-10 -71 -56.5 -109.5t-125.5 -38.5q-100 0 -154.5 63.5t-54.5 179.5t54 181t150 65q94 0 143.5 -58t49.5 -154zM128 278h191q0 116 -91 116q-46 0 -72.5 -30.5
t-27.5 -85.5z" />
    <glyph glyph-name="ecircumflex" unicode="&#xea;" horiz-adv-x="447" 
d="M232 587l-87 -82l-56 52l143 132l144 -132l-56 -52zM422 265q0 -38 -4 -67h-290q2 -57 29 -88t77 -31q69 0 86 57h96q-10 -71 -56.5 -109.5t-125.5 -38.5q-100 0 -154.5 63.5t-54.5 179.5t54 181t150 65q94 0 143.5 -58t49.5 -154zM128 278h191q0 116 -91 116
q-46 0 -72.5 -30.5t-27.5 -85.5z" />
    <glyph glyph-name="edieresis" unicode="&#xeb;" horiz-adv-x="447" 
d="M142 541q-30 0 -49.5 18.5t-19.5 50.5q0 31 19.5 50t49.5 19t49.5 -19t19.5 -50q0 -32 -19.5 -50.5t-49.5 -18.5zM321 541q-30 0 -49.5 18.5t-19.5 50.5q0 31 19.5 50t49.5 19t49.5 -19t19.5 -50q0 -32 -19 -50.5t-50 -18.5zM422 265q0 -38 -4 -67h-290q2 -57 29 -88
t77 -31q69 0 86 57h96q-10 -71 -56.5 -109.5t-125.5 -38.5q-100 0 -154.5 63.5t-54.5 179.5t54 181t150 65q94 0 143.5 -58t49.5 -154zM128 278h191q0 116 -91 116q-46 0 -72.5 -30.5t-27.5 -85.5z" />
    <glyph glyph-name="igrave" unicode="&#xec;" horiz-adv-x="217" 
d="M152 526l-151 106l47 59l151 -106zM55 0v465h107v-465h-107z" />
    <glyph glyph-name="iacute" unicode="&#xed;" horiz-adv-x="217" 
d="M66 526l-47 59l151 106l47 -59zM55 0v465h107v-465h-107z" />
    <glyph glyph-name="icircumflex" unicode="&#xee;" horiz-adv-x="217" 
d="M37 514l-53 51l125 114l125 -114l-53 -51l-72 66zM55 0v465h107v-465h-107z" />
    <glyph glyph-name="idieresis" unicode="&#xef;" horiz-adv-x="217" 
d="M38 543q-26 0 -44 18.5t-18 43.5q0 26 18 44.5t44 18.5t44.5 -18.5t18.5 -44.5t-18.5 -44t-44.5 -18zM178 543q-25 0 -43.5 18.5t-18.5 43.5q0 26 18.5 44.5t43.5 18.5q27 0 45 -18.5t18 -44.5t-18 -44t-45 -18zM55 0v465h107v-465h-107z" />
    <glyph glyph-name="eth" unicode="&#xf0;" horiz-adv-x="481" 
d="M425 372q31 -59 31 -139q0 -113 -58 -179t-158 -66q-99 0 -157 66t-58 179q0 112 58 178t157 66q13 0 19 -1l-44 77l-65 -36l-34 60l65 35l-51 88h120l21 -39l50 27l33 -58l-51 -28l126 -230h-4zM240 82q53 0 81 39t28 112t-28 112t-81 39t-81 -39t-28 -112t28 -112
t81 -39z" />
    <glyph glyph-name="ntilde" unicode="&#xf1;" horiz-adv-x="484" 
d="M312 527q-30 0 -64 22t-50 22q-22 0 -55 -33l-38 50q47 65 98 65q30 0 64 -22t50 -22q22 0 55 33l38 -50q-45 -65 -98 -65zM55 0v465h107v-67q37 79 130 79q142 0 142 -175v-302h-106v271q0 60 -18.5 88t-59.5 28q-88 0 -88 -132v-255h-107z" />
    <glyph glyph-name="ograve" unicode="&#xf2;" horiz-adv-x="481" 
d="M317 515l-215 99l37 74l215 -98zM240 -12q-99 0 -157 66t-58 179q0 112 58 178t157 66q100 0 158 -66t58 -178q0 -113 -58 -179t-158 -66zM240 82q53 0 81 39t28 112t-28 112t-81 39t-81 -39t-28 -112t28 -112t81 -39z" />
    <glyph glyph-name="oacute" unicode="&#xf3;" horiz-adv-x="481" 
d="M147 515l-37 75l215 98l37 -74zM240 -12q-99 0 -157 66t-58 179q0 112 58 178t157 66q100 0 158 -66t58 -178q0 -113 -58 -179t-158 -66zM240 82q53 0 81 39t28 112t-28 112t-81 39t-81 -39t-28 -112t28 -112t81 -39z" />
    <glyph glyph-name="ocircumflex" unicode="&#xf4;" horiz-adv-x="481" 
d="M240 689l144 -132l-56 -52l-88 82l-87 -82l-56 52zM240 -12q-99 0 -157 66t-58 179q0 112 58 178t157 66q100 0 158 -66t58 -178q0 -113 -58 -179t-158 -66zM240 82q53 0 81 39t28 112t-28 112t-81 39t-81 -39t-28 -112t28 -112t81 -39z" />
    <glyph glyph-name="otilde" unicode="&#xf5;" horiz-adv-x="481" 
d="M296 527q-30 0 -64 22t-50 22q-22 0 -55 -33l-38 50q47 65 98 65q30 0 64 -22t50 -22q22 0 55 33l38 -50q-45 -65 -98 -65zM240 -12q-99 0 -157 66t-58 179q0 112 58 178t157 66q100 0 158 -66t58 -178q0 -113 -58 -179t-158 -66zM240 82q53 0 81 39t28 112t-28 112
t-81 39t-81 -39t-28 -112t28 -112t81 -39z" />
    <glyph glyph-name="odieresis" unicode="&#xf6;" horiz-adv-x="481" 
d="M150 541q-30 0 -49.5 18.5t-19.5 50.5q0 31 19.5 50t49.5 19t49.5 -19t19.5 -50q0 -32 -19.5 -50.5t-49.5 -18.5zM329 541q-30 0 -49.5 18.5t-19.5 50.5q0 31 19.5 50t49.5 19t49.5 -19t19.5 -50q0 -32 -19 -50.5t-50 -18.5zM240 -12q-99 0 -157 66t-58 179q0 112 58 178
t157 66q100 0 158 -66t58 -178q0 -113 -58 -179t-158 -66zM240 82q53 0 81 39t28 112t-28 112t-81 39t-81 -39t-28 -112t28 -112t81 -39z" />
    <glyph glyph-name="divide" unicode="&#xf7;" horiz-adv-x="484" 
d="M242 399q-32 0 -55.5 23.5t-23.5 55.5q0 33 23.5 56t55.5 23q33 0 56.5 -23t23.5 -56q0 -32 -23.5 -55.5t-56.5 -23.5zM40 263v95h404v-95h-404zM242 73q-32 0 -55.5 23t-23.5 55q0 33 23.5 56.5t55.5 23.5q33 0 56.5 -23.5t23.5 -56.5q0 -32 -23.5 -55t-56.5 -23z" />
    <glyph glyph-name="oslash" unicode="&#xf8;" horiz-adv-x="481" 
d="M367 439q89 -64 89 -206q0 -113 -58 -179t-158 -66q-35 0 -65 9l-21 -49l-51 18l23 52q-101 62 -101 215q0 112 58 178t157 66q42 0 79 -13l24 54l51 -17zM131 233q0 -82 36 -121l114 264q-19 8 -41 8q-53 0 -81 -39t-28 -112zM240 82q53 0 81 39t28 112q0 70 -25 107
l-111 -255q13 -3 27 -3z" />
    <glyph glyph-name="ugrave" unicode="&#xf9;" horiz-adv-x="482" 
d="M319 515l-215 99l37 74l215 -98zM188 -12q-65 0 -101.5 46.5t-36.5 128.5v302h107v-280q0 -106 77 -106q42 0 64.5 31.5t22.5 90.5v264h106v-465h-106v67q-37 -79 -133 -79z" />
    <glyph glyph-name="uacute" unicode="&#xfa;" horiz-adv-x="482" 
d="M149 515l-37 75l215 98l37 -74zM188 -12q-65 0 -101.5 46.5t-36.5 128.5v302h107v-280q0 -106 77 -106q42 0 64.5 31.5t22.5 90.5v264h106v-465h-106v67q-37 -79 -133 -79z" />
    <glyph glyph-name="ucircumflex" unicode="&#xfb;" horiz-adv-x="482" 
d="M242 689l144 -132l-56 -52l-88 82l-87 -82l-56 52zM188 -12q-65 0 -101.5 46.5t-36.5 128.5v302h107v-280q0 -106 77 -106q42 0 64.5 31.5t22.5 90.5v264h106v-465h-106v67q-37 -79 -133 -79z" />
    <glyph glyph-name="udieresis" unicode="&#xfc;" horiz-adv-x="482" 
d="M152 541q-30 0 -49.5 18.5t-19.5 50.5q0 31 19.5 50t49.5 19t49.5 -19t19.5 -50q0 -32 -19.5 -50.5t-49.5 -18.5zM331 541q-30 0 -49.5 18.5t-19.5 50.5q0 31 19.5 50t49.5 19t49.5 -19t19.5 -50q0 -32 -19 -50.5t-50 -18.5zM188 -12q-65 0 -101.5 46.5t-36.5 128.5v302
h107v-280q0 -106 77 -106q42 0 64.5 31.5t22.5 90.5v264h106v-465h-106v67q-37 -79 -133 -79z" />
    <glyph glyph-name="yacute" unicode="&#xfd;" horiz-adv-x="482" 
d="M148 515l-37 75l215 98l37 -74zM321 465h106v-470q0 -127 -68 -181q-47 -36 -122 -36q-81 0 -127 34q-58 42 -59 125h104q2 -34 23.5 -53.5t59.5 -19.5q43 0 63 29.5t20 93.5v80q-37 -79 -133 -79q-67 0 -102.5 48t-35.5 127v302h107v-280q0 -106 77 -106q42 0 64.5 31.5
t22.5 90.5v264z" />
    <glyph glyph-name="thorn" unicode="&#xfe;" horiz-adv-x="511" 
d="M295 477q86 0 138 -67t52 -177q0 -111 -52 -178t-138 -67q-94 0 -133 82v-280h-106v210h-1v700h106v-235h1v-69q39 81 133 81zM270 82q52 0 80.5 39.5t28.5 111.5t-28.5 111t-80.5 39t-81 -39.5t-29 -110.5q0 -72 29 -111.5t81 -39.5z" />
    <glyph glyph-name="ydieresis" unicode="&#xff;" horiz-adv-x="482" 
d="M151 541q-30 0 -49.5 18.5t-19.5 50.5q0 31 19.5 50t49.5 19t49.5 -19t19.5 -50q0 -32 -19.5 -50.5t-49.5 -18.5zM330 541q-30 0 -49.5 18.5t-19.5 50.5q0 31 19.5 50t49.5 19t49.5 -19t19.5 -50q0 -32 -19 -50.5t-50 -18.5zM321 465h106v-470q0 -127 -68 -181
q-47 -36 -122 -36q-81 0 -127 34q-58 42 -59 125h104q2 -34 23.5 -53.5t59.5 -19.5q43 0 63 29.5t20 93.5v80q-37 -79 -133 -79q-67 0 -102.5 48t-35.5 127v302h107v-280q0 -106 77 -106q42 0 64.5 31.5t22.5 90.5v264z" />
    <glyph glyph-name="Amacron" unicode="&#x100;" 
d="M410 848v-84h-279v84h279zM406 0l-30 117h-213l-30 -117h-118l210 700h89l210 -700h-118zM188 215h163l-81 321z" />
    <glyph glyph-name="amacron" unicode="&#x101;" horiz-adv-x="511" 
d="M111 557v83h257v-83h-257zM216 -12q-86 0 -138.5 67t-52.5 178q0 110 52.5 177t138.5 67q94 0 133 -81v69h106v-465h-106v70q-39 -82 -133 -82zM240 82q53 0 82 39.5t29 111.5q0 71 -29 110.5t-82 39.5q-52 0 -80.5 -39t-28.5 -111t28.5 -111.5t80.5 -39.5z" />
    <glyph glyph-name="Abreve" unicode="&#x102;" 
d="M270 736q-66 0 -106.5 37.5t-42.5 99.5h87q1 -29 17 -46.5t45 -17.5q28 0 44.5 17.5t17.5 46.5h87q-2 -62 -42.5 -99.5t-106.5 -37.5zM406 0l-30 117h-213l-30 -117h-118l210 700h89l210 -700h-118zM188 215h163l-81 321z" />
    <glyph glyph-name="abreve" unicode="&#x103;" horiz-adv-x="511" 
d="M240 509q-67 0 -107 38t-44 106h87q2 -33 18.5 -51.5t45.5 -18.5t46 18.5t18 51.5h86q-3 -68 -43 -106t-107 -38zM216 -12q-86 0 -138.5 67t-52.5 178q0 110 52.5 177t138.5 67q94 0 133 -81v69h106v-465h-106v70q-39 -82 -133 -82zM240 82q53 0 82 39.5t29 111.5
q0 71 -29 110.5t-82 39.5q-52 0 -80.5 -39t-28.5 -111t28.5 -111.5t80.5 -39.5z" />
    <glyph glyph-name="Aogonek" unicode="&#x104;" 
d="M487 -133q20 0 38 7v-60q-33 -16 -67 -16q-37 0 -59 23t-22 63q0 72 59 116h-30l-30 117h-213l-30 -117h-118l210 700h89l210 -700q-64 -46 -64 -99q0 -34 27 -34zM188 215h163l-81 321z" />
    <glyph glyph-name="aogonek" unicode="&#x105;" horiz-adv-x="511" 
d="M422 -133q20 0 38 7v-60q-33 -16 -67 -16q-37 0 -59 23t-22 63q0 72 59 116h-22v70q-39 -82 -133 -82q-86 0 -138.5 67t-52.5 178q0 110 52.5 177t138.5 67q94 0 133 -81v69h106v-465h4q-64 -46 -64 -99q0 -34 27 -34zM240 82q53 0 82 39.5t29 111.5q0 71 -29 110.5
t-82 39.5q-52 0 -80.5 -39t-28.5 -111t28.5 -111.5t80.5 -39.5z" />
    <glyph glyph-name="Cacute" unicode="&#x106;" horiz-adv-x="561" 
d="M218 732l-36 71l205 93l36 -71zM288 -17q-129 0 -196 94.5t-67 272.5t67 272.5t196 94.5q113 0 174 -65t67 -191h-119q-5 79 -33 117t-88 38q-77 0 -112 -66.5t-35 -199.5t35 -199.5t112 -66.5q60 0 88 38t33 117h119q-6 -126 -67 -191t-174 -65z" />
    <glyph glyph-name="cacute" unicode="&#x107;" horiz-adv-x="448" 
d="M138 515l-37 75l215 98l37 -74zM231 -12q-97 0 -151.5 65t-54.5 180q0 112 55.5 178t150.5 66q91 0 141.5 -46.5t49.5 -130.5h-106q-6 85 -85 85q-47 0 -73.5 -40t-26.5 -112q0 -152 102 -152q75 0 84 79h106q-7 -83 -56.5 -127.5t-135.5 -44.5z" />
    <glyph glyph-name="Ccircumflex" unicode="&#x108;" horiz-adv-x="561" 
d="M289 901l140 -119l-56 -49l-84 77l-85 -77l-56 49zM288 -17q-129 0 -196 94.5t-67 272.5t67 272.5t196 94.5q113 0 174 -65t67 -191h-119q-5 79 -33 117t-88 38q-77 0 -112 -66.5t-35 -199.5t35 -199.5t112 -66.5q60 0 88 38t33 117h119q-6 -126 -67 -191t-174 -65z" />
    <glyph glyph-name="ccircumflex" unicode="&#x109;" horiz-adv-x="448" 
d="M231 689l144 -132l-56 -52l-88 82l-87 -82l-56 52zM231 -12q-97 0 -151.5 65t-54.5 180q0 112 55.5 178t150.5 66q91 0 141.5 -46.5t49.5 -130.5h-106q-6 85 -85 85q-47 0 -73.5 -40t-26.5 -112q0 -152 102 -152q75 0 84 79h106q-7 -83 -56.5 -127.5t-135.5 -44.5z" />
    <glyph glyph-name="Cdotaccent" unicode="&#x10a;" horiz-adv-x="561" 
d="M288 735q-33 0 -54.5 22t-21.5 54t21.5 54t54.5 22t54 -22t21 -54t-21 -54t-54 -22zM288 -17q-129 0 -196 94.5t-67 272.5t67 272.5t196 94.5q113 0 174 -65t67 -191h-119q-5 79 -33 117t-88 38q-77 0 -112 -66.5t-35 -199.5t35 -199.5t112 -66.5q60 0 88 38t33 117h119
q-6 -126 -67 -191t-174 -65z" />
    <glyph glyph-name="cdotaccent" unicode="&#x10b;" horiz-adv-x="448" 
d="M231 535q-34 0 -56 21.5t-22 56.5t22 56t56 21t55.5 -21t21.5 -56t-21.5 -56.5t-55.5 -21.5zM231 -12q-97 0 -151.5 65t-54.5 180q0 112 55.5 178t150.5 66q91 0 141.5 -46.5t49.5 -130.5h-106q-6 85 -85 85q-47 0 -73.5 -40t-26.5 -112q0 -152 102 -152q75 0 84 79h106
q-7 -83 -56.5 -127.5t-135.5 -44.5z" />
    <glyph glyph-name="Ccaron" unicode="&#x10c;" horiz-adv-x="561" 
d="M288 734l-140 119l56 49l84 -77l85 77l56 -49zM288 -17q-129 0 -196 94.5t-67 272.5t67 272.5t196 94.5q113 0 174 -65t67 -191h-119q-5 79 -33 117t-88 38q-77 0 -112 -66.5t-35 -199.5t35 -199.5t112 -66.5q60 0 88 38t33 117h119q-6 -126 -67 -191t-174 -65z" />
    <glyph glyph-name="ccaron" unicode="&#x10d;" horiz-adv-x="448" 
d="M231 514l-143 132l56 52l87 -82l88 82l56 -52zM231 -12q-97 0 -151.5 65t-54.5 180q0 112 55.5 178t150.5 66q91 0 141.5 -46.5t49.5 -130.5h-106q-6 85 -85 85q-47 0 -73.5 -40t-26.5 -112q0 -152 102 -152q75 0 84 79h106q-7 -83 -56.5 -127.5t-135.5 -44.5z" />
    <glyph glyph-name="Dcaron" unicode="&#x10e;" horiz-adv-x="563" 
d="M241 734l-140 119l56 49l84 -77l85 77l56 -49zM60 0v700h196q131 0 206.5 -94.5t75.5 -255.5q0 -159 -78 -254.5t-214 -95.5h-186zM171 99h78q84 0 128 63t44 188t-44 188t-128 63h-78v-502z" />
    <glyph glyph-name="dcaron" unicode="&#x10f;" horiz-adv-x="652" 
d="M572 717q38 0 61.5 -27t23.5 -76q0 -58 -30 -91t-84 -33q-14 0 -21 1v46q7 -1 19 -1q34 0 50 19q12 16 11 44q-13 -16 -41 -16q-26 0 -43 18.5t-17 47.5q0 30 20 49t51 19zM454 700v-235h1v-465h-106v70q-39 -82 -133 -82q-86 0 -138.5 67t-52.5 178q0 110 52.5 177
t138.5 67q94 0 133 -81v44h-1v260h106zM240 82q53 0 82 39.5t29 111.5q0 71 -29 110.5t-82 39.5q-52 0 -80.5 -39t-28.5 -111t28.5 -111.5t80.5 -39.5z" />
    <glyph glyph-name="Dcroat" unicode="&#x110;" horiz-adv-x="563" 
d="M256 700q131 0 206.5 -94.5t75.5 -255.5q0 -159 -78 -254.5t-214 -95.5h-186v303h-62v95h62v302h196zM249 99q84 0 128 63t44 188t-44 188t-128 63h-78v-203h140v-95h-140v-204h78z" />
    <glyph glyph-name="dcroat" unicode="&#x111;" horiz-adv-x="520" 
d="M520 540h-66v-75h1v-465h-106v70q-39 -82 -133 -82q-86 0 -138.5 67t-52.5 178q0 110 52.5 177t138.5 67q94 0 133 -81v44h-1v100h-110v71h110v89h106v-89h66v-71zM240 82q53 0 82 39.5t29 111.5q0 71 -29 110.5t-82 39.5q-52 0 -80.5 -39t-28.5 -111t28.5 -111.5
t80.5 -39.5z" />
    <glyph glyph-name="Emacron" unicode="&#x112;" horiz-adv-x="462" 
d="M104 764v84h279v-84h-279zM60 0v700h352v-99h-241v-200h241v-100h-241v-202h241v-99h-352z" />
    <glyph glyph-name="emacron" unicode="&#x113;" horiz-adv-x="447" 
d="M360 640v-83h-257v83h257zM422 265q0 -38 -4 -67h-290q2 -57 29 -88t77 -31q69 0 86 57h96q-10 -71 -56.5 -109.5t-125.5 -38.5q-100 0 -154.5 63.5t-54.5 179.5t54 181t150 65q94 0 143.5 -58t49.5 -154zM128 278h191q0 116 -91 116q-46 0 -72.5 -30.5t-27.5 -85.5z" />
    <glyph glyph-name="Ebreve" unicode="&#x114;" horiz-adv-x="462" 
d="M243 736q-66 0 -106.5 37.5t-42.5 99.5h87q1 -29 17 -46.5t45 -17.5q28 0 44.5 17.5t17.5 46.5h87q-2 -62 -42.5 -99.5t-106.5 -37.5zM60 0v700h352v-99h-241v-200h241v-100h-241v-202h241v-99h-352z" />
    <glyph glyph-name="ebreve" unicode="&#x115;" horiz-adv-x="447" 
d="M232 509q-67 0 -107 38t-44 106h87q2 -33 18.5 -51.5t45.5 -18.5t46 18.5t18 51.5h86q-3 -68 -43 -106t-107 -38zM422 265q0 -38 -4 -67h-290q2 -57 29 -88t77 -31q69 0 86 57h96q-10 -71 -56.5 -109.5t-125.5 -38.5q-100 0 -154.5 63.5t-54.5 179.5t54 181t150 65
q94 0 143.5 -58t49.5 -154zM128 278h191q0 116 -91 116q-46 0 -72.5 -30.5t-27.5 -85.5z" />
    <glyph glyph-name="Edotaccent" unicode="&#x116;" horiz-adv-x="462" 
d="M243 735q-33 0 -54.5 22t-21.5 54t21.5 54t54.5 22t54 -22t21 -54t-21 -54t-54 -22zM60 0v700h352v-99h-241v-200h241v-100h-241v-202h241v-99h-352z" />
    <glyph glyph-name="edotaccent" unicode="&#x117;" horiz-adv-x="447" 
d="M232 535q-34 0 -56 21.5t-22 56.5t22 56t56 21t55.5 -21t21.5 -56t-21.5 -56.5t-55.5 -21.5zM422 265q0 -38 -4 -67h-290q2 -57 29 -88t77 -31q69 0 86 57h96q-10 -71 -56.5 -109.5t-125.5 -38.5q-100 0 -154.5 63.5t-54.5 179.5t54 181t150 65q94 0 143.5 -58t49.5 -154
zM128 278h191q0 116 -91 116q-46 0 -72.5 -30.5t-27.5 -85.5z" />
    <glyph glyph-name="Eogonek" unicode="&#x118;" horiz-adv-x="462" 
d="M375 -133q20 0 38 7v-60q-33 -16 -67 -16q-37 0 -59 23t-22 63q0 72 59 116h-264v700h352v-99h-241v-200h241v-100h-241v-202h241v-99q-64 -46 -64 -99q0 -34 27 -34z" />
    <glyph glyph-name="eogonek" unicode="&#x119;" horiz-adv-x="447" 
d="M422 265q0 -38 -4 -67h-290q2 -57 29 -88t77 -31q69 0 86 57h96q-16 -114 -121 -141q-57 -44 -57 -94q0 -34 27 -34q20 0 38 7v-60q-33 -16 -67 -16q-37 0 -59 23t-22 63q0 65 46 106q-84 11 -130 73.5t-46 167.5q0 116 54 181t150 65q94 0 143.5 -58t49.5 -154zM128 278
h191q0 116 -91 116q-46 0 -72.5 -30.5t-27.5 -85.5z" />
    <glyph glyph-name="Ecaron" unicode="&#x11a;" horiz-adv-x="462" 
d="M243 734l-140 119l56 49l84 -77l85 77l56 -49zM60 0v700h352v-99h-241v-200h241v-100h-241v-202h241v-99h-352z" />
    <glyph glyph-name="ecaron" unicode="&#x11b;" horiz-adv-x="447" 
d="M376 646l-144 -132l-143 132l56 52l87 -82l88 82zM422 265q0 -38 -4 -67h-290q2 -57 29 -88t77 -31q69 0 86 57h96q-10 -71 -56.5 -109.5t-125.5 -38.5q-100 0 -154.5 63.5t-54.5 179.5t54 181t150 65q94 0 143.5 -58t49.5 -154zM128 278h191q0 116 -91 116
q-46 0 -72.5 -30.5t-27.5 -85.5z" />
    <glyph glyph-name="Gcircumflex" unicode="&#x11c;" horiz-adv-x="581" 
d="M291 810l-85 -77l-56 49l141 119l140 -119l-56 -49zM566 349v-100h-38q-5 -129 -66 -197.5t-171 -68.5q-127 0 -196.5 97t-69.5 275q0 169 71 265.5t196 96.5q219 0 233 -226h-113q-5 63 -33.5 94t-86.5 31q-150 0 -150 -261q0 -141 37.5 -206.5t118.5 -65.5
q121 0 123 166h-139v100h284z" />
    <glyph glyph-name="gcircumflex" unicode="&#x11d;" horiz-adv-x="510" 
d="M226 587l-87 -82l-56 52l143 132l144 -132l-56 -52zM349 465h105v-473q0 -125 -76 -179q-52 -35 -132 -35q-81 0 -136 41q-59 43 -64 118h107q4 -32 28.5 -52.5t67.5 -20.5q100 0 100 114v91q-40 -81 -133 -81q-86 0 -138.5 67t-52.5 178q0 110 52.5 177t138.5 67
q94 0 133 -81v69zM240 83q53 0 82 39.5t29 110.5t-29 110.5t-82 39.5q-52 0 -80.5 -39t-28.5 -111t28.5 -111t80.5 -39z" />
    <glyph glyph-name="Gbreve" unicode="&#x11e;" horiz-adv-x="581" 
d="M290 736q-66 0 -106.5 37.5t-42.5 99.5h87q1 -29 17 -46.5t45 -17.5q28 0 44.5 17.5t17.5 46.5h87q-2 -62 -42.5 -99.5t-106.5 -37.5zM566 349v-100h-38q-5 -129 -66 -197.5t-171 -68.5q-127 0 -196.5 97t-69.5 275q0 169 71 265.5t196 96.5q219 0 233 -226h-113
q-5 63 -33.5 94t-86.5 31q-150 0 -150 -261q0 -141 37.5 -206.5t118.5 -65.5q121 0 123 166h-139v100h284z" />
    <glyph glyph-name="gbreve" unicode="&#x11f;" horiz-adv-x="510" 
d="M226 509q-67 0 -107 38t-44 106h87q2 -33 18.5 -51.5t45.5 -18.5t46 18.5t18 51.5h86q-3 -68 -43 -106t-107 -38zM349 465h105v-473q0 -125 -76 -179q-52 -35 -132 -35q-81 0 -136 41q-59 43 -64 118h107q4 -32 28.5 -52.5t67.5 -20.5q100 0 100 114v91q-40 -81 -133 -81
q-86 0 -138.5 67t-52.5 178q0 110 52.5 177t138.5 67q94 0 133 -81v69zM240 83q53 0 82 39.5t29 110.5t-29 110.5t-82 39.5q-52 0 -80.5 -39t-28.5 -111t28.5 -111t80.5 -39z" />
    <glyph glyph-name="Gdotaccent" unicode="&#x120;" horiz-adv-x="581" 
d="M290 735q-33 0 -54.5 22t-21.5 54t21.5 54t54.5 22t54 -22t21 -54t-21 -54t-54 -22zM566 349v-100h-38q-5 -129 -66 -197.5t-171 -68.5q-127 0 -196.5 97t-69.5 275q0 169 71 265.5t196 96.5q219 0 233 -226h-113q-5 63 -33.5 94t-86.5 31q-150 0 -150 -261
q0 -141 37.5 -206.5t118.5 -65.5q121 0 123 166h-139v100h284z" />
    <glyph glyph-name="gdotaccent" unicode="&#x121;" horiz-adv-x="510" 
d="M226 535q-34 0 -56 21.5t-22 56.5t22 56t56 21t55.5 -21t21.5 -56t-21.5 -56.5t-55.5 -21.5zM349 465h105v-473q0 -125 -76 -179q-52 -35 -132 -35q-81 0 -136 41q-59 43 -64 118h107q4 -32 28.5 -52.5t67.5 -20.5q100 0 100 114v91q-40 -81 -133 -81q-86 0 -138.5 67
t-52.5 178q0 110 52.5 177t138.5 67q94 0 133 -81v69zM240 83q53 0 82 39.5t29 110.5t-29 110.5t-82 39.5q-52 0 -80.5 -39t-28.5 -111t28.5 -111t80.5 -39z" />
    <glyph glyph-name="Gcommaaccent" unicode="&#x122;" horiz-adv-x="581" 
d="M566 349v-100h-38q-5 -129 -66 -197.5t-171 -68.5q-127 0 -196.5 97t-69.5 275q0 169 71 265.5t196 96.5q219 0 233 -226h-113q-5 63 -33.5 94t-86.5 31q-150 0 -150 -261q0 -141 37.5 -206.5t118.5 -65.5q121 0 123 166h-139v100h284zM287 -30q27 0 44.5 -19t17.5 -50
q0 -58 -27 -83.5t-79 -26.5v34q29 0 47 15q13 12 15 30q-3 -5 -15 -5q-24 0 -39.5 15t-15.5 36q0 23 15 38.5t37 15.5z" />
    <glyph glyph-name="gcommaaccent" unicode="&#x123;" horiz-adv-x="510" 
d="M209 509q-27 0 -45 23t-18 59q0 46 30.5 74.5t83.5 29.5v-35q-33 0 -50 -15q-18 -12 -18 -33q7 7 20 7q23 0 38 -16t15 -39t-16.5 -39t-39.5 -16zM349 465h105v-473q0 -125 -76 -179q-52 -35 -132 -35q-81 0 -136 41q-59 43 -64 118h107q4 -32 28.5 -52.5t67.5 -20.5
q100 0 100 114v91q-40 -81 -133 -81q-86 0 -138.5 67t-52.5 178q0 110 52.5 177t138.5 67q94 0 133 -81v69zM240 83q53 0 82 39.5t29 110.5t-29 110.5t-82 39.5q-52 0 -80.5 -39t-28.5 -111t28.5 -111t80.5 -39z" />
    <glyph glyph-name="Hcircumflex" unicode="&#x124;" horiz-adv-x="567" 
d="M290 901l140 -119l-56 -49l-84 77l-85 -77l-56 49zM60 0v700h111v-302h224v302h111v-700h-111v297h-224v-297h-111z" />
    <glyph glyph-name="hcircumflex" unicode="&#x125;" horiz-adv-x="489" 
d="M181 739l-68 56l-67 -56l-48 52l115 94l116 -94zM297 477q142 0 142 -175v-302h-106v271q0 60 -18.5 88t-59.5 28q-88 0 -88 -132v-255h-107v700h106v-235h1v-67q37 79 130 79z" />
    <glyph glyph-name="Hbar" unicode="&#x126;" horiz-adv-x="566" 
d="M541 572v-70h-35v-502h-111v297h-224v-297h-111v502h-35v70h35v128h111v-128h224v128h111v-128h35zM395 398v104h-224v-104h224z" />
    <glyph glyph-name="hbar" unicode="&#x127;" horiz-adv-x="489" 
d="M297 477q142 0 142 -175v-302h-106v271q0 60 -18.5 88t-59.5 28q-88 0 -88 -132v-255h-107v536h-59v67h59v97h106v-97h126v-67h-126v-71h1v-67q37 79 130 79z" />
    <glyph glyph-name="Itilde" unicode="&#x128;" horiz-adv-x="232" 
d="M155 752q-23 0 -47.5 18.5t-35.5 18.5q-20 0 -40 -27l-24 49q24 49 65 49q23 0 47.5 -18.5t35.5 -18.5q22 0 41 27l24 -49q-24 -49 -66 -49zM60 0v700h111v-700h-111z" />
    <glyph glyph-name="itilde" unicode="&#x129;" horiz-adv-x="217" 
d="M149 531q-24 0 -50.5 21.5t-42.5 21.5q-18 0 -35 -25l-21 46q11 26 30.5 39.5t38.5 13.5q23 0 50 -21t43 -21q19 0 35 25l21 -46q-11 -26 -30.5 -40t-38.5 -14zM55 0v465h107v-465h-107z" />
    <glyph glyph-name="Imacron" unicode="&#x12a;" horiz-adv-x="232" 
d="M17 764v75h198v-75h-198zM60 0v700h111v-700h-111z" />
    <glyph glyph-name="imacron" unicode="&#x12b;" horiz-adv-x="217" 
d="M6 556v84h207v-84h-207zM55 0v465h107v-465h-107z" />
    <glyph glyph-name="Ibreve" unicode="&#x12c;" horiz-adv-x="232" 
d="M117 733q-126 0 -126 140h81q3 -65 45 -65q41 0 45 65h80q0 -140 -125 -140zM60 0v700h111v-700h-111z" />
    <glyph glyph-name="ibreve" unicode="&#x12d;" horiz-adv-x="217" 
d="M109 518q-56 0 -86 32.5t-30 93.5h71q3 -59 45 -59t45 59h71q0 -61 -30 -93.5t-86 -32.5zM55 0v465h107v-465h-107z" />
    <glyph glyph-name="Iogonek" unicode="&#x12e;" horiz-adv-x="232" 
d="M134 -133q20 0 38 7v-60q-33 -16 -67 -16q-37 0 -59 23t-22 63q0 72 59 116h-23v700h111v-700q-64 -46 -64 -99q0 -34 27 -34z" />
    <glyph glyph-name="iogonek" unicode="&#x12f;" horiz-adv-x="217" 
d="M109 690q34 0 55.5 -21t21.5 -56t-21.5 -56.5t-55.5 -21.5t-56 21.5t-22 56.5t22 56t56 21zM98 -98q0 -34 27 -34q20 0 38 7v-60q-33 -16 -67 -16q-37 0 -59 23t-22 63q0 71 57 115h-17v465h107v-465h-1q-63 -46 -63 -98z" />
    <glyph glyph-name="Idotaccent" unicode="&#x130;" horiz-adv-x="232" 
d="M116 735q-33 0 -54.5 22t-21.5 54t21.5 54t54.5 22t54 -22t21 -54t-21 -54t-54 -22zM60 0v700h111v-700h-111z" />
    <glyph glyph-name="dotlessi" unicode="&#x131;" horiz-adv-x="217" 
d="M55 0v465h107v-465h-107z" />
    <glyph glyph-name="IJ" unicode="&#x132;" horiz-adv-x="691" 
d="M60 0v700h111v-700h-111zM448 -17q-199 0 -201 236h112q0 -71 20.5 -103t64.5 -32q45 0 65.5 31t20.5 101v484h111v-484q0 -113 -49 -173t-144 -60z" />
    <glyph glyph-name="ij" unicode="&#x133;" horiz-adv-x="433" 
d="M109 535q-34 0 -56 21.5t-22 56.5t22 56t56 21t55.5 -21t21.5 -56t-21.5 -56.5t-55.5 -21.5zM325 535q-34 0 -56 21.5t-22 56.5t22 56t56 21t55.5 -21t21.5 -56t-21.5 -56.5t-55.5 -21.5zM55 0v465h107v-465h-107zM257 -216q-33 0 -60 9v95q13 -4 36 -4q39 0 39 50v531
h106v-543q0 -138 -121 -138z" />
    <glyph glyph-name="Jcircumflex" unicode="&#x134;" horiz-adv-x="459" 
d="M421 739l-68 56l-67 -56l-48 52l115 94l116 -94zM216 -17q-199 0 -201 236h112q0 -71 20.5 -103t64.5 -32q45 0 65.5 31t20.5 101v484h111v-484q0 -113 -49 -173t-144 -60z" />
    <glyph glyph-name="jcircumflex" unicode="&#x135;" horiz-adv-x="216" 
d="M36 514l-53 51l125 114l125 -114l-53 -51l-72 66zM40 -216q-33 0 -60 9v95q13 -4 36 -4q39 0 39 50v531h106v-543q0 -138 -121 -138z" />
    <glyph glyph-name="Kcommaaccent" unicode="&#x136;" horiz-adv-x="504" 
d="M282 350l217 -350h-127l-201 339v-339h-111v700h111v-341l201 341h126zM273 -30q27 0 44.5 -19t17.5 -50q0 -58 -27 -83.5t-79 -26.5v34q29 0 47 15q13 12 15 30q-3 -5 -15 -5q-24 0 -39.5 15t-15.5 36q0 23 15 38.5t37 15.5z" />
    <glyph glyph-name="kcommaaccent" unicode="&#x137;" horiz-adv-x="453" 
d="M433 465l-160 -218l158 -247h-126l-139 226v-226h-106v700h106v-446l144 211h123zM239 -30q27 0 44.5 -19t17.5 -50q0 -58 -27 -83.5t-79 -26.5v34q29 0 47 15q13 12 15 30q-3 -5 -15 -5q-24 0 -39.5 15t-15.5 36q0 23 15 38.5t37 15.5z" />
    <glyph glyph-name="kgreenlandic" unicode="&#x138;" horiz-adv-x="453" 
d="M433 465l-160 -218l158 -247h-126l-139 226v-226h-106v465h106v-211l144 211h123z" />
    <glyph glyph-name="Lacute" unicode="&#x139;" horiz-adv-x="423" 
d="M84 732l-44 64l155 93l44 -65zM60 0v700h111v-595h217v-105h-328z" />
    <glyph glyph-name="lacute" unicode="&#x13a;" horiz-adv-x="227" 
d="M71 732l-44 64l155 93l44 -65zM60 0v700h106v-700h-106z" />
    <glyph glyph-name="Lcommaaccent" unicode="&#x13b;" horiz-adv-x="423" 
d="M60 0v700h111v-595h217v-105h-328zM187 -209v34q29 0 47 15q13 12 15 30q-3 -5 -15 -5q-24 0 -39.5 15t-15.5 36q0 23 15 38.5t37 15.5q27 0 44.5 -19t17.5 -50q0 -58 -27 -83.5t-79 -26.5z" />
    <glyph glyph-name="lcommaaccent" unicode="&#x13c;" horiz-adv-x="227" 
d="M60 0v700h106v-700h-106zM67 -209v34q29 0 47 15q13 12 15 30q-3 -5 -15 -5q-24 0 -39.5 15t-15.5 36q0 23 15 38.5t37 15.5q27 0 44.5 -19t17.5 -50q0 -58 -27 -83.5t-79 -26.5z" />
    <glyph glyph-name="Lcaron" unicode="&#x13d;" horiz-adv-x="423" 
d="M256 490q-14 0 -21 1v46q7 -1 19 -1q34 0 50 19q12 16 11 44q-13 -16 -41 -16q-26 0 -43 18.5t-17 47.5q0 30 20 49t51 19q38 0 61.5 -27t23.5 -76q0 -58 -30 -91t-84 -33zM60 0v700h111v-595h217v-105h-328z" />
    <glyph glyph-name="lcaron" unicode="&#x13e;" horiz-adv-x="354" 
d="M250 490q-14 0 -21 1v46q7 -1 19 -1q34 0 50 19q12 16 11 44q-13 -16 -41 -16q-26 0 -43 18.5t-17 47.5q0 30 20 49t51 19q38 0 61.5 -27t23.5 -76q0 -58 -30 -91t-84 -33zM60 0v700h106v-700h-106z" />
    <glyph glyph-name="Ldot" unicode="&#x13f;" horiz-adv-x="423" 
d="M60 0v700h111v-595h217v-105h-328zM304 320q-34 0 -57 22.5t-23 57.5t23 57.5t57 22.5t57 -22.5t23 -57.5t-23 -57.5t-57 -22.5z" />
    <glyph glyph-name="ldot" unicode="&#x140;" horiz-adv-x="360" 
d="M60 0v700h106v-700h-106zM280 271q-34 0 -57 22.5t-23 57.5t23 57.5t57 22.5t57 -22.5t23 -57.5t-23 -57.5t-57 -22.5z" />
    <glyph glyph-name="Lslash" unicode="&#x141;" horiz-adv-x="403" 
d="M171 105h217v-105h-328v257l-60 -30v88l60 30v355h111v-300l143 71v-88l-143 -71v-207z" />
    <glyph glyph-name="lslash" unicode="&#x142;" horiz-adv-x="267" 
d="M254 468v-80l-67 -36v-352h-106v295l-68 -36v80l68 36v325h106v-268z" />
    <glyph glyph-name="Nacute" unicode="&#x143;" horiz-adv-x="561" 
d="M215 732l-36 71l205 93l36 -71zM60 0v700h104l235 -509v509h101v-700h-103l-235 489v-489h-102z" />
    <glyph glyph-name="nacute" unicode="&#x144;" horiz-adv-x="484" 
d="M163 515l-37 75l215 98l37 -74zM55 0v465h107v-67q37 79 130 79q142 0 142 -175v-302h-106v271q0 60 -18.5 88t-59.5 28q-88 0 -88 -132v-255h-107z" />
    <glyph glyph-name="Ncommaaccent" unicode="&#x145;" horiz-adv-x="561" 
d="M60 0v700h104l235 -509v509h101v-700h-103l-235 489v-489h-102zM238 -209v34q29 0 47 15q13 12 15 30q-3 -5 -15 -5q-24 0 -39.5 15t-15.5 36q0 23 15 38.5t37 15.5q27 0 44.5 -19t17.5 -50q0 -58 -27 -83.5t-79 -26.5z" />
    <glyph glyph-name="ncommaaccent" unicode="&#x146;" horiz-adv-x="484" 
d="M55 0v465h107v-67q37 79 130 79q142 0 142 -175v-302h-106v271q0 60 -18.5 88t-59.5 28q-88 0 -88 -132v-255h-107zM210 -209v34q29 0 47 15q13 12 15 30q-3 -5 -15 -5q-24 0 -39.5 15t-15.5 36q0 23 15 38.5t37 15.5q27 0 44.5 -19t17.5 -50q0 -58 -27 -83.5t-79 -26.5z
" />
    <glyph glyph-name="Ncaron" unicode="&#x147;" horiz-adv-x="561" 
d="M285 734l-140 119l56 49l84 -77l85 77l56 -49zM60 0v700h104l235 -509v509h101v-700h-103l-235 489v-489h-102z" />
    <glyph glyph-name="ncaron" unicode="&#x148;" horiz-adv-x="484" 
d="M256 514l-143 132l56 52l87 -82l88 82l56 -52zM55 0v465h107v-67q37 79 130 79q142 0 142 -175v-302h-106v271q0 60 -18.5 88t-59.5 28q-88 0 -88 -132v-255h-107z" />
    <glyph glyph-name="napostrophe" unicode="&#x149;" horiz-adv-x="514" 
d="M47 490q-14 0 -21 1v46q7 -1 19 -1q34 0 50 19q12 16 11 44q-13 -16 -41 -16q-26 0 -43 18.5t-17 47.5q0 30 20 49t51 19q38 0 61.5 -27t23.5 -76q0 -58 -30 -91t-84 -33zM85 0v465h107v-67q37 79 130 79q142 0 142 -175v-302h-106v271q0 60 -18.5 88t-59.5 28
q-88 0 -88 -132v-255h-107z" />
    <glyph glyph-name="Eng" unicode="&#x14a;" horiz-adv-x="561" 
d="M399 700h101v-777q0 -67 -40 -103t-114 -36q-44 0 -67 10v99q20 -4 49 -4q32 0 46.5 15.5t14.5 54.5v58l-227 472v-489h-102v700h104l235 -509v509z" />
    <glyph glyph-name="eng" unicode="&#x14b;" horiz-adv-x="484" 
d="M292 477q142 0 142 -175v-399q0 -58 -32.5 -88.5t-94.5 -30.5q-45 0 -64 10v94q19 -4 42 -4q43 0 43 50v337q0 60 -18.5 88t-59.5 28q-88 0 -88 -132v-255h-107v465h107v-67q37 79 130 79z" />
    <glyph glyph-name="Omacron" unicode="&#x14c;" horiz-adv-x="602" 
d="M162 764v84h279v-84h-279zM301 -17q-134 0 -205 94.5t-71 272.5t71 272.5t205 94.5t205 -94.5t71 -272.5t-71 -272.5t-205 -94.5zM301 84q159 0 159 266t-159 266t-159 -266t159 -266z" />
    <glyph glyph-name="omacron" unicode="&#x14d;" horiz-adv-x="481" 
d="M111 557v83h257v-83h-257zM240 -12q-99 0 -157 66t-58 179q0 112 58 178t157 66q100 0 158 -66t58 -178q0 -113 -58 -179t-158 -66zM240 82q53 0 81 39t28 112t-28 112t-81 39t-81 -39t-28 -112t28 -112t81 -39z" />
    <glyph glyph-name="Obreve" unicode="&#x14e;" horiz-adv-x="602" 
d="M301 736q-66 0 -106.5 37.5t-42.5 99.5h87q1 -29 17 -46.5t45 -17.5q28 0 44.5 17.5t17.5 46.5h87q-2 -62 -42.5 -99.5t-106.5 -37.5zM301 -17q-134 0 -205 94.5t-71 272.5t71 272.5t205 94.5t205 -94.5t71 -272.5t-71 -272.5t-205 -94.5zM301 84q159 0 159 266t-159 266
t-159 -266t159 -266z" />
    <glyph glyph-name="obreve" unicode="&#x14f;" horiz-adv-x="481" 
d="M240 509q-67 0 -107 38t-44 106h87q2 -33 18.5 -51.5t45.5 -18.5t46 18.5t18 51.5h86q-3 -68 -43 -106t-107 -38zM240 -12q-99 0 -157 66t-58 179q0 112 58 178t157 66q100 0 158 -66t58 -178q0 -113 -58 -179t-158 -66zM240 82q53 0 81 39t28 112t-28 112t-81 39
t-81 -39t-28 -112t28 -112t81 -39z" />
    <glyph glyph-name="Ohungarumlaut" unicode="&#x150;" horiz-adv-x="602" 
d="M239 735l-58 25l104 131l66 -36zM370 734l-57 26l105 131l64 -38zM301 -17q-134 0 -205 94.5t-71 272.5t71 272.5t205 94.5t205 -94.5t71 -272.5t-71 -272.5t-205 -94.5zM301 84q159 0 159 266t-159 266t-159 -266t159 -266z" />
    <glyph glyph-name="ohungarumlaut" unicode="&#x151;" horiz-adv-x="481" 
d="M182 510l-44 27l97 147l61 -46zM315 510l-44 27l97 147l62 -46zM240 -12q-99 0 -157 66t-58 179q0 112 58 178t157 66q100 0 158 -66t58 -178q0 -113 -58 -179t-158 -66zM240 82q53 0 81 39t28 112t-28 112t-81 39t-81 -39t-28 -112t28 -112t81 -39z" />
    <glyph glyph-name="OE" unicode="&#x152;" horiz-adv-x="706" 
d="M656 601h-206v-200h206v-100h-206v-202h206v-99h-344q-139 0 -213 90t-74 260t74 260t213 90h344v-99zM302 101h40v498h-40q-160 0 -160 -249t160 -249z" />
    <glyph glyph-name="oe" unicode="&#x153;" horiz-adv-x="774" 
d="M749 265q0 -38 -4 -67h-290q2 -57 29 -88t77 -31q69 0 86 57h96q-10 -71 -56.5 -109.5t-125.5 -38.5q-104 0 -160 70q-58 -70 -161 -70q-99 0 -157 66t-58 179q0 112 58 178t157 66q103 0 162 -70q54 70 154 70q94 0 143.5 -58t49.5 -154zM455 278h191q0 116 -91 116
q-46 0 -72.5 -30.5t-27.5 -85.5zM240 82q53 0 81 39t28 112t-28 112t-81 39t-81 -39t-28 -112t28 -112t81 -39z" />
    <glyph glyph-name="Racute" unicode="&#x154;" horiz-adv-x="517" 
d="M393 825l-205 -93l-36 71l205 93zM492 0h-128l-116 211h-13h-64v-211h-111v700h175q123 0 189 -65.5t66 -179.5q0 -167 -133 -222zM171 604v-296h70q64 0 98 39.5t34 107.5q0 69 -34 109t-98 40h-70z" />
    <glyph glyph-name="racute" unicode="&#x155;" horiz-adv-x="315" 
d="M98 515l-37 75l215 98l37 -74zM55 0v465h107v-100q9 50 38 78t70 28q10 0 24 -2v-108q-10 1 -22 1q-57 0 -83.5 -39t-26.5 -121v-202h-107z" />
    <glyph glyph-name="Rcommaaccent" unicode="&#x156;" horiz-adv-x="517" 
d="M357 233l135 -233h-128l-116 211h-13h-64v-211h-111v700h175q123 0 189 -65.5t66 -179.5q0 -167 -133 -222zM171 604v-296h70q64 0 98 39.5t34 107.5q0 69 -34 109t-98 40h-70zM268 -30q27 0 44.5 -19t17.5 -50q0 -58 -27 -83.5t-79 -26.5v34q29 0 47 15q13 12 15 30
q-3 -5 -15 -5q-24 0 -39.5 15t-15.5 36q0 23 15 38.5t37 15.5z" />
    <glyph glyph-name="rcommaaccent" unicode="&#x157;" horiz-adv-x="315" 
d="M55 0v465h107v-100q9 50 38 78t70 28q10 0 24 -2v-108q-10 1 -22 1q-57 0 -83.5 -39t-26.5 -121v-202h-107zM62 -209v34q29 0 47 15q13 12 15 30q-3 -5 -15 -5q-24 0 -39.5 15t-15.5 36q0 23 15 38.5t37 15.5q27 0 44.5 -19t17.5 -50q0 -58 -27 -83.5t-79 -26.5z" />
    <glyph glyph-name="Rcaron" unicode="&#x158;" horiz-adv-x="517" 
d="M399 853l-141 -119l-140 119l56 49l84 -77l85 77zM492 0h-128l-116 211h-13h-64v-211h-111v700h175q123 0 189 -65.5t66 -179.5q0 -167 -133 -222zM171 604v-296h70q64 0 98 39.5t34 107.5q0 69 -34 109t-98 40h-70z" />
    <glyph glyph-name="rcaron" unicode="&#x159;" horiz-adv-x="315" 
d="M191 514l-143 132l56 52l87 -82l88 82l56 -52zM55 0v465h107v-100q9 50 38 78t70 28q10 0 24 -2v-108q-10 1 -22 1q-57 0 -83.5 -39t-26.5 -121v-202h-107z" />
    <glyph glyph-name="Sacute" unicode="&#x15a;" horiz-adv-x="468" 
d="M169 732l-36 71l205 93l36 -71zM243 -17q-108 0 -165 59.5t-57 175.5h114q0 -65 28 -99.5t79 -34.5q42 0 66 25t24 67q0 39 -20.5 65.5t-66.5 50.5l-83 43q-67 34 -98 80.5t-31 115.5q0 84 55.5 135t145.5 51q204 0 204 -218h-115q0 117 -91 117q-40 0 -62.5 -22.5
t-22.5 -61.5q0 -37 21 -59.5t70 -48.5l78 -44q70 -39 100.5 -84t30.5 -113q0 -89 -56.5 -144.5t-147.5 -55.5z" />
    <glyph glyph-name="sacute" unicode="&#x15b;" horiz-adv-x="398" 
d="M108 515l-37 75l215 98l37 -74zM206 -12q-80 0 -130.5 45t-50.5 109h107q0 -30 21.5 -49.5t55.5 -19.5q29 0 45 15t16 41q0 41 -44 55l-91 28q-48 15 -73.5 49t-25.5 80q0 57 45.5 96.5t119.5 39.5q80 0 124 -40.5t44 -103.5h-106q0 63 -64 63q-27 0 -44.5 -13.5
t-17.5 -35.5q0 -38 45 -53l95 -33q46 -15 71 -48t25 -74q0 -68 -43 -109.5t-124 -41.5z" />
    <glyph glyph-name="Scircumflex" unicode="&#x15c;" horiz-adv-x="468" 
d="M240 901l140 -119l-56 -49l-84 77l-85 -77l-56 49zM243 -17q-108 0 -165 59.5t-57 175.5h114q0 -65 28 -99.5t79 -34.5q42 0 66 25t24 67q0 39 -20.5 65.5t-66.5 50.5l-83 43q-67 34 -98 80.5t-31 115.5q0 84 55.5 135t145.5 51q204 0 204 -218h-115q0 117 -91 117
q-40 0 -62.5 -22.5t-22.5 -61.5q0 -37 21 -59.5t70 -48.5l78 -44q70 -39 100.5 -84t30.5 -113q0 -89 -56.5 -144.5t-147.5 -55.5z" />
    <glyph glyph-name="scircumflex" unicode="&#x15d;" horiz-adv-x="398" 
d="M201 689l144 -132l-56 -52l-88 82l-87 -82l-56 52zM206 -12q-80 0 -130.5 45t-50.5 109h107q0 -30 21.5 -49.5t55.5 -19.5q29 0 45 15t16 41q0 41 -44 55l-91 28q-48 15 -73.5 49t-25.5 80q0 57 45.5 96.5t119.5 39.5q80 0 124 -40.5t44 -103.5h-106q0 63 -64 63
q-27 0 -44.5 -13.5t-17.5 -35.5q0 -38 45 -53l95 -33q46 -15 71 -48t25 -74q0 -68 -43 -109.5t-124 -41.5z" />
    <glyph glyph-name="Scedilla" unicode="&#x15e;" horiz-adv-x="468" 
d="M447 183q0 -83 -49 -137.5t-131 -61.5v-43q13 11 41 11q32 0 54 -20.5t22 -58.5q0 -39 -24 -64t-69 -25q-38 0 -61.5 19t-27.5 55h54q1 -13 11 -21t23 -8q37 0 37 43q0 41 -36 41q-21 0 -32 -17h-48v88q-190 19 -190 234h114q0 -65 28 -99.5t79 -34.5q42 0 66 25t24 67
q0 39 -20.5 65.5t-66.5 50.5l-83 43q-67 34 -98 80.5t-31 115.5q0 84 55.5 135t145.5 51q204 0 204 -218h-115q0 117 -91 117q-40 0 -62.5 -22.5t-22.5 -61.5q0 -37 21 -59.5t70 -48.5l78 -44q70 -39 100.5 -84t30.5 -113z" />
    <glyph glyph-name="scedilla" unicode="&#x15f;" horiz-adv-x="398" 
d="M263 -48q32 0 54 -20.5t22 -58.5q0 -39 -24 -64t-69 -25q-38 0 -61.5 19t-27.5 55h54q1 -13 11 -21t23 -8q37 0 37 43q0 41 -36 41q-21 0 -32 -17h-48v95q-64 11 -102.5 53.5t-38.5 97.5h107q0 -30 21.5 -49.5t55.5 -19.5q29 0 45 15t16 41q0 41 -44 55l-91 28
q-48 15 -73.5 49t-25.5 80q0 57 45.5 96.5t119.5 39.5q80 0 124 -40.5t44 -103.5h-106q0 63 -64 63q-27 0 -44.5 -13.5t-17.5 -35.5q0 -38 45 -53l95 -33q46 -15 71 -48t25 -74q0 -65 -39 -106t-112 -45v-47q13 11 41 11z" />
    <glyph glyph-name="Scaron" unicode="&#x160;" horiz-adv-x="468" 
d="M239 734l-140 119l56 49l84 -77l85 77l56 -49zM243 -17q-108 0 -165 59.5t-57 175.5h114q0 -65 28 -99.5t79 -34.5q42 0 66 25t24 67q0 39 -20.5 65.5t-66.5 50.5l-83 43q-67 34 -98 80.5t-31 115.5q0 84 55.5 135t145.5 51q204 0 204 -218h-115q0 117 -91 117
q-40 0 -62.5 -22.5t-22.5 -61.5q0 -37 21 -59.5t70 -48.5l78 -44q70 -39 100.5 -84t30.5 -113q0 -89 -56.5 -144.5t-147.5 -55.5z" />
    <glyph glyph-name="scaron" unicode="&#x161;" horiz-adv-x="398" 
d="M201 514l-143 132l56 52l87 -82l88 82l56 -52zM206 -12q-80 0 -130.5 45t-50.5 109h107q0 -30 21.5 -49.5t55.5 -19.5q29 0 45 15t16 41q0 41 -44 55l-91 28q-48 15 -73.5 49t-25.5 80q0 57 45.5 96.5t119.5 39.5q80 0 124 -40.5t44 -103.5h-106q0 63 -64 63
q-27 0 -44.5 -13.5t-17.5 -35.5q0 -38 45 -53l95 -33q46 -15 71 -48t25 -74q0 -68 -43 -109.5t-124 -41.5z" />
    <glyph glyph-name="uni0162" unicode="&#x162;" horiz-adv-x="427" 
d="M269 0h-27v-59q13 11 41 11q32 0 54 -20.5t22 -58.5q0 -39 -24 -64t-69 -25q-38 0 -61.5 19t-27.5 55h54q1 -13 11 -21t23 -8q37 0 37 43q0 41 -36 41q-21 0 -32 -17h-48v104h-28v595h-153v105h417v-105h-153v-595z" />
    <glyph glyph-name="uni0163" unicode="&#x163;" horiz-adv-x="296" 
d="M247 -48q32 0 54 -20.5t22 -58.5q0 -39 -24 -64t-69 -25q-38 0 -61.5 19t-27.5 55h54q1 -13 11 -21t23 -8q37 0 37 43q0 41 -36 41q-21 0 -32 -17h-48v104h15q-86 25 -86 136v241h-64v88h64v142h106v-142h80v-88h-80v-215q0 -71 55 -71q13 0 31 3v-94q-32 -6 -60 -6h-5
v-53q13 11 41 11z" />
    <glyph glyph-name="Tcaron" unicode="&#x164;" horiz-adv-x="427" 
d="M214 734l-140 119l56 49l84 -77l85 77l56 -49zM158 0v595h-153v105h417v-105h-153v-595h-111z" />
    <glyph glyph-name="tcaron" unicode="&#x165;" horiz-adv-x="358" 
d="M288 717q38 0 61.5 -27t23.5 -76q0 -58 -30 -91t-84 -33q-14 0 -21 1v46q7 -1 19 -1q34 0 50 19q12 16 11 44q-13 -16 -41 -16q-26 0 -43 18.5t-17 47.5q0 30 20 49t51 19zM185 162q0 -71 55 -71q13 0 31 3v-94q-32 -6 -60 -6q-63 0 -97.5 37t-34.5 105v241h-64v88h64
v142h106v-142h80v-88h-80v-215z" />
    <glyph glyph-name="Tbar" unicode="&#x166;" horiz-adv-x="427" 
d="M422 595h-153v-152h117v-80h-117v-363h-111v363h-117v80h117v152h-153v105h417v-105z" />
    <glyph glyph-name="tbar" unicode="&#x167;" horiz-adv-x="298" 
d="M242 91q13 0 31 3v-94q-31 -6 -60 -6q-63 0 -97.5 37t-34.5 105v93h-66v73h66v75h-64v88h64v142h106v-142h80v-88h-80v-75h73v-73h-73v-67q0 -71 55 -71z" />
    <glyph glyph-name="Utilde" unicode="&#x168;" horiz-adv-x="562" 
d="M329 742q-28 0 -60.5 22.5t-48.5 22.5q-27 0 -51 -30l-41 49q42 59 98 59q28 0 61 -22.5t48 -22.5q26 0 50 32l41 -48q-40 -62 -97 -62zM280 -17q-105 0 -167.5 65.5t-62.5 184.5v467h113v-458q0 -75 32 -116.5t85 -41.5q54 0 86.5 41.5t32.5 116.5v458h113v-467
q0 -120 -62.5 -185t-169.5 -65z" />
    <glyph glyph-name="utilde" unicode="&#x169;" horiz-adv-x="482" 
d="M298 527q-30 0 -64 22t-50 22q-22 0 -55 -33l-38 50q47 65 98 65q30 0 64 -22t50 -22q22 0 55 33l38 -50q-45 -65 -98 -65zM188 -12q-65 0 -101.5 46.5t-36.5 128.5v302h107v-280q0 -106 77 -106q42 0 64.5 31.5t22.5 90.5v264h106v-465h-106v67q-37 -79 -133 -79z" />
    <glyph glyph-name="Umacron" unicode="&#x16a;" horiz-adv-x="562" 
d="M142 764v84h279v-84h-279zM280 -17q-105 0 -167.5 65.5t-62.5 184.5v467h113v-458q0 -75 32 -116.5t85 -41.5q54 0 86.5 41.5t32.5 116.5v458h113v-467q0 -120 -62.5 -185t-169.5 -65z" />
    <glyph glyph-name="umacron" unicode="&#x16b;" horiz-adv-x="482" 
d="M113 557v83h257v-83h-257zM188 -12q-65 0 -101.5 46.5t-36.5 128.5v302h107v-280q0 -106 77 -106q42 0 64.5 31.5t22.5 90.5v264h106v-465h-106v67q-37 -79 -133 -79z" />
    <glyph glyph-name="Ubreve" unicode="&#x16c;" horiz-adv-x="562" 
d="M281 736q-66 0 -106.5 37.5t-42.5 99.5h87q1 -29 17 -46.5t45 -17.5q28 0 44.5 17.5t17.5 46.5h87q-2 -62 -42.5 -99.5t-106.5 -37.5zM280 -17q-105 0 -167.5 65.5t-62.5 184.5v467h113v-458q0 -75 32 -116.5t85 -41.5q54 0 86.5 41.5t32.5 116.5v458h113v-467
q0 -120 -62.5 -185t-169.5 -65z" />
    <glyph glyph-name="ubreve" unicode="&#x16d;" horiz-adv-x="482" 
d="M242 509q-67 0 -107 38t-44 106h87q2 -33 18.5 -51.5t45.5 -18.5t46 18.5t18 51.5h86q-3 -68 -43 -106t-107 -38zM188 -12q-65 0 -101.5 46.5t-36.5 128.5v302h107v-280q0 -106 77 -106q42 0 64.5 31.5t22.5 90.5v264h106v-465h-106v67q-37 -79 -133 -79z" />
    <glyph glyph-name="Uring" unicode="&#x16e;" horiz-adv-x="562" 
d="M281 663q-52 0 -86 33t-34 83t34 83.5t86 33.5t86.5 -33.5t34.5 -83.5t-34.5 -83t-86.5 -33zM281 721q26 0 42 16t16 42t-16 42t-42 16t-42 -16t-16 -42q0 -25 16.5 -41.5t41.5 -16.5zM282 -17q-107 0 -169.5 65t-62.5 185v467h113v-458q0 -75 32.5 -116.5t86.5 -41.5
q53 0 85 41.5t32 116.5v458h113v-467q0 -119 -62.5 -184.5t-167.5 -65.5z" />
    <glyph glyph-name="uring" unicode="&#x16f;" horiz-adv-x="482" 
d="M242 502q-48 0 -80.5 31t-32.5 79t32.5 79t80.5 31q49 0 81.5 -31t32.5 -79t-32.5 -79t-81.5 -31zM242 556q24 0 39 15.5t15 40.5t-15 40.5t-39 15.5q-23 0 -38.5 -15.5t-15.5 -40.5t15.5 -40.5t38.5 -15.5zM188 -12q-65 0 -101.5 46.5t-36.5 128.5v302h107v-280
q0 -106 77 -106q42 0 64.5 31.5t22.5 90.5v264h106v-465h-106v67q-37 -79 -133 -79z" />
    <glyph glyph-name="Uhungarumlaut" unicode="&#x170;" horiz-adv-x="562" 
d="M219 735l-58 25l104 131l66 -36zM350 734l-57 26l105 131l64 -38zM280 -17q-105 0 -167.5 65.5t-62.5 184.5v467h113v-458q0 -75 32 -116.5t85 -41.5q54 0 86.5 41.5t32.5 116.5v458h113v-467q0 -120 -62.5 -185t-169.5 -65z" />
    <glyph glyph-name="uhungarumlaut" unicode="&#x171;" horiz-adv-x="482" 
d="M184 510l-44 27l97 147l61 -46zM317 510l-44 27l97 147l62 -46zM188 -12q-65 0 -101.5 46.5t-36.5 128.5v302h107v-280q0 -106 77 -106q42 0 64.5 31.5t22.5 90.5v264h106v-465h-106v67q-37 -79 -133 -79z" />
    <glyph glyph-name="Uogonek" unicode="&#x172;" horiz-adv-x="562" 
d="M399 700h113v-467q0 -91 -36.5 -150.5t-102.5 -84.5q-62 -44 -62 -97q0 -34 27 -34q20 0 38 7v-60q-33 -16 -67 -16q-37 0 -59 23t-22 63q0 61 39 99q-100 5 -158.5 70t-58.5 180v467h113v-458q0 -75 32 -116.5t85 -41.5q54 0 86.5 41.5t32.5 116.5v458z" />
    <glyph glyph-name="uogonek" unicode="&#x173;" horiz-adv-x="482" 
d="M390 -133q20 0 38 7v-60q-33 -16 -67 -16q-37 0 -59 23t-22 63q0 72 59 116h-18v67q-37 -79 -133 -79q-65 0 -101.5 46.5t-36.5 128.5v302h107v-280q0 -106 77 -106q42 0 64.5 31.5t22.5 90.5v264h106v-465q-64 -46 -64 -99q0 -34 27 -34z" />
    <glyph glyph-name="Wcircumflex" unicode="&#x174;" horiz-adv-x="689" 
d="M345 901l140 -119l-56 -49l-84 77l-85 -77l-56 49zM135 0l-125 700h114l73 -509l106 509h82l107 -509l73 509h114l-125 -700h-106l-104 473l-104 -473h-105z" />
    <glyph glyph-name="wcircumflex" unicode="&#x175;" horiz-adv-x="631" 
d="M316 689l144 -132l-56 -52l-88 82l-87 -82l-56 52zM136 0l-131 465h109l70 -308l79 308h105l79 -308l69 308h109l-130 -465h-91l-89 336l-88 -336h-91z" />
    <glyph glyph-name="Ycircumflex" unicode="&#x176;" horiz-adv-x="476" 
d="M254 810l-85 -77l-56 49l141 119l140 -119l-56 -49zM375 700h116l-295 -700h-117l111 262l-190 438h119l131 -313z" />
    <glyph glyph-name="ycircumflex" unicode="&#x177;" horiz-adv-x="482" 
d="M241 689l144 -132l-56 -52l-88 82l-87 -82l-56 52zM321 465h106v-470q0 -127 -68 -181q-47 -36 -122 -36q-81 0 -127 34q-58 42 -59 125h104q2 -34 23.5 -53.5t59.5 -19.5q43 0 63 29.5t20 93.5v80q-37 -79 -133 -79q-67 0 -102.5 48t-35.5 127v302h107v-280
q0 -106 77 -106q42 0 64.5 31.5t22.5 90.5v264z" />
    <glyph glyph-name="Ydieresis" unicode="&#x178;" horiz-adv-x="476" 
d="M162 743q-31 0 -51.5 20t-20.5 52t20.5 52t51.5 20t51.5 -20t20.5 -52t-20.5 -52t-51.5 -20zM343 743q-31 0 -51.5 20t-20.5 52t20.5 52t51.5 20t51.5 -20t20.5 -52t-20.5 -52t-51.5 -20zM375 700h116l-295 -700h-117l111 262l-190 438h119l131 -313z" />
    <glyph glyph-name="Zacute" unicode="&#x179;" horiz-adv-x="460" 
d="M165 732l-36 71l205 93l36 -71zM20 0l260 601h-246v99h401l-261 -601h259v-99h-413z" />
    <glyph glyph-name="zacute" unicode="&#x17a;" horiz-adv-x="373" 
d="M79 515l-37 75l215 98l37 -74zM10 0l198 372h-186v93h336l-192 -371h190v-94h-346z" />
    <glyph glyph-name="Zdotaccent" unicode="&#x17b;" horiz-adv-x="460" 
d="M235 735q-33 0 -54.5 22t-21.5 54t21.5 54t54.5 22t54 -22t21 -54t-21 -54t-54 -22zM20 0l260 601h-246v99h401l-261 -601h259v-99h-413z" />
    <glyph glyph-name="zdotaccent" unicode="&#x17c;" horiz-adv-x="373" 
d="M172 535q-34 0 -56 21.5t-22 56.5t22 56t56 21t55.5 -21t21.5 -56t-21.5 -56.5t-55.5 -21.5zM10 0l198 372h-186v93h336l-192 -371h190v-94h-346z" />
    <glyph glyph-name="Zcaron" unicode="&#x17d;" horiz-adv-x="460" 
d="M235 734l-140 119l56 49l84 -77l85 77l56 -49zM20 0l260 601h-246v99h401l-261 -601h259v-99h-413z" />
    <glyph glyph-name="zcaron" unicode="&#x17e;" horiz-adv-x="373" 
d="M172 514l-143 132l56 52l87 -82l88 82l56 -52zM10 0l198 372h-186v93h336l-192 -371h190v-94h-346z" />
    <glyph glyph-name="florin" unicode="&#x192;" horiz-adv-x="372" 
d="M338 597q-31 0 -45.5 -18.5t-23.5 -69.5l-8 -45h91l-16 -88h-91l-77 -420q-30 -172 -147 -172q-47 0 -80 12l15 89q21 -7 48 -7q26 0 38 16.5t20 59.5l76 422h-68l16 88h68l8 47q17 94 55.5 137.5t103.5 43.5q45 0 71 -12l-16 -90q-17 7 -38 7z" />
    <glyph glyph-name="AEacute" unicode="&#x1fc;" horiz-adv-x="710" 
d="M613 825l-205 -93l-36 71l205 93zM660 601h-206v-200h206v-100h-206v-202h206v-99h-312v147h-174l-57 -147h-112l294 700h361v-99zM210 240h138v354z" />
    <glyph glyph-name="aeacute" unicode="&#x1fd;" horiz-adv-x="702" 
d="M476 614l-215 -99l-37 75l215 98zM676 254q0 -28 -4 -53h-279q2 -57 27.5 -90t72.5 -33q61 0 77 65h100q-9 -73 -54 -114t-122 -41q-103 0 -150 72q-46 -72 -149 -72q-81 0 -125.5 38.5t-44.5 106.5q0 65 42 101q49 43 149 43h85v39q0 37 -22 57.5t-61 20.5
q-72 0 -80 -73h-101q5 74 51.5 115t129.5 41q96 0 137 -60q48 60 134 60q90 0 138.5 -62t48.5 -161zM393 277h179q0 117 -84 117q-44 0 -69.5 -31.5t-25.5 -85.5zM301 180v21h-71q-97 0 -97 -67q0 -65 71 -65q46 0 71.5 29.5t25.5 81.5z" />
    <glyph glyph-name="Oslashacute" unicode="&#x1fe;" horiz-adv-x="602" 
d="M437 825l-205 -93l-36 71l205 93zM474 657q103 -91 103 -307q0 -178 -71 -272.5t-205 -94.5q-71 0 -125 27l-29 -63l-52 19l35 75q-105 91 -105 309q0 178 71 272.5t205 94.5q71 0 127 -28l29 63l52 -19zM142 350q0 -130 39 -197l202 438q-34 25 -82 25q-159 0 -159 -266
zM301 84q159 0 159 266q0 127 -38 195l-201 -437q33 -24 80 -24z" />
    <glyph glyph-name="oslashacute" unicode="&#x1ff;" horiz-adv-x="481" 
d="M367 613l-215 -99l-37 75l215 98zM367 439q89 -64 89 -206q0 -113 -58 -179t-158 -66q-35 0 -65 9l-21 -49l-51 18l23 52q-101 62 -101 215q0 112 58 178t157 66q42 0 79 -13l24 54l51 -17zM131 233q0 -82 36 -121l114 264q-19 8 -41 8q-53 0 -81 -39t-28 -112zM240 82
q53 0 81 39t28 112q0 70 -25 107l-111 -255q13 -3 27 -3z" />
    <glyph glyph-name="Scommaaccent" unicode="&#x218;" horiz-adv-x="468" 
d="M243 -17q-108 0 -165 59.5t-57 175.5h114q0 -65 28 -99.5t79 -34.5q42 0 66 25t24 67q0 39 -20.5 65.5t-66.5 50.5l-83 43q-67 34 -98 80.5t-31 115.5q0 84 55.5 135t145.5 51q204 0 204 -218h-115q0 117 -91 117q-40 0 -62.5 -22.5t-22.5 -61.5q0 -37 21 -59.5t70 -48.5
l78 -44q70 -39 100.5 -84t30.5 -113q0 -89 -56.5 -144.5t-147.5 -55.5zM192 -209v34q29 0 47 15q13 12 15 30q-3 -5 -15 -5q-24 0 -39.5 15t-15.5 36q0 23 15 38.5t37 15.5q27 0 44.5 -19t17.5 -50q0 -58 -27 -83.5t-79 -26.5z" />
    <glyph glyph-name="scommaaccent" unicode="&#x219;" horiz-adv-x="398" 
d="M206 -12q-80 0 -130.5 45t-50.5 109h107q0 -30 21.5 -49.5t55.5 -19.5q29 0 45 15t16 41q0 41 -44 55l-91 28q-48 15 -73.5 49t-25.5 80q0 57 45.5 96.5t119.5 39.5q80 0 124 -40.5t44 -103.5h-106q0 63 -64 63q-27 0 -44.5 -13.5t-17.5 -35.5q0 -38 45 -53l95 -33
q46 -15 71 -48t25 -74q0 -68 -43 -109.5t-124 -41.5zM147 -209v34q29 0 47 15q13 12 15 30q-3 -5 -15 -5q-24 0 -39.5 15t-15.5 36q0 23 15 38.5t37 15.5q27 0 44.5 -19t17.5 -50q0 -58 -27 -83.5t-79 -26.5z" />
    <glyph glyph-name="uni021A" unicode="&#x21a;" horiz-adv-x="427" 
d="M158 0v595h-153v105h417v-105h-153v-595h-111zM167 -209v34q29 0 47 15q13 12 15 30q-3 -5 -15 -5q-24 0 -39.5 15t-15.5 36q0 23 15 38.5t37 15.5q27 0 44.5 -19t17.5 -50q0 -58 -27 -83.5t-79 -26.5z" />
    <glyph glyph-name="uni021B" unicode="&#x21b;" horiz-adv-x="296" 
d="M240 91q13 0 31 3v-94q-32 -6 -60 -6q-63 0 -97.5 37t-34.5 105v241h-64v88h64v142h106v-142h80v-88h-80v-215q0 -71 55 -71zM175 -30q27 0 44.5 -19t17.5 -50q0 -58 -27 -83.5t-79 -26.5v34q29 0 47 15q13 12 15 30q-3 -5 -15 -5q-24 0 -39.5 15t-15.5 36q0 23 15 38.5
t37 15.5z" />
    <glyph glyph-name="uni0237" unicode="&#x237;" horiz-adv-x="216" 
d="M40 -216q-33 0 -60 9v95q13 -4 36 -4q39 0 39 50v531h106v-543q0 -138 -121 -138z" />
    <glyph glyph-name="uni0243" unicode="&#x243;" horiz-adv-x="513" 
d="M483 189q0 -68 -37 -114.5t-104 -64.5v-110h-80v100h-6h-43v-100h-80v100h-73v679h73v101h80v-101h49v101h80v-111q63 -17 97.5 -60t34.5 -106q0 -126 -132 -154q63 -6 102 -50t39 -110zM357 489q0 95 -111 95h-75v-190h73q113 0 113 95zM246 96q62 0 91 25t29 78
q0 45 -28.5 71.5t-76.5 26.5h-90v-201h75z" />
    <glyph glyph-name="uni02BC" unicode="&#x2bc;" horiz-adv-x="263" 
d="M127 739q34 0 62.5 -28.5t28.5 -84.5q0 -63 -34 -103t-98 -40q-22 0 -35 3v45q14 -2 35 -2q33 0 55 25q19 19 22 52q-13 -16 -41 -16q-30 0 -50.5 20t-20.5 53q0 34 21.5 55t54.5 21z" />
    <glyph glyph-name="circumflex" unicode="&#x2c6;" horiz-adv-x="600" 
d="M193 689l144 -132l-56 -52l-88 82l-87 -82l-56 52z" />
    <glyph glyph-name="caron" unicode="&#x2c7;" horiz-adv-x="600" 
d="M193 514l-143 132l56 52l87 -82l88 82l56 -52z" />
    <glyph glyph-name="breve" unicode="&#x2d8;" horiz-adv-x="600" 
d="M201 509q-67 0 -107 38t-44 106h87q2 -33 18.5 -51.5t45.5 -18.5t46 18.5t18 51.5h86q-3 -68 -43 -106t-107 -38z" />
    <glyph glyph-name="dotaccent" unicode="&#x2d9;" horiz-adv-x="600" 
d="M300 535q-34 0 -56 21.5t-22 56.5t22 56t56 21t55.5 -21t21.5 -56t-21.5 -56.5t-55.5 -21.5z" />
    <glyph glyph-name="ring" unicode="&#x2da;" horiz-adv-x="600" 
d="M155 479q-48 0 -80.5 31t-32.5 79t32.5 79t80.5 31q49 0 81.5 -31t32.5 -79t-32.5 -79t-81.5 -31zM155 533q24 0 39 15.5t15 40.5t-15 40.5t-39 15.5q-23 0 -38.5 -15.5t-15.5 -40.5t15.5 -40.5t38.5 -15.5z" />
    <glyph glyph-name="ogonek" unicode="&#x2db;" horiz-adv-x="600" 
d="M151 -202q-37 0 -59 23t-22 63q0 73 60 117l87 -1q-64 -46 -64 -99q0 -34 27 -34q20 0 38 7v-60q-33 -16 -67 -16z" />
    <glyph glyph-name="tilde" unicode="&#x2dc;" horiz-adv-x="600" 
d="M257 527q-30 0 -64 22t-50 22q-22 0 -55 -33l-38 50q47 65 98 65q30 0 64 -22t50 -22q22 0 55 33l38 -50q-45 -65 -98 -65z" />
    <glyph glyph-name="hungarumlaut" unicode="&#x2dd;" horiz-adv-x="600" 
d="M96 510l-44 27l97 147l61 -46zM229 510l-44 27l97 147l62 -46z" />
    <glyph glyph-name="gravecomb" unicode="&#x300;" horiz-adv-x="0" 
d="M-87 515l-215 99l37 74l215 -98z" />
    <glyph glyph-name="acutecomb" unicode="&#x301;" horiz-adv-x="0" 
d="M-265 515l-37 75l215 98l37 -74z" />
    <glyph glyph-name="uni0302" unicode="&#x302;" horiz-adv-x="0" 
d="M-194 689l144 -132l-56 -52l-88 82l-87 -82l-56 52z" />
    <glyph glyph-name="tildecomb" unicode="&#x303;" horiz-adv-x="0" 
d="M-148 527q-30 0 -64 22t-50 22q-22 0 -55 -33l-38 50q47 65 98 65q30 0 64 -22t50 -22q22 0 55 33l38 -50q-45 -65 -98 -65z" />
    <glyph glyph-name="uni0304" unicode="&#x304;" horiz-adv-x="0" 
d="M-307 557v83h257v-83h-257z" />
    <glyph glyph-name="uni0306" unicode="&#x306;" horiz-adv-x="0" 
d="M-200 509q-67 0 -107 38t-44 106h87q2 -33 18.5 -51.5t45.5 -18.5t46 18.5t18 51.5h86q-3 -68 -43 -106t-107 -38z" />
    <glyph glyph-name="uni0307" unicode="&#x307;" horiz-adv-x="0" 
d="M-127 535q-34 0 -56 21.5t-22 56.5t22 56t56 21t55.5 -21t21.5 -56t-21.5 -56.5t-55.5 -21.5z" />
    <glyph glyph-name="uni0308" unicode="&#x308;" horiz-adv-x="0" 
d="M-288 541q-30 0 -49.5 18.5t-19.5 50.5q0 31 19.5 50t49.5 19t49.5 -19t19.5 -50q0 -32 -19.5 -50.5t-49.5 -18.5zM-109 541q-30 0 -49.5 18.5t-19.5 50.5q0 31 19.5 50t49.5 19t49.5 -19t19.5 -50q0 -32 -19 -50.5t-50 -18.5z" />
    <glyph glyph-name="uni030A" unicode="&#x30a;" horiz-adv-x="0" 
d="M-163 479q-48 0 -80.5 31t-32.5 79t32.5 79t80.5 31q49 0 81.5 -31t32.5 -79t-32.5 -79t-81.5 -31zM-163 533q24 0 39 15.5t15 40.5t-15 40.5t-39 15.5q-23 0 -38.5 -15.5t-15.5 -40.5t15.5 -40.5t38.5 -15.5z" />
    <glyph glyph-name="uni030B" unicode="&#x30b;" horiz-adv-x="0" 
d="M-296 510l-44 27l97 147l61 -46zM-163 510l-44 27l97 147l62 -46z" />
    <glyph glyph-name="uni030C" unicode="&#x30c;" horiz-adv-x="0" 
d="M-194 514l-143 132l56 52l87 -82l88 82l56 -52z" />
    <glyph glyph-name="uni0312" unicode="&#x312;" horiz-adv-x="0" 
d="M-47 695v-35q-33 0 -50 -15q-18 -12 -18 -33q7 7 20 7q23 0 38 -16t15 -39t-16.5 -39t-39.5 -16q-27 0 -45 23t-18 59q0 46 30.5 74.5t83.5 29.5z" />
    <glyph glyph-name="uni0326" unicode="&#x326;" horiz-adv-x="0" 
d="M-173 -209v34q29 0 47 15q13 12 15 30q-3 -5 -15 -5q-24 0 -39.5 15t-15.5 36q0 23 15 38.5t37 15.5q27 0 44.5 -19t17.5 -50q0 -58 -27 -83.5t-79 -26.5z" />
    <glyph glyph-name="uni0327" unicode="&#x327;" horiz-adv-x="0" 
d="M-140 -216q-38 0 -61.5 19t-27.5 55h54q1 -13 11 -21t23 -8q37 0 37 43q0 41 -36 41q-21 0 -32 -17h-48v104h56v-59q13 11 41 11q32 0 54 -20.5t22 -58.5q0 -39 -24 -64t-69 -25z" />
    <glyph glyph-name="uni0328" unicode="&#x328;" horiz-adv-x="0" 
d="M-116 -202q-37 0 -59 23t-22 63q0 73 60 117l87 -1q-64 -46 -64 -99q0 -34 27 -34q20 0 38 7v-60q-33 -16 -67 -16z" />
    <glyph glyph-name="uni0394" unicode="&#x394;" horiz-adv-x="554" 
d="M15 0l222 700h79l222 -700h-523zM170 100h214l-107 424z" />
    <glyph glyph-name="uni03A9" unicode="&#x3a9;" horiz-adv-x="605" 
d="M34 0v100h141v20q-72 34 -111 106t-39 173q0 135 75.5 224t202.5 89q126 0 201.5 -89t75.5 -224q0 -101 -39 -173t-111 -106v-20h141v-100h-228v178q125 36 125 226q0 93 -42.5 150.5t-122.5 57.5t-123 -57.5t-43 -150.5q0 -191 126 -226v-178h-229z" />
    <glyph glyph-name="uni03BC" unicode="&#x3bc;" horiz-adv-x="487" 
d="M326 465h106v-465h-106v67q-37 -79 -133 -79q-16 0 -31 3v-201h-107v675h107v-280q0 -106 77 -106q42 0 64.5 31.5t22.5 90.5v264z" />
    <glyph glyph-name="pi" unicode="&#x3c0;" horiz-adv-x="571" 
d="M125 0v370h-70v94h461v-94h-69v-370h-106v370h-110v-370h-106z" />
    <glyph glyph-name="uni0401" unicode="&#x401;" horiz-adv-x="462" 
d="M152 743q-31 0 -51.5 20t-20.5 52t20.5 52t51.5 20t51.5 -20t20.5 -52t-20.5 -52t-51.5 -20zM333 743q-31 0 -51.5 20t-20.5 52t20.5 52t51.5 20t51.5 -20t20.5 -52t-20.5 -52t-51.5 -20zM60 0v700h352v-99h-241v-200h241v-100h-241v-202h241v-99h-352z" />
    <glyph glyph-name="uni0402" unicode="&#x402;" horiz-adv-x="599" 
d="M388 485q81 0 133.5 -64t52.5 -176q0 -127 -52 -191.5t-162 -64.5q-16 0 -41 5v94q17 -5 33 -5q51 0 81 40.5t30 114.5q0 80 -30 118t-81 38q-46 0 -83 -31v-363h-111v595h-153v105h417v-105h-153v-143q50 33 119 33z" />
    <glyph glyph-name="uni0403" unicode="&#x403;" horiz-adv-x="399" 
d="M178 732l-36 71l205 93l36 -71zM60 700h334v-105h-223v-595h-111v700z" />
    <glyph glyph-name="uni0404" unicode="&#x404;" horiz-adv-x="556" 
d="M406 214h118q-32 -230 -236 -230q-125 0 -194 96t-69 270t68 270t191 96q104 0 165 -60t74 -177h-118q-11 74 -40 105.5t-85 31.5q-128 0 -138 -227h185v-80h-185q5 -108 41.5 -166.5t98.5 -58.5q52 0 81.5 31t42.5 99z" />
    <glyph glyph-name="uni0405" unicode="&#x405;" horiz-adv-x="468" 
d="M243 -17q-108 0 -165 59.5t-57 175.5h114q0 -65 28 -99.5t79 -34.5q42 0 66 25t24 67q0 39 -20.5 65.5t-66.5 50.5l-83 43q-67 34 -98 80.5t-31 115.5q0 84 55.5 135t145.5 51q204 0 204 -218h-115q0 117 -91 117q-40 0 -62.5 -22.5t-22.5 -61.5q0 -37 21 -59.5t70 -48.5
l78 -44q70 -39 100.5 -84t30.5 -113q0 -89 -56.5 -144.5t-147.5 -55.5z" />
    <glyph glyph-name="uni0406" unicode="&#x406;" horiz-adv-x="232" 
d="M60 0v700h111v-700h-111z" />
    <glyph glyph-name="uni0407" unicode="&#x407;" horiz-adv-x="232" 
d="M38 744q-29 0 -49 19.5t-20 49.5t20 49.5t49 19.5t49 -19.5t20 -49.5t-20 -49.5t-49 -19.5zM194 744q-30 0 -49.5 19.5t-19.5 49.5t19.5 49.5t49.5 19.5q29 0 49 -19.5t20 -49.5t-20 -49.5t-49 -19.5zM60 0v700h111v-700h-111z" />
    <glyph glyph-name="uni0408" unicode="&#x408;" horiz-adv-x="459" 
d="M216 -17q-199 0 -201 236h112q0 -71 20.5 -103t64.5 -32q45 0 65.5 31t20.5 101v484h111v-484q0 -113 -49 -173t-144 -60z" />
    <glyph glyph-name="uni0409" unicode="&#x409;" horiz-adv-x="853" 
d="M640 402q82 0 135 -58.5t53 -142.5t-53 -142.5t-136 -58.5h-232v600h-187v-354q0 -253 -152 -253h-48v95h22q40 0 53.5 37t13.5 143v432h410v-298h121zM623 99q41 0 67 29.5t26 72.5q0 44 -25 74.5t-67 30.5h-105v-207h104z" />
    <glyph glyph-name="uni040A" unicode="&#x40a;" horiz-adv-x="841" 
d="M628 402q82 0 135 -58.5t53 -142.5t-53 -142.5t-136 -58.5h-232v297h-224v-297h-111v700h111v-302h224v302h111v-298h122zM611 99q41 0 67 29.5t26 72.5q0 44 -25 74.5t-67 30.5h-106v-207h105z" />
    <glyph glyph-name="uni040B" unicode="&#x40b;" horiz-adv-x="610" 
d="M385 483q80 0 127.5 -56t47.5 -141v-286h-111v260q0 65 -27 98.5t-73 33.5q-17 0 -27.5 -1.5t-25 -9.5t-27.5 -24v-357h-111v595h-153v105h417v-105h-153v-148q42 36 116 36z" />
    <glyph glyph-name="uni040C" unicode="&#x40c;" horiz-adv-x="509" 
d="M417 825l-205 -93l-36 71l205 93zM274 366h-8l236 -366h-132l-199 339v-339h-111v700h111v-297h4q26 0 52 46l90 157q30 52 60 75t72 23h54l-5 -101h-31q-19 0 -32 -9t-31 -39l-91 -154q-20 -35 -39 -35z" />
    <glyph glyph-name="uni040E" unicode="&#x40e;" horiz-adv-x="476" 
d="M253 736q-66 0 -106.5 37.5t-42.5 99.5h87q1 -29 17 -46.5t45 -17.5q28 0 44.5 17.5t17.5 46.5h87q-2 -62 -42.5 -99.5t-106.5 -37.5zM375 700h116l-295 -700h-117l111 262l-190 438h119l131 -313z" />
    <glyph glyph-name="uni040F" unicode="&#x40f;" horiz-adv-x="569" 
d="M508 700v-700h-168v-120h-112v120h-168v700h112v-600h224v600h112z" />
    <glyph glyph-name="uni0410" unicode="&#x410;" 
d="M406 0l-30 117h-213l-30 -117h-118l210 700h89l210 -700h-118zM188 215h163l-81 321z" />
    <glyph glyph-name="uni0411" unicode="&#x411;" horiz-adv-x="505" 
d="M60 0v700h378v-100h-267v-198h128q78 0 129.5 -58.5t51.5 -142.5q0 -83 -52 -142t-131 -59h-237zM171 99h115q36 0 59.5 29.5t23.5 72.5q0 44 -22.5 74.5t-59.5 30.5h-116v-207z" />
    <glyph glyph-name="uni0412" unicode="&#x412;" horiz-adv-x="514" 
d="M343 360q62 -6 101.5 -52t39.5 -113q0 -91 -60.5 -143t-167.5 -52h-196v700h203q98 0 155 -48.5t57 -132.5q0 -130 -132 -159zM247 603h-76v-198h74q54 0 83.5 25.5t29.5 73.5q0 99 -111 99zM247 97q62 0 91 25.5t29 81.5q0 47 -28.5 75t-76.5 28h-91v-210h76z" />
    <glyph glyph-name="uni0413" unicode="&#x413;" horiz-adv-x="399" 
d="M60 700h334v-105h-223v-595h-111v700z" />
    <glyph glyph-name="uni0414" unicode="&#x414;" horiz-adv-x="606" 
d="M531 100h45v-220h-106v120h-338v-120h-112v220h33q45 0 67.5 35.5t22.5 133.5v431h388v-600zM215 100h205v500h-166v-329q0 -101 -39 -171z" />
    <glyph glyph-name="uni0415" unicode="&#x415;" horiz-adv-x="462" 
d="M60 0v700h352v-99h-241v-200h241v-100h-241v-202h241v-99h-352z" />
    <glyph glyph-name="uni0416" unicode="&#x416;" horiz-adv-x="785" 
d="M551 366h-8l236 -366h-132l-198 338v-338h-112v338l-198 -338h-132l236 366h-8q-19 0 -39 35l-91 154q-18 30 -31 39t-32 9h-31l-5 101h54q42 0 72 -23t60 -75l90 -157q26 -46 52 -46h3v297h112v-297h3q26 0 52 46l90 157q30 52 60 75t72 23h54l-5 -101h-31q-19 0 -32 -9
t-31 -39l-91 -154q-20 -35 -39 -35z" />
    <glyph glyph-name="uni0417" unicode="&#x417;" horiz-adv-x="482" 
d="M138 189q0 -50 26.5 -78t73.5 -28q94 0 94 114q0 111 -105 111h-54v100h54q50 0 74 33.5t24 82.5q0 41 -23 67t-68 26q-91 0 -91 -100h-113q0 92 54.5 146t160.5 54q83 0 138.5 -51t55.5 -143q0 -60 -30 -103.5t-75 -56.5q49 -10 81 -54t32 -111q0 -94 -56 -154.5
t-140 -60.5q-111 0 -168.5 53.5t-57.5 152.5h113z" />
    <glyph glyph-name="uni0418" unicode="&#x418;" horiz-adv-x="568" 
d="M396 467l-225 -401v-66h-111v700h111v-466l225 400v66h111v-700h-111v467z" />
    <glyph glyph-name="uni0419" unicode="&#x419;" horiz-adv-x="568" 
d="M286 716q-66 0 -106.5 32t-42.5 85h87q1 -20 17 -32t45 -12q28 0 44.5 12t17.5 32h87q-2 -53 -42.5 -85t-106.5 -32zM396 467l-225 -401v-66h-111v700h111v-466l225 400v66h111v-700h-111v467z" />
    <glyph glyph-name="uni041A" unicode="&#x41a;" horiz-adv-x="509" 
d="M274 366h-8l236 -366h-132l-199 339v-339h-111v700h111v-297h4q26 0 52 46l90 157q30 52 60 75t72 23h54l-5 -101h-31q-19 0 -32 -9t-31 -39l-91 -154q-20 -35 -39 -35z" />
    <glyph glyph-name="uni041B" unicode="&#x41b;" horiz-adv-x="579" 
d="M20 88h22q40 0 53.5 37t13.5 143v432h410v-700h-111v600h-188v-354q0 -253 -152 -253h-48v95z" />
    <glyph glyph-name="uni041C" unicode="&#x41c;" horiz-adv-x="666" 
d="M60 0v700h117l156 -536l156 536h117v-700h-105v449l-135 -449h-66l-134 449v-449h-106z" />
    <glyph glyph-name="uni041D" unicode="&#x41d;" horiz-adv-x="567" 
d="M60 0v700h111v-302h224v302h111v-700h-111v297h-224v-297h-111z" />
    <glyph glyph-name="uni041E" unicode="&#x41e;" horiz-adv-x="602" 
d="M301 -17q-134 0 -205 94.5t-71 272.5t71 272.5t205 94.5t205 -94.5t71 -272.5t-71 -272.5t-205 -94.5zM301 84q159 0 159 266t-159 266t-159 -266t159 -266z" />
    <glyph glyph-name="uni041F" unicode="&#x41f;" horiz-adv-x="570" 
d="M171 600v-600h-111v700h450v-700h-111v600h-228z" />
    <glyph glyph-name="uni0420" unicode="&#x420;" horiz-adv-x="501" 
d="M235 700q123 0 189 -65.5t66 -179.5t-66 -179t-189 -65h-64v-211h-111v700h175zM241 308q64 0 98 39.5t34 107.5q0 69 -34 109t-98 40h-70v-296h70z" />
    <glyph glyph-name="uni0421" unicode="&#x421;" horiz-adv-x="561" 
d="M288 -17q-129 0 -196 94.5t-67 272.5t67 272.5t196 94.5q113 0 174 -65t67 -191h-119q-5 79 -33 117t-88 38q-77 0 -112 -66.5t-35 -199.5t35 -199.5t112 -66.5q60 0 88 38t33 117h119q-6 -126 -67 -191t-174 -65z" />
    <glyph glyph-name="uni0422" unicode="&#x422;" horiz-adv-x="427" 
d="M158 0v595h-153v105h417v-105h-153v-595h-111z" />
    <glyph glyph-name="uni0423" unicode="&#x423;" horiz-adv-x="476" 
d="M375 700h116l-295 -700h-117l111 262l-190 438h119l131 -313z" />
    <glyph glyph-name="uni0424" unicode="&#x424;" horiz-adv-x="656" 
d="M399 609q110 0 178 -75t68 -184t-68 -183.5t-178 -74.5h-16v-92h-110v92h-16q-110 0 -178.5 74.5t-68.5 183.5t68.5 184t178.5 75h16v91h110v-91h16zM122 350q0 -67 37.5 -112.5t97.5 -45.5h16v316h-16q-60 0 -97.5 -45.5t-37.5 -112.5zM399 192q60 0 97.5 45.5
t37.5 112.5t-37.5 112.5t-97.5 45.5h-16v-316h16z" />
    <glyph glyph-name="uni0425" unicode="&#x425;" horiz-adv-x="502" 
d="M11 0l173 347l-173 353h125l115 -266l115 266h126l-174 -353l174 -347h-126l-115 259l-115 -259h-125z" />
    <glyph glyph-name="uni0426" unicode="&#x426;" horiz-adv-x="583" 
d="M508 100h45v-220h-106v120h-387v700h112v-600h224v600h112v-600z" />
    <glyph glyph-name="uni0427" unicode="&#x427;" horiz-adv-x="503" 
d="M332 0v253q-43 -36 -116 -36q-81 0 -128 56t-47 141v286h111v-260q0 -65 27 -98.5t73 -33.5q17 0 27 1.5t25 9.5t28 24v357h110v-700h-110z" />
    <glyph glyph-name="uni0428" unicode="&#x428;" horiz-adv-x="782" 
d="M60 0v700h111v-600h165v600h111v-600h164v600h111v-700h-662z" />
    <glyph glyph-name="uni0429" unicode="&#x429;" horiz-adv-x="797" 
d="M722 100h44v-220h-106v120h-600v700h111v-600h165v600h111v-600h164v600h111v-600z" />
    <glyph glyph-name="uni042A" unicode="&#x42a;" horiz-adv-x="598" 
d="M385 402q82 0 135 -58.5t53 -142.5t-53 -142.5t-136 -58.5h-232v600h-147v100h258v-298h122zM368 99q41 0 67 29.5t26 72.5q0 44 -25 74.5t-67 30.5h-106v-207h105z" />
    <glyph glyph-name="uni042B" unicode="&#x42b;" horiz-adv-x="709" 
d="M60 0v700h111v-298h122q82 0 135 -58.5t53 -142.5t-53 -142.5t-136 -58.5h-232zM537 0v700h111v-700h-111zM171 99h105q41 0 67 29.5t26 72.5q0 44 -25 74.5t-67 30.5h-106v-207z" />
    <glyph glyph-name="uni042C" unicode="&#x42c;" horiz-adv-x="506" 
d="M60 0v700h111v-298h122q82 0 135 -58.5t53 -142.5t-53 -142.5t-136 -58.5h-232zM171 99h105q41 0 67 29.5t26 72.5q0 44 -25 74.5t-67 30.5h-106v-207z" />
    <glyph glyph-name="uni042D" unicode="&#x42d;" horiz-adv-x="556" 
d="M272 716q123 0 191 -96t68 -270t-69 -270t-194 -96q-204 0 -236 230h118q13 -68 42.5 -99t81.5 -31q62 0 98.5 58.5t41.5 166.5h-185v80h185q-10 227 -138 227q-56 0 -85 -31.5t-40 -105.5h-118q13 117 74 177t165 60z" />
    <glyph glyph-name="uni042E" unicode="&#x42e;" horiz-adv-x="807" 
d="M505 717q134 0 205 -94.5t71 -272.5t-71 -272.5t-205 -94.5q-123 0 -193 81t-81 233h-60v-297h-111v700h111v-302h59q10 155 80.5 237t194.5 82zM505 84q159 0 159 266t-159 266t-159 -266t159 -266z" />
    <glyph glyph-name="uni042F" unicode="&#x42f;" horiz-adv-x="517" 
d="M282 700h175v-700h-111v211h-64h-13l-116 -211h-128l135 233q-133 55 -133 222q0 114 66 179.5t189 65.5zM276 308h70v296h-70q-64 0 -98 -40t-34 -109q0 -68 34 -107.5t98 -39.5z" />
    <glyph glyph-name="uni0430" unicode="&#x430;" horiz-adv-x="511" 
d="M216 -12q-86 0 -138.5 67t-52.5 178q0 110 52.5 177t138.5 67q94 0 133 -81v69h106v-465h-106v70q-39 -82 -133 -82zM240 82q53 0 82 39.5t29 111.5q0 71 -29 110.5t-82 39.5q-52 0 -80.5 -39t-28.5 -111t28.5 -111.5t80.5 -39.5z" />
    <glyph glyph-name="uni0431" unicode="&#x431;" horiz-adv-x="495" 
d="M256 -13q-120 0 -173 86.5t-53 230.5q0 183 78 289.5t236 106.5h82v-101h-108q-85 0 -134 -62t-54 -157q17 46 58.5 70.5t89.5 24.5q96 0 143.5 -68.5t47.5 -174.5q0 -114 -57.5 -179.5t-155.5 -65.5zM254 82q53 0 81 39t28 112t-28 112t-81 39t-81 -39t-28 -112t28 -112
t81 -39z" />
    <glyph glyph-name="uni0432" unicode="&#x432;" horiz-adv-x="442" 
d="M55 465h223q63 0 90.5 -37.5t27.5 -83.5q0 -41 -26.5 -70t-67.5 -33q47 -2 73.5 -31.5t26.5 -82.5q0 -20 -6.5 -40.5t-21 -41t-41.5 -33t-63 -12.5h-215v465zM235 274q23 0 37.5 18t14.5 42q0 26 -14 41.5t-38 15.5h-74v-117h74zM161 200v-126h75q24 0 39.5 17.5
t15.5 41.5q0 28 -15.5 47.5t-38.5 19.5h-76z" />
    <glyph glyph-name="uni0433" unicode="&#x433;" horiz-adv-x="340" 
d="M315 465v-98h-154v-367h-106v465h260z" />
    <glyph glyph-name="uni0434" unicode="&#x434;" horiz-adv-x="491" 
d="M426 100h44v-220h-106v120h-236v-120h-112v220h61q27 29 27 102v263h322v-365zM180 87l141 1v290h-112v-171q0 -67 -29 -120z" />
    <glyph glyph-name="uni0435" unicode="&#x435;" horiz-adv-x="447" 
d="M422 265q0 -38 -4 -67h-290q2 -57 29 -88t77 -31q69 0 86 57h96q-10 -71 -56.5 -109.5t-125.5 -38.5q-100 0 -154.5 63.5t-54.5 179.5t54 181t150 65q94 0 143.5 -58t49.5 -154zM128 278h191q0 116 -91 116q-46 0 -72.5 -30.5t-27.5 -85.5z" />
    <glyph glyph-name="uni0436" unicode="&#x436;" horiz-adv-x="684" 
d="M500 242l159 -242h-128l-136 216v-216h-106v216l-136 -216h-128l159 242h-5q-37 0 -60 47l-27 54q-10 22 -16 28t-19 6h-15v94h37q39 0 59.5 -12.5t37.5 -46.5l56 -110q17 -37 43 -37h14v200h106v-200h14q26 0 43 37l56 110q17 34 37.5 46.5t59.5 12.5h37v-94h-15
q-13 0 -19 -6t-16 -28l-27 -54q-23 -47 -60 -47h-5z" />
    <glyph glyph-name="uni0437" unicode="&#x437;" horiz-adv-x="426" 
d="M136 139q0 -30 20 -47t56 -17q68 0 68 59q0 29 -17 46t-48 17h-50v70h48q29 0 46 18t17 49q0 61 -63 61q-34 0 -51.5 -19t-17.5 -49h-102q0 69 45 109.5t127 40.5q79 0 123 -36t44 -94q0 -44 -23.5 -72.5t-60.5 -35.5q39 -5 64 -36t25 -76q0 -66 -50.5 -102.5
t-124.5 -36.5q-82 0 -129 41.5t-47 109.5h101z" />
    <glyph glyph-name="uni0438" unicode="&#x438;" horiz-adv-x="484" 
d="M324 284l-163 -246v-38h-106v465h106v-291l163 249v42h105v-465h-105v284z" />
    <glyph glyph-name="uni0439" unicode="&#x439;" horiz-adv-x="484" 
d="M248 497q-67 0 -107 36t-44 101h87q2 -30 18.5 -46.5t45.5 -16.5t46 16.5t18 46.5h86q-3 -65 -43 -101t-107 -36zM324 284l-163 -246v-38h-106v465h106v-291l163 249v42h105v-465h-105v284z" />
    <glyph glyph-name="uni043A" unicode="&#x43a;" horiz-adv-x="450" 
d="M266 242l159 -242h-128l-136 216v-216h-106v465h106v-200h14q26 0 43 37l56 110q17 34 37.5 46.5t59.5 12.5h37v-94h-15q-13 0 -19 -6t-16 -28l-27 -54q-23 -47 -60 -47h-5z" />
    <glyph glyph-name="uni043B" unicode="&#x43b;" horiz-adv-x="470" 
d="M25 84h15q54 0 54 100v281h321v-465h-106v373h-110v-185q0 -94 -33.5 -144.5t-96.5 -50.5h-44v91z" />
    <glyph glyph-name="uni043C" unicode="&#x43c;" horiz-adv-x="609" 
d="M55 0v465h167l82 -317l83 317h166v-465h-100v373l-110 -373h-78l-109 373v-373h-101z" />
    <glyph glyph-name="uni043D" unicode="&#x43d;" horiz-adv-x="484" 
d="M55 0v465h106v-185h163v185h105v-465h-105v192h-163v-192h-106z" />
    <glyph glyph-name="uni043E" unicode="&#x43e;" horiz-adv-x="481" 
d="M240 -12q-99 0 -157 66t-58 179q0 112 58 178t157 66q100 0 158 -66t58 -178q0 -113 -58 -179t-158 -66zM240 82q53 0 81 39t28 112t-28 112t-81 39t-81 -39t-28 -112t28 -112t81 -39z" />
    <glyph glyph-name="uni043F" unicode="&#x43f;" horiz-adv-x="483" 
d="M428 0h-105v377h-162v-377h-106v465h373v-465z" />
    <glyph glyph-name="uni0440" unicode="&#x440;" horiz-adv-x="511" 
d="M295 477q86 0 138 -67t52 -177q0 -111 -52 -178t-138 -67q-94 0 -133 82v-280h-106v210h-1v465h107v-69q39 81 133 81zM270 82q52 0 80.5 39.5t28.5 111.5t-28.5 111t-80.5 39t-81 -39.5t-29 -110.5q0 -72 29 -111.5t81 -39.5z" />
    <glyph glyph-name="uni0441" unicode="&#x441;" horiz-adv-x="448" 
d="M231 -12q-97 0 -151.5 65t-54.5 180q0 112 55.5 178t150.5 66q91 0 141.5 -46.5t49.5 -130.5h-106q-6 85 -85 85q-47 0 -73.5 -40t-26.5 -112q0 -152 102 -152q75 0 84 79h106q-7 -83 -56.5 -127.5t-135.5 -44.5z" />
    <glyph glyph-name="uni0442" unicode="&#x442;" horiz-adv-x="402" 
d="M377 465v-98h-123v-367h-106v367h-123v98h352z" />
    <glyph glyph-name="uni0443" unicode="&#x443;" horiz-adv-x="482" 
d="M321 465h106v-470q0 -127 -68 -181q-47 -36 -122 -36q-81 0 -127 34q-58 42 -59 125h104q2 -34 23.5 -53.5t59.5 -19.5q43 0 63 29.5t20 93.5v80q-37 -79 -133 -79q-67 0 -102.5 48t-35.5 127v302h107v-280q0 -106 77 -106q42 0 64.5 31.5t22.5 90.5v264z" />
    <glyph glyph-name="uni0444" unicode="&#x444;" horiz-adv-x="521" 
d="M495 233q0 -105 -49 -171.5t-132 -72.5v-200h-107v200q-84 5 -133 71.5t-49 172.5t49 172t133 71v224h107v-224q83 -6 132 -72t49 -171zM127 233q0 -65 25.5 -111.5t67.5 -46.5h1v315h-1q-42 0 -67.5 -46.5t-25.5 -110.5zM300 75q43 0 68.5 46.5t25.5 111.5
q0 64 -25.5 110.5t-68.5 46.5h-1v-315h1z" />
    <glyph glyph-name="uni0445" unicode="&#x445;" horiz-adv-x="423" 
d="M10 0l141 238l-140 227h116l84 -151l85 151h116l-141 -227l141 -238h-116l-85 160l-85 -160h-116z" />
    <glyph glyph-name="uni0446" unicode="&#x446;" horiz-adv-x="497" 
d="M432 100h44v-220h-106v120h-315v465h107v-376h164v376h106v-365z" />
    <glyph glyph-name="uni0447" unicode="&#x447;" horiz-adv-x="434" 
d="M273 0v167q-37 -28 -94 -28q-144 0 -144 157v169h106v-158q0 -88 68 -88q44 0 64 30v216h105v-465h-105z" />
    <glyph glyph-name="uni0448" unicode="&#x448;" horiz-adv-x="705" 
d="M405 89h139v376h105v-465h-594v465h106v-376h139v376h105v-376z" />
    <glyph glyph-name="uni0449" unicode="&#x449;" horiz-adv-x="714" 
d="M649 100h44v-220h-106v120h-532v465h106v-376h139v376h105v-376h139v376h105v-365z" />
    <glyph glyph-name="uni044A" unicode="&#x44a;" horiz-adv-x="488" 
d="M313 306q71 0 112.5 -43.5t41.5 -109.5q0 -64 -42.5 -108.5t-111.5 -44.5h-183v370h-105v95h211v-159h77zM298 76q27 0 45.5 22t18.5 55q0 34 -18 55.5t-45 21.5h-63v-154h62z" />
    <glyph glyph-name="uni044B" unicode="&#x44b;" horiz-adv-x="607" 
d="M55 465h106v-159h77q71 0 112.5 -43.5t41.5 -109.5q0 -64 -42.5 -108.5t-111.5 -44.5h-183v465zM445 0v465h107v-465h-107zM161 230v-154h62q27 0 45.5 22t18.5 55q0 34 -18 55.5t-45 21.5h-63z" />
    <glyph glyph-name="uni044C" unicode="&#x44c;" horiz-adv-x="412" 
d="M55 465h106v-159h77q71 0 112.5 -43.5t41.5 -109.5q0 -64 -42.5 -108.5t-111.5 -44.5h-183v465zM161 230v-154h62q27 0 45.5 22t18.5 55q0 34 -18 55.5t-45 21.5h-63z" />
    <glyph glyph-name="uni044D" unicode="&#x44d;" horiz-adv-x="462" 
d="M128 297h-103q5 77 59.5 128.5t140.5 51.5q105 0 158.5 -67.5t53.5 -176.5t-53.5 -177t-158.5 -68q-86 0 -140.5 49.5t-59.5 123.5h103q6 -36 31 -58t69 -22q49 0 74 30t27 82h-138v79h138q-2 52 -27.5 82.5t-74.5 30.5q-43 0 -68 -24t-31 -64z" />
    <glyph glyph-name="uni044E" unicode="&#x44e;" horiz-adv-x="680" 
d="M439 477q100 0 158 -66t58 -178q0 -113 -58 -179t-158 -66q-89 0 -145 54t-67 147h-65v-189h-107v465h107v-188h65q11 93 67.5 146.5t144.5 53.5zM439 82q53 0 81 39t28 112t-28 112t-81 39t-81 -39t-28 -112t28 -112t81 -39z" />
    <glyph glyph-name="uni044F" unicode="&#x44f;" horiz-adv-x="455" 
d="M38 0l89 154q-44 14 -70 57.5t-26 95.5q0 67 41 112.5t106 45.5h221v-465h-104v144h-58l-79 -144h-120zM205 232h90v150h-91q-30 0 -49 -22t-19 -53t19.5 -53t49.5 -22z" />
    <glyph glyph-name="uni0451" unicode="&#x451;" horiz-adv-x="447" 
d="M142 541q-30 0 -49.5 18.5t-19.5 50.5q0 31 19.5 50t49.5 19t49.5 -19t19.5 -50q0 -32 -19.5 -50.5t-49.5 -18.5zM321 541q-30 0 -49.5 18.5t-19.5 50.5q0 31 19.5 50t49.5 19t49.5 -19t19.5 -50q0 -32 -19 -50.5t-50 -18.5zM422 265q0 -38 -4 -67h-290q2 -57 29 -88
t77 -31q69 0 86 57h96q-10 -71 -56.5 -109.5t-125.5 -38.5q-100 0 -154.5 63.5t-54.5 179.5t54 181t150 65q94 0 143.5 -58t49.5 -154zM128 278h191q0 116 -91 116q-46 0 -72.5 -30.5t-27.5 -85.5z" />
    <glyph glyph-name="uni0452" unicode="&#x452;" horiz-adv-x="489" 
d="M297 477q142 0 142 -175v-399q0 -58 -32.5 -88.5t-94.5 -30.5q-45 0 -64 10v94q19 -4 42 -4q43 0 43 50v337q0 60 -18.5 88t-59.5 28q-88 0 -88 -132v-255h-107v542h-38v85h38v73h106v-73h155v-85h-155v-77h1v-67q37 79 130 79z" />
    <glyph glyph-name="uni0453" unicode="&#x453;" horiz-adv-x="340" 
d="M89 515l-37 75l215 98l37 -74zM315 465v-98h-154v-367h-106v465h260z" />
    <glyph glyph-name="uni0454" unicode="&#x454;" horiz-adv-x="462" 
d="M334 297q-6 40 -31 64t-68 24q-49 0 -74.5 -30.5t-27.5 -82.5h138v-79h-138q2 -52 27 -82t74 -30q44 0 69 22t31 58h103q-5 -74 -59.5 -123.5t-140.5 -49.5q-105 0 -158.5 68t-53.5 177t53.5 176.5t158.5 67.5q86 0 140.5 -51.5t59.5 -128.5h-103z" />
    <glyph glyph-name="uni0455" unicode="&#x455;" horiz-adv-x="398" 
d="M206 -12q-80 0 -130.5 45t-50.5 109h107q0 -30 21.5 -49.5t55.5 -19.5q29 0 45 15t16 41q0 41 -44 55l-91 28q-48 15 -73.5 49t-25.5 80q0 57 45.5 96.5t119.5 39.5q80 0 124 -40.5t44 -103.5h-106q0 63 -64 63q-27 0 -44.5 -13.5t-17.5 -35.5q0 -38 45 -53l95 -33
q46 -15 71 -48t25 -74q0 -68 -43 -109.5t-124 -41.5z" />
    <glyph glyph-name="uni0456" unicode="&#x456;" horiz-adv-x="217" 
d="M109 535q-34 0 -56 21.5t-22 56.5t22 56t56 21t55.5 -21t21.5 -56t-21.5 -56.5t-55.5 -21.5zM55 0v465h107v-465h-107z" />
    <glyph glyph-name="uni0457" unicode="&#x457;" horiz-adv-x="217" 
d="M38 543q-26 0 -44 18.5t-18 43.5q0 26 18 44.5t44 18.5t44.5 -18.5t18.5 -44.5t-18.5 -44t-44.5 -18zM178 543q-25 0 -43.5 18.5t-18.5 43.5q0 26 18.5 44.5t43.5 18.5q27 0 45 -18.5t18 -44.5t-18 -44t-45 -18zM55 0v465h107v-465h-107z" />
    <glyph glyph-name="uni0458" unicode="&#x458;" horiz-adv-x="216" 
d="M108 535q-34 0 -56 21.5t-22 56.5t22 56t56 21t55.5 -21t21.5 -56t-21.5 -56.5t-55.5 -21.5zM40 -216q-33 0 -60 9v95q13 -4 36 -4q39 0 39 50v531h106v-543q0 -138 -121 -138z" />
    <glyph glyph-name="uni0459" unicode="&#x459;" horiz-adv-x="666" 
d="M492 306q71 0 112.5 -43.5t41.5 -109.5q0 -64 -42.5 -108.5t-111.5 -44.5h-183v373h-110v-185q0 -94 -33.5 -144.5t-96.5 -50.5h-44v91h15q54 0 54 100v281h321v-159h77zM477 76q27 0 45.5 22t18.5 55q0 34 -18 55.5t-45 21.5h-63v-154h62z" />
    <glyph glyph-name="uni045A" unicode="&#x45a;" horiz-adv-x="683" 
d="M508 306q71 0 112.5 -43.5t41.5 -109.5q0 -64 -42.5 -108.5t-111.5 -44.5h-184v192h-163v-192h-106v465h106v-185h163v185h107v-159h77zM493 76q27 0 45.5 22t18.5 55q0 34 -18 55.5t-45 21.5h-63v-154h62z" />
    <glyph glyph-name="uni045B" unicode="&#x45b;" horiz-adv-x="489" 
d="M297 477q142 0 142 -175v-302h-106v271q0 60 -18.5 88t-59.5 28q-88 0 -88 -132v-255h-107v542h-38v85h38v73h106v-73h155v-85h-155v-77h1v-67q37 79 130 79z" />
    <glyph glyph-name="uni045C" unicode="&#x45c;" horiz-adv-x="450" 
d="M362 614l-215 -99l-37 75l215 98zM266 242l159 -242h-128l-136 216v-216h-106v465h106v-200h14q26 0 43 37l56 110q17 34 37.5 46.5t59.5 12.5h37v-94h-15q-13 0 -19 -6t-16 -28l-27 -54q-23 -47 -60 -47h-5z" />
    <glyph glyph-name="uni045E" unicode="&#x45e;" horiz-adv-x="482" 
d="M241 507q-67 0 -107 36t-44 101h87q2 -30 18.5 -46.5t45.5 -16.5t46 16.5t18 46.5h86q-3 -65 -43 -101t-107 -36zM321 465h106v-470q0 -127 -68 -181q-47 -36 -122 -36q-81 0 -127 34q-58 42 -59 125h104q2 -34 23.5 -53.5t59.5 -19.5q43 0 63 29.5t20 93.5v80
q-37 -79 -133 -79q-67 0 -102.5 48t-35.5 127v302h107v-280q0 -106 77 -106q42 0 64.5 31.5t22.5 90.5v264z" />
    <glyph glyph-name="uni045F" unicode="&#x45f;" horiz-adv-x="487" 
d="M432 465v-465h-135v-91h-106v91h-136v465h107v-376h164v376h106z" />
    <glyph glyph-name="uni0462" unicode="&#x462;" horiz-adv-x="605" 
d="M392 402q82 0 135 -58.5t53 -142.5t-53 -142.5t-136 -58.5h-233v595h-153v105h417v-105h-152v-193h122zM375 99q41 0 67 29.5t26 72.5q0 44 -25 74.5t-67 30.5h-106v-207h105z" />
    <glyph glyph-name="uni0463" unicode="&#x463;" horiz-adv-x="412" 
d="M238 306q71 0 112.5 -43.5t41.5 -109.5q0 -64 -42.5 -108.5t-111.5 -44.5h-183v421h-67v85h66v194h106v-194h86v-85h-85v-115h77zM223 76q27 0 45.5 22t18.5 55q0 34 -18 55.5t-45 21.5h-63v-154h62z" />
    <glyph glyph-name="uni0472" unicode="&#x472;" horiz-adv-x="602" 
d="M301 717q134 0 205 -94.5t71 -272.5t-71 -272.5t-205 -94.5t-205 94.5t-71 272.5t71 272.5t205 94.5zM301 616q-147 0 -158 -230h316q-11 230 -158 230zM301 84q149 0 158 232h-316q9 -232 158 -232z" />
    <glyph glyph-name="uni0473" unicode="&#x473;" horiz-adv-x="481" 
d="M240 477q100 0 158 -66t58 -178q0 -113 -58 -179t-158 -66q-99 0 -157 66t-58 179q0 112 58 178t157 66zM240 384q-46 0 -73.5 -30t-33.5 -86h214q-12 116 -107 116zM240 82q95 0 107 116h-214q6 -56 33.5 -86t73.5 -30z" />
    <glyph glyph-name="uni0474" unicode="&#x474;" horiz-adv-x="541" 
d="M302 0h-93l-209 700h118l138 -516l108 409q29 112 142 112h34l-1 -110h-22q-21 0 -33.5 -12.5t-22.5 -43.5z" />
    <glyph glyph-name="uni0475" unicode="&#x475;" horiz-adv-x="447" 
d="M259 0h-83l-171 465h114l99 -308l70 220q18 57 40.5 75t66.5 18h47v-93h-17q-28 0 -41 -38z" />
    <glyph glyph-name="uni048A" unicode="&#x48a;" horiz-adv-x="584" 
d="M286 716q-66 0 -106.5 32t-42.5 85h87q1 -20 17 -32t45 -12q28 0 44.5 12t17.5 32h87q-2 -53 -42.5 -85t-106.5 -32zM507 100h46v-220h-106v120h-51v467l-225 -401v-66h-111v700h111v-466l225 400v66h111v-600z" />
    <glyph glyph-name="uni048B" unicode="&#x48b;" horiz-adv-x="494" 
d="M248 497q-67 0 -107 36t-44 101h87q2 -30 18.5 -46.5t45.5 -16.5t46 16.5t18 46.5h86q-3 -65 -43 -101t-107 -36zM429 100h44v-220h-106v120h-43v284l-163 -246v-38h-106v465h106v-291l163 249v42h105v-365z" />
    <glyph glyph-name="uni048C" unicode="&#x48c;" horiz-adv-x="506" 
d="M293 402q82 0 135 -58.5t53 -142.5t-53 -142.5t-136 -58.5h-232v530h-12v85h12v85h111v-85h176v-85h-176v-128h122zM276 99q41 0 67 29.5t26 72.5q0 44 -25 74.5t-67 30.5h-106v-207h105z" />
    <glyph glyph-name="uni048D" unicode="&#x48d;" horiz-adv-x="412" 
d="M238 306q71 0 112.5 -43.5t41.5 -109.5q0 -64 -42.5 -108.5t-111.5 -44.5h-183v421h-67v85h66v194h106v-194h86v-85h-85v-115h77zM223 76q27 0 45.5 22t18.5 55q0 34 -18 55.5t-45 21.5h-63v-154h62z" />
    <glyph glyph-name="uni048E" unicode="&#x48e;" horiz-adv-x="501" 
d="M490 455q0 -118 -70 -183l49 -49l-50 -50l-61 60q-53 -22 -123 -22h-64v-211h-111v700h175q123 0 189 -65.5t66 -179.5zM241 308q22 0 38 4l-73 73l50 50l85 -85q32 40 32 105q0 69 -34 109t-98 40h-70v-296h70z" />
    <glyph glyph-name="uni048F" unicode="&#x48f;" horiz-adv-x="511" 
d="M502 -35l-50 -50l-87 87q-33 -14 -70 -14q-94 0 -133 82v-280h-106v210h-1v465h107v-69q39 81 133 81q86 0 138 -67t52 -177q0 -123 -62 -190zM270 82q9 0 13 1l-44 44l50 50l59 -59q31 40 31 115q0 72 -28.5 111t-80.5 39t-81 -39.5t-29 -110.5q0 -72 29 -111.5
t81 -39.5z" />
    <glyph glyph-name="uni0490" unicode="&#x490;" horiz-adv-x="399" 
d="M282 791h112v-196h-223v-595h-111v700h222v91z" />
    <glyph glyph-name="uni0491" unicode="&#x491;" horiz-adv-x="340" 
d="M203 557h112v-190h-154v-367h-106v465h148v92z" />
    <glyph glyph-name="uni0492" unicode="&#x492;" horiz-adv-x="399" 
d="M394 595h-223v-168h141v-85h-141v-342h-111v342h-47v85h47v273h334v-105z" />
    <glyph glyph-name="uni0493" unicode="&#x493;" horiz-adv-x="340" 
d="M315 367h-154v-80h90v-85h-90v-202h-106v202h-62v85h62v178h260v-98z" />
    <glyph glyph-name="uni0494" unicode="&#x494;" horiz-adv-x="513" 
d="M287 444q81 0 128 -56t47 -141v-324q0 -67 -40 -103t-114 -36q-44 0 -67 10v99q20 -4 49 -4q32 0 46.5 15.5t14.5 54.5v262q0 65 -27 98.5t-73 33.5q-52 0 -80 -34v-319h-111v700h334v-105h-223v-187q43 36 116 36z" />
    <glyph glyph-name="uni0495" unicode="&#x495;" horiz-adv-x="484" 
d="M274 289q80 0 132 -58.5t52 -160.5q0 -112 -59.5 -172.5t-159.5 -60.5q-15 0 -35 4v96q14 -4 32 -4q46 0 81 35.5t35 99.5q0 62 -28 94t-72 32q-50 0 -90 -28v-166h-107v465h260v-98h-153v-103q49 25 112 25z" />
    <glyph glyph-name="uni0496" unicode="&#x496;" horiz-adv-x="799" 
d="M715 100h79v-220h-106v120h-41l-198 338v-338h-112v338l-198 -338h-132l236 366h-8q-19 0 -39 35l-91 154q-18 30 -31 39t-32 9h-31l-5 101h54q42 0 72 -23t60 -75l90 -157q26 -46 52 -46h3v297h112v-297h3q26 0 52 46l90 157q30 52 60 75t72 23h54l-5 -101h-31
q-19 0 -32 -9t-31 -39l-91 -154q-20 -35 -39 -35h-8z" />
    <glyph glyph-name="uni0497" unicode="&#x497;" horiz-adv-x="689" 
d="M593 100h75v-220h-106v120h-31l-136 216v-216h-106v216l-136 -216h-128l159 242h-5q-37 0 -60 47l-27 54q-10 22 -16 28t-19 6h-15v94h37q39 0 59.5 -12.5t37.5 -46.5l56 -110q17 -37 43 -37h14v200h106v-200h14q26 0 43 37l56 110q17 34 37.5 46.5t59.5 12.5h37v-94h-15
q-13 0 -19 -6t-16 -28l-27 -54q-23 -47 -60 -47h-5z" />
    <glyph glyph-name="uni0498" unicode="&#x498;" horiz-adv-x="482" 
d="M447 198q0 -91 -52 -150.5t-132 -64.5v-42q13 11 41 11q32 0 54 -20.5t22 -58.5q0 -39 -24 -64t-69 -25q-38 0 -61.5 19t-27.5 55h54q1 -13 11 -21t23 -8q37 0 37 43q0 41 -36 41q-21 0 -32 -17h-48v89q-89 10 -135.5 63t-46.5 141h113q0 -50 26.5 -78t73.5 -28
q94 0 94 114q0 111 -105 111h-54v100h54q50 0 74 33.5t24 82.5q0 41 -23 67t-68 26q-91 0 -91 -100h-113q0 92 54.5 146t160.5 54q83 0 138.5 -51t55.5 -143q0 -60 -30 -103.5t-75 -56.5q49 -10 81 -54t32 -111z" />
    <glyph glyph-name="uni0499" unicode="&#x499;" horiz-adv-x="426" 
d="M282 -48q32 0 54 -20.5t22 -58.5q0 -39 -24 -64t-69 -25q-38 0 -61.5 19t-27.5 55h54q1 -13 11 -21t23 -8q37 0 37 43q0 41 -36 41q-21 0 -32 -17h-48v93q-71 7 -110.5 47t-39.5 103h101q0 -30 20 -47t56 -17q68 0 68 59q0 29 -17 46t-48 17h-50v70h48q29 0 46 18t17 49
q0 61 -63 61q-34 0 -51.5 -19t-17.5 -49h-102q0 69 45 109.5t127 40.5q79 0 123 -36t44 -94q0 -44 -23.5 -72.5t-60.5 -35.5q39 -5 64 -36t25 -76q0 -59 -40.5 -94.5t-104.5 -42.5v-49q13 11 41 11z" />
    <glyph glyph-name="uni049A" unicode="&#x49a;" horiz-adv-x="532" 
d="M438 100h89v-220h-106v120h-51l-199 339v-339h-111v700h111v-297h4q26 0 52 46l90 157q30 52 60 75t72 23h54l-5 -101h-31q-19 0 -32 -9t-31 -39l-91 -154q-20 -35 -39 -35h-8z" />
    <glyph glyph-name="uni049B" unicode="&#x49b;" horiz-adv-x="479" 
d="M359 100h100v-220h-106v120h-56l-136 216v-216h-106v465h106v-200h14q26 0 43 37l56 110q17 34 37.5 46.5t59.5 12.5h37v-94h-15q-13 0 -19 -6t-16 -28l-27 -54q-23 -47 -60 -47h-5z" />
    <glyph glyph-name="uni049C" unicode="&#x49c;" horiz-adv-x="577" 
d="M572 0h-130l-219 307v-120h-26v139h-26v-326h-111v700h111v-306h26v159h26v-158q20 6 38 39l98 172q29 52 59.5 75.5t72.5 23.5h56v-110h-32q-21 0 -35 -7.5t-30 -32.5l-94 -172q-12 -25 -28 -25h-4z" />
    <glyph glyph-name="uni049D" unicode="&#x49d;" horiz-adv-x="475" 
d="M449 0h-127l-119 196v-94h-21v112h-18v-214h-109v465h109v-200h18v111h21v-111q21 3 40 36l55 108q16 36 37 49t61 13h37v-94h-15q-19 0 -32 -28l-29 -58q-13 -27 -24.5 -38t-30.5 -11h-6z" />
    <glyph glyph-name="uni049E" unicode="&#x49e;" horiz-adv-x="537" 
d="M302 366h-8l236 -366h-132l-199 339v-339h-111v530h-28v84h28v86h111v-86h79v-84h-79v-127h4q26 0 52 46l90 157q30 52 60 75t72 23h54l-5 -101h-31q-19 0 -32 -9t-31 -39l-91 -154q-20 -35 -39 -35z" />
    <glyph glyph-name="uni049F" unicode="&#x49f;" horiz-adv-x="450" 
d="M266 242l159 -242h-128l-136 216v-216h-106v353h-22v61h22v51h106v-51h61v-61h-61v-88h14q26 0 43 37l56 110q17 34 37.5 46.5t59.5 12.5h37v-94h-15q-13 0 -19 -6t-16 -28l-27 -54q-23 -47 -60 -47h-5z" />
    <glyph glyph-name="uni04A0" unicode="&#x4a0;" horiz-adv-x="599" 
d="M365 366h-8l236 -366h-132l-199 339v-339h-111v600h-146v100h257v-297h4q26 0 52 46l90 157q30 52 60 75t72 23h54l-5 -101h-31q-19 0 -32 -9t-31 -39l-91 -154q-20 -35 -39 -35z" />
    <glyph glyph-name="uni04A1" unicode="&#x4a1;" horiz-adv-x="525" 
d="M341 242l159 -242h-128l-136 216v-216h-106v370h-105v95h211v-200h14q26 0 43 37l56 110q17 34 37.5 46.5t59.5 12.5h37v-94h-15q-13 0 -19 -6t-16 -28l-27 -54q-23 -47 -60 -47h-5z" />
    <glyph glyph-name="uni04A2" unicode="&#x4a2;" horiz-adv-x="581" 
d="M506 100h45v-220h-106v120h-50v297h-224v-297h-111v700h111v-302h224v302h111v-600z" />
    <glyph glyph-name="uni04A3" unicode="&#x4a3;" horiz-adv-x="494" 
d="M429 100h44v-220h-106v120h-43v192h-163v-192h-106v465h106v-185h163v185h105v-365z" />
    <glyph glyph-name="uni04A4" unicode="&#x4a4;" horiz-adv-x="735" 
d="M731 700v-105h-223v-595h-113v297h-224v-297h-111v700h111v-302h224v302h336z" />
    <glyph glyph-name="uni04A5" unicode="&#x4a5;" horiz-adv-x="610" 
d="M584 465v-98h-154v-367h-106v192h-163v-192h-106v465h106v-185h163v185h260z" />
    <glyph glyph-name="uni04A6" unicode="&#x4a6;" horiz-adv-x="851" 
d="M626 444q80 0 127.5 -56t47.5 -141v-324q0 -67 -40 -103t-114 -36q-44 0 -67 10v99q20 -4 49 -4q32 0 46.5 15.5t14.5 54.5v262q0 65 -27 98.5t-73 33.5q-17 0 -27.5 -1.5t-25.5 -9.5t-27 -23v-319h-111v600h-228v-600h-111v700h450v-292q42 36 116 36z" />
    <glyph glyph-name="uni04A7" unicode="&#x4a7;" horiz-adv-x="750" 
d="M540 289q80 0 132 -58.5t52 -160.5q0 -112 -59.5 -172.5t-159.5 -60.5q-15 0 -35 4v96q16 -4 32 -4q46 0 81 35t35 100q0 62 -28 94t-72 32q-50 0 -90 -28v-166h-106v377h-161v-377h-106v465h373v-201q49 25 112 25z" />
    <glyph glyph-name="uni04A8" unicode="&#x4a8;" horiz-adv-x="646" 
d="M529 68q41 -2 92 22v-87q-45 -20 -95 -20q-60 0 -104 23q-43 -23 -113 -23q-130 0 -207 98.5t-77 258.5q0 174 89 275.5t246 101.5q60 0 109 -22l1 -95q-49 22 -100 22q-101 0 -161 -76.5t-60 -201.5q0 -111 48 -186t130 -79q-82 85 -82 218q0 111 52.5 173.5t136.5 62.5
t134 -58t50 -159q0 -67 -26.5 -135.5t-71.5 -111.5q3 -1 9 -1zM434 437q-36 0 -56 -37.5t-20 -107.5q0 -121 69 -182q38 28 59.5 80t21.5 115q0 64 -19.5 98t-54.5 34z" />
    <glyph glyph-name="uni04A9" unicode="&#x4a9;" horiz-adv-x="503" 
d="M412 53q38 3 70 16v-71q-40 -15 -73 -15q-47 0 -80 23q-34 -23 -96 -23q-95 0 -151.5 62t-56.5 178q0 121 66 187.5t171 66.5q43 0 79 -11v-86q-32 11 -67 11q-64 0 -103.5 -41.5t-39.5 -125.5q0 -65 24.5 -106t71.5 -51q-38 49 -38 121q0 73 37.5 115t107.5 42
q63 0 101 -40.5t38 -115.5q0 -78 -61 -136zM336 267q-48 0 -48 -81q0 -73 38 -108q52 28 52 106q0 83 -42 83z" />
    <glyph glyph-name="uni04AA" unicode="&#x4aa;" horiz-adv-x="561" 
d="M289 84q60 0 88 38t33 117h119q-11 -238 -213 -255v-43q13 11 41 11q32 0 54 -20.5t22 -58.5q0 -39 -24 -64t-69 -25q-38 0 -61.5 19t-27.5 55h54q1 -13 11 -21t23 -8q37 0 37 43q0 41 -36 41q-21 0 -32 -17h-48v88q-116 10 -175.5 104t-59.5 262q0 178 67 272.5
t196 94.5q113 0 174 -65t67 -191h-119q-5 79 -33 117t-88 38q-77 0 -112 -66.5t-35 -199.5t35 -199.5t112 -66.5z" />
    <glyph glyph-name="uni04AB" unicode="&#x4ab;" horiz-adv-x="448" 
d="M300 -48q32 0 54 -20.5t22 -58.5q0 -39 -24 -64t-69 -25q-38 0 -61.5 19t-27.5 55h54q1 -13 11 -21t23 -8q37 0 37 43q0 41 -36 41q-21 0 -32 -17h-48v94q-85 9 -131.5 72.5t-46.5 170.5q0 112 55.5 178t150.5 66q91 0 141.5 -46.5t49.5 -130.5h-106q-6 85 -85 85
q-47 0 -73.5 -40t-26.5 -112q0 -152 102 -152q75 0 84 79h106q-6 -76 -48 -119.5t-116 -51.5v-48q13 11 41 11z" />
    <glyph glyph-name="uni04AC" unicode="&#x4ac;" horiz-adv-x="427" 
d="M422 595h-153v-495h45v-220h-106v120h-50v595h-153v105h417v-105z" />
    <glyph glyph-name="uni04AD" unicode="&#x4ad;" horiz-adv-x="402" 
d="M377 367h-123v-267h45v-220h-106v120h-45v367h-123v98h352v-98z" />
    <glyph glyph-name="uni04AE" unicode="&#x4ae;" horiz-adv-x="517" 
d="M202 0v288l-202 412h130l129 -293l129 293h129l-202 -412v-288h-113z" />
    <glyph glyph-name="uni04AF" unicode="&#x4af;" horiz-adv-x="437" 
d="M432 465l-160 -433v-242h-106v237l-161 438h114l99 -309l100 309h114z" />
    <glyph glyph-name="uni04B0" unicode="&#x4b0;" horiz-adv-x="517" 
d="M315 288v-48h112v-85h-112v-155h-113v155h-111v85h111v48l-202 412h130l129 -293l129 293h129z" />
    <glyph glyph-name="uni04B1" unicode="&#x4b1;" horiz-adv-x="437" 
d="M271 27v-28h86v-84h-86v-125h-106v125h-86v84h86v33l-160 433h114l100 -309l99 309h114z" />
    <glyph glyph-name="uni04B2" unicode="&#x4b2;" horiz-adv-x="547" 
d="M442 100h75v-220h-106v120h-45l-115 259l-115 -259h-125l173 347l-173 353h125l115 -266l115 266h126l-174 -353z" />
    <glyph glyph-name="uni04B3" unicode="&#x4b3;" horiz-adv-x="482" 
d="M368 100h93v-220h-106v120h-44l-85 160l-85 -160h-116l141 238l-140 227h116l84 -151l85 151h116l-141 -227z" />
    <glyph glyph-name="uni04B4" unicode="&#x4b4;" horiz-adv-x="660" 
d="M585 100h44v-220h-106v120h-385v595h-133v105h378v-105h-133v-495h223v600h112v-600z" />
    <glyph glyph-name="uni04B5" unicode="&#x4b5;" horiz-adv-x="580" 
d="M515 100h44v-220h-106v120h-315v367h-113v98h332v-98h-113v-278h164v376h107v-365z" />
    <glyph glyph-name="uni04B6" unicode="&#x4b6;" horiz-adv-x="517" 
d="M442 100h45v-220h-106v120h-49v253q-43 -36 -116 -36q-81 0 -128 56t-47 141v286h111v-260q0 -65 27 -98.5t73 -33.5q17 0 27 1.5t25 9.5t28 24v357h110v-600z" />
    <glyph glyph-name="uni04B7" unicode="&#x4b7;" horiz-adv-x="438" 
d="M378 100h40v-220h-106v120h-39v167q-37 -28 -94 -28q-144 0 -144 157v169h106v-158q0 -88 68 -88q44 0 64 30v216h105v-365z" />
    <glyph glyph-name="uni04B8" unicode="&#x4b8;" horiz-adv-x="503" 
d="M332 700h110v-700h-110v253q-25 -21 -55 -29v-100h-70v93q-77 4 -121.5 59t-44.5 138v286h111v-260q0 -94 55 -122v105h70v-114q33 5 55 34v357z" />
    <glyph glyph-name="uni04B9" unicode="&#x4b9;" horiz-adv-x="434" 
d="M273 465h105v-465h-105v167q-21 -15 -45 -21v-107h-39v100h-10q-144 0 -144 157v169h106v-158q0 -74 48 -86v115h39v-116q28 4 45 29v216z" />
    <glyph glyph-name="uni04BA" unicode="&#x4ba;" horiz-adv-x="503" 
d="M171 700v-253q43 36 116 36q81 0 128 -56t47 -141v-286h-111v260q0 65 -27 98.5t-73 33.5q-17 0 -27 -1.5t-25 -9.5t-28 -24v-357h-110v700h110z" />
    <glyph glyph-name="uni04BB" unicode="&#x4bb;" horiz-adv-x="489" 
d="M297 477q142 0 142 -175v-302h-106v271q0 60 -18.5 88t-59.5 28q-88 0 -88 -132v-255h-107v700h106v-235h1v-67q37 79 130 79z" />
    <glyph glyph-name="uni04BC" unicode="&#x4bc;" horiz-adv-x="703" 
d="M276 304v-5h-4q1 -96 36 -155.5t109 -59.5q62 0 95.5 35.5t40.5 93.5h116q-12 -102 -78.5 -166t-171.5 -64q-118 0 -185 82t-77 234h-20q-59 0 -95.5 37.5t-36.5 96.5v49h99v-47q0 -22 12.5 -35t32.5 -13h8q7 160 75.5 245t188.5 85q119 0 188 -93.5t69 -258.5v-61h-402z
M418 616q-71 0 -108 -57t-37 -163h293q0 100 -39.5 160t-108.5 60z" />
    <glyph glyph-name="uni04BD" unicode="&#x4bd;" horiz-adv-x="555" 
d="M526 198h-290q2 -57 29 -88t77 -31q69 0 86 57h96q-10 -71 -56.5 -109.5t-125.5 -38.5q-92 0 -146 54.5t-62 155.5q-58 2 -93.5 35.5t-35.5 88.5v48h91v-47q0 -42 40 -45q11 95 63.5 147t137.5 52q94 0 143.5 -58t49.5 -154q0 -38 -4 -67zM236 278h191q0 116 -91 116
q-46 0 -72.5 -30.5t-27.5 -85.5z" />
    <glyph glyph-name="uni04BE" unicode="&#x4be;" horiz-adv-x="703" 
d="M325 743q-31 0 -51.5 20t-20.5 52t20.5 52t51.5 20t51.5 -20t20.5 -52t-20.5 -52t-51.5 -20zM506 743q-31 0 -51.5 20t-20.5 52t20.5 52t51.5 20t51.5 -20t20.5 -52t-20.5 -52t-51.5 -20zM276 304v-5h-4q1 -96 36 -155.5t109 -59.5q62 0 95.5 35.5t40.5 93.5h116
q-12 -102 -78.5 -166t-171.5 -64q-118 0 -185 82t-77 234h-20q-59 0 -95.5 37.5t-36.5 96.5v49h99v-47q0 -22 12.5 -35t32.5 -13h8q7 160 75.5 245t188.5 85q119 0 188 -93.5t69 -258.5v-61h-402zM418 616q-71 0 -108 -57t-37 -163h293q0 100 -39.5 160t-108.5 60z" />
    <glyph glyph-name="uni04BF" unicode="&#x4bf;" horiz-adv-x="555" 
d="M526 198h-290q2 -57 29 -88t77 -31q69 0 86 57h96q-16 -114 -121 -141q-57 -44 -57 -94q0 -34 27 -34q20 0 38 7v-60q-33 -16 -67 -16q-37 0 -59 23t-22 63q0 65 46 106q-77 10 -122 63.5t-53 144.5q-58 2 -93.5 35.5t-35.5 88.5v48h91v-47q0 -42 40 -45q11 95 63.5 147
t137.5 52q94 0 143.5 -58t49.5 -154q0 -38 -4 -67zM236 278h191q0 116 -91 116q-46 0 -72.5 -30.5t-27.5 -85.5z" />
    <glyph glyph-name="uni04C0" unicode="&#x4c0;" horiz-adv-x="232" 
d="M60 0v700h111v-700h-111z" />
    <glyph glyph-name="uni04C1" unicode="&#x4c1;" horiz-adv-x="785" 
d="M397 736q-66 0 -106.5 32t-42.5 85h87q1 -20 17 -32t45 -12q28 0 44.5 12t17.5 32h87q-2 -53 -42.5 -85t-106.5 -32zM551 366h-8l236 -366h-132l-198 338v-338h-112v338l-198 -338h-132l236 366h-8q-19 0 -39 35l-91 154q-18 30 -31 39t-32 9h-31l-5 101h54q42 0 72 -23
t60 -75l90 -157q26 -46 52 -46h3v297h112v-297h3q26 0 52 46l90 157q30 52 60 75t72 23h54l-5 -101h-31q-19 0 -32 -9t-31 -39l-91 -154q-20 -35 -39 -35z" />
    <glyph glyph-name="uni04C2" unicode="&#x4c2;" horiz-adv-x="684" 
d="M343 507q-67 0 -107 36t-44 101h87q2 -30 18.5 -46.5t45.5 -16.5t46 16.5t18 46.5h86q-3 -65 -43 -101t-107 -36zM500 242l159 -242h-128l-136 216v-216h-106v216l-136 -216h-128l159 242h-5q-37 0 -60 47l-27 54q-10 22 -16 28t-19 6h-15v94h37q39 0 59.5 -12.5
t37.5 -46.5l56 -110q17 -37 43 -37h14v200h106v-200h14q26 0 43 37l56 110q17 34 37.5 46.5t59.5 12.5h37v-94h-15q-13 0 -19 -6t-16 -28l-27 -54q-23 -47 -60 -47h-5z" />
    <glyph glyph-name="uni04C3" unicode="&#x4c3;" horiz-adv-x="552" 
d="M345 424q80 -4 130.5 -62.5t50.5 -158.5q0 -107 -53 -163t-153 -56q-28 0 -63 5v84q20 -3 45 -3q118 0 118 131q0 68 -31 102.5t-81 35.5h-45l-92 -1v-338h-111v700h111v-297h13q38 0 64 46l88 157q28 52 55 75t65 23h54v-101h-31q-18 0 -30 -9.5t-29 -38.5z" />
    <glyph glyph-name="uni04C4" unicode="&#x4c4;" horiz-adv-x="442" 
d="M310 256q50 -17 78 -65.5t28 -121.5q0 -107 -45.5 -164t-130.5 -57q-21 0 -51 5v86q17 -5 32 -5q42 0 66 34.5t24 98.5q0 126 -87 126h-63v-193h-106v465h106v-200h14q14 0 23 7.5t19 28.5l57 112q17 33 38.5 45.5t60.5 12.5h35v-94h-16q-19 0 -30 -24l-30 -62
q-12 -23 -22 -35z" />
    <glyph glyph-name="uni04C5" unicode="&#x4c5;" horiz-adv-x="579" 
d="M519 100h65l-84 -220h-104l45 120h-33v600h-188v-354q0 -253 -152 -253h-48v95h22q40 0 53.5 37t13.5 143v432h410v-600z" />
    <glyph glyph-name="uni04C6" unicode="&#x4c6;" horiz-adv-x="470" 
d="M415 100h65l-84 -220h-104l45 120h-28v373h-110v-185q0 -94 -33.5 -144.5t-96.5 -50.5h-44v91h15q54 0 54 100v281h321v-365z" />
    <glyph glyph-name="uni04C7" unicode="&#x4c7;" horiz-adv-x="567" 
d="M395 700h111v-777q0 -67 -40 -103t-114 -36q-44 0 -67 10v99q20 -4 49 -4q32 0 46.5 15.5t14.5 54.5v338h-224v-297h-111v700h111v-302h224v302z" />
    <glyph glyph-name="uni04C8" unicode="&#x4c8;" horiz-adv-x="484" 
d="M324 465h105v-562q0 -58 -32.5 -88.5t-93.5 -30.5q-45 0 -64 10v94q19 -4 42 -4q43 0 43 50v258h-163v-192h-106v465h106v-185h163v185z" />
    <glyph glyph-name="uni04C9" unicode="&#x4c9;" horiz-adv-x="567" 
d="M506 100h65l-84 -220h-104l45 120h-33v297h-224v-297h-111v700h111v-302h224v302h111v-600z" />
    <glyph glyph-name="uni04CA" unicode="&#x4ca;" horiz-adv-x="484" 
d="M429 100h65l-84 -220h-104l45 120h-27v192h-163v-192h-106v465h106v-185h163v185h105v-365z" />
    <glyph glyph-name="uni04CB" unicode="&#x4cb;" horiz-adv-x="503" 
d="M442 700v-700h-54v-120h-112v220h56v153q-43 -36 -116 -36q-81 0 -128 56t-47 141v286h111v-260q0 -65 27 -98.5t73 -33.5q17 0 27 1.5t25 9.5t28 24v357h110z" />
    <glyph glyph-name="uni04CC" unicode="&#x4cc;" horiz-adv-x="434" 
d="M378 465v-465h-49v-120h-112v220h56v67q-37 -28 -94 -28q-144 0 -144 157v169h106v-158q0 -88 68 -88q44 0 64 30v216h105z" />
    <glyph glyph-name="uni04CD" unicode="&#x4cd;" horiz-adv-x="666" 
d="M606 100h65l-84 -220h-104l45 120h-27v449l-135 -449h-66l-134 449v-449h-106v700h117l156 -536l156 536h117v-600z" />
    <glyph glyph-name="uni04CE" unicode="&#x4ce;" horiz-adv-x="609" 
d="M553 100h65l-84 -220h-104l45 120h-22v373l-110 -373h-78l-109 373v-373h-101v465h167l82 -317l83 317h166v-365z" />
    <glyph glyph-name="uni04CF" unicode="&#x4cf;" horiz-adv-x="217" 
d="M55 0v465h107v-465h-107z" />
    <glyph glyph-name="uni04D0" unicode="&#x4d0;" 
d="M270 736q-66 0 -106.5 32t-42.5 85h87q1 -20 17 -32t45 -12q28 0 44.5 12t17.5 32h87q-2 -53 -42.5 -85t-106.5 -32zM406 0l-30 117h-213l-30 -117h-118l210 700h89l210 -700h-118zM188 215h163l-81 321z" />
    <glyph glyph-name="uni04D1" unicode="&#x4d1;" horiz-adv-x="511" 
d="M240 507q-67 0 -107 36t-44 101h87q2 -30 18.5 -46.5t45.5 -16.5t46 16.5t18 46.5h86q-3 -65 -43 -101t-107 -36zM216 -12q-86 0 -138.5 67t-52.5 178q0 110 52.5 177t138.5 67q94 0 133 -81v69h106v-465h-106v70q-39 -82 -133 -82zM240 82q53 0 82 39.5t29 111.5
q0 71 -29 110.5t-82 39.5q-52 0 -80.5 -39t-28.5 -111t28.5 -111.5t80.5 -39.5z" />
    <glyph glyph-name="uni04D2" unicode="&#x4d2;" 
d="M179 743q-31 0 -51.5 20t-20.5 52t20.5 52t51.5 20t51.5 -20t20.5 -52t-20.5 -52t-51.5 -20zM360 743q-31 0 -51.5 20t-20.5 52t20.5 52t51.5 20t51.5 -20t20.5 -52t-20.5 -52t-51.5 -20zM406 0l-30 117h-213l-30 -117h-118l210 700h89l210 -700h-118zM188 215h163
l-81 321z" />
    <glyph glyph-name="uni04D3" unicode="&#x4d3;" horiz-adv-x="511" 
d="M150 541q-30 0 -49.5 18.5t-19.5 50.5q0 31 19.5 50t49.5 19t49.5 -19t19.5 -50q0 -32 -19.5 -50.5t-49.5 -18.5zM329 541q-30 0 -49.5 18.5t-19.5 50.5q0 31 19.5 50t49.5 19t49.5 -19t19.5 -50q0 -32 -19 -50.5t-50 -18.5zM216 -12q-86 0 -138.5 67t-52.5 178
q0 110 52.5 177t138.5 67q94 0 133 -81v69h106v-465h-106v70q-39 -82 -133 -82zM240 82q53 0 82 39.5t29 111.5q0 71 -29 110.5t-82 39.5q-52 0 -80.5 -39t-28.5 -111t28.5 -111.5t80.5 -39.5z" />
    <glyph glyph-name="uni04D4" unicode="&#x4d4;" horiz-adv-x="710" 
d="M660 601h-206v-200h206v-100h-206v-202h206v-99h-312v147h-174l-57 -147h-112l294 700h361v-99zM210 240h138v354z" />
    <glyph glyph-name="uni04D5" unicode="&#x4d5;" horiz-adv-x="702" 
d="M676 254q0 -28 -4 -53h-279q2 -57 27.5 -90t72.5 -33q61 0 77 65h100q-9 -73 -54 -114t-122 -41q-103 0 -150 72q-46 -72 -149 -72q-81 0 -125.5 38.5t-44.5 106.5q0 65 42 101q49 43 149 43h85v39q0 37 -22 57.5t-61 20.5q-72 0 -80 -73h-101q5 74 51.5 115t129.5 41
q96 0 137 -60q48 60 134 60q90 0 138.5 -62t48.5 -161zM393 277h179q0 117 -84 117q-44 0 -69.5 -31.5t-25.5 -85.5zM301 180v21h-71q-97 0 -97 -67q0 -65 71 -65q46 0 71.5 29.5t25.5 81.5z" />
    <glyph glyph-name="uni04D6" unicode="&#x4d6;" horiz-adv-x="462" 
d="M243 736q-66 0 -106.5 32t-42.5 85h87q1 -20 17 -32t45 -12q28 0 44.5 12t17.5 32h87q-2 -53 -42.5 -85t-106.5 -32zM60 0v700h352v-99h-241v-200h241v-100h-241v-202h241v-99h-352z" />
    <glyph glyph-name="uni04D7" unicode="&#x4d7;" horiz-adv-x="447" 
d="M232 507q-67 0 -107 36t-44 101h87q2 -30 18.5 -46.5t45.5 -16.5t46 16.5t18 46.5h86q-3 -65 -43 -101t-107 -36zM422 265q0 -38 -4 -67h-290q2 -57 29 -88t77 -31q69 0 86 57h96q-10 -71 -56.5 -109.5t-125.5 -38.5q-100 0 -154.5 63.5t-54.5 179.5t54 181t150 65
q94 0 143.5 -58t49.5 -154zM128 278h191q0 116 -91 116q-46 0 -72.5 -30.5t-27.5 -85.5z" />
    <glyph glyph-name="uni04D8" unicode="&#x4d8;" horiz-adv-x="572" 
d="M282 -17q-119 0 -188 93.5t-69 258.5v61h406q0 98 -35 159t-110 61q-62 0 -95.5 -35.5t-40.5 -93.5h-116q12 102 78.5 166t171.5 64q127 0 195 -95t68 -269q0 -179 -69 -274.5t-196 -95.5zM285 84q71 0 108 57t37 163h-293q0 -100 39.5 -160t108.5 -60z" />
    <glyph glyph-name="uni04D9" unicode="&#x4d9;" horiz-adv-x="447" 
d="M213 477q100 0 154.5 -63.5t54.5 -179.5t-54 -181t-150 -65q-94 0 -143.5 58t-49.5 154q0 38 4 67h290q-2 57 -29 88t-77 31q-69 0 -86 -57h-96q10 71 56.5 109.5t125.5 38.5zM219 71q46 0 72.5 30.5t27.5 85.5h-191q0 -116 91 -116z" />
    <glyph glyph-name="uni04DA" unicode="&#x4da;" horiz-adv-x="572" 
d="M193 743q-31 0 -51.5 20t-20.5 52t20.5 52t51.5 20t51.5 -20t20.5 -52t-20.5 -52t-51.5 -20zM374 743q-31 0 -51.5 20t-20.5 52t20.5 52t51.5 20t51.5 -20t20.5 -52t-20.5 -52t-51.5 -20zM282 -17q-119 0 -188 93.5t-69 258.5v61h406q0 98 -35 159t-110 61
q-62 0 -95.5 -35.5t-40.5 -93.5h-116q12 102 78.5 166t171.5 64q127 0 195 -95t68 -269q0 -179 -69 -274.5t-196 -95.5zM285 84q71 0 108 57t37 163h-293q0 -100 39.5 -160t108.5 -60z" />
    <glyph glyph-name="uni04DB" unicode="&#x4db;" horiz-adv-x="447" 
d="M136 541q-30 0 -49.5 18.5t-19.5 50.5q0 31 19.5 50t49.5 19t49.5 -19t19.5 -50q0 -32 -19.5 -50.5t-49.5 -18.5zM315 541q-30 0 -49.5 18.5t-19.5 50.5q0 31 19.5 50t49.5 19t49.5 -19t19.5 -50q0 -32 -19 -50.5t-50 -18.5zM213 477q100 0 154.5 -63.5t54.5 -179.5
t-54 -181t-150 -65q-94 0 -143.5 58t-49.5 154q0 38 4 67h290q-2 57 -29 88t-77 31q-69 0 -86 -57h-96q10 71 56.5 109.5t125.5 38.5zM219 71q46 0 72.5 30.5t27.5 85.5h-191q0 -116 91 -116z" />
    <glyph glyph-name="uni04DC" unicode="&#x4dc;" horiz-adv-x="785" 
d="M306 743q-31 0 -51.5 20t-20.5 52t20.5 52t51.5 20t51.5 -20t20.5 -52t-20.5 -52t-51.5 -20zM487 743q-31 0 -51.5 20t-20.5 52t20.5 52t51.5 20t51.5 -20t20.5 -52t-20.5 -52t-51.5 -20zM551 366h-8l236 -366h-132l-198 338v-338h-112v338l-198 -338h-132l236 366h-8
q-19 0 -39 35l-91 154q-18 30 -31 39t-32 9h-31l-5 101h54q42 0 72 -23t60 -75l90 -157q26 -46 52 -46h3v297h112v-297h3q26 0 52 46l90 157q30 52 60 75t72 23h54l-5 -101h-31q-19 0 -32 -9t-31 -39l-91 -154q-20 -35 -39 -35z" />
    <glyph glyph-name="uni04DD" unicode="&#x4dd;" horiz-adv-x="684" 
d="M253 541q-30 0 -49.5 18.5t-19.5 50.5q0 31 19.5 50t49.5 19t49.5 -19t19.5 -50q0 -32 -19.5 -50.5t-49.5 -18.5zM432 541q-30 0 -49.5 18.5t-19.5 50.5q0 31 19.5 50t49.5 19t49.5 -19t19.5 -50q0 -32 -19 -50.5t-50 -18.5zM500 242l159 -242h-128l-136 216v-216h-106
v216l-136 -216h-128l159 242h-5q-37 0 -60 47l-27 54q-10 22 -16 28t-19 6h-15v94h37q39 0 59.5 -12.5t37.5 -46.5l56 -110q17 -37 43 -37h14v200h106v-200h14q26 0 43 37l56 110q17 34 37.5 46.5t59.5 12.5h37v-94h-15q-13 0 -19 -6t-16 -28l-27 -54q-23 -47 -60 -47h-5z
" />
    <glyph glyph-name="uni04DE" unicode="&#x4de;" horiz-adv-x="482" 
d="M136 743q-31 0 -51.5 20t-20.5 52t20.5 52t51.5 20t51.5 -20t20.5 -52t-20.5 -52t-51.5 -20zM317 743q-31 0 -51.5 20t-20.5 52t20.5 52t51.5 20t51.5 -20t20.5 -52t-20.5 -52t-51.5 -20zM138 189q0 -50 26.5 -78t73.5 -28q94 0 94 114q0 111 -105 111h-54v100h54
q50 0 74 33.5t24 82.5q0 41 -23 67t-68 26q-91 0 -91 -100h-113q0 92 54.5 146t160.5 54q83 0 138.5 -51t55.5 -143q0 -60 -30 -103.5t-75 -56.5q49 -10 81 -54t32 -111q0 -94 -56 -154.5t-140 -60.5q-111 0 -168.5 53.5t-57.5 152.5h113z" />
    <glyph glyph-name="uni04DF" unicode="&#x4df;" horiz-adv-x="426" 
d="M123 538q-30 0 -49.5 18.5t-19.5 50.5q0 31 19.5 50t49.5 19t49.5 -19t19.5 -50q0 -32 -19.5 -50.5t-49.5 -18.5zM302 538q-30 0 -49.5 18.5t-19.5 50.5q0 31 19.5 50t49.5 19t49.5 -19t19.5 -50q0 -32 -19 -50.5t-50 -18.5zM136 139q0 -30 20 -47t56 -17q68 0 68 59
q0 29 -17 46t-48 17h-50v70h48q29 0 46 18t17 49q0 61 -63 61q-34 0 -51.5 -19t-17.5 -49h-102q0 69 45 109.5t127 40.5q79 0 123 -36t44 -94q0 -44 -23.5 -72.5t-60.5 -35.5q39 -5 64 -36t25 -76q0 -66 -50.5 -102.5t-124.5 -36.5q-82 0 -129 41.5t-47 109.5h101z" />
    <glyph glyph-name="uni04E0" unicode="&#x4e0;" horiz-adv-x="480" 
d="M244 -17q-108 0 -163.5 61.5t-55.5 175.5h118q0 -64 27.5 -100.5t72.5 -36.5q44 0 67.5 33t23.5 91q0 138 -102 138h-73l123 250h-215v105h386l-151 -289q64 -4 108 -59.5t44 -140.5q0 -110 -60.5 -169t-149.5 -59z" />
    <glyph glyph-name="uni04E1" unicode="&#x4e1;" horiz-adv-x="459" 
d="M205 -223q-86 0 -133 47t-47 135h95q3 -94 86 -94q98 0 98 129q0 77 -34.5 118t-98.5 41h-51l133 226h-201v86h367l-152 -256q67 -14 106 -71.5t39 -143.5q0 -100 -55 -158.5t-152 -58.5z" />
    <glyph glyph-name="uni04E2" unicode="&#x4e2;" horiz-adv-x="568" 
d="M147 744v84h279v-84h-279zM396 467l-225 -401v-66h-111v700h111v-466l225 400v66h111v-700h-111v467z" />
    <glyph glyph-name="uni04E3" unicode="&#x4e3;" horiz-adv-x="484" 
d="M119 547v83h257v-83h-257zM324 284l-163 -246v-38h-106v465h106v-291l163 249v42h105v-465h-105v284z" />
    <glyph glyph-name="uni04E4" unicode="&#x4e4;" horiz-adv-x="568" 
d="M195 723q-31 0 -51.5 20t-20.5 52t20.5 52t51.5 20t51.5 -20t20.5 -52t-20.5 -52t-51.5 -20zM376 723q-31 0 -51.5 20t-20.5 52t20.5 52t51.5 20t51.5 -20t20.5 -52t-20.5 -52t-51.5 -20zM396 467l-225 -401v-66h-111v700h111v-466l225 400v66h111v-700h-111v467z" />
    <glyph glyph-name="uni04E5" unicode="&#x4e5;" horiz-adv-x="484" 
d="M158 531q-30 0 -49.5 18.5t-19.5 50.5q0 31 19.5 50t49.5 19t49.5 -19t19.5 -50q0 -32 -19.5 -50.5t-49.5 -18.5zM337 531q-30 0 -49.5 18.5t-19.5 50.5q0 31 19.5 50t49.5 19t49.5 -19t19.5 -50q0 -32 -19 -50.5t-50 -18.5zM324 284l-163 -246v-38h-106v465h106v-291
l163 249v42h105v-465h-105v284z" />
    <glyph glyph-name="uni04E6" unicode="&#x4e6;" horiz-adv-x="602" 
d="M210 743q-31 0 -51.5 20t-20.5 52t20.5 52t51.5 20t51.5 -20t20.5 -52t-20.5 -52t-51.5 -20zM391 743q-31 0 -51.5 20t-20.5 52t20.5 52t51.5 20t51.5 -20t20.5 -52t-20.5 -52t-51.5 -20zM301 -17q-134 0 -205 94.5t-71 272.5t71 272.5t205 94.5t205 -94.5t71 -272.5
t-71 -272.5t-205 -94.5zM301 84q159 0 159 266t-159 266t-159 -266t159 -266z" />
    <glyph glyph-name="uni04E7" unicode="&#x4e7;" horiz-adv-x="481" 
d="M150 541q-30 0 -49.5 18.5t-19.5 50.5q0 31 19.5 50t49.5 19t49.5 -19t19.5 -50q0 -32 -19.5 -50.5t-49.5 -18.5zM329 541q-30 0 -49.5 18.5t-19.5 50.5q0 31 19.5 50t49.5 19t49.5 -19t19.5 -50q0 -32 -19 -50.5t-50 -18.5zM240 -12q-99 0 -157 66t-58 179q0 112 58 178
t157 66q100 0 158 -66t58 -178q0 -113 -58 -179t-158 -66zM240 82q53 0 81 39t28 112t-28 112t-81 39t-81 -39t-28 -112t28 -112t81 -39z" />
    <glyph glyph-name="uni04E8" unicode="&#x4e8;" horiz-adv-x="602" 
d="M301 717q134 0 205 -94.5t71 -272.5t-71 -272.5t-205 -94.5t-205 94.5t-71 272.5t71 272.5t205 94.5zM301 616q-147 0 -158 -230h316q-11 230 -158 230zM301 84q149 0 158 232h-316q9 -232 158 -232z" />
    <glyph glyph-name="uni04E9" unicode="&#x4e9;" horiz-adv-x="481" 
d="M240 477q100 0 158 -66t58 -178q0 -113 -58 -179t-158 -66q-99 0 -157 66t-58 179q0 112 58 178t157 66zM240 384q-46 0 -73.5 -30t-33.5 -86h214q-12 116 -107 116zM240 82q93 0 107 115h-214q14 -115 107 -115z" />
    <glyph glyph-name="uni04EA" unicode="&#x4ea;" horiz-adv-x="602" 
d="M210 743q-31 0 -51.5 20t-20.5 52t20.5 52t51.5 20t51.5 -20t20.5 -52t-20.5 -52t-51.5 -20zM391 743q-31 0 -51.5 20t-20.5 52t20.5 52t51.5 20t51.5 -20t20.5 -52t-20.5 -52t-51.5 -20zM301 717q134 0 205 -94.5t71 -272.5t-71 -272.5t-205 -94.5t-205 94.5t-71 272.5
t71 272.5t205 94.5zM301 616q-147 0 -158 -230h316q-11 230 -158 230zM301 84q149 0 158 232h-316q9 -232 158 -232z" />
    <glyph glyph-name="uni04EB" unicode="&#x4eb;" horiz-adv-x="481" 
d="M150 541q-30 0 -49.5 18.5t-19.5 50.5q0 31 19.5 50t49.5 19t49.5 -19t19.5 -50q0 -32 -19.5 -50.5t-49.5 -18.5zM329 541q-30 0 -49.5 18.5t-19.5 50.5q0 31 19.5 50t49.5 19t49.5 -19t19.5 -50q0 -32 -19 -50.5t-50 -18.5zM240 477q100 0 158 -66t58 -178
q0 -113 -58 -179t-158 -66q-99 0 -157 66t-58 179q0 112 58 178t157 66zM240 384q-46 0 -73.5 -30t-33.5 -86h214q-12 116 -107 116zM240 82q93 0 107 115h-214q14 -115 107 -115z" />
    <glyph glyph-name="uni04EC" unicode="&#x4ec;" horiz-adv-x="556" 
d="M190 743q-31 0 -51.5 20t-20.5 52t20.5 52t51.5 20t51.5 -20t20.5 -52t-20.5 -52t-51.5 -20zM371 743q-31 0 -51.5 20t-20.5 52t20.5 52t51.5 20t51.5 -20t20.5 -52t-20.5 -52t-51.5 -20zM272 716q123 0 191 -96t68 -270t-69 -270t-194 -96q-204 0 -236 230h118
q13 -68 42.5 -99t81.5 -31q62 0 98.5 58.5t41.5 166.5h-185v80h185q-10 227 -138 227q-56 0 -85 -31.5t-40 -105.5h-118q13 117 74 177t165 60z" />
    <glyph glyph-name="uni04ED" unicode="&#x4ed;" horiz-adv-x="462" 
d="M133 538q-30 0 -49.5 18.5t-19.5 50.5q0 31 19.5 50t49.5 19t49.5 -19t19.5 -50q0 -32 -19.5 -50.5t-49.5 -18.5zM312 538q-30 0 -49.5 18.5t-19.5 50.5q0 31 19.5 50t49.5 19t49.5 -19t19.5 -50q0 -32 -19 -50.5t-50 -18.5zM128 297h-103q5 77 59.5 128.5t140.5 51.5
q105 0 158.5 -67.5t53.5 -176.5t-53.5 -177t-158.5 -68q-86 0 -140.5 49.5t-59.5 123.5h103q6 -36 31 -58t69 -22q49 0 74 30t27 82h-138v79h138q-2 52 -27.5 82.5t-74.5 30.5q-43 0 -68 -24t-31 -64z" />
    <glyph glyph-name="uni04EE" unicode="&#x4ee;" horiz-adv-x="476" 
d="M393 848v-84h-279v84h279zM375 700h116l-295 -700h-117l111 262l-190 438h119l131 -313z" />
    <glyph glyph-name="uni04EF" unicode="&#x4ef;" horiz-adv-x="482" 
d="M112 557v83h257v-83h-257zM321 465h106v-470q0 -127 -68 -181q-47 -36 -122 -36q-81 0 -127 34q-58 42 -59 125h104q2 -34 23.5 -53.5t59.5 -19.5q43 0 63 29.5t20 93.5v80q-37 -79 -133 -79q-67 0 -102.5 48t-35.5 127v302h107v-280q0 -106 77 -106q42 0 64.5 31.5
t22.5 90.5v264z" />
    <glyph glyph-name="uni04F0" unicode="&#x4f0;" horiz-adv-x="476" 
d="M162 743q-31 0 -51.5 20t-20.5 52t20.5 52t51.5 20t51.5 -20t20.5 -52t-20.5 -52t-51.5 -20zM343 743q-31 0 -51.5 20t-20.5 52t20.5 52t51.5 20t51.5 -20t20.5 -52t-20.5 -52t-51.5 -20zM375 700h116l-295 -700h-117l111 262l-190 438h119l131 -313z" />
    <glyph glyph-name="uni04F1" unicode="&#x4f1;" horiz-adv-x="482" 
d="M151 541q-30 0 -49.5 18.5t-19.5 50.5q0 31 19.5 50t49.5 19t49.5 -19t19.5 -50q0 -32 -19.5 -50.5t-49.5 -18.5zM330 541q-30 0 -49.5 18.5t-19.5 50.5q0 31 19.5 50t49.5 19t49.5 -19t19.5 -50q0 -32 -19 -50.5t-50 -18.5zM321 465h106v-470q0 -127 -68 -181
q-47 -36 -122 -36q-81 0 -127 34q-58 42 -59 125h104q2 -34 23.5 -53.5t59.5 -19.5q43 0 63 29.5t20 93.5v80q-37 -79 -133 -79q-67 0 -102.5 48t-35.5 127v302h107v-280q0 -106 77 -106q42 0 64.5 31.5t22.5 90.5v264z" />
    <glyph glyph-name="uni04F2" unicode="&#x4f2;" horiz-adv-x="476" 
d="M303 855l-112 -120l-58 25l104 131zM322 734l-57 26l105 131l64 -38zM375 700h116l-295 -700h-117l111 262l-190 438h119l131 -313z" />
    <glyph glyph-name="uni04F3" unicode="&#x4f3;" horiz-adv-x="482" 
d="M183 510l-44 27l97 147l61 -46zM316 510l-44 27l97 147l62 -46zM321 465h106v-470q0 -127 -68 -181q-47 -36 -122 -36q-81 0 -127 34q-58 42 -59 125h104q2 -34 23.5 -53.5t59.5 -19.5q43 0 63 29.5t20 93.5v80q-37 -79 -133 -79q-67 0 -102.5 48t-35.5 127v302h107v-280
q0 -106 77 -106q42 0 64.5 31.5t22.5 90.5v264z" />
    <glyph glyph-name="uni04F4" unicode="&#x4f4;" horiz-adv-x="503" 
d="M155 743q-31 0 -51.5 20t-20.5 52t20.5 52t51.5 20t51.5 -20t20.5 -52t-20.5 -52t-51.5 -20zM336 743q-31 0 -51.5 20t-20.5 52t20.5 52t51.5 20t51.5 -20t20.5 -52t-20.5 -52t-51.5 -20zM332 0v253q-43 -36 -116 -36q-81 0 -128 56t-47 141v286h111v-260q0 -65 27 -98.5
t73 -33.5q17 0 27 1.5t25 9.5t28 24v357h110v-700h-110z" />
    <glyph glyph-name="uni04F5" unicode="&#x4f5;" horiz-adv-x="434" 
d="M117 541q-30 0 -49.5 18.5t-19.5 50.5q0 31 19.5 50t49.5 19t49.5 -19t19.5 -50q0 -32 -19.5 -50.5t-49.5 -18.5zM296 541q-30 0 -49.5 18.5t-19.5 50.5q0 31 19.5 50t49.5 19t49.5 -19t19.5 -50q0 -32 -19 -50.5t-50 -18.5zM273 0v167q-37 -28 -94 -28q-144 0 -144 157
v169h106v-158q0 -88 68 -88q44 0 64 30v216h105v-465h-105z" />
    <glyph glyph-name="uni04F6" unicode="&#x4f6;" horiz-adv-x="399" 
d="M394 595h-223v-495h45v-220h-106v120h-50v700h334v-105z" />
    <glyph glyph-name="uni04F7" unicode="&#x4f7;" horiz-adv-x="340" 
d="M315 367h-154v-267h45v-220h-106v120h-45v465h260v-98z" />
    <glyph glyph-name="uni04F8" unicode="&#x4f8;" horiz-adv-x="709" 
d="M271 743q-31 0 -51.5 20t-20.5 52t20.5 52t51.5 20t51.5 -20t20.5 -52t-20.5 -52t-51.5 -20zM452 743q-31 0 -51.5 20t-20.5 52t20.5 52t51.5 20t51.5 -20t20.5 -52t-20.5 -52t-51.5 -20zM60 0v700h111v-298h122q82 0 135 -58.5t53 -142.5t-53 -142.5t-136 -58.5h-232z
M537 0v700h111v-700h-111zM171 99h105q41 0 67 29.5t26 72.5q0 44 -25 74.5t-67 30.5h-106v-207z" />
    <glyph glyph-name="uni04F9" unicode="&#x4f9;" horiz-adv-x="607" 
d="M207 541q-30 0 -49.5 18.5t-19.5 50.5q0 31 19.5 50t49.5 19t49.5 -19t19.5 -50q0 -32 -19.5 -50.5t-49.5 -18.5zM386 541q-30 0 -49.5 18.5t-19.5 50.5q0 31 19.5 50t49.5 19t49.5 -19t19.5 -50q0 -32 -19 -50.5t-50 -18.5zM55 465h106v-159h77q71 0 112.5 -43.5
t41.5 -109.5q0 -64 -42.5 -108.5t-111.5 -44.5h-183v465zM445 0v465h107v-465h-107zM161 230v-154h62q27 0 45.5 22t18.5 55q0 34 -18 55.5t-45 21.5h-63z" />
    <glyph glyph-name="uni04FC" unicode="&#x4fc;" horiz-adv-x="502" 
d="M318 -216q-40 0 -63 10v99q26 -4 49 -4q30 0 45.5 14.5t15.5 49.5q0 54 -35 131l-79 175l-115 -259h-125l173 347l-173 353h125l115 -266l115 266h126l-174 -353l106 -215q52 -106 52 -195q0 -153 -158 -153z" />
    <glyph glyph-name="uni04FD" unicode="&#x4fd;" horiz-adv-x="423" 
d="M284 -216q-45 0 -64 10v82q18 -5 41 -5q49 0 49 50q0 35 -12 66.5t-44 90.5l-43 82l-85 -160h-116l141 238l-140 227h116l84 -151l85 151h116l-141 -227l84 -142q32 -55 44 -89.5t12 -84.5q0 -67 -33 -102.5t-94 -35.5z" />
    <glyph glyph-name="uni0510" unicode="&#x510;" horiz-adv-x="482" 
d="M344 189h113q0 -99 -57.5 -152.5t-168.5 -53.5q-84 0 -140 60.5t-56 154.5q0 67 32 111t81 54q-45 13 -75 56.5t-30 103.5q0 92 55.5 143t138.5 51q106 0 160.5 -54t54.5 -146h-113q0 100 -91 100q-45 0 -68 -26t-23 -67q0 -49 24 -82.5t74 -33.5h54v-100h-54
q-105 0 -105 -111q0 -114 94 -114q47 0 73.5 28t26.5 78z" />
    <glyph glyph-name="uni0511" unicode="&#x511;" horiz-adv-x="426" 
d="M290 139h101q0 -68 -47 -109.5t-129 -41.5q-74 0 -124.5 36.5t-50.5 102.5q0 45 25 76t64 36q-37 7 -60.5 35.5t-23.5 72.5q0 58 44 94t123 36q82 0 127 -40.5t45 -109.5h-102q0 30 -17.5 49t-51.5 19q-63 0 -63 -61q0 -31 17 -49t46 -18h48v-70h-50q-31 0 -48 -17
t-17 -46q0 -59 68 -59q36 0 56 17t20 47z" />
    <glyph glyph-name="uni0512" unicode="&#x512;" horiz-adv-x="579" 
d="M109 700h410v-777q0 -67 -40 -103t-114 -36q-44 0 -67 10v99q20 -4 49 -4q32 0 46.5 15.5t14.5 54.5v641h-188v-354q0 -253 -152 -253h-48v95h22q40 0 53.5 37t13.5 143v432z" />
    <glyph glyph-name="uni0513" unicode="&#x513;" horiz-adv-x="470" 
d="M415 465v-465h-1v-97q0 -58 -32.5 -88.5t-93.5 -30.5q-45 0 -64 10v94q19 -4 42 -4q43 0 43 50v439h-110v-185q0 -94 -33.5 -144.5t-96.5 -50.5h-44v91h15q54 0 54 100v281h321z" />
    <glyph glyph-name="uni051C" unicode="&#x51c;" horiz-adv-x="689" 
d="M135 0l-125 700h114l73 -509l106 509h82l107 -509l73 509h114l-125 -700h-106l-104 473l-104 -473h-105z" />
    <glyph glyph-name="uni051D" unicode="&#x51d;" horiz-adv-x="631" 
d="M136 0l-131 465h109l70 -308l79 308h105l79 -308l69 308h109l-130 -465h-91l-89 336l-88 -336h-91z" />
    <glyph glyph-name="uni0524" unicode="&#x524;" horiz-adv-x="570" 
d="M510 100h44v-220h-106v120h-49v600h-228v-600h-111v700h450v-600z" />
    <glyph glyph-name="uni0525" unicode="&#x525;" horiz-adv-x="493" 
d="M428 100h44v-220h-106v120h-43v377h-162v-377h-106v465h373v-365z" />
    <glyph glyph-name="uni0526" unicode="&#x526;" horiz-adv-x="537" 
d="M462 100h44v-220h-106v120h-49v260q0 65 -27 98.5t-73 33.5q-17 0 -27 -1.5t-25 -9.5t-28 -24v-357h-111v700h111v-253q43 36 116 36q81 0 128 -56t47 -141v-186z" />
    <glyph glyph-name="uni0527" unicode="&#x527;" horiz-adv-x="504" 
d="M439 100h44v-220h-106v120h-44v271q0 60 -18.5 88t-59.5 28q-88 0 -88 -132v-255h-107v700h106v-235h1v-67q37 79 130 79q142 0 142 -175v-202z" />
    <glyph glyph-name="uni0E3F" unicode="&#xe3f;" horiz-adv-x="513" 
d="M483 189q0 -81 -50.5 -130t-140.5 -57v-102h-80v100h-152v679h152v101h80v-102q85 -8 133.5 -54t48.5 -121q0 -126 -132 -154q63 -6 102 -50t39 -110zM246 584h-75v-190h73q113 0 113 95t-111 95zM246 96q62 0 91 25t29 78q0 45 -28.5 71.5t-76.5 26.5h-90v-201h75z" />
    <glyph glyph-name="Wgrave" unicode="&#x1e80;" horiz-adv-x="689" 
d="M418 732l-205 93l36 71l205 -93zM135 0l-125 700h114l73 -509l106 509h82l107 -509l73 509h114l-125 -700h-106l-104 473l-104 -473h-105z" />
    <glyph glyph-name="wgrave" unicode="&#x1e81;" horiz-adv-x="631" 
d="M393 515l-215 99l37 74l215 -98zM136 0l-131 465h109l70 -308l79 308h105l79 -308l69 308h109l-130 -465h-91l-89 336l-88 -336h-91z" />
    <glyph glyph-name="Wacute" unicode="&#x1e82;" horiz-adv-x="689" 
d="M274 732l-36 71l205 93l36 -71zM135 0l-125 700h114l73 -509l106 509h82l107 -509l73 509h114l-125 -700h-106l-104 473l-104 -473h-105z" />
    <glyph glyph-name="wacute" unicode="&#x1e83;" horiz-adv-x="631" 
d="M223 515l-37 75l215 98l37 -74zM136 0l-131 465h109l70 -308l79 308h105l79 -308l69 308h109l-130 -465h-91l-89 336l-88 -336h-91z" />
    <glyph glyph-name="Wdieresis" unicode="&#x1e84;" horiz-adv-x="689" 
d="M253 743q-31 0 -51.5 20t-20.5 52t20.5 52t51.5 20t51.5 -20t20.5 -52t-20.5 -52t-51.5 -20zM434 743q-31 0 -51.5 20t-20.5 52t20.5 52t51.5 20t51.5 -20t20.5 -52t-20.5 -52t-51.5 -20zM135 0l-125 700h114l73 -509l106 509h82l107 -509l73 509h114l-125 -700h-106
l-104 473l-104 -473h-105z" />
    <glyph glyph-name="wdieresis" unicode="&#x1e85;" horiz-adv-x="631" 
d="M226 541q-30 0 -49.5 18.5t-19.5 50.5q0 31 19.5 50t49.5 19t49.5 -19t19.5 -50q0 -32 -19.5 -50.5t-49.5 -18.5zM405 541q-30 0 -49.5 18.5t-19.5 50.5q0 31 19.5 50t49.5 19t49.5 -19t19.5 -50q0 -32 -19 -50.5t-50 -18.5zM136 0l-131 465h109l70 -308l79 308h105
l79 -308l69 308h109l-130 -465h-91l-89 336l-88 -336h-91z" />
    <glyph glyph-name="Ygrave" unicode="&#x1ef2;" horiz-adv-x="476" 
d="M363 803l-36 -71l-205 93l36 71zM375 700h116l-295 -700h-117l111 262l-190 438h119l131 -313z" />
    <glyph glyph-name="ygrave" unicode="&#x1ef3;" horiz-adv-x="482" 
d="M318 515l-215 99l37 74l215 -98zM321 465h106v-470q0 -127 -68 -181q-47 -36 -122 -36q-81 0 -127 34q-58 42 -59 125h104q2 -34 23.5 -53.5t59.5 -19.5q43 0 63 29.5t20 93.5v80q-37 -79 -133 -79q-67 0 -102.5 48t-35.5 127v302h107v-280q0 -106 77 -106
q42 0 64.5 31.5t22.5 90.5v264z" />
    <glyph glyph-name="uni2002" unicode="&#x2002;" horiz-adv-x="500" 
 />
    <glyph glyph-name="uni2003" unicode="&#x2003;" horiz-adv-x="1000" 
 />
    <glyph glyph-name="uni2004" unicode="&#x2004;" horiz-adv-x="0" 
 />
    <glyph glyph-name="uni2005" unicode="&#x2005;" horiz-adv-x="250" 
 />
    <glyph glyph-name="uni2009" unicode="&#x2009;" horiz-adv-x="135" 
 />
    <glyph glyph-name="uni200A" unicode="&#x200a;" horiz-adv-x="75" 
 />
    <glyph glyph-name="endash" unicode="&#x2013;" horiz-adv-x="567" 
d="M40 222v85h487v-85h-487z" />
    <glyph glyph-name="emdash" unicode="&#x2014;" horiz-adv-x="717" 
d="M40 222v85h637v-85h-637z" />
    <glyph glyph-name="quoteleft" unicode="&#x2018;" horiz-adv-x="263" 
d="M141 483q-34 0 -62.5 28.5t-28.5 84.5q0 63 34 103t98 40q22 0 35 -3v-45q-14 2 -35 2q-33 0 -55 -25q-19 -19 -22 -52q13 16 41 16q30 0 50.5 -20t20.5 -53q0 -34 -21.5 -55t-54.5 -21z" />
    <glyph glyph-name="quoteright" unicode="&#x2019;" horiz-adv-x="263" 
d="M122 717q34 0 62.5 -28.5t28.5 -84.5q0 -63 -34 -103t-98 -40q-21 0 -35 3v45q14 -2 35 -2q33 0 55 25q19 19 22 52q-13 -16 -41 -16q-30 0 -50.5 20t-20.5 53q0 34 21.5 55t54.5 21z" />
    <glyph glyph-name="quotesinglbase" unicode="&#x201a;" horiz-adv-x="263" 
d="M122 139q34 0 62.5 -28.5t28.5 -84.5q0 -63 -34 -103t-98 -40q-21 0 -35 3v45q14 -2 35 -2q33 0 55 25q19 19 22 52q-13 -16 -41 -16q-30 0 -50.5 20t-20.5 53q0 34 21.5 55t54.5 21z" />
    <glyph glyph-name="quotedblleft" unicode="&#x201c;" horiz-adv-x="460" 
d="M141 483q-34 0 -62.5 28.5t-28.5 84.5q0 63 34 103t98 40q22 0 35 -3v-45q-14 2 -35 2q-33 0 -55 -25q-19 -19 -22 -52q13 16 41 16q30 0 50.5 -20t20.5 -53q0 -34 -21.5 -55t-54.5 -21zM338 483q-34 0 -62.5 28.5t-28.5 84.5q0 63 34 103t98 40q21 0 35 -3v-45
q-14 2 -35 2q-33 0 -55 -25q-19 -19 -22 -52q13 16 41 16q30 0 50.5 -20t20.5 -53q0 -34 -21.5 -55t-54.5 -21z" />
    <glyph glyph-name="quotedblright" unicode="&#x201d;" horiz-adv-x="460" 
d="M122 719q34 0 62.5 -28.5t28.5 -84.5q0 -63 -34 -103t-98 -40q-21 0 -35 3v45q14 -2 35 -2q33 0 55 25q19 19 22 52q-13 -16 -41 -16q-30 0 -50.5 20t-20.5 53q0 34 21.5 55t54.5 21zM319 719q34 0 62.5 -28.5t28.5 -84.5q0 -63 -34 -103t-98 -40q-22 0 -35 3v45
q14 -2 35 -2q33 0 55 25q19 19 22 52q-13 -16 -41 -16q-30 0 -50.5 20t-20.5 53q0 34 21.5 55t54.5 21z" />
    <glyph glyph-name="quotedblbase" unicode="&#x201e;" horiz-adv-x="460" 
d="M122 139q34 0 62.5 -28.5t28.5 -84.5q0 -63 -34 -103t-98 -40q-21 0 -35 3v45q14 -2 35 -2q33 0 55 25q19 19 22 52q-13 -16 -41 -16q-30 0 -50.5 20t-20.5 53q0 34 21.5 55t54.5 21zM319 139q34 0 62.5 -28.5t28.5 -84.5q0 -63 -34 -103t-98 -40q-22 0 -35 3v45
q14 -2 35 -2q33 0 55 25q19 19 22 52q-13 -16 -41 -16q-30 0 -50.5 20t-20.5 53q0 34 21.5 55t54.5 21z" />
    <glyph glyph-name="dagger" unicode="&#x2020;" horiz-adv-x="439" 
d="M167 -182v552h-117v95h117v252h106v-252h116v-95h-116v-552h-106z" />
    <glyph glyph-name="daggerdbl" unicode="&#x2021;" horiz-adv-x="439" 
d="M167 -182v183h-117v92h117v280h-117v92h117v252h106v-252h116v-92h-116v-280h116v-92h-116v-183h-106z" />
    <glyph glyph-name="bullet" unicode="&#x2022;" horiz-adv-x="296" 
d="M147 196q-48 0 -82 34t-34 82q0 49 34 83t82 34q49 0 83 -34t34 -83q0 -48 -34 -82t-83 -34z" />
    <glyph glyph-name="ellipsis" unicode="&#x2026;" horiz-adv-x="689" 
d="M114 -12q-34 0 -58.5 24.5t-24.5 59.5q0 34 24.5 58t58.5 24t58.5 -24t24.5 -58q0 -35 -24.5 -59.5t-58.5 -24.5zM343 -12q-34 0 -58.5 24.5t-24.5 59.5q0 34 24.5 58t58.5 24t58.5 -24t24.5 -58q0 -35 -24.5 -59.5t-58.5 -24.5zM574 -12q-34 0 -58.5 24.5t-24.5 59.5
q0 34 24.5 58t58.5 24t58.5 -24t24.5 -58q0 -35 -24.5 -59.5t-58.5 -24.5z" />
    <glyph glyph-name="perthousand" unicode="&#x2030;" horiz-adv-x="1009" 
d="M159 -16l-67 37l421 682l68 -37zM158 346q-69 0 -108.5 45.5t-39.5 124.5t39.5 124.5t108.5 45.5t108.5 -45.5t39.5 -124.5t-39.5 -124.5t-108.5 -45.5zM158 425q60 0 60 91t-60 91t-60 -91t60 -91zM526 -5q-69 0 -108.5 45.5t-39.5 124.5t39.5 124.5t108.5 45.5
t108.5 -45.5t39.5 -124.5t-39.5 -124.5t-108.5 -45.5zM851 -5q-69 0 -108.5 45.5t-39.5 124.5t39.5 124.5t108.5 45.5t108.5 -45.5t39.5 -124.5t-39.5 -124.5t-108.5 -45.5zM526 74q60 0 60 91t-60 91t-60 -91t60 -91zM851 74q60 0 60 91t-60 91t-60 -91t60 -91z" />
    <glyph glyph-name="guilsinglleft" unicode="&#x2039;" horiz-adv-x="262" 
d="M203 65l-208 196l208 195l59 -61l-142 -134l142 -134z" />
    <glyph glyph-name="guilsinglright" unicode="&#x203a;" horiz-adv-x="262" 
d="M59 65l-59 62l142 134l-142 134l59 61l208 -195z" />
    <glyph glyph-name="fraction" unicode="&#x2044;" horiz-adv-x="131" 
d="M-112 -32l-68 35l423 714l67 -35z" />
    <glyph glyph-name="uni2070" unicode="&#x2070;" horiz-adv-x="365" 
d="M183 391q-77 0 -113 50.5t-36 155.5t36 155.5t113 50.5q76 0 112 -50.5t36 -155.5t-36 -155.5t-112 -50.5zM183 462q34 0 47 30t13 105t-13 105.5t-47 30.5t-48 -30.5t-14 -105.5t14 -105t48 -30z" />
    <glyph glyph-name="uni2074" unicode="&#x2074;" horiz-adv-x="351" 
d="M319 587v-76h-46v-111h-84v111h-142v283h85v-207h57v99h84v-99h46z" />
    <glyph glyph-name="uni2075" unicode="&#x2075;" horiz-adv-x="352" 
d="M177 391q-62 0 -97.5 33.5t-37.5 94.5h88q2 -54 47 -54q52 0 52 72q0 36 -13 55t-36 19q-37 0 -48 -35h-84v218h247v-70h-167v-82q25 35 76 35t81.5 -38t30.5 -103q0 -67 -39 -106t-100 -39z" />
    <glyph glyph-name="uni2076" unicode="&#x2076;" horiz-adv-x="344" 
d="M195 686q53 -8 84 -46.5t31 -99.5q0 -68 -37 -108.5t-100 -40.5q-64 0 -101.5 40.5t-37.5 108.5q0 61 31 100l102 154h98zM173 464q51 0 51 76q0 75 -51 75q-25 0 -39 -19.5t-14 -55.5q0 -76 53 -76z" />
    <glyph glyph-name="uni2077" unicode="&#x2077;" horiz-adv-x="312" 
d="M48 400l128 317h-148v77h266l-150 -394h-96z" />
    <glyph glyph-name="uni2078" unicode="&#x2078;" horiz-adv-x="363" 
d="M181 391q-66 0 -103 31.5t-37 85.5q0 73 68 98q-59 24 -59 92q0 49 36.5 77t94.5 28q59 0 95.5 -28t36.5 -77q0 -68 -59 -92q67 -24 67 -98q0 -54 -37 -85.5t-103 -31.5zM181 638q21 0 33 14.5t12 38.5t-12 37.5t-33 13.5q-20 0 -32 -13.5t-12 -37.5t12 -38.5t32 -14.5z
M181 457q53 0 53 59q0 27 -14.5 42.5t-38.5 15.5q-23 0 -37.5 -15.5t-14.5 -42.5q0 -59 52 -59z" />
    <glyph glyph-name="uni2079" unicode="&#x2079;" horiz-adv-x="344" 
d="M310 654q0 -61 -31 -100l-102 -154h-98l70 108q-53 8 -84 46.5t-31 99.5q0 68 37 108.5t100 40.5q64 0 101.5 -40.5t37.5 -108.5zM120 654q0 -75 51 -75q25 0 39 19.5t14 55.5q0 76 -53 76q-51 0 -51 -76z" />
    <glyph glyph-name="uni207A" unicode="&#x207a;" horiz-adv-x="347" 
d="M138 458v95h-98v69h98v95h72v-95h98v-69h-98v-95h-72z" />
    <glyph glyph-name="uni207B" unicode="&#x207b;" horiz-adv-x="347" 
d="M45 553v69h257v-69h-257z" />
    <glyph glyph-name="uni207C" unicode="&#x207c;" horiz-adv-x="346" 
d="M56 627v69h234v-69h-234zM56 484v69h234v-69h-234z" />
    <glyph glyph-name="uni207D" unicode="&#x207d;" horiz-adv-x="241" 
d="M152 316q-49 60 -75 125t-26 155t26 155t75 125l64 -54q-42 -54 -60.5 -104t-18.5 -122q0 -75 17.5 -124.5t61.5 -101.5z" />
    <glyph glyph-name="uni207E" unicode="&#x207e;" horiz-adv-x="241" 
d="M89 316l-64 54q44 52 61.5 101.5t17.5 124.5q0 72 -18.5 122t-60.5 104l64 54q49 -60 75 -125t26 -155t-26 -155t-75 -125z" />
    <glyph glyph-name="uni2080" unicode="&#x2080;" horiz-adv-x="365" 
d="M183 -89q-77 0 -113 50.5t-36 155.5t36 155.5t113 50.5q76 0 112 -50.5t36 -155.5t-36 -155.5t-112 -50.5zM183 -18q34 0 47 30t13 105t-13 105.5t-47 30.5t-48 -30.5t-14 -105.5t14 -105t48 -30z" />
    <glyph glyph-name="uni2081" unicode="&#x2081;" horiz-adv-x="255" 
d="M99 -80v251h-68v72q46 0 63 16.5t19 54.5h77v-394h-91z" />
    <glyph glyph-name="uni2082" unicode="&#x2082;" horiz-adv-x="346" 
d="M40 -80q0 74 21 116t70 74l47 31q42 26 42 65q0 44 -39 44q-47 0 -47 -63h-88q0 64 36.5 100t101.5 36q63 0 96 -29.5t33 -81.5q0 -75 -73 -123l-39 -25q-27 -18 -39 -32t-17 -35h159v-77h-264z" />
    <glyph glyph-name="uni2083" unicode="&#x2083;" horiz-adv-x="350" 
d="M174 -89q-137 0 -137 136h89q0 -64 53 -64q20 0 31 14t11 39q0 52 -61 52h-31v70h33q53 0 53 51q0 46 -40 46q-20 0 -32 -14.5t-12 -39.5h-88q0 56 35.5 89t99.5 33q60 0 93 -29t33 -77q0 -37 -19 -61.5t-55 -31.5q38 -7 59 -33.5t21 -63.5q0 -50 -37 -83t-99 -33z" />
    <glyph glyph-name="uni2084" unicode="&#x2084;" horiz-adv-x="351" 
d="M319 107v-76h-46v-111h-84v111h-142v283h85v-207h57v99h84v-99h46z" />
    <glyph glyph-name="uni2085" unicode="&#x2085;" horiz-adv-x="352" 
d="M177 -89q-62 0 -97.5 33.5t-37.5 94.5h88q2 -54 47 -54q52 0 52 72q0 36 -13 55t-36 19q-37 0 -48 -35h-84v218h247v-70h-167v-82q25 35 76 35t81.5 -38t30.5 -103q0 -67 -39 -106t-100 -39z" />
    <glyph glyph-name="uni2086" unicode="&#x2086;" horiz-adv-x="344" 
d="M195 206q53 -8 84 -46.5t31 -99.5q0 -68 -37 -108.5t-100 -40.5q-64 0 -101.5 40.5t-37.5 108.5q0 61 31 100l102 154h98zM173 -16q51 0 51 76q0 75 -51 75q-25 0 -39 -19.5t-14 -55.5q0 -76 53 -76z" />
    <glyph glyph-name="uni2087" unicode="&#x2087;" horiz-adv-x="312" 
d="M48 -80l128 317h-148v77h266l-150 -394h-96z" />
    <glyph glyph-name="uni2088" unicode="&#x2088;" horiz-adv-x="363" 
d="M181 -89q-66 0 -103 31.5t-37 85.5q0 73 68 98q-59 24 -59 92q0 49 36.5 77t94.5 28q59 0 95.5 -28t36.5 -77q0 -68 -59 -92q67 -24 67 -98q0 -54 -37 -85.5t-103 -31.5zM181 158q21 0 33 14.5t12 38.5t-12 37.5t-33 13.5q-20 0 -32 -13.5t-12 -37.5t12 -38.5t32 -14.5z
M181 -23q53 0 53 59q0 27 -14.5 42.5t-38.5 15.5q-23 0 -37.5 -15.5t-14.5 -42.5q0 -59 52 -59z" />
    <glyph glyph-name="uni2089" unicode="&#x2089;" horiz-adv-x="344" 
d="M310 174q0 -61 -31 -100l-102 -154h-98l70 108q-53 8 -84 46.5t-31 99.5q0 68 37 108.5t100 40.5q64 0 101.5 -40.5t37.5 -108.5zM120 174q0 -75 51 -75q25 0 39 19.5t14 55.5q0 76 -53 76q-51 0 -51 -76z" />
    <glyph glyph-name="uni208A" unicode="&#x208a;" horiz-adv-x="347" 
d="M138 -32v95h-98v69h98v95h72v-95h98v-69h-98v-95h-72z" />
    <glyph glyph-name="uni208B" unicode="&#x208b;" horiz-adv-x="347" 
d="M45 63v69h257v-69h-257z" />
    <glyph glyph-name="uni208C" unicode="&#x208c;" horiz-adv-x="346" 
d="M56 137v69h234v-69h-234zM56 -6v69h234v-69h-234z" />
    <glyph glyph-name="uni208D" unicode="&#x208d;" horiz-adv-x="241" 
d="M152 -174q-49 60 -75 125t-26 155t26 155t75 125l64 -54q-42 -54 -60.5 -104t-18.5 -122q0 -75 17.5 -124.5t61.5 -101.5z" />
    <glyph glyph-name="uni208E" unicode="&#x208e;" horiz-adv-x="241" 
d="M89 -174l-64 54q44 52 61.5 101.5t17.5 124.5q0 72 -18.5 122t-60.5 104l64 54q49 -60 75 -125t26 -155t-26 -155t-75 -125z" />
    <glyph glyph-name="uni20A9" unicode="&#x20a9;" horiz-adv-x="659" 
d="M653 367h-80l-9 -70h89v-80h-99v5l-29 -222h-119l-77 576l-76 -576h-120l-28 217h-100v80h90l-9 70h-81v80h70l-30 233h94l57 -557l80 557h107l80 -557l56 557h95l-30 -233h69v-80z" />
    <glyph glyph-name="Euro" unicode="&#x20ac;" horiz-adv-x="545" 
d="M310 83q45 0 69.5 28.5t28.5 78.5h107q-11 -93 -60 -147.5t-145 -54.5q-49 0 -87 14t-62 37t-41 57.5t-24.5 71t-11.5 81.5h-73l20 74h50v17v37h-70l20 74h55q12 112 62.5 176.5t161.5 64.5q96 0 145 -54.5t60 -147.5h-107q-4 50 -28.5 79t-69.5 29q-59 0 -85.5 -38
t-33.5 -109h174l-19 -74h-159v-37v-17h178l-19 -74h-157q5 -80 31.5 -123t89.5 -43z" />
    <glyph glyph-name="uni20AE" unicode="&#x20ae;" horiz-adv-x="427" 
d="M422 580h-153v-117l98 53v-83l-98 -53v-54l98 53v-83l-98 -53v-243h-111v183l-97 -52v83l97 52v54l-97 -52v83l97 52v177h-153v100h417v-100z" />
    <glyph glyph-name="uni20B4" unicode="&#x20b4;" horiz-adv-x="619" 
d="M388 327l-33 -19h188l-16 -58h-269q-24 -17 -33 -33.5t-9 -45.5q0 -40 22.5 -63t63.5 -23q47 0 73.5 25t26.5 68h115q0 -85 -57.5 -137.5t-159.5 -52.5q-91 0 -146 47t-55 126q0 51 19 89h-42l17 58h75q18 15 46 30l68 38h-206l17 59h273q22 28 22 78q0 39 -20 61.5
t-56 22.5q-84 0 -84 -86h-116q0 82 54.5 131.5t145.5 49.5q88 0 140.5 -46t52.5 -128q0 -43 -16 -83h54l-16 -59h-77q-24 -27 -62 -49z" />
    <glyph glyph-name="uni20B8" unicode="&#x20b8;" horiz-adv-x="428" 
d="M5 580v100h418v-100h-418zM157 0v417h-152v100h418v-100h-154v-417h-112z" />
    <glyph glyph-name="uni20B9" unicode="&#x20b9;" horiz-adv-x="464" 
d="M324 607q47 -51 56 -134h84l-19 -74h-65q-14 -134 -121 -183l125 -216h-127l-105 192q-7 -1 -22 -1h-101v97h107q55 0 86.5 29t39.5 82h-241v74h241q-8 53 -39.5 82t-86.5 29h-107v96h435l-19 -73h-121z" />
    <glyph glyph-name="uni20BA" unicode="&#x20ba;" horiz-adv-x="595" 
d="M352 265h106q0 -265 -284 -265h-99v215l-51 -25v83l51 25v54l-51 -25v83l51 25v245h112v-191l140 68v-83l-140 -68v-54l140 68v-83l-140 -68v-169q165 0 165 165z" />
    <glyph glyph-name="uni20BD" unicode="&#x20bd;" horiz-adv-x="513" 
d="M250 191h-66v-50h93v-70h-93v-71h-111v71h-63v70h63v50h-63v97h63v392h177q122 0 187 -65t65 -180q0 -114 -65 -179t-187 -65zM184 584v-296h72q64 0 96.5 39.5t32.5 107.5q0 69 -32.5 109t-96.5 40h-72z" />
    <glyph glyph-name="uni2113" unicode="&#x2113;" horiz-adv-x="421" 
d="M280 -12q-24 0 -41 2t-42 11.5t-41 27t-28 53t-12 84.5v4l-64 -52l-47 81l111 80v228q0 210 145 210q69 0 106.5 -49.5t37.5 -129.5q0 -150 -198 -301v-79q0 -27 7.5 -44t22 -23.5t26 -8.5t30.5 -2q43 0 73 10l1 -88q-28 -14 -87 -14zM207 352q58 51 82 94.5t24 95.5
q0 91 -48 91q-28 0 -43 -30t-15 -77v-174z" />
    <glyph glyph-name="uni2116" unicode="&#x2116;" horiz-adv-x="981" 
d="M60 0v700h104l235 -509v509h101v-700h-103l-235 489v-489h-102zM743 134q-81 0 -128.5 54t-47.5 146t47.5 146.5t128.5 54.5q82 0 129.5 -54.5t47.5 -146.5t-47.5 -146t-129.5 -54zM743 225q35 0 54.5 28.5t19.5 80.5q0 53 -19.5 81.5t-54.5 28.5t-54 -28.5t-19 -81.5
q0 -52 19 -80.5t54 -28.5zM573 0v91h341v-91h-341z" />
    <glyph glyph-name="trademark" unicode="&#x2122;" horiz-adv-x="821" 
d="M99 293v337h-94v70h267v-70h-94v-337h-79zM328 293v407h132l85 -270l83 270h133v-407h-78v327l-104 -327h-69l-104 327v-327h-78z" />
    <glyph glyph-name="uni2126" unicode="&#x2126;" horiz-adv-x="605" 
d="M34 0v100h141v20q-72 34 -111 106t-39 173q0 135 75.5 224t202.5 89q126 0 201.5 -89t75.5 -224q0 -101 -39 -173t-111 -106v-20h141v-100h-228v178q125 36 125 226q0 93 -42.5 150.5t-122.5 57.5t-123 -57.5t-43 -150.5q0 -191 126 -226v-178h-229z" />
    <glyph glyph-name="estimated" unicode="&#x212e;" horiz-adv-x="495" 
d="M258 -12q-112 0 -172.5 71.5t-60.5 173.5q0 108 61 175.5t169 67.5q90 0 152.5 -60t62.5 -149q0 -16 -1 -29h-334v-191q50 -36 123 -36q68 0 116.5 33t64.5 83h23q-16 -59 -70.5 -99t-133.5 -40zM135 261h229v161q-50 32 -109 32q-70 0 -120 -33v-160z" />
    <glyph glyph-name="uni2153" unicode="&#x2153;" horiz-adv-x="715" 
d="M142 -32l-68 35l423 714l67 -35zM99 283v251h-68v72q46 0 63 16.5t19 54.5h77v-394h-91zM539 -9q-137 0 -137 136h89q0 -64 53 -64q20 0 31 14t11 39q0 52 -61 52h-31v70h33q53 0 53 51q0 46 -40 46q-20 0 -32 -14.5t-12 -39.5h-88q0 56 35.5 89t99.5 33q60 0 93 -29
t33 -77q0 -37 -19 -61.5t-55 -31.5q38 -7 59 -33.5t21 -63.5q0 -50 -37 -83t-99 -33z" />
    <glyph glyph-name="uni2154" unicode="&#x2154;" horiz-adv-x="807" 
d="M234 -32l-68 35l423 714l67 -35zM40 286q0 74 21 116t70 74l47 31q42 26 42 65q0 44 -39 44q-47 0 -47 -63h-88q0 64 36.5 100t101.5 36q63 0 96 -29.5t33 -81.5q0 -75 -73 -123l-39 -25q-27 -18 -39 -32t-17 -35h159v-77h-264zM631 -9q-137 0 -137 136h89q0 -64 53 -64
q20 0 31 14t11 39q0 52 -61 52h-31v70h33q53 0 53 51q0 46 -40 46q-20 0 -32 -14.5t-12 -39.5h-88q0 56 35.5 89t99.5 33q60 0 93 -29t33 -77q0 -37 -19 -61.5t-55 -31.5q38 -7 59 -33.5t21 -63.5q0 -50 -37 -83t-99 -33z" />
    <glyph glyph-name="arrowleft" unicode="&#x2190;" horiz-adv-x="720" 
d="M244 134l-234 216l234 216l59 -63l-123 -110h530v-87h-529l122 -109z" />
    <glyph glyph-name="arrowup" unicode="&#x2191;" horiz-adv-x="491" 
d="M202 0v528l-109 -121l-63 59l216 234l216 -234l-64 -59l-109 123v-530h-87z" />
    <glyph glyph-name="arrowright" unicode="&#x2192;" horiz-adv-x="720" 
d="M476 134l-59 63l123 110h-530v87h528l-121 109l59 63l234 -216z" />
    <glyph glyph-name="arrowdown" unicode="&#x2193;" horiz-adv-x="491" 
d="M246 0l-216 234l63 59l110 -123v530h87v-529l108 122l64 -59z" />
    <glyph glyph-name="uni2196" unicode="&#x2196;" horiz-adv-x="584" 
d="M493 72l-374 373l9 -162l-86 -4l-13 318l319 -12l-4 -87l-164 9l375 -374z" />
    <glyph glyph-name="uni2197" unicode="&#x2197;" horiz-adv-x="584" 
d="M91 72l-62 61l373 374l-162 -9l-4 87l319 12l-13 -318l-86 4l10 164z" />
    <glyph glyph-name="uni2198" unicode="&#x2198;" horiz-adv-x="584" 
d="M555 103l-319 12l4 87l164 -9l-375 374l62 61l374 -373l-9 162l86 4z" />
    <glyph glyph-name="uni2199" unicode="&#x2199;" horiz-adv-x="584" 
d="M29 103l13 318l86 -4l-9 -164l374 375l62 -61l-374 -374l163 9l4 -87z" />
    <glyph glyph-name="partialdiff" unicode="&#x2202;" horiz-adv-x="533" 
d="M261 717q117 0 169.5 -88t52.5 -275q0 -188 -52.5 -280t-167.5 -92q-99 0 -156 62.5t-57 164.5q0 105 59.5 170.5t157.5 65.5q62 0 110 -25q-8 108 -34.5 153.5t-83.5 45.5q-44 0 -69 -34.5t-25 -92.5h-112q0 99 57 162t151 63zM263 80q60 0 88.5 51.5t29.5 183.5
q-50 32 -110 32q-57 0 -87 -37t-30 -100q0 -61 27 -95.5t82 -34.5z" />
    <glyph glyph-name="emptyset" unicode="&#x2205;" 
d="M506 512l-57 -57q43 -59 43 -138q0 -99 -62.5 -160.5t-159.5 -61.5q-81 0 -138 43l-57 -57l-41 41l57 57q-43 59 -43 138q0 99 62.5 160.5t159.5 61.5q81 0 138 -43l57 57zM115 317q0 -50 24 -90l222 222q-39 25 -90 25q-69 0 -112.5 -43t-43.5 -114zM426 317
q0 51 -24 91l-222 -222q38 -26 91 -26q68 0 111.5 43t43.5 114z" />
    <glyph glyph-name="uni2206" unicode="&#x2206;" horiz-adv-x="554" 
d="M15 0l222 700h79l222 -700h-523zM170 100h214l-107 424z" />
    <glyph glyph-name="product" unicode="&#x220f;" horiz-adv-x="677" 
d="M119 -214v909h-69v99h577v-99h-69v-909h-112v909h-215v-909h-112z" />
    <glyph glyph-name="summation" unicode="&#x2211;" horiz-adv-x="543" 
d="M50 -210v99l281 403l-281 403v99h443v-104h-301l280 -398l-280 -398h301v-104h-443z" />
    <glyph glyph-name="minus" unicode="&#x2212;" horiz-adv-x="484" 
d="M40 267v95h404v-95h-404z" />
    <glyph glyph-name="radical" unicode="&#x221a;" horiz-adv-x="780" 
d="M295 -210l-129 367h-116v95h195l90 -277l277 819h118l-356 -1004h-79z" />
    <glyph glyph-name="infinity" unicode="&#x221e;" horiz-adv-x="836" 
d="M596 491q84 0 137 -56t53 -146t-53 -146t-137 -56q-107 0 -177 111q-74 -111 -178 -111q-83 0 -137 57t-54 145t54 145t137 57q105 0 178 -111q69 111 177 111zM242 182q40 0 67 27t57 80q-30 53 -57 80t-67 27q-41 0 -66.5 -29.5t-25.5 -77.5t25.5 -77.5t66.5 -29.5z
M596 182q39 0 64.5 29.5t25.5 77.5t-25.5 77.5t-64.5 29.5t-66 -27t-58 -80q31 -53 58.5 -80t65.5 -27z" />
    <glyph glyph-name="integral" unicode="&#x222b;" horiz-adv-x="356" 
d="M133 -214q-55 0 -83 11v88q24 -7 39 -7q36 0 36 49v732q0 72 28 103.5t69 31.5q55 0 84 -11v-88q-25 6 -39 6q-37 0 -37 -48v-733q0 -72 -27.5 -103t-69.5 -31z" />
    <glyph glyph-name="approxequal" unicode="&#x2248;" horiz-adv-x="485" 
d="M345 307q-38 0 -101 34t-108 34q-43 0 -96 -55v91q40 58 101 58q33 0 107.5 -34t97.5 -34q47 0 98 55v-91q-39 -58 -99 -58zM345 150q-38 0 -101 34t-108 34t-95 -54v90q39 59 100 59q33 0 107.5 -34t97.5 -34q46 0 99 55v-91q-41 -59 -100 -59z" />
    <glyph glyph-name="notequal" unicode="&#x2260;" horiz-adv-x="484" 
d="M444 354h-140l-36 -81h176v-95h-217l-42 -96h-87l42 96h-100v95h141l35 81h-176v95h217l42 96h88l-42 -96h99v-95z" />
    <glyph glyph-name="lessequal" unicode="&#x2264;" horiz-adv-x="484" 
d="M441 210l-398 116v75l398 117v-101l-231 -53l231 -54v-100zM444 68h-404v94h404v-94z" />
    <glyph glyph-name="greaterequal" unicode="&#x2265;" horiz-adv-x="484" 
d="M43 210v100l231 54l-231 53v101l398 -117v-75zM40 68v94h404v-94h-404z" />
    <glyph glyph-name="uni2460" unicode="&#x2460;" horiz-adv-x="774" 
d="M387 -17q-165 0 -263.5 105t-98.5 262t98.5 262t263.5 105t263.5 -105t98.5 -262t-98.5 -262t-263.5 -105zM387 56q125 0 200.5 84.5t75.5 209.5t-75.5 209.5t-200.5 84.5t-200.5 -84.5t-75.5 -209.5t75.5 -209.5t200.5 -84.5zM353 171v228h-62v66q42 0 57.5 15t17.5 49
h70v-358h-83z" />
    <glyph glyph-name="uni2461" unicode="&#x2461;" horiz-adv-x="774" 
d="M387 -17q-165 0 -263.5 105t-98.5 262t98.5 262t263.5 105t263.5 -105t98.5 -262t-98.5 -262t-263.5 -105zM387 56q125 0 200.5 84.5t75.5 209.5t-75.5 209.5t-200.5 84.5t-200.5 -84.5t-75.5 -209.5t75.5 -209.5t200.5 -84.5zM266 175q0 67 19.5 105t63.5 68l43 28
q38 24 38 59q0 40 -35 40q-43 0 -43 -57h-80q0 58 33 90.5t92 32.5q57 0 87.5 -27t30.5 -74q0 -67 -67 -111l-35 -23q-44 -30 -51 -61h144v-70h-240z" />
    <glyph glyph-name="uni2462" unicode="&#x2462;" horiz-adv-x="774" 
d="M387 -17q-165 0 -263.5 105t-98.5 262t98.5 262t263.5 105t263.5 -105t98.5 -262t-98.5 -262t-263.5 -105zM387 56q125 0 200.5 84.5t75.5 209.5t-75.5 209.5t-200.5 84.5t-200.5 -84.5t-75.5 -209.5t75.5 -209.5t200.5 -84.5zM388 165q-124 0 -124 123h81q0 -58 48 -58
q17 0 27.5 13t10.5 35q0 48 -56 48h-28v63h30q48 0 48 47q0 42 -36 42q-18 0 -29 -14t-11 -36h-80q0 51 32.5 81t90.5 30q54 0 84 -26.5t30 -69.5q0 -71 -67 -85q34 -6 53.5 -30t19.5 -58q0 -45 -34 -75t-90 -30z" />
    <glyph glyph-name="uni2463" unicode="&#x2463;" horiz-adv-x="774" 
d="M387 717q165 0 263.5 -105t98.5 -262t-98.5 -262t-263.5 -105t-263.5 105t-98.5 262t98.5 262t263.5 105zM387 56q125 0 200.5 84.5t75.5 209.5t-75.5 209.5t-200.5 84.5t-200.5 -84.5t-75.5 -209.5t75.5 -209.5t200.5 -84.5zM480 431v-90h42v-69h-42v-101h-76v101h-129
v257h77v-188h52v90h76z" />
    <glyph glyph-name="uni2464" unicode="&#x2464;" horiz-adv-x="774" 
d="M387 -17q-165 0 -263.5 105t-98.5 262t98.5 262t263.5 105t263.5 -105t98.5 -262t-98.5 -262t-263.5 -105zM387 56q125 0 200.5 84.5t75.5 209.5t-75.5 209.5t-200.5 84.5t-200.5 -84.5t-75.5 -209.5t75.5 -209.5t200.5 -84.5zM389 168q-56 0 -88.5 30.5t-34.5 85.5h80
q2 -49 43 -49q47 0 47 66q0 32 -12 49.5t-32 17.5q-35 0 -44 -32h-76v198h224v-63h-152v-75q23 32 69 32t74 -34.5t28 -93.5q0 -61 -35 -96.5t-91 -35.5z" />
    <glyph glyph-name="uni2465" unicode="&#x2465;" horiz-adv-x="774" 
d="M387 717q165 0 263.5 -105t98.5 -262t-98.5 -262t-263.5 -105t-263.5 105t-98.5 262t98.5 262t263.5 105zM387 56q125 0 200.5 84.5t75.5 209.5t-75.5 209.5t-200.5 84.5t-200.5 -84.5t-75.5 -209.5t75.5 -209.5t200.5 -84.5zM403 436q49 -7 77 -42.5t28 -90.5
q0 -62 -33.5 -98.5t-91.5 -36.5t-92 36.5t-34 98.5q0 53 25 87l96 144h89zM383 234q47 0 47 69q0 68 -47 68q-48 0 -48 -68q0 -69 48 -69z" />
    <glyph glyph-name="uni2466" unicode="&#x2466;" horiz-adv-x="774" 
d="M387 -17q-165 0 -263.5 105t-98.5 262t98.5 262t263.5 105t263.5 -105t98.5 -262t-98.5 -262t-263.5 -105zM387 56q125 0 200.5 84.5t75.5 209.5t-75.5 209.5t-200.5 84.5t-200.5 -84.5t-75.5 -209.5t75.5 -209.5t200.5 -84.5zM298 161l116 288h-135v70h242l-136 -358
h-87z" />
    <glyph glyph-name="uni2467" unicode="&#x2467;" horiz-adv-x="774" 
d="M387 -17q-165 0 -263.5 105t-98.5 262t98.5 262t263.5 105t263.5 -105t98.5 -262t-98.5 -262t-263.5 -105zM387 56q125 0 200.5 84.5t75.5 209.5t-75.5 209.5t-200.5 84.5t-200.5 -84.5t-75.5 -209.5t75.5 -209.5t200.5 -84.5zM388 163q-60 0 -94 28.5t-34 77.5
q0 67 62 89q-54 22 -54 84q0 44 33 69.5t87 25.5t87 -25.5t33 -69.5q0 -61 -54 -84q61 -21 61 -89q0 -49 -33.5 -77.5t-93.5 -28.5zM388 387q19 0 29.5 13t10.5 36q0 46 -40 46t-40 -46q0 -23 10.5 -36t29.5 -13zM388 223q48 0 48 53q0 25 -13 39t-35 14t-35 -14t-13 -39
q0 -53 48 -53z" />
    <glyph glyph-name="uni2468" unicode="&#x2468;" horiz-adv-x="774" 
d="M387 717q165 0 263.5 -105t98.5 -262t-98.5 -262t-263.5 -105t-263.5 105t-98.5 262t98.5 262t263.5 105zM387 56q125 0 200.5 84.5t75.5 209.5t-75.5 209.5t-200.5 84.5t-200.5 -84.5t-75.5 -209.5t75.5 -209.5t200.5 -84.5zM392 532q59 0 93 -36.5t34 -98.5
q0 -59 -32 -96l-89 -135h-89l64 98q-49 6 -77 41.5t-28 91.5q0 62 33.5 98.5t90.5 36.5zM346 397q0 -68 46 -68q23 0 36 17.5t13 50.5q0 69 -49 69q-46 0 -46 -69z" />
    <glyph glyph-name="uni24EA" unicode="&#x24ea;" horiz-adv-x="774" 
d="M387 -17q-165 0 -263.5 105t-98.5 262t98.5 262t263.5 105t263.5 -105t98.5 -262t-98.5 -262t-263.5 -105zM387 56q125 0 200.5 84.5t75.5 209.5t-75.5 209.5t-200.5 84.5t-200.5 -84.5t-75.5 -209.5t75.5 -209.5t200.5 -84.5zM384 163q-70 0 -102.5 45.5t-32.5 141.5
t32.5 141.5t102.5 45.5t102.5 -45.5t32.5 -141.5t-32.5 -141.5t-102.5 -45.5zM384 227q31 0 43 27.5t12 95.5q0 69 -12 96.5t-43 27.5t-43.5 -28t-12.5 -96t12.5 -95.5t43.5 -27.5z" />
    <glyph glyph-name="uni24FF" unicode="&#x24ff;" horiz-adv-x="774" 
d="M387 -17q-165 0 -263.5 105t-98.5 262t98.5 262t263.5 105t263.5 -105t98.5 -262t-98.5 -262t-263.5 -105zM388 163q69 0 101.5 45.5t32.5 141.5t-32.5 141.5t-101.5 45.5q-70 0 -103 -45.5t-33 -141.5t33 -141.5t103 -45.5zM388 228q-31 0 -43.5 27t-12.5 95t12.5 95.5
t43.5 27.5q30 0 42 -27.5t12 -95.5t-12 -95t-42 -27z" />
    <glyph glyph-name="lozenge" unicode="&#x25ca;" horiz-adv-x="574" 
d="M240 0l-190 396l190 398h95l189 -398l-189 -396h-95zM286 112l129 284l-128 284l-128 -284z" />
    <glyph glyph-name="uni2776" unicode="&#x2776;" horiz-adv-x="774" 
d="M387 -17q-165 0 -263.5 105t-98.5 262t98.5 262t263.5 105t263.5 -105t98.5 -262t-98.5 -262t-263.5 -105zM353 171h83v358h-70q-2 -35 -17.5 -49.5t-57.5 -14.5v-66h62v-228z" />
    <glyph glyph-name="uni2777" unicode="&#x2777;" horiz-adv-x="774" 
d="M387 -17q-165 0 -263.5 105t-98.5 262t98.5 262t263.5 105t263.5 -105t98.5 -262t-98.5 -262t-263.5 -105zM263 175h240v70h-144q8 33 51 60l34 23q67 44 67 112q0 47 -30 74t-87 27q-59 0 -92 -32.5t-33 -90.5h79q0 57 44 57q35 0 35 -40q0 -35 -38 -59l-43 -28
q-44 -29 -63.5 -67.5t-19.5 -105.5z" />
    <glyph glyph-name="uni2778" unicode="&#x2778;" horiz-adv-x="774" 
d="M387 -17q-165 0 -263.5 105t-98.5 262t98.5 262t263.5 105t263.5 -105t98.5 -262t-98.5 -262t-263.5 -105zM387 165q56 0 90 30t34 75q0 34 -19 58t-54 30q68 14 68 85q0 44 -30 70t-85 26q-58 0 -90 -30t-32 -81h80q0 23 10.5 36t28.5 13q37 0 37 -41q0 -47 -48 -47h-30
v-63h28q56 0 56 -48q0 -22 -10.5 -35t-28.5 -13q-48 0 -48 58h-80q0 -123 123 -123z" />
    <glyph glyph-name="uni2779" unicode="&#x2779;" horiz-adv-x="774" 
d="M387 -17q-165 0 -263.5 105t-98.5 262t98.5 262t263.5 105t263.5 -105t98.5 -262t-98.5 -262t-263.5 -105zM393 171h76v101h41v69h-41v90h-76v-90h-52v188h-77v-257h129v-101z" />
    <glyph glyph-name="uni277A" unicode="&#x277a;" horiz-adv-x="774" 
d="M387 -17q-165 0 -263.5 105t-98.5 262t98.5 262t263.5 105t263.5 -105t98.5 -262t-98.5 -262t-263.5 -105zM389 168q55 0 90.5 35.5t35.5 95.5t-28 94t-74 34t-69 -31v74h151v64h-223v-198h76q9 32 43 32q45 0 45 -68q0 -65 -47 -65q-41 0 -43 49h-80q2 -55 34.5 -85.5
t88.5 -30.5z" />
    <glyph glyph-name="uni277B" unicode="&#x277b;" horiz-adv-x="774" 
d="M387 -17q-165 0 -263.5 105t-98.5 262t98.5 262t263.5 105t263.5 -105t98.5 -262t-98.5 -262t-263.5 -105zM387 168q58 0 91.5 36.5t33.5 98.5q0 56 -27.5 91t-75.5 41h-1l64 99h-89l-91 -136q-30 -44 -30 -95q0 -62 33.5 -98.5t91.5 -36.5zM387 234q-47 0 -47 69t47 69
t47 -69t-47 -69z" />
    <glyph glyph-name="uni277C" unicode="&#x277c;" horiz-adv-x="774" 
d="M387 -17q-165 0 -263.5 105t-98.5 262t98.5 262t263.5 105t263.5 -105t98.5 -262t-98.5 -262t-263.5 -105zM298 161h86l137 359h-241v-70h133z" />
    <glyph glyph-name="uni277D" unicode="&#x277d;" horiz-adv-x="774" 
d="M387 -17q-165 0 -263.5 105t-98.5 262t98.5 262t263.5 105t263.5 -105t98.5 -262t-98.5 -262t-263.5 -105zM388 163q60 0 93.5 28.5t33.5 77.5q0 68 -61 89q53 22 53 84q0 44 -33 69.5t-86 25.5q-54 0 -87 -25.5t-33 -69.5q0 -62 53 -84q-61 -21 -61 -89q0 -49 34 -77.5
t94 -28.5zM388 388q-41 0 -41 48q0 46 41 46q40 0 40 -46q0 -48 -40 -48zM388 223q-48 0 -48 53q0 25 13 39t35 14q21 0 34 -14.5t13 -38.5q0 -53 -47 -53z" />
    <glyph glyph-name="uni277E" unicode="&#x277e;" horiz-adv-x="774" 
d="M387 -17q-165 0 -263.5 105t-98.5 262t98.5 262t263.5 105t263.5 -105t98.5 -262t-98.5 -262t-263.5 -105zM308 166h90l95 143q25 37 25 88q0 62 -33.5 98.5t-91.5 36.5t-91.5 -36.5t-33.5 -98.5q0 -56 27.5 -91t75.5 -41h1zM393 328q-47 0 -47 69t47 69t47 -69t-47 -69z
" />
    <glyph glyph-name="uniF8FF" unicode="&#xf8ff;" horiz-adv-x="800" 
d="M400 -17q-109 0 -193.5 52.5t-127.5 135.5t-43 179t43 179t127.5 135.5t193.5 52.5t193.5 -52.5t127.5 -135.5t43 -179t-43 -179t-127.5 -135.5t-193.5 -52.5zM400 6q140 0 239.5 100.5t99.5 243.5q0 138 -98 241.5t-241 103.5t-241.5 -103t-98.5 -242q0 -143 99 -243.5
t241 -100.5zM243 457q-17 0 -29.5 13t-12.5 30q0 18 12.5 30.5t29.5 12.5q18 0 30.5 -12.5t12.5 -30.5q0 -17 -12.5 -30t-30.5 -13zM540 457q-17 0 -29.5 13t-12.5 30q0 18 12.5 30.5t29.5 12.5q18 0 30.5 -12.5t12.5 -30.5q0 -17 -12.5 -30t-30.5 -13zM219 259l179 268
l-110 -243h178v-25h-247zM132 207q0 38 26 52l23 13q11 6 13 17.5t2 39.5h17q0 -57 -20 -69l-22 -13q-23 -13 -23 -40h-16zM616 157l-16 4q5 17 3 26t-16 15l-41 20q-55 27 -31 98l15 -5q-20 -61 27 -82l40 -19q20 -9 22.5 -26.5t-3.5 -30.5zM366 66q-102 0 -198 162
q82 -49 116 -60q35 -11 72 -11q148 0 220 37q1 0 3 2q-22 -49 -88 -89.5t-125 -40.5zM366 92q31 0 71.5 16.5t62.5 30t32 21.5q-9 -2 -40.5 -9.5t-45 -10t-39 -5.5t-49.5 -3q-30 0 -69.5 11.5t-63.5 30.5q26 -42 69 -62t72 -20z" />
    <glyph glyph-name="dollar.tf" 
d="M479 177q0 -78 -47.5 -129.5t-127.5 -59.5v-88h-80v89q-164 25 -164 204h111q0 -54 27 -81.5t76 -27.5q42 0 66.5 23.5t24.5 63.5q0 36 -21 60.5t-67 48.5l-83 42q-63 33 -92.5 79t-29.5 116q0 68 41 114.5t111 57.5v91h80v-90q156 -19 156 -204h-110q-1 106 -86 106
q-39 0 -61 -20t-22 -54q0 -37 21 -59.5t68 -47.5l78 -42q70 -38 100.5 -81.5t30.5 -110.5z" />
    <glyph glyph-name="cent.tf" 
d="M468 265q-12 -147 -149 -169v-96h-80v96q-80 12 -124.5 75.5t-44.5 166.5q0 101 45 164.5t124 76.5v101h80v-101q72 -11 110.5 -56t37.5 -118h-106q-6 85 -85 85q-47 0 -73.5 -40t-26.5 -112q0 -152 102 -152q75 0 84 79h106z" />
    <glyph glyph-name="sterling.tf" 
d="M216 272q0 -52 -11 -101t-27 -71h288v-100h-416v73q55 41 55 176v71h-59v80h59v95q0 92 49 144.5t145 52.5q194 0 194 -198h-113q0 106 -82 106t-82 -105v-95h127v-80h-127v-48z" />
    <glyph glyph-name="florin.tf" 
d="M441 597q-31 0 -45.5 -18.5t-23.5 -69.5l-8 -45h91l-16 -88h-91l-77 -420q-30 -172 -147 -172q-47 0 -80 12l15 89q21 -7 48 -7q26 0 38 16.5t20 59.5l76 422h-68l16 88h68l8 47q17 94 55.5 137.5t103.5 43.5q45 0 71 -12l-16 -90q-17 7 -38 7z" />
    <glyph glyph-name="yen.tf" 
d="M320 276v-4h131v-73h-131v-53h131v-73h-131v-73h-100v73h-131v73h131v53h-131v73h131v4l-185 404h121l114 -296l114 296h121z" />
    <glyph glyph-name="Euro.tf" 
d="M317 83q45 0 69.5 28.5t28.5 78.5h106q-10 -92 -59 -147t-145 -55q-61 0 -104.5 20t-68.5 58t-37.5 82t-16.5 101h-72l19 74h50v17v37h-69l20 74h54q12 112 62.5 176.5t162.5 64.5q96 0 145 -55t59 -147h-106q-4 50 -28.5 79t-69.5 29q-60 0 -86.5 -38t-33.5 -109h175
l-20 -74h-159v-37v-17h179l-20 -74h-157q5 -80 32 -123t90 -43z" />
    <glyph glyph-name="uni20A9.tf" 
d="M528 367h-56l-8 -70h64v-80h-73l-25 -217h-106l-54 576l-55 -576h-106l-24 217h-73v80h64l-8 70h-56v80h47l-26 233h91l43 -557l57 557h91l57 -557l43 557h92l-26 -233h47v-80z" />
    <glyph glyph-name="uni20B4.tf" 
d="M412 376q-24 -27 -62 -49l-33 -19h193v-58h-290q-24 -17 -33 -33.5t-9 -45.5q0 -40 22.5 -63t63.5 -23q47 0 73.5 25t26.5 68h116q0 -85 -58 -137.5t-160 -52.5q-91 0 -146 47t-55 126q0 51 19 89h-50v58h100q18 15 46 30l68 38h-214v59h298q22 28 22 78q0 39 -20 61.5
t-56 22.5q-84 0 -84 -86h-116q0 82 54.5 131.5t145.5 49.5q88 0 140.5 -46t52.5 -128q0 -43 -16 -83h59v-59h-98z" />
    <glyph glyph-name="uni20B8.tf" 
d="M61 580v100h418v-100h-418zM213 0v417h-152v100h418v-100h-154v-417h-112z" />
    <glyph glyph-name="uni20AE.tf" 
d="M478 580h-153v-117l98 53v-83l-98 -53v-54l98 53v-83l-98 -53v-243h-111v183l-97 -52v83l97 52v54l-97 -52v83l97 52v177h-153v100h417v-100z" />
    <glyph glyph-name="perthousand.tf" 
d="M364 703l26 -17l-344 -687l-24 17zM125 385q-49 0 -77 40.5t-28 110.5q0 69 28 109.5t77 40.5q50 0 77.5 -40t27.5 -110t-27.5 -110.5t-77.5 -40.5zM125 627q-32 0 -32 -91t32 -91q33 0 33 91t-33 91zM425 297q45 0 70 -40t25 -110t-25 -110.5t-70 -40.5q-47 0 -78 33
q-30 -33 -78 -33q-45 0 -70 40.5t-25 110.5t25 110t70 40q48 0 78 -33q31 33 78 33zM274 56q32 0 32 91t-32 91q-33 0 -33 -91t33 -91zM420 56q33 0 33 91t-33 91q-32 0 -32 -91t32 -91z" />
    <glyph glyph-name="zero.zero" horiz-adv-x="525" 
d="M263 692q121 0 176.5 -84t55.5 -268t-55.5 -268t-176.5 -84q-122 0 -177.5 84t-55.5 268t55.5 268t177.5 84zM263 598q-71 0 -99 -57t-28 -201q0 -118 18 -175l178 414q-26 19 -69 19zM263 82q70 0 98 57t28 201q0 116 -17 173l-178 -412q26 -19 69 -19z" />
    <glyph glyph-name="zero.tf.zero" 
d="M270 692q103 0 163 -59t60 -170v-246q0 -111 -60 -170t-163 -59t-163 59t-60 170v246q0 111 60 170t163 59zM164 464v-248q0 -18 1 -26l167 383q-26 18 -62 18q-50 0 -78 -32.5t-28 -94.5zM376 216v248q0 13 -2 33l-169 -388q28 -20 65 -20q50 0 78 32.5t28 94.5z" />
    <glyph glyph-name="zero.tf" 
d="M270 -12q-103 0 -163 59t-60 170v246q0 111 60 170t163 59t163 -59t60 -170v-246q0 -111 -60 -170t-163 -59zM270 89q50 0 78 32.5t28 94.5v248q0 62 -28 94.5t-78 32.5t-78 -32.5t-28 -94.5v-248q0 -62 28 -94.5t78 -32.5z" />
    <glyph glyph-name="one.tf" 
d="M336 100h155v-100h-442v100h176v370h-164v94h22q76 0 110 29.5t41 86.5h102v-580z" />
    <glyph glyph-name="two.tf" 
d="M52 0q0 77 23 136.5t53.5 93.5t83.5 77l61 49q55 44 76.5 72.5t21.5 72.5q0 46 -24.5 70t-66.5 24q-110 0 -111 -138h-120q0 113 59 174t171 61q102 0 156.5 -50t54.5 -138q0 -33 -9 -60.5t-30 -53.5t-38 -42.5t-51 -44.5l-74 -62q-32 -26 -41.5 -35t-27 -27.5t-24.5 -34
t-11 -37.5h316v-107h-448z" />
    <glyph glyph-name="three.tf" 
d="M270 -12q-110 0 -168.5 59t-58.5 167h114q0 -132 114 -132q53 0 83 28.5t30 79.5q0 54 -34.5 83t-99.5 29h-44v97h44q116 0 116 101q0 47 -25 73t-69 26q-50 0 -78 -31t-28 -88h-113q-1 98 58.5 155t164.5 57q94 0 149 -46.5t55 -129.5q0 -130 -135 -163q70 -9 111 -55.5
t41 -117.5q0 -88 -61.5 -140t-165.5 -52z" />
    <glyph glyph-name="four.tf" 
d="M490 305v-97h-114v-208h-102v208h-225v472h102v-375h123v198h102v-198h114z" />
    <glyph glyph-name="five.tf" 
d="M268 -12q-103 0 -159 55t-61 155h109q8 -112 108 -112q54 0 83.5 37.5t29.5 108.5q0 67 -28 103.5t-79 36.5q-81 0 -106 -69h-105v377h417v-99h-321v-182q44 70 140 70q88 0 141.5 -65t53.5 -172q0 -108 -61.5 -176t-161.5 -68z" />
    <glyph glyph-name="six.tf" 
d="M270 469q103 0 166.5 -66.5t63.5 -174.5t-63 -174t-167 -66q-103 0 -166.5 66.5t-63.5 173.5q0 90 45 152h-1l221 300h123l-161 -211h3zM270 82q54 0 85 38t31 108t-31 108.5t-85 38.5t-85 -38.5t-31 -108.5t31 -108t85 -38z" />
    <glyph glyph-name="seven.tf" 
d="M106 0l248 579h-316v101h464l-282 -680h-114z" />
    <glyph glyph-name="eight.tf" 
d="M270 -12q-115 0 -176.5 52.5t-61.5 144.5q0 129 126 172q-50 19 -77.5 59.5t-27.5 98.5q0 81 60.5 129t156.5 48t156.5 -48t60.5 -129q0 -58 -27.5 -98.5t-77.5 -59.5q126 -43 126 -172q0 -92 -61.5 -144.5t-176.5 -52.5zM270 403q46 0 73.5 27t27.5 75q0 46 -28 72
t-73 26t-73 -26t-28 -72q0 -48 27.5 -75t73.5 -27zM270 83q57 0 88.5 28.5t31.5 86.5q0 52 -33.5 84.5t-86.5 32.5t-86.5 -32.5t-33.5 -84.5q0 -58 31.5 -86.5t88.5 -28.5z" />
    <glyph glyph-name="nine.tf" 
d="M500 452q0 -90 -45 -152h1l-221 -300h-123l161 211h-3q-103 0 -166.5 66.5t-63.5 174.5t63.5 174t166.5 66t166.5 -66.5t63.5 -173.5zM154 452q0 -70 31 -108.5t85 -38.5t85 38.5t31 108.5t-31 108t-85 38t-85 -38t-31 -108z" />
    <glyph glyph-name="Jacute" horiz-adv-x="459" 
d="M283 732l-36 71l205 93l36 -71zM216 -17q-199 0 -201 236h112q0 -71 20.5 -103t64.5 -32q45 0 65.5 31t20.5 101v484h111v-484q0 -113 -49 -173t-144 -60z" />
    <glyph glyph-name="uni0243.case" horiz-adv-x="513" 
d="M483 194q0 -70 -37 -117.5t-104 -65.5v-114h-80v103h-6h-43v-103h-80v103h-73v700h73v104h80v-104h49v104h80v-114q63 -17 97.5 -62t34.5 -110q0 -63 -34 -104t-98 -55q63 -6 102 -51.5t39 -113.5zM357 504q0 100 -111 100h-75v-199h73q113 0 113 99zM246 97
q62 0 91 25.5t29 81.5q0 47 -28.5 75t-76.5 28h-90v-210h75z" />
    <glyph glyph-name="uni0243.tf" 
d="M481 189q0 -69 -37 -115t-105 -64v-110h-80v100h-6h-42v-100h-80v100h-73v679h73v101h80v-101h48v101h80v-110q63 -17 98 -60.5t35 -106.5q0 -126 -132 -154q63 -6 102 -50t39 -110zM355 489q0 95 -111 95h-75v-190h73q54 0 83.5 24.5t29.5 70.5zM244 96q62 0 91 25
t29 78q0 45 -28.5 71.5t-76.5 26.5h-90v-201h75z" />
    <glyph glyph-name="uni0243.tf.tf.case" 
d="M481 194q0 -70 -37 -117.5t-105 -65.5v-114h-80v103h-6h-42v-103h-80v103h-73v700h73v104h80v-104h48v104h80v-114q63 -17 98 -61.5t35 -110.5q0 -63 -34 -104t-98 -55q63 -6 102 -51.5t39 -113.5zM355 504q0 100 -111 100h-75v-199h73q54 0 83.5 25.5t29.5 73.5zM244 97
q62 0 91 25.5t29 81.5q0 47 -28.5 75t-76.5 28h-90v-210h75z" />
    <glyph glyph-name="Y.ss02" horiz-adv-x="517" 
d="M202 0v288l-202 412h130l129 -293l129 293h129l-202 -412v-288h-113z" />
    <glyph glyph-name="Yacute.ss02" horiz-adv-x="517" 
d="M184 732l-36 71l205 93l36 -71zM202 0v288l-202 412h130l129 -293l129 293h129l-202 -412v-288h-113z" />
    <glyph glyph-name="Ycircumflex.ss02" horiz-adv-x="517" 
d="M255 901l140 -119l-56 -49l-84 77l-85 -77l-56 49zM202 0v288l-202 412h130l129 -293l129 293h129l-202 -412v-288h-113z" />
    <glyph glyph-name="Ydieresis.ss02" horiz-adv-x="517" 
d="M163 743q-31 0 -51.5 20t-20.5 52t20.5 52t51.5 20t51.5 -20t20.5 -52t-20.5 -52t-51.5 -20zM344 743q-31 0 -51.5 20t-20.5 52t20.5 52t51.5 20t51.5 -20t20.5 -52t-20.5 -52t-51.5 -20zM202 0v288l-202 412h130l129 -293l129 293h129l-202 -412v-288h-113z" />
    <glyph glyph-name="Ygrave.ss02" horiz-adv-x="517" 
d="M328 732l-205 93l36 71l205 -93zM202 0v288l-202 412h130l129 -293l129 293h129l-202 -412v-288h-113z" />
    <glyph glyph-name="Adieresis.ss05" 
d="M323 845l-87 -111h-88l87 111h88zM372 734h-88l87 111h88zM406 0l-30 117h-213l-30 -117h-118l210 700h89l210 -700h-118zM188 215h163l-81 321z" />
    <glyph glyph-name="Edieresis.ss05" horiz-adv-x="462" 
d="M209 734h-88l87 111h88zM345 734h-88l87 111h88zM60 0v700h352v-99h-241v-200h241v-100h-241v-202h241v-99h-352z" />
    <glyph glyph-name="Odieresis.ss05" horiz-adv-x="602" 
d="M267 734h-88l87 111h88zM403 734h-88l87 111h88zM301 -17q-134 0 -205 94.5t-71 272.5t71 272.5t205 94.5t205 -94.5t71 -272.5t-71 -272.5t-205 -94.5zM301 84q159 0 159 266t-159 266t-159 -266t159 -266z" />
    <glyph glyph-name="Udieresis.ss05" horiz-adv-x="562" 
d="M247 734h-88l87 111h88zM383 734h-88l87 111h88zM280 -17q-105 0 -167.5 65.5t-62.5 184.5v467h113v-458q0 -75 32 -116.5t85 -41.5q54 0 86.5 41.5t32.5 116.5v458h113v-467q0 -120 -62.5 -185t-169.5 -65z" />
    <glyph glyph-name="jacute" horiz-adv-x="216" 
d="M65 526l-47 59l151 106l47 -59zM40 -216q-33 0 -60 9v95q13 -4 36 -4q39 0 39 50v531h106v-543q0 -138 -121 -138z" />
    <glyph glyph-name="a.ss03" horiz-adv-x="458" 
d="M177 -12q-66 0 -109 38t-43 103q0 64 53 109q49 41 176 46l48 2v35q0 35 -19 53t-52 18q-81 0 -82 -62h-107q3 70 51.5 108.5t142.5 38.5q88 0 130 -40.5t42 -135.5v-301h-106v53q-39 -65 -125 -65zM203 73q47 0 73 23.5t26 64.5v51l-51 -3q-116 -7 -116 -74
q0 -30 19 -46t49 -16z" />
    <glyph glyph-name="aacute.ss03" horiz-adv-x="458" 
d="M141 515l-37 75l215 98l37 -74zM177 -12q-66 0 -109 38t-43 103q0 64 53 109q49 41 176 46l48 2v35q0 35 -19 53t-52 18q-81 0 -82 -62h-107q3 70 51.5 108.5t142.5 38.5q88 0 130 -40.5t42 -135.5v-301h-106v53q-39 -65 -125 -65zM203 73q47 0 73 23.5t26 64.5v51
l-51 -3q-116 -7 -116 -74q0 -30 19 -46t49 -16z" />
    <glyph glyph-name="abreve.ss03" horiz-adv-x="458" 
d="M234 509q-67 0 -107 38t-44 106h87q2 -33 18.5 -51.5t45.5 -18.5t46 18.5t18 51.5h86q-3 -68 -43 -106t-107 -38zM177 -12q-66 0 -109 38t-43 103q0 64 53 109q49 41 176 46l48 2v35q0 35 -19 53t-52 18q-81 0 -82 -62h-107q3 70 51.5 108.5t142.5 38.5q88 0 130 -40.5
t42 -135.5v-301h-106v53q-39 -65 -125 -65zM203 73q47 0 73 23.5t26 64.5v51l-51 -3q-116 -7 -116 -74q0 -30 19 -46t49 -16z" />
    <glyph glyph-name="acircumflex.ss03" horiz-adv-x="458" 
d="M234 689l144 -132l-56 -52l-88 82l-87 -82l-56 52zM177 -12q-66 0 -109 38t-43 103q0 64 53 109q49 41 176 46l48 2v35q0 35 -19 53t-52 18q-81 0 -82 -62h-107q3 70 51.5 108.5t142.5 38.5q88 0 130 -40.5t42 -135.5v-301h-106v53q-39 -65 -125 -65zM203 73
q47 0 73 23.5t26 64.5v51l-51 -3q-116 -7 -116 -74q0 -30 19 -46t49 -16z" />
    <glyph glyph-name="adieresis.ss03" horiz-adv-x="458" 
d="M144 541q-30 0 -49.5 18.5t-19.5 50.5q0 31 19.5 50t49.5 19t49.5 -19t19.5 -50q0 -32 -19.5 -50.5t-49.5 -18.5zM323 541q-30 0 -49.5 18.5t-19.5 50.5q0 31 19.5 50t49.5 19t49.5 -19t19.5 -50q0 -32 -19 -50.5t-50 -18.5zM177 -12q-66 0 -109 38t-43 103q0 64 53 109
q49 41 176 46l48 2v35q0 35 -19 53t-52 18q-81 0 -82 -62h-107q3 70 51.5 108.5t142.5 38.5q88 0 130 -40.5t42 -135.5v-301h-106v53q-39 -65 -125 -65zM203 73q47 0 73 23.5t26 64.5v51l-51 -3q-116 -7 -116 -74q0 -30 19 -46t49 -16z" />
    <glyph glyph-name="agrave.ss03" horiz-adv-x="458" 
d="M311 515l-215 99l37 74l215 -98zM177 -12q-66 0 -109 38t-43 103q0 64 53 109q49 41 176 46l48 2v35q0 35 -19 53t-52 18q-81 0 -82 -62h-107q3 70 51.5 108.5t142.5 38.5q88 0 130 -40.5t42 -135.5v-301h-106v53q-39 -65 -125 -65zM203 73q47 0 73 23.5t26 64.5v51
l-51 -3q-116 -7 -116 -74q0 -30 19 -46t49 -16z" />
    <glyph glyph-name="amacron.ss03" horiz-adv-x="458" 
d="M105 557v83h257v-83h-257zM177 -12q-66 0 -109 38t-43 103q0 64 53 109q49 41 176 46l48 2v35q0 35 -19 53t-52 18q-81 0 -82 -62h-107q3 70 51.5 108.5t142.5 38.5q88 0 130 -40.5t42 -135.5v-301h-106v53q-39 -65 -125 -65zM203 73q47 0 73 23.5t26 64.5v51l-51 -3
q-116 -7 -116 -74q0 -30 19 -46t49 -16z" />
    <glyph glyph-name="aogonek.ss03" horiz-adv-x="458" 
d="M371 -133q20 0 38 7v-60q-33 -16 -67 -16q-37 0 -59 23t-22 63q0 72 59 116h-18v53q-39 -65 -125 -65q-66 0 -109 38t-43 103q0 64 53 109q49 41 176 46l48 2v35q0 35 -19 53t-52 18q-81 0 -82 -62h-107q3 70 51.5 108.5t142.5 38.5q88 0 130 -40.5t42 -135.5v-301
q-64 -46 -64 -99q0 -34 27 -34zM302 161v51l-51 -3q-116 -7 -116 -74q0 -30 19 -46t49 -16q47 0 73 23.5t26 64.5z" />
    <glyph glyph-name="aring.ss03" horiz-adv-x="458" 
d="M234 502q-48 0 -80.5 31t-32.5 79t32.5 79t80.5 31q49 0 81.5 -31t32.5 -79t-32.5 -79t-81.5 -31zM234 556q24 0 39 15.5t15 40.5t-15 40.5t-39 15.5q-23 0 -38.5 -15.5t-15.5 -40.5t15.5 -40.5t38.5 -15.5zM177 -12q-66 0 -109 38t-43 103q0 64 53 109q49 41 176 46
l48 2v35q0 35 -19 53t-52 18q-81 0 -82 -62h-107q3 70 51.5 108.5t142.5 38.5q88 0 130 -40.5t42 -135.5v-301h-106v53q-39 -65 -125 -65zM203 73q47 0 73 23.5t26 64.5v51l-51 -3q-116 -7 -116 -74q0 -30 19 -46t49 -16z" />
    <glyph glyph-name="atilde.ss03" horiz-adv-x="458" 
d="M290 527q-30 0 -64 22t-50 22q-22 0 -55 -33l-38 50q47 65 98 65q30 0 64 -22t50 -22q22 0 55 33l38 -50q-45 -65 -98 -65zM177 -12q-66 0 -109 38t-43 103q0 64 53 109q49 41 176 46l48 2v35q0 35 -19 53t-52 18q-81 0 -82 -62h-107q3 70 51.5 108.5t142.5 38.5
q88 0 130 -40.5t42 -135.5v-301h-106v53q-39 -65 -125 -65zM203 73q47 0 73 23.5t26 64.5v51l-51 -3q-116 -7 -116 -74q0 -30 19 -46t49 -16z" />
    <glyph glyph-name="y.ss04" horiz-adv-x="446" 
d="M83 -222q-27 0 -55 8v99q24 -7 53 -7q68 0 84 59l10 33l-164 495h114l105 -370l97 370h109l-171 -553q-39 -134 -182 -134z" />
    <glyph glyph-name="yacute.ss04" horiz-adv-x="446" 
d="M138 515l-37 75l215 98l37 -74zM83 -222q-27 0 -55 8v99q24 -7 53 -7q68 0 84 59l10 33l-164 495h114l105 -370l97 370h109l-171 -553q-39 -134 -182 -134z" />
    <glyph glyph-name="ycircumflex.ss04" horiz-adv-x="446" 
d="M231 689l144 -132l-56 -52l-88 82l-87 -82l-56 52zM83 -222q-27 0 -55 8v99q24 -7 53 -7q68 0 84 59l10 33l-164 495h114l105 -370l97 370h109l-171 -553q-39 -134 -182 -134z" />
    <glyph glyph-name="ydieresis.ss04" horiz-adv-x="446" 
d="M141 541q-30 0 -49.5 18.5t-19.5 50.5q0 31 19.5 50t49.5 19t49.5 -19t19.5 -50q0 -32 -19.5 -50.5t-49.5 -18.5zM320 541q-30 0 -49.5 18.5t-19.5 50.5q0 31 19.5 50t49.5 19t49.5 -19t19.5 -50q0 -32 -19 -50.5t-50 -18.5zM83 -222q-27 0 -55 8v99q24 -7 53 -7
q68 0 84 59l10 33l-164 495h114l105 -370l97 370h109l-171 -553q-39 -134 -182 -134z" />
    <glyph glyph-name="ygrave.ss04" horiz-adv-x="446" 
d="M308 515l-215 99l37 74l215 -98zM83 -222q-27 0 -55 8v99q24 -7 53 -7q68 0 84 59l10 33l-164 495h114l105 -370l97 370h109l-171 -553q-39 -134 -182 -134z" />
    </font>
</defs>
</svg>
