<?xml version="1.0" standalone="no"?>
<!DOCTYPE svg PUBLIC "-//W3C//DTD SVG 1.1//EN" "http://www.w3.org/Graphics/SVG/1.1/DTD/svg11.dtd" >
<svg xmlns="http://www.w3.org/2000/svg" xmlns:xlink="http://www.w3.org/1999/xlink" version="1.1">
<metadata>
Created by FontForge 20170731 at Fri May  5 00:27:47 2017
 By Aleksey,,,
Copyright (c) 2015 by Noel Leu. All rights reserved.
</metadata>
<defs>
<font id="GTWalsheimPro-Thin" horiz-adv-x="640" >
  <font-face 
    font-family="GT Walsheim Pro Thin"
    font-weight="275"
    font-stretch="normal"
    units-per-em="1000"
    panose-1="0 0 3 0 0 0 0 0 0 0"
    ascent="700"
    descent="-300"
    x-height="450"
    cap-height="700"
    bbox="-493 -235 1107 900"
    underline-thickness="50"
    underline-position="-250"
    unicode-range="U+000D-FB02"
  />
<missing-glyph horiz-adv-x="800" 
d="M400 -17q-109 0 -193.5 52.5t-127.5 135.5t-43 179t43 179t127.5 135.5t193.5 52.5t193.5 -52.5t127.5 -135.5t43 -179t-43 -179t-127.5 -135.5t-193.5 -52.5zM400 6q140 0 239.5 100.5t99.5 243.5q0 138 -98 241.5t-241 103.5t-241.5 -103t-98.5 -242q0 -143 99 -243.5
t241 -100.5zM243 457q-17 0 -29.5 13t-12.5 30q0 18 12.5 30.5t29.5 12.5q18 0 30.5 -12.5t12.5 -30.5q0 -17 -12.5 -30t-30.5 -13zM540 457q-17 0 -29.5 13t-12.5 30q0 18 12.5 30.5t29.5 12.5q18 0 30.5 -12.5t12.5 -30.5q0 -17 -12.5 -30t-30.5 -13zM219 259l179 268
l-110 -243h178v-25h-247zM132 207q0 38 26 52l23 13q11 6 13 17.5t2 39.5h17q0 -57 -20 -69l-22 -13q-23 -13 -23 -40h-16zM616 157l-16 4q5 17 3 26t-16 15l-41 20q-55 27 -31 98l15 -5q-20 -61 27 -82l40 -19q20 -9 22.5 -26.5t-3.5 -30.5zM366 66q-102 0 -198 162
q82 -49 116 -60q35 -11 72 -11q148 0 220 37q1 0 3 2q-22 -49 -88 -89.5t-125 -40.5zM366 92q31 0 71.5 16.5t62.5 30t32 21.5q-9 -2 -40.5 -9.5t-45 -10t-39 -5.5t-49.5 -3q-30 0 -69.5 11.5t-63.5 30.5q26 -42 69 -62t72 -20z" />
    <glyph glyph-name="fi" unicode="fi" horiz-adv-x="543" 
d="M127 554q0 152 125 152q40 0 64 -13v-39q-26 13 -56 13q-19 0 -32.5 -3.5t-28 -14t-22.5 -34t-8 -58.5v-107h147v-37h-147v-413h-42v413h-103v37h103v104zM437 652q22 0 36 -14t14 -35t-14 -35.5t-36 -14.5q-21 0 -35 14.5t-14 35.5t14 35t35 14zM416 0v450h42v-450h-42z
" />
    <glyph glyph-name="fl" unicode="fl" horiz-adv-x="543" 
d="M127 554q0 152 125 152q40 0 64 -13v-39q-26 13 -56 13q-19 0 -32.5 -3.5t-28 -14t-22.5 -34t-8 -58.5v-107h147v-37h-147v-413h-42v413h-103v37h103v104zM416 700h42v-700h-42v700z" />
    <glyph glyph-name="f_f" unicode="ff" horiz-adv-x="690" 
d="M127 554q0 152 125 152q40 0 64 -13v-39q-26 13 -56 13q-19 0 -32.5 -3.5t-28 -14t-22.5 -34t-8 -58.5v-107h147v-37h-147v-413h-42v413h-103v37h103v104zM619 667q-19 0 -32.5 -3.5t-28 -14t-22.5 -34t-8 -58.5v-107h147v-37h-147v-413h-42v413h-103v37h103v104
q0 152 125 152q40 0 64 -13v-39q-26 13 -56 13z" />
    <glyph glyph-name="f_f_i" unicode="ffi" horiz-adv-x="902" 
d="M127 554q0 152 125 152q40 0 64 -13v-39q-26 13 -56 13q-19 0 -32.5 -3.5t-28 -14t-22.5 -34t-8 -58.5v-107h147v-37h-147v-413h-42v413h-103v37h103v104zM486 554q0 152 125 152q40 0 64 -13v-39q-26 13 -56 13q-19 0 -32.5 -3.5t-28 -14t-22.5 -34t-8 -58.5v-107h147
v-37h-147v-413h-42v413h-103v37h103v104zM796 652q22 0 36 -14t14 -35t-14 -35.5t-36 -14.5q-21 0 -35 14.5t-14 35.5t14 35t35 14zM775 0v450h42v-450h-42z" />
    <glyph glyph-name="f_f_l" unicode="ffl" horiz-adv-x="902" 
d="M127 554q0 152 125 152q40 0 64 -13v-39q-26 13 -56 13q-19 0 -32.5 -3.5t-28 -14t-22.5 -34t-8 -58.5v-107h147v-37h-147v-413h-42v413h-103v37h103v104zM486 554q0 152 125 152q40 0 64 -13v-39q-26 13 -56 13q-19 0 -32.5 -3.5t-28 -14t-22.5 -34t-8 -58.5v-107h147
v-37h-147v-413h-42v413h-103v37h103v104zM775 700h42v-700h-42v700z" />
    <glyph glyph-name=".notdef" horiz-adv-x="800" 
d="M400 -17q-109 0 -193.5 52.5t-127.5 135.5t-43 179t43 179t127.5 135.5t193.5 52.5t193.5 -52.5t127.5 -135.5t43 -179t-43 -179t-127.5 -135.5t-193.5 -52.5zM400 6q140 0 239.5 100.5t99.5 243.5q0 138 -98 241.5t-241 103.5t-241.5 -103t-98.5 -242q0 -143 99 -243.5
t241 -100.5zM243 457q-17 0 -29.5 13t-12.5 30q0 18 12.5 30.5t29.5 12.5q18 0 30.5 -12.5t12.5 -30.5q0 -17 -12.5 -30t-30.5 -13zM540 457q-17 0 -29.5 13t-12.5 30q0 18 12.5 30.5t29.5 12.5q18 0 30.5 -12.5t12.5 -30.5q0 -17 -12.5 -30t-30.5 -13zM219 259l179 268
l-110 -243h178v-25h-247zM132 207q0 38 26 52l23 13q11 6 13 17.5t2 39.5h17q0 -57 -20 -69l-22 -13q-23 -13 -23 -40h-16zM616 157l-16 4q5 17 3 26t-16 15l-41 20q-55 27 -31 98l15 -5q-20 -61 27 -82l40 -19q20 -9 22.5 -26.5t-3.5 -30.5zM366 66q-102 0 -198 162
q82 -49 116 -60q35 -11 72 -11q148 0 220 37q1 0 3 2q-22 -49 -88 -89.5t-125 -40.5zM366 92q31 0 71.5 16.5t62.5 30t32 21.5q-9 -2 -40.5 -9.5t-45 -10t-39 -5.5t-49.5 -3q-30 0 -69.5 11.5t-63.5 30.5q26 -42 69 -62t72 -20z" />
    <glyph glyph-name=".null" horiz-adv-x="0" 
 />
    <glyph glyph-name="nonmarkingreturn" horiz-adv-x="333" 
 />
    <glyph glyph-name="CR" unicode="&#xd;" horiz-adv-x="250" 
 />
    <glyph glyph-name="space" unicode=" " horiz-adv-x="258" 
 />
    <glyph glyph-name="exclam" unicode="!" horiz-adv-x="241" 
d="M99 186v514h42v-514h-42zM120 -5q-21 0 -35.5 14.5t-14.5 35.5t14.5 35.5t35.5 14.5t35.5 -14.5t14.5 -35.5t-14.5 -35.5t-35.5 -14.5z" />
    <glyph glyph-name="quotedbl" unicode="&#x22;" horiz-adv-x="363" 
d="M161 644q0 -10 -1 -17l-32 -173h-28l-33 173q-2 7 -2 17q0 20 14 34t34 14t34 -14t14 -34zM298 644q0 -10 -1 -17l-32 -173h-28l-33 173q-2 7 -2 17q0 20 14 34t34 14t34 -14t14 -34z" />
    <glyph glyph-name="numbersign" unicode="#" horiz-adv-x="547" 
d="M105 0l30 219h-107v36h113l26 190h-109v36h114l30 219h37l-30 -219h175l30 219h37l-30 -219h99v-36h-104l-26 -190h100v-36h-105l-31 -219h-37l30 219h-174l-31 -219h-37zM178 255h175l26 190h-175z" />
    <glyph glyph-name="dollar" unicode="$" horiz-adv-x="568" 
d="M518 172q0 -83 -55 -132t-151 -54v-86h-36v86q-108 5 -169.5 65t-61.5 155h44q0 -80 54.5 -130t150.5 -50q85 0 132.5 38.5t47.5 106.5q0 111 -124 139l-124 24q-158 33 -158 174q0 74 54.5 127t153.5 55v90h36v-91q89 -8 139.5 -60t52.5 -139h-43q-2 77 -49 119t-129 42
q-83 0 -127 -41t-44 -101q0 -112 136 -138l127 -26q65 -14 104 -57t39 -116z" />
    <glyph glyph-name="percent" unicode="%" horiz-adv-x="749" 
d="M151 -8l-31 18l472 682l30 -17zM191 351q-78 0 -124.5 49.5t-46.5 120.5t46.5 120.5t124.5 49.5t124.5 -49.5t46.5 -120.5t-46.5 -120.5t-124.5 -49.5zM191 386q61 0 97 39.5t36 95.5t-36 95.5t-97 39.5t-96.5 -39.5t-35.5 -95.5t35.5 -95.5t96.5 -39.5zM558 -5
q-78 0 -124.5 49.5t-46.5 120.5t46.5 120.5t124.5 49.5t124.5 -49.5t46.5 -120.5t-46.5 -120.5t-124.5 -49.5zM558 30q61 0 97 39.5t36 95.5t-36 95.5t-97 39.5t-96.5 -39.5t-35.5 -95.5t35.5 -95.5t96.5 -39.5z" />
    <glyph glyph-name="ampersand" unicode="&#x26;" horiz-adv-x="590" 
d="M583 273v-40h-72q-2 -111 -59.5 -177.5t-168.5 -66.5q-103 0 -165.5 54.5t-62.5 142.5q0 68 41.5 117t110.5 59q-66 13 -103 57t-37 107q0 83 59 134t160 51q94 0 153 -50t59 -135h-45q0 65 -45.5 105.5t-121.5 40.5q-80 0 -127 -40t-47 -106q0 -65 43.5 -104.5
t121.5 -39.5h27v-41h-28q-82 0 -129 -42.5t-47 -112.5q0 -69 49.5 -113t133.5 -44q91 0 136 55.5t47 148.5h-100v40h217z" />
    <glyph glyph-name="quotesingle" unicode="'" horiz-adv-x="226" 
d="M161 644q0 -10 -1 -17l-32 -173h-28l-33 173q-2 7 -2 17q0 20 14 34t34 14t34 -14t14 -34z" />
    <glyph glyph-name="parenleft" unicode="(" horiz-adv-x="303" 
d="M284 -190q-211 188 -211 461q0 272 211 460l27 -26q-196 -183 -196 -434t196 -434z" />
    <glyph glyph-name="parenright" unicode=")" horiz-adv-x="303" 
d="M19 -190l-27 27q196 183 196 434t-196 434l27 26q211 -188 211 -460q0 -273 -211 -461z" />
    <glyph glyph-name="asterisk" unicode="*" horiz-adv-x="438" 
d="M122 363l-30 21l104 137l-161 49l11 34l160 -58l-4 171h36l-5 -171l159 58l11 -34l-161 -49l104 -137l-30 -21l-96 142z" />
    <glyph glyph-name="plus" unicode="+" horiz-adv-x="504" 
d="M232 121v174h-174v39h174v176h41v-176h174v-39h-174v-174h-41z" />
    <glyph glyph-name="comma" unicode="," horiz-adv-x="288" 
d="M119 -117q-13 0 -24 3v28q7 -2 23 -2q24 0 39.5 14.5t17.5 38.5q4 22 -5 45q-10 -14 -32 -14q-20 0 -34 14t-14 35t14 35t37 14q32 0 53.5 -28t21.5 -73q0 -50 -27 -80t-70 -30z" />
    <glyph glyph-name="hyphen" unicode="-" horiz-adv-x="413" 
d="M58 238v39h297v-39h-297z" />
    <glyph glyph-name="period" unicode="." horiz-adv-x="280" 
d="M140 -5q-22 0 -36 14.5t-14 35.5t14 35.5t36 14.5q21 0 35.5 -14.5t14.5 -35.5t-14.5 -35.5t-35.5 -14.5z" />
    <glyph glyph-name="slash" unicode="/" horiz-adv-x="414" 
d="M53 -56l-35 15l343 795l35 -15z" />
    <glyph glyph-name="zero" unicode="0" horiz-adv-x="605" 
d="M302 -10q-122 0 -185.5 90t-63.5 262q0 171 63.5 260.5t185.5 89.5t186 -89.5t64 -260.5q0 -172 -64 -262t-186 -90zM302 30q208 0 208 312q0 310 -208 310q-207 0 -207 -310q0 -312 207 -312z" />
    <glyph glyph-name="one" unicode="1" horiz-adv-x="343" 
d="M175 0v525h-136v39q83 0 111 24.5t28 91.5h41v-680h-44z" />
    <glyph glyph-name="two" unicode="2" horiz-adv-x="548" 
d="M58 0q0 115 38 178.5t133 109.5l114 53q110 53 110 167q0 63 -43.5 102.5t-112.5 39.5q-82 0 -130.5 -50t-48.5 -135h-45q0 102 61.5 163.5t162.5 61.5q91 0 146 -49t55 -131q0 -136 -131 -200l-114 -54q-77 -37 -110.5 -86t-35.5 -129h397v-41h-446z" />
    <glyph glyph-name="three" unicode="3" horiz-adv-x="544" 
d="M272 -10q-103 0 -164.5 54t-61.5 145h45q0 -73 49 -116t132 -43q81 0 130 41.5t49 109.5q0 69 -47.5 110t-127.5 41h-56v39h55q76 0 120 37.5t44 102.5q0 63 -45.5 101.5t-119.5 38.5q-77 0 -124 -40t-47 -107h-43q0 84 58 135t155 51q95 0 152.5 -49t57.5 -129
q0 -65 -37 -107t-105 -54q64 -2 108.5 -51.5t44.5 -119.5q0 -85 -61 -137.5t-161 -52.5z" />
    <glyph glyph-name="four" unicode="4" horiz-adv-x="561" 
d="M525 281v-41h-124v-241h-43v241h-283v440h44v-399h239v221h43v-221h124z" />
    <glyph glyph-name="five" unicode="5" horiz-adv-x="562" 
d="M290 -10q-97 0 -156.5 48.5t-64.5 127.5h44q4 -61 51 -98t126 -37q83 0 133.5 53t50.5 145q0 90 -46 140t-127 50q-70 0 -109.5 -24.5t-63.5 -78.5h-45v364h390v-40h-349v-275q49 92 181 92q98 0 155 -60t57 -167q0 -109 -62.5 -174.5t-164.5 -65.5z" />
    <glyph glyph-name="six" unicode="6" horiz-adv-x="559" 
d="M278 463q103 0 166 -68.5t63 -168.5q0 -101 -63 -169.5t-166 -68.5t-166 68.5t-63 169.5q0 88 48 151l197 303h52l-152 -231q39 14 84 14zM278 28q84 0 135 57t51 141q0 83 -51 140t-135 57t-135.5 -57t-51.5 -140q0 -84 51.5 -141t135.5 -57z" />
    <glyph glyph-name="seven" unicode="7" horiz-adv-x="485" 
d="M65 0l353 639h-373v41h440l-371 -680h-49z" />
    <glyph glyph-name="eight" unicode="8" horiz-adv-x="556" 
d="M278 -10q-103 0 -165.5 52t-62.5 138q0 67 39.5 113t107.5 57q-63 13 -100 56.5t-37 105.5q0 80 60 129t158 49t158 -49t60 -129q0 -62 -37 -105.5t-100 -56.5q67 -11 107 -57t40 -113q0 -86 -62.5 -138t-165.5 -52zM278 370q79 0 126 38t47 101q0 64 -47.5 103.5
t-125.5 39.5t-125.5 -39.5t-47.5 -103.5q0 -63 47 -101t126 -38zM278 30q83 0 133 41.5t50 109.5q0 69 -50 110t-133 41t-133.5 -41t-50.5 -110q0 -68 50.5 -109.5t133.5 -41.5z" />
    <glyph glyph-name="nine" unicode="9" horiz-adv-x="531" 
d="M482 454q0 -88 -48 -151l-197 -303h-52l152 231q-39 -14 -84 -14q-103 0 -166 68.5t-63 168.5q0 101 63 169.5t166 68.5t166 -68.5t63 -169.5zM67 454q0 -83 51 -140t135 -57t135.5 57t51.5 140q0 84 -51.5 141t-135.5 57t-135 -57t-51 -141z" />
    <glyph glyph-name="colon" unicode=":" horiz-adv-x="280" 
d="M140 359q-22 0 -36 14.5t-14 35.5t14 35.5t36 14.5q21 0 35.5 -14.5t14.5 -35.5t-14.5 -35.5t-35.5 -14.5zM140 -5q-22 0 -36 14.5t-14 35.5t14 35.5t36 14.5q21 0 35.5 -14.5t14.5 -35.5t-14.5 -35.5t-35.5 -14.5z" />
    <glyph glyph-name="semicolon" unicode=";" horiz-adv-x="288" 
d="M140 358q-22 0 -36 14.5t-14 35.5t14 35.5t36 14.5q21 0 35.5 -14.5t14.5 -35.5t-14.5 -35.5t-35.5 -14.5zM119 -117q-13 0 -24 3v28q7 -2 23 -2q24 0 39.5 14.5t17.5 38.5q4 22 -5 45q-10 -14 -32 -14q-20 0 -34 14t-14 35t14 35t37 14q32 0 53.5 -28t21.5 -73
q0 -50 -27 -80t-70 -30z" />
    <glyph glyph-name="less" unicode="&#x3c;" horiz-adv-x="503" 
d="M445 137l-387 167v35l387 168v-43l-328 -142l328 -143v-42z" />
    <glyph glyph-name="equal" unicode="=" horiz-adv-x="539" 
d="M58 383v39h424v-39h-424zM58 205v39h424v-39h-424z" />
    <glyph glyph-name="greater" unicode="&#x3e;" horiz-adv-x="503" 
d="M58 137v42l328 143l-328 142v43l387 -168v-35z" />
    <glyph glyph-name="question" unicode="?" horiz-adv-x="479" 
d="M194 186v24q0 52 16 83.5t53 56.5l59 39q77 53 77 144q0 63 -43 103.5t-122 40.5q-80 0 -127 -49.5t-47 -133.5h-44q0 102 59 162.5t160 60.5q100 0 154.5 -51t54.5 -132q0 -105 -95 -173l-56 -38q-31 -21 -43.5 -45.5t-12.5 -70.5v-21h-43zM215 -5q-21 0 -35 14.5
t-14 35.5t14 35.5t35 14.5q22 0 36.5 -14.5t14.5 -35.5t-14.5 -35.5t-36.5 -14.5z" />
    <glyph glyph-name="at" unicode="@" horiz-adv-x="899" 
d="M456 -197q-190 0 -301.5 111t-111.5 295q0 186 113.5 297t305.5 111q179 0 287 -106.5t108 -313.5q0 -68 -13 -120t-45.5 -86t-81.5 -34q-61 0 -88 37t-30 120q-19 -48 -64.5 -79t-108.5 -31q-90 0 -146.5 59.5t-56.5 144.5q0 86 57 146.5t146 60.5q63 0 108 -31t65 -80
v102h37v-287q0 -78 22.5 -103.5t61.5 -25.5q49 0 74.5 57.5t25.5 150.5q0 191 -97 288t-261 97q-176 0 -279.5 -102t-103.5 -273q0 -168 101.5 -269t276.5 -101q139 0 237 71l15 -31q-105 -75 -253 -75zM429 38q75 0 122.5 50t47.5 121t-47.5 121t-122.5 50t-122 -50
t-47 -121t47 -121t122 -50z" />
    <glyph glyph-name="A" unicode="A" horiz-adv-x="564" 
d="M495 0l-48 144h-330l-47 -144h-47l239 700h41l239 -700h-47zM131 185h303l-152 458z" />
    <glyph glyph-name="B" unicode="B" horiz-adv-x="577" 
d="M386 353q59 -10 97.5 -55.5t38.5 -113.5q0 -85 -56 -134.5t-150 -49.5h-226v700h223q93 0 148.5 -48t55.5 -132q0 -69 -35.5 -112.5t-95.5 -54.5zM312 660h-178v-288h197q61 0 101.5 39.5t40.5 104.5q0 68 -43.5 106t-117.5 38zM316 40q74 0 118 39t44 108
q0 64 -41 104.5t-102 40.5h-201v-292h182z" />
    <glyph glyph-name="C" unicode="C" horiz-adv-x="774" 
d="M401 -14q-162 0 -260 105.5t-98 258.5q0 154 98 259t260 105q132 0 215.5 -61.5t111.5 -163.5h-47q-28 85 -97.5 134.5t-181.5 49.5q-143 0 -228.5 -93t-85.5 -230t85.5 -230t228.5 -93q112 0 181.5 49.5t97.5 134.5h47q-28 -102 -111.5 -163.5t-215.5 -61.5z" />
    <glyph glyph-name="D" unicode="D" horiz-adv-x="684" 
d="M90 0v700h196q111 0 195 -51t124.5 -129.5t40.5 -169.5t-40.5 -169.5t-124.5 -129.5t-195 -51h-196zM134 41h149q99 0 173.5 45.5t110 114.5t35.5 149q0 81 -35.5 150t-110 114t-173.5 45h-149v-618z" />
    <glyph glyph-name="E" unicode="E" horiz-adv-x="548" 
d="M90 0v700h385v-41h-341v-291h341v-40h-341v-287h341v-41h-385z" />
    <glyph glyph-name="F" unicode="F" horiz-adv-x="537" 
d="M90 0v700h385v-41h-341v-313h341v-41h-341v-305h-44z" />
    <glyph glyph-name="G" unicode="G" horiz-adv-x="820" 
d="M796 317v-40h-77q-16 -134 -97.5 -212.5t-221.5 -78.5q-166 0 -262 103.5t-95 259.5q0 159 94.5 262t257.5 103q112 0 192.5 -53.5t103.5 -141.5h-47q-23 70 -90 112t-159 42q-144 0 -225.5 -90.5t-81.5 -233.5q0 -138 83 -230t229 -92q121 0 189.5 66.5t84.5 183.5h-239
v40h361z" />
    <glyph glyph-name="H" unicode="H" horiz-adv-x="665" 
d="M90 0v700h44v-332h398v332h43v-700h-43v328h-398v-328h-44z" />
    <glyph glyph-name="I" unicode="I" horiz-adv-x="224" 
d="M90 0v700h44v-700h-44z" />
    <glyph glyph-name="J" unicode="J" horiz-adv-x="537" 
d="M254 -14q-99 0 -162.5 59t-63.5 166h43q0 -88 52 -136t131 -48q77 0 124.5 50.5t47.5 140.5v482h43v-482q0 -108 -59 -170t-156 -62z" />
    <glyph glyph-name="K" unicode="K" horiz-adv-x="574" 
d="M553 700l-373 -349l373 -351h-61l-358 343v-343h-44v700h44v-343l359 343h60z" />
    <glyph glyph-name="L" unicode="L" horiz-adv-x="510" 
d="M90 0v700h44v-658h332v-42h-376z" />
    <glyph glyph-name="M" unicode="M" horiz-adv-x="813" 
d="M90 0v700h43l273 -641l273 641h44v-700h-43v606l-255 -606h-37l-255 607v-607h-43z" />
    <glyph glyph-name="N" unicode="N" horiz-adv-x="662" 
d="M90 0v700h48l391 -629v629h43v-700h-48l-391 629v-629h-43z" />
    <glyph glyph-name="O" unicode="O" horiz-adv-x="803" 
d="M402 -14q-162 0 -260.5 107t-98.5 257t98.5 257t260.5 107t260.5 -107t98.5 -257t-98.5 -257t-260.5 -107zM402 27q142 0 228 95t85 228q1 133 -85 228t-228 95t-228 -95t-86 -228t86 -228t228 -95z" />
    <glyph glyph-name="P" unicode="P" horiz-adv-x="574" 
d="M327 700q98 0 162 -67t64 -168q0 -102 -64 -168.5t-162 -66.5h-193v-230h-44v700h237zM325 270q79 0 131.5 55.5t52.5 139.5q0 85 -52 139.5t-132 54.5h-191v-389h191z" />
    <glyph glyph-name="Q" unicode="Q" horiz-adv-x="803" 
d="M761 350q0 -136 -83 -239t-222 -122l88 -113l-38 -19l-100 129h-4q-162 0 -260.5 107t-98.5 257t98.5 257t260.5 107t260.5 -107t98.5 -257zM402 27q142 0 228 95t85 228q1 133 -85 228t-228 95t-228 -95t-86 -228t86 -228t228 -95z" />
    <glyph glyph-name="R" unicode="R" horiz-adv-x="603" 
d="M553 465q0 -83 -44.5 -144.5t-117.5 -81.5l154 -239h-52l-148 231q-6 -1 -18 -1h-193v-230h-44v700h237q98 0 162 -67t64 -168zM325 270q79 0 131.5 55.5t52.5 139.5q0 85 -52 139.5t-132 54.5h-191v-389h191z" />
    <glyph glyph-name="S" unicode="S" horiz-adv-x="566" 
d="M293 -14q-114 0 -181 61t-67 164h44q0 -84 55.5 -134.5t147.5 -50.5q85 0 132.5 40t47.5 111q0 114 -130 145l-120 31q-155 34 -155 180q0 81 59 131t155 50q101 0 160 -54.5t59 -150.5h-44q0 78 -47 122t-129 44q-76 0 -122.5 -39t-46.5 -102q0 -115 137 -146l120 -30
q72 -17 110 -63t38 -118q0 -88 -59.5 -139.5t-163.5 -51.5z" />
    <glyph glyph-name="T" unicode="T" horiz-adv-x="500" 
d="M228 0v658h-219v42h482v-42h-220v-658h-43z" />
    <glyph glyph-name="U" unicode="U" horiz-adv-x="625" 
d="M313 -14q-113 0 -179 62.5t-66 177.5v474h43v-472q0 -97 54 -149t148 -52q93 0 147 52t54 149v472h44v-474q0 -114 -66 -177t-179 -63z" />
    <glyph glyph-name="V" unicode="V" horiz-adv-x="547" 
d="M252 0l-248 700h47l223 -635l222 635h47l-247 -700h-44z" />
    <glyph glyph-name="W" unicode="W" horiz-adv-x="928" 
d="M242 0l-234 700h46l207 -632l185 632h37l184 -632l208 632h46l-235 -700h-36l-186 628l-185 -628h-37z" />
    <glyph glyph-name="X" unicode="X" horiz-adv-x="580" 
d="M30 0l235 350l-235 350h50l210 -314l210 314h50l-235 -350l235 -350h-50l-210 313l-210 -313h-50z" />
    <glyph glyph-name="Y" unicode="Y" horiz-adv-x="533" 
d="M490 700h48l-362 -700h-49l143 275l-270 425h51l242 -380z" />
    <glyph glyph-name="Z" unicode="Z" horiz-adv-x="557" 
d="M28 0l406 659h-380v41h456l-405 -659h417v-41h-494z" />
    <glyph glyph-name="bracketleft" unicode="[" horiz-adv-x="281" 
d="M90 -193v926h187v-37h-147v-853h147v-36h-187z" />
    <glyph glyph-name="backslash" unicode="\" horiz-adv-x="414" 
d="M361 -56l-343 795l35 15l343 -795z" />
    <glyph glyph-name="bracketright" unicode="]" horiz-adv-x="281" 
d="M191 -193h-187v36h147v853h-147v37h187v-926z" />
    <glyph glyph-name="asciicircum" unicode="^" horiz-adv-x="523" 
d="M50 303l193 405h34l196 -405h-48l-164 353l-164 -353h-47z" />
    <glyph glyph-name="underscore" unicode="_" horiz-adv-x="505" 
d="M0 -218v34h505v-34h-505z" />
    <glyph glyph-name="grave" unicode="`" horiz-adv-x="600" 
d="M262 514l-257 130l16 34l257 -129z" />
    <glyph glyph-name="a" unicode="a" horiz-adv-x="590" 
d="M269 -12q-103 0 -164.5 67t-61.5 169q0 103 62.5 170.5t164.5 67.5q69 0 120 -35t73 -94v117h42v-450h-42v116q-22 -58 -74 -93t-120 -35zM273 27q86 0 139 57.5t53 139.5q0 84 -52.5 141.5t-139.5 57.5q-85 0 -136.5 -56t-51.5 -143q0 -85 51.5 -141t136.5 -56z" />
    <glyph glyph-name="b" unicode="b" horiz-adv-x="590" 
d="M323 462q98 0 161 -67t63 -171q0 -102 -64 -169t-162 -67q-67 0 -119 34.5t-75 93.5v-116h-42v700h42v-367q23 61 75.5 95t120.5 34zM317 27q82 0 135 56t53 141q0 86 -53 142.5t-135 56.5q-84 0 -138 -56.5t-54 -142.5q0 -85 54.5 -141t137.5 -56z" />
    <glyph glyph-name="c" unicode="c" horiz-adv-x="513" 
d="M266 -11q-101 0 -162 65.5t-61 170.5t61 170t162 65q86 0 140.5 -43t63.5 -115h-43q-10 57 -53 88t-108 31q-83 0 -132 -54t-49 -142q0 -89 49 -142.5t132 -53.5q66 0 108.5 30.5t52.5 87.5h43q-9 -72 -63.5 -115t-140.5 -43z" />
    <glyph glyph-name="d" unicode="d" horiz-adv-x="590" 
d="M463 700h42v-700h-42v116q-22 -58 -74 -93t-120 -35q-103 0 -164.5 67t-61.5 169q0 103 62.5 170.5t164.5 67.5q69 0 120 -35t73 -94v367zM273 27q86 0 139 57.5t53 139.5q0 84 -52.5 141.5t-139.5 57.5q-85 0 -136.5 -56t-51.5 -143q0 -85 51.5 -141t136.5 -56z" />
    <glyph glyph-name="e" unicode="e" horiz-adv-x="509" 
d="M465 220h-379v-2q0 -86 48 -138.5t127 -52.5q57 0 99 26.5t58 71.5h42q-14 -61 -69 -99t-129 -38q-99 0 -159 65t-60 173q0 107 59 171.5t156 64.5q93 0 151 -58t58 -148q0 -12 -2 -36zM258 426q-73 0 -119.5 -46.5t-51.5 -123.5h338q0 75 -45.5 122.5t-121.5 47.5z" />
    <glyph glyph-name="f" unicode="f" horiz-adv-x="331" 
d="M260 667q-19 0 -32.5 -3.5t-28 -14t-22.5 -34t-8 -58.5v-107h147v-37h-147v-413h-42v413h-103v37h103v104q0 152 125 152q40 0 64 -13v-39q-26 13 -56 13z" />
    <glyph glyph-name="g" unicode="g" horiz-adv-x="590" 
d="M463 450h42v-455q0 -118 -74 -178q-58 -47 -155 -47q-103 0 -163 49q-57 46 -57 112h43q2 -52 48.5 -87.5t128.5 -35.5q90 0 138.5 48t48.5 137v123q-23 -60 -75 -94t-119 -34q-99 0 -162.5 67.5t-63.5 168.5q0 102 64 170t163 68q68 0 119 -34t74 -95v117zM273 27
q84 0 138 56.5t54 140.5q0 85 -54 142t-138 57q-82 0 -135 -56.5t-53 -142.5q0 -85 53 -141t135 -56z" />
    <glyph glyph-name="h" unicode="h" horiz-adv-x="565" 
d="M311 462q87 0 131 -50.5t44 -146.5v-265h-43v252q0 172 -144 172q-82 0 -125 -56t-43 -148v-220h-42v700h42v-374q14 61 60 98.5t120 37.5z" />
    <glyph glyph-name="i" unicode="i" horiz-adv-x="212" 
d="M106 553q-21 0 -35 14.5t-14 35.5t14 35t35 14q22 0 36 -14t14 -35t-14 -35.5t-36 -14.5zM85 0v450h42v-450h-42z" />
    <glyph glyph-name="j" unicode="j" horiz-adv-x="215" 
d="M109 553q-21 0 -35 14.5t-14 35.5t14 35t35 14q22 0 36 -14t14 -35t-14 -35.5t-36 -14.5zM25 -224q-39 0 -64 13v41q26 -13 58 -13t50.5 24t18.5 67v542h42v-550q0 -58 -28 -91t-77 -33z" />
    <glyph glyph-name="k" unicode="k" horiz-adv-x="479" 
d="M447 450l-268 -221l268 -229h-59l-261 223v-223h-42v700h42v-469l262 219h58z" />
    <glyph glyph-name="l" unicode="l" horiz-adv-x="212" 
d="M85 0v700h42v-700h-42z" />
    <glyph glyph-name="m" unicode="m" horiz-adv-x="831" 
d="M85 0v450h42v-121q11 55 49 94t105 39q58 0 99 -32t51 -98q13 56 56 93t104 37q73 0 116.5 -42.5t43.5 -134.5v-285h-41v276q0 77 -35 112.5t-93 35.5q-68 0 -105.5 -55t-37.5 -143v-226h-42v256q0 168 -128 168q-71 0 -106.5 -57t-35.5 -141v-226h-42z" />
    <glyph glyph-name="n" unicode="n" horiz-adv-x="562" 
d="M85 0v450h42v-124q14 61 60 98.5t120 37.5q87 0 131 -50.5t44 -146.5v-265h-43v252q0 172 -144 172q-82 0 -125 -56t-43 -148v-220h-42z" />
    <glyph glyph-name="o" unicode="o" horiz-adv-x="543" 
d="M271 -12q-102 0 -165 68.5t-63 169.5q0 100 63 168.5t165 68.5q103 0 166 -68.5t63 -168.5q0 -101 -63 -169.5t-166 -68.5zM271 28q84 0 135.5 57t51.5 141q0 83 -51.5 140t-135.5 57t-135 -57t-51 -141q0 -83 51 -140t135 -57z" />
    <glyph glyph-name="p" unicode="p" horiz-adv-x="590" 
d="M323 462q98 0 161 -67t63 -171q0 -102 -64 -169t-162 -67q-67 0 -119 34.5t-75 93.5v-334h-43v245h1v423h42v-117q23 61 75.5 95t120.5 34zM317 27q82 0 135 56t53 141q0 86 -53 142.5t-135 56.5q-84 0 -138 -56.5t-54 -142.5q0 -85 54.5 -141t137.5 -56z" />
    <glyph glyph-name="q" unicode="q" horiz-adv-x="590" 
d="M463 450h42v-668h-43v245h1v89q-22 -58 -74 -93t-120 -35q-103 0 -164.5 67t-61.5 169q0 103 62.5 170.5t164.5 67.5q69 0 120 -35t73 -94v117zM273 27q86 0 139 57.5t53 139.5q0 84 -52.5 141.5t-139.5 57.5q-85 0 -136.5 -56t-51.5 -143q0 -85 51.5 -141t136.5 -56z
" />
    <glyph glyph-name="r" unicode="r" horiz-adv-x="350" 
d="M85 0v450h42v-135q16 73 59 109.5t100 36.5q20 0 40 -4v-40q-13 3 -43 3q-42 0 -74 -21.5t-49 -56.5t-25 -72.5t-8 -76.5v-193h-42z" />
    <glyph glyph-name="s" unicode="s" horiz-adv-x="435" 
d="M223 -12q-84 0 -132 41t-48 100h42q0 -44 36 -74t102 -30q55 0 88 23.5t33 65.5q0 29 -16 52t-47 30l-131 32q-95 24 -95 113q0 55 45 88t116 33q76 0 119.5 -34t43.5 -93h-42q-1 42 -34 67t-91 25q-50 0 -82.5 -22t-32.5 -64q0 -60 75 -78l123 -31q48 -12 70 -43.5
t22 -70.5q0 -61 -44.5 -95.5t-119.5 -34.5z" />
    <glyph glyph-name="t" unicode="t" horiz-adv-x="336" 
d="M242 34q40 0 64 7v-39q-26 -8 -70 -8q-26 0 -44.5 5t-38 19t-29.5 46t-10 80v269h-93v37h93v157h41v-157h136v-37h-136v-263q0 -70 22.5 -93t64.5 -23z" />
    <glyph glyph-name="u" unicode="u" horiz-adv-x="563" 
d="M260 -12q-83 0 -131.5 50t-48.5 146v266h42v-257q0 -76 36.5 -121t111.5 -45q81 0 123.5 59.5t42.5 133.5v230h42v-450h-42v122q-16 -57 -63 -95.5t-113 -38.5z" />
    <glyph glyph-name="v" unicode="v" horiz-adv-x="464" 
d="M213 0l-205 450h45l179 -394l178 394h46l-206 -450h-37z" />
    <glyph glyph-name="w" unicode="w" horiz-adv-x="707" 
d="M179 0l-166 450h45l139 -392l134 392h45l133 -392l140 392h46l-167 -450h-38l-137 397l-136 -397h-38z" />
    <glyph glyph-name="x" unicode="x" horiz-adv-x="453" 
d="M25 0l176 225l-175 225h51l149 -193l149 193h52l-176 -225l177 -225h-52l-150 194l-150 -194h-51z" />
    <glyph glyph-name="y" unicode="y" horiz-adv-x="568" 
d="M440 450h43v-472q0 -114 -66 -166q-51 -42 -137 -42q-95 0 -149 46q-51 43 -51 115h43q1 -53 39 -88t118 -35q160 0 160 172v139q-19 -56 -65 -93t-114 -37q-181 0 -181 206v255h42v-248q0 -86 33.5 -129.5t116.5 -43.5q80 0 124 59t44 133v229z" />
    <glyph glyph-name="z" unicode="z" horiz-adv-x="433" 
d="M28 0l306 412h-290v38h366l-307 -412h306v-38h-381z" />
    <glyph glyph-name="braceleft" unicode="{" horiz-adv-x="305" 
d="M249 -194q-51 0 -90 36.5t-39 102.5v211q0 45 -31 70t-61 25v38q30 0 61 25.5t31 70.5v210q0 66 39 102.5t90 36.5h47v-37h-43q-42 0 -68 -28.5t-26 -79.5v-208q0 -46 -25 -73t-58 -38q33 -10 58 -37.5t25 -73.5v-208q0 -51 26 -79.5t68 -28.5h43v-37h-47z" />
    <glyph glyph-name="bar" unicode="|" horiz-adv-x="216" 
d="M90 -193v926h36v-926h-36z" />
    <glyph glyph-name="braceright" unicode="}" horiz-adv-x="305" 
d="M56 -194h-47v37h43q42 0 68 28.5t26 79.5v208q0 46 25 73.5t58 37.5q-33 11 -58 38t-25 73v208q0 51 -26 79.5t-68 28.5h-43v37h47q51 0 90 -36.5t39 -102.5v-210q0 -45 31 -70.5t61 -25.5v-38q-30 0 -61 -25t-31 -70v-211q0 -66 -39 -102.5t-90 -36.5z" />
    <glyph glyph-name="asciitilde" unicode="~" horiz-adv-x="535" 
d="M375 238q-32 0 -114 37q-70 31 -113 31q-53 0 -98 -50v44q42 45 99 45q41 0 118 -32q7 -3 23 -9.5t24.5 -10t21 -8t22 -6.5t17.5 -2q54 0 110 54v-42q-51 -51 -110 -51z" />
    <glyph glyph-name="uni00A0" unicode="&#xa0;" horiz-adv-x="275" 
 />
    <glyph glyph-name="exclamdown" unicode="&#xa1;" horiz-adv-x="241" 
d="M120 488q21 0 35.5 -14.5t14.5 -35.5t-14.5 -35.5t-35.5 -14.5t-35.5 14.5t-14.5 35.5t14.5 35.5t35.5 14.5zM99 297h42v-514h-42v514z" />
    <glyph glyph-name="cent" unicode="&#xa2;" horiz-adv-x="513" 
d="M266 145q66 0 108.5 30.5t52.5 87.5h43q-8 -69 -58 -111.5t-129 -46.5v-105h-36v106q-93 6 -148.5 70.5t-55.5 164.5t55.5 164t148.5 70v105h36v-104q79 -4 129 -46.5t58 -111.5h-43q-10 57 -53 88t-108 31q-83 0 -132 -54t-49 -142q0 -89 49 -142.5t132 -53.5z" />
    <glyph glyph-name="sterling" unicode="&#xa3;" horiz-adv-x="514" 
d="M155 226q0 -119 -64 -185h381v-41h-431v34q35 34 52.5 75t17.5 111v138h-72v35h72v84q0 105 52.5 160t147.5 55q90 0 141.5 -50.5t51.5 -134.5h-43q0 67 -39.5 107t-110.5 40q-82 0 -119 -47t-37 -141v-73h202v-35h-202v-132z" />
    <glyph glyph-name="currency" unicode="&#xa4;" horiz-adv-x="577" 
d="M68 124l-28 28l74 74q-50 61 -50 144q0 82 50 145l-74 74l28 28l74 -74q61 53 147 53t148 -52l72 73l28 -28l-73 -72q52 -61 52 -147t-52 -146l72 -72l-27 -28l-72 72q-63 -51 -148 -51q-88 0 -147 53zM289 185q83 0 134 54t51 131q0 78 -51 132t-134 54q-81 0 -132 -54
t-51 -132q0 -77 51 -131t132 -54z" />
    <glyph glyph-name="yen" unicode="&#xa5;" horiz-adv-x="527" 
d="M507 680l-218 -410h166v-32h-169v-104h169v-34h-169v-100h-45v100h-169v34h169v104h-169v32h166l-218 410h50l194 -374l193 374h50z" />
    <glyph glyph-name="brokenbar" unicode="&#xa6;" horiz-adv-x="216" 
d="M90 321v412h36v-412h-36zM90 -193v431h36v-431h-36z" />
    <glyph glyph-name="section" unicode="&#xa7;" horiz-adv-x="530" 
d="M367 89q104 -51 104 -154q0 -78 -55.5 -120t-150.5 -42q-103 0 -157.5 48t-54.5 126h45q0 -62 42 -98.5t126 -36.5q72 0 114.5 31t42.5 91q0 48 -27.5 80.5t-68.5 47.5t-89.5 31.5t-89.5 32t-68.5 48.5t-27.5 81q0 101 114 142q-107 52 -107 155q0 79 56 122t149 43
q104 0 158.5 -49t54.5 -128h-48q0 63 -41 100.5t-123 37.5q-73 0 -115.5 -31.5t-42.5 -92.5q0 -56 38 -91t92.5 -52t109.5 -34t93 -52t38 -91q0 -100 -111 -145zM95 258q0 -23 10 -42t24.5 -31t40 -23.5t46 -18.5t53 -17.5t52.5 -17.5q52 17 82.5 49t30.5 74q0 23 -10 41.5
t-23.5 30t-39 23.5t-45 18.5t-52 16.5t-51.5 17q-58 -16 -88 -47.5t-30 -72.5z" />
    <glyph glyph-name="dieresis" unicode="&#xa8;" horiz-adv-x="600" 
d="M125 554q-20 0 -33.5 13.5t-13.5 33.5q0 21 13.5 35t33.5 14q22 0 35.5 -14t13.5 -35q0 -20 -14 -33.5t-35 -13.5zM319 554q-20 0 -33.5 13.5t-13.5 33.5q0 21 13.5 35t33.5 14q21 0 35 -14t14 -35q0 -20 -14 -33.5t-35 -13.5z" />
    <glyph glyph-name="copyright" unicode="&#xa9;" horiz-adv-x="802" 
d="M401 -17q-163 0 -260.5 105t-97.5 262t97.5 262t260.5 105t260.5 -105t97.5 -262t-97.5 -262t-260.5 -105zM401 17q145 0 233 96t88 237t-88 237t-233 96t-233 -96t-88 -237t88 -237t233 -96zM403 136q-98 0 -155 62t-57 152t57 152.5t155 62.5q77 0 124.5 -37t59.5 -97
h-34q-11 46 -50 74.5t-100 28.5q-83 0 -131 -53.5t-48 -130.5t48 -130t131 -53q60 0 99.5 28t50.5 72h34q-12 -59 -59.5 -95t-124.5 -36z" />
    <glyph glyph-name="ordfeminine" unicode="&#xaa;" horiz-adv-x="363" 
d="M163 394q-61 0 -99 39t-38 97t38.5 98t98.5 40q42 0 72 -19.5t43 -52.5v65h36v-260h-36v63q-13 -32 -43.5 -51t-71.5 -19zM170 425q49 0 79.5 31t30.5 74q0 45 -30.5 76t-79.5 31q-48 0 -78 -31t-30 -76q0 -43 30.5 -74t77.5 -31z" />
    <glyph glyph-name="guillemotleft" unicode="&#xab;" horiz-adv-x="464" 
d="M212 76l-203 185l203 185l27 -26l-174 -159l174 -158zM416 76l-203 185l203 185l27 -26l-174 -159l174 -158z" />
    <glyph glyph-name="logicalnot" unicode="&#xac;" horiz-adv-x="504" 
d="M404 217v142h-346v39h389v-181h-43z" />
    <glyph glyph-name="uni00AD" unicode="&#xad;" horiz-adv-x="413" 
d="M58 238v39h297v-39h-297z" />
    <glyph glyph-name="registered" unicode="&#xae;" horiz-adv-x="578" 
d="M290 212q-112 0 -179 72t-67 181q0 108 67 180t179 72t179 -72t67 -180q0 -109 -67 -181t-179 -72zM290 236q100 0 160.5 66t60.5 163t-60.5 163t-160.5 66t-160.5 -66t-60.5 -163t60.5 -163t160.5 -66zM205 328v282h98q40 0 65.5 -26.5t25.5 -65.5q0 -31 -19 -55
t-50 -31l67 -104h-27l-66 101h-71v-101h-23zM229 451h73q30 0 49 19.5t19 47.5q0 29 -19 49.5t-49 20.5h-73v-137z" />
    <glyph glyph-name="macron" unicode="&#xaf;" horiz-adv-x="600" 
d="M85 554v36h317v-36h-317z" />
    <glyph glyph-name="degree" unicode="&#xb0;" horiz-adv-x="363" 
d="M182 399q-63 0 -105 42t-42 104q0 63 42 105t105 42t104.5 -42t41.5 -105q0 -62 -41.5 -104t-104.5 -42zM182 434q49 0 79.5 32t30.5 79t-30.5 79t-79.5 32t-80 -32t-31 -79t31 -79t80 -32z" />
    <glyph glyph-name="plusminus" unicode="&#xb1;" horiz-adv-x="504" 
d="M231 264v124h-173v40h173v125h42v-125h174v-40h-174v-124h-42zM58 165v39h389v-39h-389z" />
    <glyph glyph-name="uni00B2" unicode="&#xb2;" horiz-adv-x="367" 
d="M43 400q0 68 23.5 106t81.5 65l68 31q63 28 63 91q0 34 -24 55t-62 21q-47 0 -74 -27t-27 -73h-39q0 60 38.5 96t100.5 36q58 0 92.5 -29t34.5 -77q0 -80 -80 -117l-68 -31q-43 -20 -62.5 -46t-20.5 -68h232v-33h-277z" />
    <glyph glyph-name="uni00B3" unicode="&#xb3;" horiz-adv-x="376" 
d="M187 394q-64 0 -102 32t-38 86h39q0 -40 27.5 -63.5t74.5 -23.5q45 0 72 22.5t27 59.5q0 38 -26 60t-72 22h-35v30h35q43 0 68 20.5t25 55.5q0 34 -26 55t-67 21q-43 0 -69.5 -22t-26.5 -58h-38q0 49 36.5 79.5t98.5 30.5q59 0 94.5 -28.5t35.5 -76.5q0 -77 -86 -92
q39 -2 65.5 -30.5t26.5 -68.5q0 -50 -38 -80.5t-101 -30.5z" />
    <glyph glyph-name="acute" unicode="&#xb4;" horiz-adv-x="600" 
d="M36 514l-16 35l257 129l16 -34z" />
    <glyph glyph-name="uni00B5" unicode="&#xb5;" horiz-adv-x="568" 
d="M441 450h42v-450h-42v122q-16 -57 -63 -95.5t-113 -38.5q-90 0 -138 58v-264h-42v668h42v-257q0 -76 36.5 -121t111.5 -45q81 0 123.5 59.5t42.5 133.5v230z" />
    <glyph glyph-name="paragraph" unicode="&#xb6;" horiz-adv-x="643" 
d="M266 -148v477q-97 0 -156.5 48.5t-59.5 142.5q0 50 18 87.5t44 58t62.5 32.5t65 15.5t59.5 3.5h294v-37h-53v-828h-41v827h-192v-827h-41z" />
    <glyph glyph-name="periodcentered" unicode="&#xb7;" horiz-adv-x="280" 
d="M140 263q-22 0 -36 14t-14 35t14.5 36t35.5 15t35.5 -15t14.5 -36t-14.5 -35t-35.5 -14z" />
    <glyph glyph-name="cedilla" unicode="&#xb8;" horiz-adv-x="600" 
d="M139 -215q-33 0 -54.5 19t-23.5 49h29q2 -18 15 -29.5t35 -11.5q26 0 40.5 15t14.5 43q0 26 -13.5 42t-39.5 16q-34 0 -50 -28h-25v100h29v-70q14 23 54 23q33 0 54.5 -23t21.5 -59q0 -38 -23.5 -62t-63.5 -24z" />
    <glyph glyph-name="uni00B9" unicode="&#xb9;" horiz-adv-x="257" 
d="M128 400v297h-90v29q54 0 73.5 15t19.5 53h33v-394h-36z" />
    <glyph glyph-name="ordmasculine" unicode="&#xba;" horiz-adv-x="339" 
d="M169 394q-64 0 -103 39.5t-39 97.5t39 97.5t103 39.5q65 0 104 -39t39 -98t-39 -98t-104 -39zM169 426q48 0 77.5 30.5t29.5 74.5q0 45 -29.5 75.5t-77.5 30.5t-77.5 -30.5t-29.5 -75.5q0 -44 29.5 -74.5t77.5 -30.5z" />
    <glyph glyph-name="guillemotright" unicode="&#xbb;" horiz-adv-x="464" 
d="M48 76l-27 27l174 158l-174 159l27 26l203 -185zM252 76l-27 27l174 158l-174 159l27 26l203 -185z" />
    <glyph glyph-name="onequarter" unicode="&#xbc;" horiz-adv-x="758" 
d="M539 692l30 -19l-472 -682l-31 19zM128 286v297h-90v29q54 0 73.5 15t19.5 53h33v-394h-36zM723 168v-33h-71v-136h-38v136h-171v259h37v-226h134v124h38v-124h71z" />
    <glyph glyph-name="onehalf" unicode="&#xbd;" horiz-adv-x="736" 
d="M97 -9l-31 19l473 682l30 -19zM128 286v297h-90v29q54 0 73.5 15t19.5 53h33v-394h-36zM412 0q0 68 23.5 106t81.5 65l68 31q63 28 63 91q0 34 -24 55t-62 21q-47 0 -74 -27t-27 -73h-39q0 60 38.5 96t100.5 36q58 0 92.5 -29t34.5 -77q0 -80 -80 -117l-68 -31
q-43 -20 -62.5 -46t-20.5 -68h232v-33h-277z" />
    <glyph glyph-name="threequarters" unicode="&#xbe;" horiz-adv-x="861" 
d="M642 692l30 -19l-472 -682l-31 19zM326 391q0 -50 -38 -80.5t-101 -30.5q-64 0 -102 32t-38 86h39q0 -40 27.5 -63.5t74.5 -23.5q45 0 72 22.5t27 59.5q0 38 -26 60t-72 22h-35v30h35q43 0 68 20.5t25 55.5q0 34 -26 55t-67 21q-43 0 -69.5 -22t-26.5 -58h-38
q0 49 36.5 79.5t98.5 30.5q59 0 94.5 -28.5t35.5 -76.5q0 -77 -86 -92q39 -2 65.5 -30.5t26.5 -68.5zM826 168v-33h-71v-136h-38v136h-171v259h37v-226h134v124h38v-124h71z" />
    <glyph glyph-name="questiondown" unicode="&#xbf;" horiz-adv-x="479" 
d="M264 490q21 0 35 -14.5t14 -35.5t-14 -35.5t-35 -14.5q-22 0 -36.5 14.5t-14.5 35.5t14.5 35.5t36.5 14.5zM285 299v-24q0 -52 -16 -83.5t-53 -56.5l-59 -39q-77 -53 -77 -144q0 -63 43 -103.5t122 -40.5q80 0 127 49.5t47 133.5h44q0 -102 -59 -162.5t-160 -60.5
q-100 0 -154.5 51t-54.5 132q0 105 95 173l56 38q31 21 43.5 45.5t12.5 70.5v21h43z" />
    <glyph glyph-name="Agrave" unicode="&#xc0;" horiz-adv-x="564" 
d="M409 762l-17 -32l-239 126l17 32zM495 0l-48 144h-330l-47 -144h-47l239 700h41l239 -700h-47zM131 185h303l-152 458z" />
    <glyph glyph-name="Aacute" unicode="&#xc1;" horiz-adv-x="564" 
d="M412 856l-239 -126l-17 32l239 126zM495 0l-48 144h-330l-47 -144h-47l239 700h41l239 -700h-47zM131 185h303l-152 458z" />
    <glyph glyph-name="Acircumflex" unicode="&#xc2;" horiz-adv-x="564" 
d="M281 830l-100 -90l-24 23l124 110l124 -110l-24 -23zM495 0l-48 144h-330l-47 -144h-47l239 700h41l239 -700h-47zM131 185h303l-152 458z" />
    <glyph glyph-name="Atilde" unicode="&#xc3;" horiz-adv-x="564" 
d="M208 822q-46 0 -78 -52l-23 19q41 68 101 68q26 0 77.5 -30t73.5 -30q45 0 76 51l23 -19q-38 -67 -97 -67q-31 -1 -81 29.5t-72 30.5zM495 0l-48 144h-330l-47 -144h-47l239 700h41l239 -700h-47zM131 185h303l-152 458z" />
    <glyph glyph-name="Adieresis" unicode="&#xc4;" horiz-adv-x="564" 
d="M167 766q-20 0 -33.5 13.5t-13.5 33.5q0 21 13.5 35t33.5 14t34.5 -14t14.5 -35q0 -20 -14.5 -33.5t-34.5 -13.5zM399 766q-20 0 -34 13.5t-14 33.5q0 21 14 35t34 14t34 -14t14 -35q0 -20 -14 -33.5t-34 -13.5zM495 0l-48 144h-330l-47 -144h-47l239 700h41l239 -700
h-47zM131 185h303l-152 458z" />
    <glyph glyph-name="Aring" unicode="&#xc5;" horiz-adv-x="564" 
d="M495 0l-48 144h-330l-47 -144h-47l231 676q-37 9 -61 39.5t-24 69.5q0 47 33 80t81 33t81.5 -33t33.5 -80q0 -39 -24.5 -69.5t-62.5 -40.5l231 -675h-47zM201 785q0 -34 24 -58t58 -24q35 0 59 24t24 58q0 35 -24 58.5t-59 23.5t-58.5 -23.5t-23.5 -58.5zM131 185h303
l-152 458z" />
    <glyph glyph-name="AE" unicode="&#xc6;" horiz-adv-x="796" 
d="M724 659h-292v-291h292v-40h-292v-287h292v-41h-335v145h-251l-73 -145h-47l356 700h350v-41zM158 185h231v459z" />
    <glyph glyph-name="Ccedilla" unicode="&#xc7;" horiz-adv-x="774" 
d="M402 27q112 0 181.5 49.5t97.5 134.5h47q-27 -99 -106.5 -160t-205.5 -65v-56q14 23 54 23q33 0 54.5 -23t21.5 -59q0 -38 -23.5 -62t-63.5 -24q-33 0 -54.5 19t-23.5 49h29q2 -18 15 -29.5t35 -11.5q26 0 40.5 15t14.5 43q0 26 -13.5 42t-39.5 16q-34 0 -50 -28h-25v86
q-157 5 -250.5 109.5t-93.5 254.5q0 154 98 259t260 105q132 0 215.5 -61.5t111.5 -163.5h-47q-28 85 -97.5 134.5t-181.5 49.5q-143 0 -228.5 -93t-85.5 -230t85.5 -230t228.5 -93z" />
    <glyph glyph-name="Egrave" unicode="&#xc8;" horiz-adv-x="548" 
d="M399 730l-239 126l17 32l239 -126zM90 0v700h385v-41h-341v-291h341v-40h-341v-287h341v-41h-385z" />
    <glyph glyph-name="Eacute" unicode="&#xc9;" horiz-adv-x="548" 
d="M180 730l-17 32l239 126l17 -32zM90 0v700h385v-41h-341v-291h341v-40h-341v-287h341v-41h-385z" />
    <glyph glyph-name="Ecircumflex" unicode="&#xca;" horiz-adv-x="548" 
d="M288 873l124 -110l-24 -23l-100 90l-100 -90l-24 23zM90 0v700h385v-41h-341v-291h341v-40h-341v-287h341v-41h-385z" />
    <glyph glyph-name="Edieresis" unicode="&#xcb;" horiz-adv-x="548" 
d="M174 766q-20 0 -33.5 13.5t-13.5 33.5q0 21 13.5 35t33.5 14t34.5 -14t14.5 -35q0 -20 -14.5 -33.5t-34.5 -13.5zM406 766q-20 0 -34 13.5t-14 33.5q0 21 14 35t34 14t34 -14t14 -35q0 -20 -14 -33.5t-34 -13.5zM90 0v700h385v-41h-341v-291h341v-40h-341v-287h341v-41
h-385z" />
    <glyph glyph-name="Igrave" unicode="&#xcc;" horiz-adv-x="224" 
d="M169 751l-136 81l20 32l136 -81zM90 0v700h44v-700h-44z" />
    <glyph glyph-name="Iacute" unicode="&#xcd;" horiz-adv-x="224" 
d="M52 751l-20 31l140 85l20 -31zM90 0v700h44v-700h-44z" />
    <glyph glyph-name="Icircumflex" unicode="&#xce;" horiz-adv-x="224" 
d="M188 753l-77 70l-76 -70l-23 26l99 89l101 -89zM90 0v700h44v-700h-44z" />
    <glyph glyph-name="Idieresis" unicode="&#xcf;" horiz-adv-x="224" 
d="M56 767q-20 0 -33 13t-13 33t13 33.5t33 13.5t33.5 -13.5t13.5 -33.5t-13.5 -33t-33.5 -13zM167 767q-20 0 -33 13t-13 33t13 33.5t33 13.5t33.5 -13.5t13.5 -33.5t-13.5 -33t-33.5 -13zM90 0v700h44v-700h-44z" />
    <glyph glyph-name="Eth" unicode="&#xd0;" horiz-adv-x="684" 
d="M286 700q111 0 195 -51t124.5 -129.5t40.5 -169.5t-40.5 -169.5t-124.5 -129.5t-195 -51h-196v334h-81v40h81v326h196zM283 41q99 0 173.5 45.5t110 114.5t35.5 149q0 81 -35.5 150t-110 114t-173.5 45h-149v-285h154v-40h-154v-293h149z" />
    <glyph glyph-name="Ntilde" unicode="&#xd1;" horiz-adv-x="662" 
d="M409 762q-31 -1 -81 29.5t-72 30.5q-46 0 -78 -52l-23 19q41 68 101 68q26 0 77.5 -30t73.5 -30q45 0 76 51l23 -19q-38 -67 -97 -67zM90 0v700h48l391 -629v629h43v-700h-48l-391 629v-629h-43z" />
    <glyph glyph-name="Ograve" unicode="&#xd2;" horiz-adv-x="803" 
d="M511 730l-239 126l17 32l239 -126zM402 -14q-162 0 -260.5 107t-98.5 257t98.5 257t260.5 107t260.5 -107t98.5 -257t-98.5 -257t-260.5 -107zM402 27q142 0 228 95t85 228q1 133 -85 228t-228 95t-228 -95t-86 -228t86 -228t228 -95z" />
    <glyph glyph-name="Oacute" unicode="&#xd3;" horiz-adv-x="803" 
d="M292 730l-17 32l239 126l17 -32zM402 -14q-162 0 -260.5 107t-98.5 257t98.5 257t260.5 107t260.5 -107t98.5 -257t-98.5 -257t-260.5 -107zM402 27q142 0 228 95t85 228q1 133 -85 228t-228 95t-228 -95t-86 -228t86 -228t228 -95z" />
    <glyph glyph-name="Ocircumflex" unicode="&#xd4;" horiz-adv-x="803" 
d="M400 873l124 -110l-24 -23l-100 90l-100 -90l-24 23zM402 -14q-162 0 -260.5 107t-98.5 257t98.5 257t260.5 107t260.5 -107t98.5 -257t-98.5 -257t-260.5 -107zM402 27q142 0 228 95t85 228q1 133 -85 228t-228 95t-228 -95t-86 -228t86 -228t228 -95z" />
    <glyph glyph-name="Otilde" unicode="&#xd5;" horiz-adv-x="803" 
d="M480 762q-31 -1 -81 29.5t-72 30.5q-46 0 -78 -52l-23 19q41 68 101 68q26 0 77.5 -30t73.5 -30q45 0 76 51l23 -19q-38 -67 -97 -67zM402 -14q-162 0 -260.5 107t-98.5 257t98.5 257t260.5 107t260.5 -107t98.5 -257t-98.5 -257t-260.5 -107zM402 27q142 0 228 95
t85 228q1 133 -85 228t-228 95t-228 -95t-86 -228t86 -228t228 -95z" />
    <glyph glyph-name="Odieresis" unicode="&#xd6;" horiz-adv-x="803" 
d="M286 766q-20 0 -33.5 13.5t-13.5 33.5q0 21 13.5 35t33.5 14t34.5 -14t14.5 -35q0 -20 -14.5 -33.5t-34.5 -13.5zM518 766q-20 0 -34 13.5t-14 33.5q0 21 14 35t34 14t34 -14t14 -35q0 -20 -14 -33.5t-34 -13.5zM402 -14q-162 0 -260.5 107t-98.5 257t98.5 257t260.5 107
t260.5 -107t98.5 -257t-98.5 -257t-260.5 -107zM402 27q142 0 228 95t85 228q1 133 -85 228t-228 95t-228 -95t-86 -228t86 -228t228 -95z" />
    <glyph glyph-name="multiply" unicode="&#xd7;" horiz-adv-x="469" 
d="M411 464l-149 -150l149 -149l-28 -27l-149 149l-148 -149l-28 27l149 149l-149 150l27 28l149 -149l150 149z" />
    <glyph glyph-name="Oslash" unicode="&#xd8;" horiz-adv-x="803" 
d="M558 681q95 -43 149 -133t54 -198q0 -150 -98.5 -257t-260.5 -107q-71 0 -132 23l-32 -75l-33 14l32 75q-91 44 -142.5 132.5t-51.5 194.5q0 150 98.5 257t260.5 107q64 0 123 -19l30 70l33 -14zM88 350q0 -92 44 -170t122 -119l254 595q-49 17 -106 17q-142 0 -228 -95
t-86 -228zM402 27q142 0 228 95t85 228q1 95 -45 174.5t-128 118.5l-256 -596q54 -20 116 -20z" />
    <glyph glyph-name="Ugrave" unicode="&#xd9;" horiz-adv-x="625" 
d="M422 730l-239 126l17 32l239 -126zM313 -14q-113 0 -179 62.5t-66 177.5v474h43v-472q0 -97 54 -149t148 -52q93 0 147 52t54 149v472h44v-474q0 -114 -66 -177t-179 -63z" />
    <glyph glyph-name="Uacute" unicode="&#xda;" horiz-adv-x="625" 
d="M203 730l-17 32l239 126l17 -32zM313 -14q-113 0 -179 62.5t-66 177.5v474h43v-472q0 -97 54 -149t148 -52q93 0 147 52t54 149v472h44v-474q0 -114 -66 -177t-179 -63z" />
    <glyph glyph-name="Ucircumflex" unicode="&#xdb;" horiz-adv-x="625" 
d="M311 873l124 -110l-24 -23l-100 90l-100 -90l-24 23zM313 -14q-113 0 -179 62.5t-66 177.5v474h43v-472q0 -97 54 -149t148 -52q93 0 147 52t54 149v472h44v-474q0 -114 -66 -177t-179 -63z" />
    <glyph glyph-name="Udieresis" unicode="&#xdc;" horiz-adv-x="625" 
d="M197 766q-20 0 -33.5 13.5t-13.5 33.5q0 21 13.5 35t33.5 14t34.5 -14t14.5 -35q0 -20 -14.5 -33.5t-34.5 -13.5zM429 766q-20 0 -34 13.5t-14 33.5q0 21 14 35t34 14t34 -14t14 -35q0 -20 -14 -33.5t-34 -13.5zM313 -14q-113 0 -179 62.5t-66 177.5v474h43v-472
q0 -97 54 -149t148 -52q93 0 147 52t54 149v472h44v-474q0 -114 -66 -177t-179 -63z" />
    <glyph glyph-name="Yacute" unicode="&#xdd;" horiz-adv-x="533" 
d="M409 856l-239 -126l-17 32l239 126zM490 700h48l-362 -700h-49l143 275l-270 425h51l242 -380z" />
    <glyph glyph-name="Thorn" unicode="&#xde;" horiz-adv-x="574" 
d="M327 576q101 0 163.5 -65.5t62.5 -160.5q0 -94 -62.5 -159.5t-163.5 -65.5h-193v-125h-44v700h44v-124h193zM326 166q82 0 132.5 53.5t50.5 130.5t-50.5 131t-132.5 54h-192v-369h192z" />
    <glyph glyph-name="germandbls" unicode="&#xdf;" horiz-adv-x="563" 
d="M288 -13q-50 0 -89 13v40q39 -13 87 -13q82 0 131 42.5t49 113.5q0 67 -49 113t-132 46h-57v39h53q78 0 123 41t45 106q0 66 -43 106.5t-120 40.5q-76 0 -119 -48.5t-43 -119.5v-507h-43v507q0 89 55 148t150 59q97 0 151 -50.5t54 -133.5q0 -66 -40.5 -113t-109.5 -54
q76 -8 121.5 -60.5t45.5 -123.5q0 -88 -61 -140t-159 -52z" />
    <glyph glyph-name="agrave" unicode="&#xe0;" horiz-adv-x="590" 
d="M394 511l-257 130l16 34l257 -129zM269 -12q-103 0 -164.5 67t-61.5 169q0 103 62.5 170.5t164.5 67.5q69 0 120 -35t73 -94v117h42v-450h-42v116q-22 -58 -74 -93t-120 -35zM273 27q86 0 139 57.5t53 139.5q0 84 -52.5 141.5t-139.5 57.5q-85 0 -136.5 -56t-51.5 -143
q0 -85 51.5 -141t136.5 -56z" />
    <glyph glyph-name="aacute" unicode="&#xe1;" horiz-adv-x="590" 
d="M152 514l-16 35l257 129l16 -34zM269 -12q-103 0 -164.5 67t-61.5 169q0 103 62.5 170.5t164.5 67.5q69 0 120 -35t73 -94v117h42v-450h-42v116q-22 -58 -74 -93t-120 -35zM273 27q86 0 139 57.5t53 139.5q0 84 -52.5 141.5t-139.5 57.5q-85 0 -136.5 -56t-51.5 -143
q0 -85 51.5 -141t136.5 -56z" />
    <glyph glyph-name="acircumflex" unicode="&#xe2;" horiz-adv-x="590" 
d="M276 679l165 -146l-24 -27l-141 126l-140 -126l-25 27zM269 -12q-103 0 -164.5 67t-61.5 169q0 103 62.5 170.5t164.5 67.5q69 0 120 -35t73 -94v117h42v-450h-42v116q-22 -58 -74 -93t-120 -35zM273 27q86 0 139 57.5t53 139.5q0 84 -52.5 141.5t-139.5 57.5
q-85 0 -136.5 -56t-51.5 -143q0 -85 51.5 -141t136.5 -56z" />
    <glyph glyph-name="atilde" unicode="&#xe3;" horiz-adv-x="590" 
d="M352 551q-28 0 -76 29t-71 29q-45 0 -77 -50l-21 23q39 65 99 65q24 0 74 -29.5t70 -29.5q42 0 73 49l22 -22q-37 -64 -93 -64zM269 -12q-103 0 -164.5 67t-61.5 169q0 103 62.5 170.5t164.5 67.5q69 0 120 -35t73 -94v117h42v-450h-42v116q-22 -58 -74 -93t-120 -35z
M273 27q86 0 139 57.5t53 139.5q0 84 -52.5 141.5t-139.5 57.5q-85 0 -136.5 -56t-51.5 -143q0 -85 51.5 -141t136.5 -56z" />
    <glyph glyph-name="adieresis" unicode="&#xe4;" horiz-adv-x="590" 
d="M178 554q-20 0 -33.5 13.5t-13.5 33.5q0 21 13.5 35t33.5 14q22 0 35.5 -14t13.5 -35q0 -20 -14 -33.5t-35 -13.5zM372 554q-20 0 -33.5 13.5t-13.5 33.5q0 21 13.5 35t33.5 14q21 0 35 -14t14 -35q0 -20 -14 -33.5t-35 -13.5zM269 -12q-103 0 -164.5 67t-61.5 169
q0 103 62.5 170.5t164.5 67.5q69 0 120 -35t73 -94v117h42v-450h-42v116q-22 -58 -74 -93t-120 -35zM273 27q86 0 139 57.5t53 139.5q0 84 -52.5 141.5t-139.5 57.5q-85 0 -136.5 -56t-51.5 -143q0 -85 51.5 -141t136.5 -56z" />
    <glyph glyph-name="aring" unicode="&#xe5;" horiz-adv-x="590" 
d="M276 492q-45 0 -76 30t-31 77t31 77t76 30t76 -30t31 -77t-31 -77t-76 -30zM276 520q33 0 55 22t22 57t-22 57t-55 22t-55 -22t-22 -57t22 -57t55 -22zM269 -12q-103 0 -164.5 67t-61.5 169q0 103 62.5 170.5t164.5 67.5q69 0 120 -35t73 -94v117h42v-450h-42v116
q-22 -58 -74 -93t-120 -35zM273 27q86 0 139 57.5t53 139.5q0 84 -52.5 141.5t-139.5 57.5q-85 0 -136.5 -56t-51.5 -143q0 -85 51.5 -141t136.5 -56z" />
    <glyph glyph-name="ae" unicode="&#xe6;" horiz-adv-x="886" 
d="M844 255q0 -24 -2 -35h-380q1 -88 50 -141t129 -53q56 0 97 27t57 73h42q-14 -62 -68 -100.5t-128 -38.5q-70 0 -122.5 35t-77.5 96q-55 -130 -220 -130q-78 0 -125.5 34.5t-47.5 92.5q0 70 51 105q55 35 179 35h144v37q0 63 -40.5 98.5t-117.5 35.5q-68 0 -111 -33
t-47 -93h-42q3 74 57.5 118t142.5 44q153 0 188 -106q27 50 75.5 78t110.5 28q89 0 147.5 -59t58.5 -148zM463 255h339q0 75 -46 123t-119 48q-76 0 -123.5 -46t-50.5 -125zM422 192v6q-1 8 -1 22h-167q-162 0 -162 -103q0 -45 38 -69t107 -24q80 0 132.5 46t52.5 122z" />
    <glyph glyph-name="ccedilla" unicode="&#xe7;" horiz-adv-x="513" 
d="M266 29q66 0 108.5 30.5t52.5 87.5h43q-9 -69 -60 -111.5t-131 -46.5v-59q14 23 54 23q33 0 54.5 -23t21.5 -59q0 -38 -23.5 -62t-63.5 -24q-33 0 -54.5 19t-23.5 49h29q2 -18 15 -29.5t35 -11.5q26 0 40.5 15t14.5 43q0 26 -13.5 42t-39.5 16q-34 0 -50 -28h-25v89
q-95 6 -151 71t-56 165q0 105 61 170t162 65q86 0 140.5 -43t63.5 -115h-43q-10 57 -53 88t-108 31q-83 0 -132 -54t-49 -142q0 -89 49 -142.5t132 -53.5z" />
    <glyph glyph-name="egrave" unicode="&#xe8;" horiz-adv-x="509" 
d="M393 546l-16 -35l-257 130l16 34zM465 220h-379v-2q0 -86 48 -138.5t127 -52.5q57 0 99 26.5t58 71.5h42q-14 -61 -69 -99t-129 -38q-99 0 -159 65t-60 173q0 107 59 171.5t156 64.5q93 0 151 -58t58 -148q0 -12 -2 -36zM258 426q-73 0 -119.5 -46.5t-51.5 -123.5h338
q0 75 -45.5 122.5t-121.5 47.5z" />
    <glyph glyph-name="eacute" unicode="&#xe9;" horiz-adv-x="509" 
d="M392 644l-257 -130l-16 35l257 129zM465 220h-379v-2q0 -86 48 -138.5t127 -52.5q57 0 99 26.5t58 71.5h42q-14 -61 -69 -99t-129 -38q-99 0 -159 65t-60 173q0 107 59 171.5t156 64.5q93 0 151 -58t58 -148q0 -12 -2 -36zM258 426q-73 0 -119.5 -46.5t-51.5 -123.5h338
q0 75 -45.5 122.5t-121.5 47.5z" />
    <glyph glyph-name="ecircumflex" unicode="&#xea;" horiz-adv-x="509" 
d="M259 632l-140 -126l-25 27l165 146l165 -146l-24 -27zM465 220h-379v-2q0 -86 48 -138.5t127 -52.5q57 0 99 26.5t58 71.5h42q-14 -61 -69 -99t-129 -38q-99 0 -159 65t-60 173q0 107 59 171.5t156 64.5q93 0 151 -58t58 -148q0 -12 -2 -36zM258 426q-73 0 -119.5 -46.5
t-51.5 -123.5h338q0 75 -45.5 122.5t-121.5 47.5z" />
    <glyph glyph-name="edieresis" unicode="&#xeb;" horiz-adv-x="509" 
d="M161 554q-20 0 -33.5 13.5t-13.5 33.5q0 21 13.5 35t33.5 14q22 0 35.5 -14t13.5 -35q0 -20 -14 -33.5t-35 -13.5zM355 554q-20 0 -33.5 13.5t-13.5 33.5q0 21 13.5 35t33.5 14q21 0 35 -14t14 -35q0 -20 -14 -33.5t-35 -13.5zM465 220h-379v-2q0 -86 48 -138.5
t127 -52.5q57 0 99 26.5t58 71.5h42q-14 -61 -69 -99t-129 -38q-99 0 -159 65t-60 173q0 107 59 171.5t156 64.5q93 0 151 -58t58 -148q0 -12 -2 -36zM258 426q-73 0 -119.5 -46.5t-51.5 -123.5h338q0 75 -45.5 122.5t-121.5 47.5z" />
    <glyph glyph-name="igrave" unicode="&#xec;" horiz-adv-x="212" 
d="M170 524l-150 85l20 32l150 -85zM85 0v450h42v-450h-42z" />
    <glyph glyph-name="iacute" unicode="&#xed;" horiz-adv-x="212" 
d="M40 524l-20 32l150 85l20 -32zM85 0v450h42v-450h-42z" />
    <glyph glyph-name="icircumflex" unicode="&#xee;" horiz-adv-x="212" 
d="M29 527l-26 24l103 105l104 -105l-26 -25l-78 81zM85 0v450h42v-450h-42z" />
    <glyph glyph-name="idieresis" unicode="&#xef;" horiz-adv-x="212" 
d="M47 556q-19 0 -31.5 13t-12.5 32t12.5 32t31.5 13t32 -13t13 -32t-13 -32t-32 -13zM164 556q-19 0 -31.5 13t-12.5 32t12.5 32t31.5 13t32 -13t13 -32t-13 -32t-32 -13zM85 0v450h42v-450h-42z" />
    <glyph glyph-name="eth" unicode="&#xf0;" horiz-adv-x="543" 
d="M462 363q38 -59 38 -137q0 -101 -63 -169.5t-166 -68.5q-102 0 -165 68.5t-63 169.5q0 100 63 168.5t165 68.5q43 0 82 -14l-72 112l-100 -55l-15 28l98 54l-72 112h52l59 -91l95 53l17 -27l-95 -52zM271 28q84 0 135.5 57t51.5 141q0 83 -51.5 140t-135.5 57t-135 -57
t-51 -141q0 -83 51 -140t135 -57z" />
    <glyph glyph-name="ntilde" unicode="&#xf1;" horiz-adv-x="562" 
d="M355 551q-28 0 -76 29t-71 29q-45 0 -77 -50l-21 23q39 65 99 65q23 0 73 -29.5t71 -29.5q42 0 73 49l22 -22q-37 -64 -93 -64zM85 0v450h42v-124q14 61 60 98.5t120 37.5q87 0 131 -50.5t44 -146.5v-265h-43v252q0 172 -144 172q-82 0 -125 -56t-43 -148v-220h-42z" />
    <glyph glyph-name="ograve" unicode="&#xf2;" horiz-adv-x="543" 
d="M389 511l-257 130l16 34l257 -129zM271 -12q-102 0 -165 68.5t-63 169.5q0 100 63 168.5t165 68.5q103 0 166 -68.5t63 -168.5q0 -101 -63 -169.5t-166 -68.5zM271 28q84 0 135.5 57t51.5 141q0 83 -51.5 140t-135.5 57t-135 -57t-51 -141q0 -83 51 -140t135 -57z" />
    <glyph glyph-name="oacute" unicode="&#xf3;" horiz-adv-x="543" 
d="M147 514l-16 35l257 129l16 -34zM271 -12q-102 0 -165 68.5t-63 169.5q0 100 63 168.5t165 68.5q103 0 166 -68.5t63 -168.5q0 -101 -63 -169.5t-166 -68.5zM271 28q84 0 135.5 57t51.5 141q0 83 -51.5 140t-135.5 57t-135 -57t-51 -141q0 -83 51 -140t135 -57z" />
    <glyph glyph-name="ocircumflex" unicode="&#xf4;" horiz-adv-x="543" 
d="M271 679l165 -146l-24 -27l-141 126l-140 -126l-25 27zM271 -12q-102 0 -165 68.5t-63 169.5q0 100 63 168.5t165 68.5q103 0 166 -68.5t63 -168.5q0 -101 -63 -169.5t-166 -68.5zM271 28q84 0 135.5 57t51.5 141q0 83 -51.5 140t-135.5 57t-135 -57t-51 -141
q0 -83 51 -140t135 -57z" />
    <glyph glyph-name="otilde" unicode="&#xf5;" horiz-adv-x="543" 
d="M347 551q-28 0 -76 29t-71 29q-45 0 -77 -50l-21 23q39 65 99 65q23 0 73 -29.5t71 -29.5q42 0 73 49l22 -22q-37 -64 -93 -64zM271 -12q-102 0 -165 68.5t-63 169.5q0 100 63 168.5t165 68.5q103 0 166 -68.5t63 -168.5q0 -101 -63 -169.5t-166 -68.5zM271 28
q84 0 135.5 57t51.5 141q0 83 -51.5 140t-135.5 57t-135 -57t-51 -141q0 -83 51 -140t135 -57z" />
    <glyph glyph-name="odieresis" unicode="&#xf6;" horiz-adv-x="543" 
d="M173 554q-20 0 -33.5 13.5t-13.5 33.5q0 21 13.5 35t33.5 14q22 0 35.5 -14t13.5 -35q0 -20 -14 -33.5t-35 -13.5zM367 554q-20 0 -33.5 13.5t-13.5 33.5q0 21 13.5 35t33.5 14q21 0 35 -14t14 -35q0 -20 -14 -33.5t-35 -13.5zM271 -12q-102 0 -165 68.5t-63 169.5
q0 100 63 168.5t165 68.5q103 0 166 -68.5t63 -168.5q0 -101 -63 -169.5t-166 -68.5zM271 28q84 0 135.5 57t51.5 141q0 83 -51.5 140t-135.5 57t-135 -57t-51 -141q0 -83 51 -140t135 -57z" />
    <glyph glyph-name="divide" unicode="&#xf7;" horiz-adv-x="504" 
d="M252 403q-20 0 -34 14t-14 34q0 21 14 35.5t34 14.5q21 0 35.5 -14.5t14.5 -35.5q0 -20 -14.5 -34t-35.5 -14zM58 294v39h389v-39h-389zM252 128q-20 0 -34 14t-14 34q0 21 14 35.5t34 14.5q21 0 35.5 -14.5t14.5 -35.5q0 -20 -14.5 -34t-35.5 -14z" />
    <glyph glyph-name="oslash" unicode="&#xf8;" horiz-adv-x="543" 
d="M386 434q54 -30 84 -85t30 -123q0 -101 -63 -169.5t-166 -68.5q-37 0 -73 11l-25 -59l-29 12l25 58q-59 28 -92.5 86t-33.5 130q0 100 63 168.5t165 68.5q48 0 87 -15l17 40l29 -12zM85 225q0 -59 26.5 -106.5t73.5 -71.5l157 363q-32 13 -71 13q-84 0 -135 -57t-51 -141
zM271 28q84 0 135.5 57t51.5 141q0 54 -23 99.5t-65 70.5l-156 -360q29 -8 57 -8z" />
    <glyph glyph-name="ugrave" unicode="&#xf9;" horiz-adv-x="563" 
d="M402 511l-257 130l16 34l257 -129zM260 -12q-83 0 -131.5 50t-48.5 146v266h42v-257q0 -76 36.5 -121t111.5 -45q81 0 123.5 59.5t42.5 133.5v230h42v-450h-42v122q-16 -57 -63 -95.5t-113 -38.5z" />
    <glyph glyph-name="uacute" unicode="&#xfa;" horiz-adv-x="563" 
d="M160 514l-16 35l257 129l16 -34zM260 -12q-83 0 -131.5 50t-48.5 146v266h42v-257q0 -76 36.5 -121t111.5 -45q81 0 123.5 59.5t42.5 133.5v230h42v-450h-42v122q-16 -57 -63 -95.5t-113 -38.5z" />
    <glyph glyph-name="ucircumflex" unicode="&#xfb;" horiz-adv-x="563" 
d="M284 679l165 -146l-24 -27l-141 126l-140 -126l-25 27zM260 -12q-83 0 -131.5 50t-48.5 146v266h42v-257q0 -76 36.5 -121t111.5 -45q81 0 123.5 59.5t42.5 133.5v230h42v-450h-42v122q-16 -57 -63 -95.5t-113 -38.5z" />
    <glyph glyph-name="udieresis" unicode="&#xfc;" horiz-adv-x="563" 
d="M186 554q-20 0 -33.5 13.5t-13.5 33.5q0 21 13.5 35t33.5 14q22 0 35.5 -14t13.5 -35q0 -20 -14 -33.5t-35 -13.5zM380 554q-20 0 -33.5 13.5t-13.5 33.5q0 21 13.5 35t33.5 14q21 0 35 -14t14 -35q0 -20 -14 -33.5t-35 -13.5zM260 -12q-83 0 -131.5 50t-48.5 146v266h42
v-257q0 -76 36.5 -121t111.5 -45q81 0 123.5 59.5t42.5 133.5v230h42v-450h-42v122q-16 -57 -63 -95.5t-113 -38.5z" />
    <glyph glyph-name="yacute" unicode="&#xfd;" horiz-adv-x="568" 
d="M158 514l-16 35l257 129l16 -34zM440 450h43v-472q0 -114 -66 -166q-51 -42 -137 -42q-95 0 -149 46q-51 43 -51 115h43q1 -53 39 -88t118 -35q160 0 160 172v139q-19 -56 -65 -93t-114 -37q-181 0 -181 206v255h42v-248q0 -86 33.5 -129.5t116.5 -43.5q80 0 124 59
t44 133v229z" />
    <glyph glyph-name="thorn" unicode="&#xfe;" horiz-adv-x="590" 
d="M323 462q98 0 161 -67t63 -171q0 -102 -64 -169t-162 -67q-67 0 -119 34.5t-75 93.5v-334h-43v245h1v673h42v-367q23 61 75.5 95t120.5 34zM317 27q82 0 135 56t53 141q0 86 -53 142.5t-135 56.5q-84 0 -138 -56.5t-54 -142.5q0 -85 54.5 -141t137.5 -56z" />
    <glyph glyph-name="ydieresis" unicode="&#xff;" horiz-adv-x="568" 
d="M184 554q-20 0 -33.5 13.5t-13.5 33.5q0 21 13.5 35t33.5 14q22 0 35.5 -14t13.5 -35q0 -20 -14 -33.5t-35 -13.5zM378 554q-20 0 -33.5 13.5t-13.5 33.5q0 21 13.5 35t33.5 14q21 0 35 -14t14 -35q0 -20 -14 -33.5t-35 -13.5zM440 450h43v-472q0 -114 -66 -166
q-51 -42 -137 -42q-95 0 -149 46q-51 43 -51 115h43q1 -53 39 -88t118 -35q160 0 160 172v139q-19 -56 -65 -93t-114 -37q-181 0 -181 206v255h42v-248q0 -86 33.5 -129.5t116.5 -43.5q80 0 124 59t44 133v229z" />
    <glyph glyph-name="Amacron" unicode="&#x100;" horiz-adv-x="564" 
d="M452 812v-37h-338v37h338zM495 0l-48 144h-330l-47 -144h-47l239 700h41l239 -700h-47zM131 185h303l-152 458z" />
    <glyph glyph-name="amacron" unicode="&#x101;" horiz-adv-x="590" 
d="M117 554v36h317v-36h-317zM269 -12q-103 0 -164.5 67t-61.5 169q0 103 62.5 170.5t164.5 67.5q69 0 120 -35t73 -94v117h42v-450h-42v116q-22 -58 -74 -93t-120 -35zM273 27q86 0 139 57.5t53 139.5q0 84 -52.5 141.5t-139.5 57.5q-85 0 -136.5 -56t-51.5 -143
q0 -85 51.5 -141t136.5 -56z" />
    <glyph glyph-name="Abreve" unicode="&#x102;" horiz-adv-x="564" 
d="M283 738q-62 0 -106.5 33t-50.5 89h38q5 -42 38.5 -65t80.5 -23t81 23t39 65h37q-5 -56 -49.5 -89t-107.5 -33zM495 0l-48 144h-330l-47 -144h-47l239 700h41l239 -700h-47zM131 185h303l-152 458z" />
    <glyph glyph-name="abreve" unicode="&#x103;" horiz-adv-x="590" 
d="M276 509q-65 0 -109.5 37.5t-50.5 103.5h39q4 -50 38.5 -78t82.5 -28t82.5 28t38.5 78h38q-5 -66 -49.5 -103.5t-109.5 -37.5zM269 -12q-103 0 -164.5 67t-61.5 169q0 103 62.5 170.5t164.5 67.5q69 0 120 -35t73 -94v117h42v-450h-42v116q-22 -58 -74 -93t-120 -35z
M273 27q86 0 139 57.5t53 139.5q0 84 -52.5 141.5t-139.5 57.5q-85 0 -136.5 -56t-51.5 -143q0 -85 51.5 -141t136.5 -56z" />
    <glyph glyph-name="Aogonek" unicode="&#x104;" horiz-adv-x="564" 
d="M513 -177q31 0 68 15l-2 -35q-39 -15 -76 -15q-48 0 -73.5 25.5t-25.5 65.5q0 76 95 121h-4l-48 144h-330l-47 -144h-47l239 700h41l239 -700q-49 -17 -73.5 -46.5t-24.5 -62.5q0 -31 18 -49.5t51 -18.5zM131 185h303l-152 458z" />
    <glyph glyph-name="aogonek" unicode="&#x105;" horiz-adv-x="590" 
d="M480 -177q30 0 68 15l-2 -35q-39 -15 -76 -15q-48 0 -73.5 25.5t-25.5 65.5q0 76 95 121h-3v116q-22 -58 -74 -93t-120 -35q-103 0 -164.5 67t-61.5 169q0 103 62.5 170.5t164.5 67.5q69 0 120 -35t73 -94v117h42v-450h4q-49 -17 -73.5 -46.5t-24.5 -62.5q0 -31 18 -49.5
t51 -18.5zM273 27q86 0 139 57.5t53 139.5q0 84 -52.5 141.5t-139.5 57.5q-85 0 -136.5 -56t-51.5 -143q0 -85 51.5 -141t136.5 -56z" />
    <glyph glyph-name="Cacute" unicode="&#x106;" horiz-adv-x="774" 
d="M291 730l-17 32l239 126l17 -32zM401 -14q-162 0 -260 105.5t-98 258.5q0 154 98 259t260 105q132 0 215.5 -61.5t111.5 -163.5h-47q-28 85 -97.5 134.5t-181.5 49.5q-143 0 -228.5 -93t-85.5 -230t85.5 -230t228.5 -93q112 0 181.5 49.5t97.5 134.5h47
q-28 -102 -111.5 -163.5t-215.5 -61.5z" />
    <glyph glyph-name="cacute" unicode="&#x107;" horiz-adv-x="513" 
d="M140 514l-16 35l257 129l16 -34zM266 -11q-101 0 -162 65.5t-61 170.5t61 170t162 65q86 0 140.5 -43t63.5 -115h-43q-10 57 -53 88t-108 31q-83 0 -132 -54t-49 -142q0 -89 49 -142.5t132 -53.5q66 0 108.5 30.5t52.5 87.5h43q-9 -72 -63.5 -115t-140.5 -43z" />
    <glyph glyph-name="Ccircumflex" unicode="&#x108;" horiz-adv-x="774" 
d="M399 873l124 -110l-24 -23l-100 90l-100 -90l-24 23zM401 -14q-162 0 -260 105.5t-98 258.5q0 154 98 259t260 105q132 0 215.5 -61.5t111.5 -163.5h-47q-28 85 -97.5 134.5t-181.5 49.5q-143 0 -228.5 -93t-85.5 -230t85.5 -230t228.5 -93q112 0 181.5 49.5t97.5 134.5
h47q-28 -102 -111.5 -163.5t-215.5 -61.5z" />
    <glyph glyph-name="ccircumflex" unicode="&#x109;" horiz-adv-x="513" 
d="M264 679l165 -146l-24 -27l-141 126l-140 -126l-25 27zM266 -11q-101 0 -162 65.5t-61 170.5t61 170t162 65q86 0 140.5 -43t63.5 -115h-43q-10 57 -53 88t-108 31q-83 0 -132 -54t-49 -142q0 -89 49 -142.5t132 -53.5q66 0 108.5 30.5t52.5 87.5h43q-9 -72 -63.5 -115
t-140.5 -43z" />
    <glyph glyph-name="Cdotaccent" unicode="&#x10a;" horiz-adv-x="774" 
d="M400 765q-21 0 -34 13.5t-13 34.5t13 34.5t34 13.5t35 -14t14 -34q0 -21 -14 -34.5t-35 -13.5zM401 -14q-162 0 -260 105.5t-98 258.5q0 154 98 259t260 105q132 0 215.5 -61.5t111.5 -163.5h-47q-28 85 -97.5 134.5t-181.5 49.5q-143 0 -228.5 -93t-85.5 -230t85.5 -230
t228.5 -93q112 0 181.5 49.5t97.5 134.5h47q-28 -102 -111.5 -163.5t-215.5 -61.5z" />
    <glyph glyph-name="cdotaccent" unicode="&#x10b;" horiz-adv-x="513" 
d="M264 553q-21 0 -35 14.5t-14 35.5t14 35t35 14q22 0 36 -14t14 -35t-14 -35.5t-36 -14.5zM266 -11q-101 0 -162 65.5t-61 170.5t61 170t162 65q86 0 140.5 -43t63.5 -115h-43q-10 57 -53 88t-108 31q-83 0 -132 -54t-49 -142q0 -89 49 -142.5t132 -53.5q66 0 108.5 30.5
t52.5 87.5h43q-9 -72 -63.5 -115t-140.5 -43z" />
    <glyph glyph-name="Ccaron" unicode="&#x10c;" horiz-adv-x="774" 
d="M400 739l-124 110l24 23l100 -90l100 90l24 -23zM401 -14q-162 0 -260 105.5t-98 258.5q0 154 98 259t260 105q132 0 215.5 -61.5t111.5 -163.5h-47q-28 85 -97.5 134.5t-181.5 49.5q-143 0 -228.5 -93t-85.5 -230t85.5 -230t228.5 -93q112 0 181.5 49.5t97.5 134.5h47
q-28 -102 -111.5 -163.5t-215.5 -61.5z" />
    <glyph glyph-name="ccaron" unicode="&#x10d;" horiz-adv-x="513" 
d="M264 513l-165 146l25 27l140 -126l141 126l24 -27zM266 -11q-101 0 -162 65.5t-61 170.5t61 170t162 65q86 0 140.5 -43t63.5 -115h-43q-10 57 -53 88t-108 31q-83 0 -132 -54t-49 -142q0 -89 49 -142.5t132 -53.5q66 0 108.5 30.5t52.5 87.5h43q-9 -72 -63.5 -115
t-140.5 -43z" />
    <glyph glyph-name="Dcaron" unicode="&#x10e;" horiz-adv-x="684" 
d="M322 739l-124 110l24 23l100 -90l100 90l24 -23zM90 0v700h196q111 0 195 -51t124.5 -129.5t40.5 -169.5t-40.5 -169.5t-124.5 -129.5t-195 -51h-196zM134 41h149q99 0 173.5 45.5t110 114.5t35.5 149q0 81 -35.5 150t-110 114t-173.5 45h-149v-618z" />
    <glyph glyph-name="dcaron" unicode="&#x10f;" horiz-adv-x="694" 
d="M613 710q32 0 52 -28t20 -71q0 -47 -24 -73.5t-63 -26.5q-11 0 -16 2v26q7 -1 16 -1q23 0 37.5 14t16.5 38q3 27 -8 45q-11 -17 -35 -17q-19 0 -31.5 12.5t-12.5 32.5t13 33.5t35 13.5zM463 700h42v-700h-42v116q-22 -58 -74 -93t-120 -35q-103 0 -164.5 67t-61.5 169
q0 103 62.5 170.5t164.5 67.5q69 0 120 -35t73 -94v367zM273 27q86 0 139 57.5t53 139.5q0 84 -52.5 141.5t-139.5 57.5q-85 0 -136.5 -56t-51.5 -143q0 -85 51.5 -141t136.5 -56z" />
    <glyph glyph-name="Dcroat" unicode="&#x110;" horiz-adv-x="684" 
d="M286 700q111 0 195 -51t124.5 -129.5t40.5 -169.5t-40.5 -169.5t-124.5 -129.5t-195 -51h-196v334h-81v40h81v326h196zM283 41q99 0 173.5 45.5t110 114.5t35.5 149q0 81 -35.5 150t-110 114t-173.5 45h-149v-285h154v-40h-154v-293h149z" />
    <glyph glyph-name="dcroat" unicode="&#x111;" horiz-adv-x="580" 
d="M568 581v-33h-63v-548h-42v116q-22 -58 -74 -93t-120 -35q-103 0 -164.5 67t-61.5 169q0 103 62.5 170.5t164.5 67.5q69 0 120 -35t73 -94v215h-196v33h196v119h42v-119h63zM273 27q86 0 139 57.5t53 139.5q0 84 -52.5 141.5t-139.5 57.5q-85 0 -136.5 -56t-51.5 -143
q0 -85 51.5 -141t136.5 -56z" />
    <glyph glyph-name="Emacron" unicode="&#x112;" horiz-adv-x="548" 
d="M121 775v37h338v-37h-338zM90 0v700h385v-41h-341v-291h341v-40h-341v-287h341v-41h-385z" />
    <glyph glyph-name="emacron" unicode="&#x113;" horiz-adv-x="509" 
d="M417 590v-36h-317v36h317zM465 220h-379v-2q0 -86 48 -138.5t127 -52.5q57 0 99 26.5t58 71.5h42q-14 -61 -69 -99t-129 -38q-99 0 -159 65t-60 173q0 107 59 171.5t156 64.5q93 0 151 -58t58 -148q0 -12 -2 -36zM258 426q-73 0 -119.5 -46.5t-51.5 -123.5h338
q0 75 -45.5 122.5t-121.5 47.5z" />
    <glyph glyph-name="Ebreve" unicode="&#x114;" horiz-adv-x="548" 
d="M290 738q-62 0 -106.5 33t-50.5 89h38q5 -42 38.5 -65t80.5 -23t81 23t39 65h37q-5 -56 -49.5 -89t-107.5 -33zM90 0v700h385v-41h-341v-291h341v-40h-341v-287h341v-41h-385z" />
    <glyph glyph-name="ebreve" unicode="&#x115;" horiz-adv-x="509" 
d="M259 509q-65 0 -109.5 37.5t-50.5 103.5h39q4 -50 38.5 -78t82.5 -28t82.5 28t38.5 78h38q-5 -66 -49.5 -103.5t-109.5 -37.5zM465 220h-379v-2q0 -86 48 -138.5t127 -52.5q57 0 99 26.5t58 71.5h42q-14 -61 -69 -99t-129 -38q-99 0 -159 65t-60 173q0 107 59 171.5
t156 64.5q93 0 151 -58t58 -148q0 -12 -2 -36zM258 426q-73 0 -119.5 -46.5t-51.5 -123.5h338q0 75 -45.5 122.5t-121.5 47.5z" />
    <glyph glyph-name="Edotaccent" unicode="&#x116;" horiz-adv-x="548" 
d="M289 765q-21 0 -34 13.5t-13 34.5t13 34.5t34 13.5t35 -14t14 -34q0 -21 -14 -34.5t-35 -13.5zM90 0v700h385v-41h-341v-291h341v-40h-341v-287h341v-41h-385z" />
    <glyph glyph-name="edotaccent" unicode="&#x117;" horiz-adv-x="509" 
d="M259 553q-21 0 -35 14.5t-14 35.5t14 35t35 14q22 0 36 -14t14 -35t-14 -35.5t-36 -14.5zM465 220h-379v-2q0 -86 48 -138.5t127 -52.5q57 0 99 26.5t58 71.5h42q-14 -61 -69 -99t-129 -38q-99 0 -159 65t-60 173q0 107 59 171.5t156 64.5q93 0 151 -58t58 -148
q0 -12 -2 -36zM258 426q-73 0 -119.5 -46.5t-51.5 -123.5h338q0 75 -45.5 122.5t-121.5 47.5z" />
    <glyph glyph-name="Eogonek" unicode="&#x118;" horiz-adv-x="548" 
d="M446 -177q31 0 68 15l-2 -35q-39 -15 -76 -15q-48 0 -73.5 25.5t-25.5 65.5q0 76 95 121h-342v700h385v-41h-341v-291h341v-40h-341v-287h341v-41q-49 -17 -73.5 -46.5t-24.5 -62.5q0 -31 18 -49.5t51 -18.5z" />
    <glyph glyph-name="eogonek" unicode="&#x119;" horiz-adv-x="509" 
d="M465 220h-379v-2q0 -86 48 -138.5t127 -52.5q57 0 99 26.5t58 71.5h42q-10 -44 -42 -77t-79 -48h1q-49 -17 -73.5 -46.5t-24.5 -62.5q0 -31 18 -49.5t51 -18.5q30 0 68 15l-2 -35q-39 -15 -76 -15q-48 0 -73.5 25.5t-25.5 65.5q0 65 73 109h-13q-99 0 -159 65t-60 173
q0 107 59 171.5t156 64.5q93 0 151 -58t58 -148q0 -12 -2 -36zM258 426q-73 0 -119.5 -46.5t-51.5 -123.5h338q0 75 -45.5 122.5t-121.5 47.5z" />
    <glyph glyph-name="Ecaron" unicode="&#x11a;" horiz-adv-x="548" 
d="M289 739l-124 110l24 23l100 -90l100 90l24 -23zM90 0v700h385v-41h-341v-291h341v-40h-341v-287h341v-41h-385z" />
    <glyph glyph-name="ecaron" unicode="&#x11b;" horiz-adv-x="509" 
d="M424 659l-165 -146l-165 146l25 27l140 -126l141 126zM465 220h-379v-2q0 -86 48 -138.5t127 -52.5q57 0 99 26.5t58 71.5h42q-14 -61 -69 -99t-129 -38q-99 0 -159 65t-60 173q0 107 59 171.5t156 64.5q93 0 151 -58t58 -148q0 -12 -2 -36zM258 426q-73 0 -119.5 -46.5
t-51.5 -123.5h338q0 75 -45.5 122.5t-121.5 47.5z" />
    <glyph glyph-name="Gcircumflex" unicode="&#x11c;" horiz-adv-x="820" 
d="M395 830l-100 -90l-24 23l124 110l124 -110l-24 -23zM796 317v-40h-77q-16 -134 -97.5 -212.5t-221.5 -78.5q-166 0 -262 103.5t-95 259.5q0 159 94.5 262t257.5 103q112 0 192.5 -53.5t103.5 -141.5h-47q-23 70 -90 112t-159 42q-144 0 -225.5 -90.5t-81.5 -233.5
q0 -138 83 -230t229 -92q121 0 189.5 66.5t84.5 183.5h-239v40h361z" />
    <glyph glyph-name="gcircumflex" unicode="&#x11d;" horiz-adv-x="590" 
d="M275 632l-140 -126l-25 27l165 146l165 -146l-24 -27zM463 450h42v-455q0 -118 -74 -178q-58 -47 -155 -47q-103 0 -163 49q-57 46 -57 112h43q2 -52 48.5 -87.5t128.5 -35.5q90 0 138.5 48t48.5 137v123q-23 -60 -75 -94t-119 -34q-99 0 -162.5 67.5t-63.5 168.5
q0 102 64 170t163 68q68 0 119 -34t74 -95v117zM273 27q84 0 138 56.5t54 140.5q0 85 -54 142t-138 57q-82 0 -135 -56.5t-53 -142.5q0 -85 53 -141t135 -56z" />
    <glyph glyph-name="Gbreve" unicode="&#x11e;" horiz-adv-x="820" 
d="M397 738q-62 0 -106.5 33t-50.5 89h38q5 -42 38.5 -65t80.5 -23t81 23t39 65h37q-5 -56 -49.5 -89t-107.5 -33zM796 317v-40h-77q-16 -134 -97.5 -212.5t-221.5 -78.5q-166 0 -262 103.5t-95 259.5q0 159 94.5 262t257.5 103q112 0 192.5 -53.5t103.5 -141.5h-47
q-23 70 -90 112t-159 42q-144 0 -225.5 -90.5t-81.5 -233.5q0 -138 83 -230t229 -92q121 0 189.5 66.5t84.5 183.5h-239v40h361z" />
    <glyph glyph-name="gbreve" unicode="&#x11f;" horiz-adv-x="590" 
d="M275 509q-65 0 -109.5 37.5t-50.5 103.5h39q4 -50 38.5 -78t82.5 -28t82.5 28t38.5 78h38q-5 -66 -49.5 -103.5t-109.5 -37.5zM463 450h42v-455q0 -118 -74 -178q-58 -47 -155 -47q-103 0 -163 49q-57 46 -57 112h43q2 -52 48.5 -87.5t128.5 -35.5q90 0 138.5 48
t48.5 137v123q-23 -60 -75 -94t-119 -34q-99 0 -162.5 67.5t-63.5 168.5q0 102 64 170t163 68q68 0 119 -34t74 -95v117zM273 27q84 0 138 56.5t54 140.5q0 85 -54 142t-138 57q-82 0 -135 -56.5t-53 -142.5q0 -85 53 -141t135 -56z" />
    <glyph glyph-name="Gdotaccent" unicode="&#x120;" horiz-adv-x="820" 
d="M396 765q-21 0 -34 13.5t-13 34.5t13 34.5t34 13.5t35 -14t14 -34q0 -21 -14 -34.5t-35 -13.5zM796 317v-40h-77q-16 -134 -97.5 -212.5t-221.5 -78.5q-166 0 -262 103.5t-95 259.5q0 159 94.5 262t257.5 103q112 0 192.5 -53.5t103.5 -141.5h-47q-23 70 -90 112t-159 42
q-144 0 -225.5 -90.5t-81.5 -233.5q0 -138 83 -230t229 -92q121 0 189.5 66.5t84.5 183.5h-239v40h361z" />
    <glyph glyph-name="gdotaccent" unicode="&#x121;" horiz-adv-x="590" 
d="M275 553q-21 0 -35 14.5t-14 35.5t14 35t35 14q22 0 36 -14t14 -35t-14 -35.5t-36 -14.5zM463 450h42v-455q0 -118 -74 -178q-58 -47 -155 -47q-103 0 -163 49q-57 46 -57 112h43q2 -52 48.5 -87.5t128.5 -35.5q90 0 138.5 48t48.5 137v123q-23 -60 -75 -94t-119 -34
q-99 0 -162.5 67.5t-63.5 168.5q0 102 64 170t163 68q68 0 119 -34t74 -95v117zM273 27q84 0 138 56.5t54 140.5q0 85 -54 142t-138 57q-82 0 -135 -56.5t-53 -142.5q0 -85 53 -141t135 -56z" />
    <glyph glyph-name="Gcommaaccent" unicode="&#x122;" horiz-adv-x="820" 
d="M796 317v-40h-77q-16 -134 -97.5 -212.5t-221.5 -78.5q-166 0 -262 103.5t-95 259.5q0 159 94.5 262t257.5 103q112 0 192.5 -53.5t103.5 -141.5h-47q-23 70 -90 112t-159 42q-144 0 -225.5 -90.5t-81.5 -233.5q0 -138 83 -230t229 -92q121 0 189.5 66.5t84.5 183.5h-239
v40h361zM395 -30q28 0 44.5 -20.5t16.5 -54.5q0 -46 -25.5 -71t-70.5 -25v24q60 0 64 52q3 18 -1 29q-8 -18 -30 -18q-19 0 -31 11.5t-12 29.5q0 19 12.5 31t32.5 12z" />
    <glyph glyph-name="gcommaaccent" unicode="&#x123;" horiz-adv-x="590" 
d="M274 525q-28 0 -44 21.5t-16 55.5q0 41 25.5 64.5t71.5 23.5v-24q-29 0 -45.5 -12t-18.5 -32q-5 -18 0 -31q7 19 31 19q19 0 30.5 -12t11.5 -30t-13 -30.5t-33 -12.5zM463 450h42v-455q0 -118 -74 -178q-58 -47 -155 -47q-103 0 -163 49q-57 46 -57 112h43
q2 -52 48.5 -87.5t128.5 -35.5q90 0 138.5 48t48.5 137v123q-23 -60 -75 -94t-119 -34q-99 0 -162.5 67.5t-63.5 168.5q0 102 64 170t163 68q68 0 119 -34t74 -95v117zM273 27q84 0 138 56.5t54 140.5q0 85 -54 142t-138 57q-82 0 -135 -56.5t-53 -142.5q0 -85 53 -141
t135 -56z" />
    <glyph glyph-name="Hcircumflex" unicode="&#x124;" horiz-adv-x="665" 
d="M331 873l124 -110l-24 -23l-100 90l-100 -90l-24 23zM90 0v700h44v-332h398v332h43v-700h-43v328h-398v-328h-44z" />
    <glyph glyph-name="hcircumflex" unicode="&#x125;" horiz-adv-x="565" 
d="M186 753l-77 70l-76 -70l-23 26l99 89l101 -89zM311 462q87 0 131 -50.5t44 -146.5v-265h-43v252q0 172 -144 172q-82 0 -125 -56t-43 -148v-220h-42v700h42v-374q14 61 60 98.5t120 37.5z" />
    <glyph glyph-name="Hbar" unicode="&#x126;" horiz-adv-x="665" 
d="M610 549v-33h-35v-516h-43v328h-398v-328h-44v516h-35v33h35v151h44v-151h398v151h43v-151h35zM532 368v148h-398v-148h398z" />
    <glyph glyph-name="hbar" unicode="&#x127;" horiz-adv-x="565" 
d="M311 462q87 0 131 -50.5t44 -146.5v-265h-43v252q0 172 -144 172q-82 0 -125 -56t-43 -148v-220h-42v548h-71v33h71v119h42v-119h188v-33h-188v-222q14 61 60 98.5t120 37.5z" />
    <glyph glyph-name="Itilde" unicode="&#x128;" horiz-adv-x="224" 
d="M149 771q-21 0 -41 19.5t-31 19.5q-22 0 -38 -36l-19 18q19 51 58 51q20 0 40 -19.5t33 -19.5q22 0 33 31l20 -16q-15 -48 -55 -48zM90 0v700h44v-700h-44z" />
    <glyph glyph-name="itilde" unicode="&#x129;" horiz-adv-x="212" 
d="M142 537q-21 0 -41.5 21.5t-32.5 21.5q-11 0 -19 -7t-18 -30l-18 20q19 55 58 55q21 0 42 -21.5t34 -21.5q21 0 31 31l20 -18q-15 -51 -56 -51zM85 0v450h42v-450h-42z" />
    <glyph glyph-name="Imacron" unicode="&#x12a;" horiz-adv-x="224" 
d="M31 775v34h161v-34h-161zM90 0v700h44v-700h-44z" />
    <glyph glyph-name="imacron" unicode="&#x12b;" horiz-adv-x="212" 
d="M17 554v36h178v-36h-178zM85 0v450h42v-450h-42z" />
    <glyph glyph-name="Ibreve" unicode="&#x12c;" horiz-adv-x="224" 
d="M111 746q-40 0 -68.5 26t-29.5 80h37q1 -34 18.5 -53t42.5 -19t42.5 18.5t19.5 53.5h37q-2 -54 -30.5 -80t-68.5 -26zM90 0v700h44v-700h-44z" />
    <glyph glyph-name="ibreve" unicode="&#x12d;" horiz-adv-x="212" 
d="M105 524q-43 0 -68.5 28t-26.5 86h34q3 -82 61 -82q57 0 62 82h34q-1 -58 -27.5 -86t-68.5 -28zM85 0v450h42v-450h-42z" />
    <glyph glyph-name="Iogonek" unicode="&#x12e;" horiz-adv-x="224" 
d="M105 -177q31 0 68 15l-2 -35q-39 -15 -76 -15q-48 0 -73.5 25.5t-25.5 65.5q0 76 95 121h-1v700h44v-700q-49 -17 -73.5 -46.5t-24.5 -62.5q0 -31 18 -49.5t51 -18.5z" />
    <glyph glyph-name="iogonek" unicode="&#x12f;" horiz-adv-x="212" 
d="M106 553q-21 0 -35 14.5t-14 35.5t14 35t35 14q22 0 36 -14t14 -35t-14 -35.5t-36 -14.5zM98 -177q30 0 68 15l-2 -35q-39 -15 -76 -15q-48 0 -73.5 25.5t-25.5 65.5q0 76 95 121h1v450h42v-450q-49 -17 -73.5 -46.5t-24.5 -62.5q0 -31 18 -49.5t51 -18.5z" />
    <glyph glyph-name="Idotaccent" unicode="&#x130;" horiz-adv-x="224" 
d="M111 765q-21 0 -34 13.5t-13 34.5t13 34.5t34 13.5t35 -14t14 -34q0 -21 -14 -34.5t-35 -13.5zM90 0v700h44v-700h-44z" />
    <glyph glyph-name="dotlessi" unicode="&#x131;" horiz-adv-x="212" 
d="M85 0v450h42v-450h-42z" />
    <glyph glyph-name="IJ" unicode="&#x132;" horiz-adv-x="761" 
d="M90 0v700h44v-700h-44zM478 -14q-99 0 -162.5 59t-63.5 166h43q0 -88 52 -136t131 -48q77 0 124.5 50.5t47.5 140.5v482h43v-482q0 -108 -59 -170t-156 -62z" />
    <glyph glyph-name="ij" unicode="&#x133;" horiz-adv-x="427" 
d="M106 553q-21 0 -35 14.5t-14 35.5t14 35t35 14q22 0 36 -14t14 -35t-14 -35.5t-36 -14.5zM321 553q-21 0 -35 14.5t-14 35.5t14 35t35 14q22 0 36 -14t14 -35t-14 -35.5t-36 -14.5zM85 0v450h42v-450h-42zM237 -224q-39 0 -64 13v41q26 -13 58 -13t50.5 24t18.5 67v542
h42v-550q0 -58 -28 -91t-77 -33z" />
    <glyph glyph-name="Jcircumflex" unicode="&#x134;" horiz-adv-x="537" 
d="M524 753l-77 70l-76 -70l-23 26l99 89l101 -89zM254 -14q-99 0 -162.5 59t-63.5 166h43q0 -88 52 -136t131 -48q77 0 124.5 50.5t47.5 140.5v482h43v-482q0 -108 -59 -170t-156 -62z" />
    <glyph glyph-name="jcircumflex" unicode="&#x135;" horiz-adv-x="215" 
d="M32 527l-26 24l103 105l104 -105l-26 -25l-78 81zM25 -224q-39 0 -64 13v41q26 -13 58 -13t50.5 24t18.5 67v542h42v-550q0 -58 -28 -91t-77 -33z" />
    <glyph glyph-name="Kcommaaccent" unicode="&#x136;" horiz-adv-x="574" 
d="M553 700l-373 -349l373 -351h-61l-358 343v-343h-44v700h44v-343l359 343h60zM281 -30q28 0 44.5 -20.5t16.5 -54.5q0 -46 -25.5 -71t-70.5 -25v24q60 0 64 52q3 18 -1 29q-8 -18 -30 -18q-19 0 -31 11.5t-12 29.5q0 19 12.5 31t32.5 12z" />
    <glyph glyph-name="kcommaaccent" unicode="&#x137;" horiz-adv-x="479" 
d="M447 450l-268 -221l268 -229h-59l-261 223v-223h-42v700h42v-469l262 219h58zM248 -30q28 0 44.5 -20.5t16.5 -54.5q0 -46 -25.5 -71t-70.5 -25v24q60 0 64 52q3 18 -1 29q-8 -18 -30 -18q-19 0 -31 11.5t-12 29.5q0 19 12.5 31t32.5 12z" />
    <glyph glyph-name="kgreenlandic" unicode="&#x138;" horiz-adv-x="479" 
d="M447 450l-268 -221l268 -229h-59l-261 223v-223h-42v450h42v-219l262 219h58z" />
    <glyph glyph-name="Lacute" unicode="&#x139;" horiz-adv-x="510" 
d="M90 751l-20 31l140 85l20 -31zM90 0v700h44v-658h332v-42h-376z" />
    <glyph glyph-name="lacute" unicode="&#x13a;" horiz-adv-x="212" 
d="M46 751l-20 31l140 85l20 -31zM85 0v700h42v-700h-42z" />
    <glyph glyph-name="Lcommaaccent" unicode="&#x13b;" horiz-adv-x="510" 
d="M90 0v700h44v-658h332v-42h-376zM253 -201v24q60 0 64 52q3 18 -1 29q-8 -18 -30 -18q-19 0 -31 11.5t-12 29.5q0 19 12.5 31t32.5 12q28 0 44.5 -20.5t16.5 -54.5q0 -46 -25.5 -71t-70.5 -25z" />
    <glyph glyph-name="lcommaaccent" unicode="&#x13c;" horiz-adv-x="212" 
d="M85 0v700h42v-700h-42zM69 -201v24q60 0 64 52q3 18 -1 29q-8 -18 -30 -18q-19 0 -31 11.5t-12 29.5q0 19 12.5 31t32.5 12q28 0 44.5 -20.5t16.5 -54.5q0 -46 -25.5 -71t-70.5 -25z" />
    <glyph glyph-name="Lcaron" unicode="&#x13d;" horiz-adv-x="510" 
d="M330 511q-11 0 -16 2v26q7 -1 16 -1q23 0 37.5 14t16.5 38q3 27 -8 45q-11 -17 -35 -17q-19 0 -31.5 12.5t-12.5 32.5t13 33.5t35 13.5q32 0 52 -28t20 -71q0 -47 -24 -73.5t-63 -26.5zM90 0v700h44v-658h332v-42h-376z" />
    <glyph glyph-name="lcaron" unicode="&#x13e;" horiz-adv-x="334" 
d="M233 511q-11 0 -16 2v26q7 -1 16 -1q23 0 37.5 14t16.5 38q3 27 -8 45q-11 -17 -35 -17q-19 0 -31.5 12.5t-12.5 32.5t13 33.5t35 13.5q32 0 52 -28t20 -71q0 -47 -24 -73.5t-63 -26.5zM85 0v700h42v-700h-42z" />
    <glyph glyph-name="Ldot" unicode="&#x13f;" horiz-adv-x="510" 
d="M90 0v700h44v-658h332v-42h-376zM322 329q-22 0 -36 14t-14 35t14.5 36t35.5 15t35.5 -15t14.5 -36t-14.5 -35t-35.5 -14z" />
    <glyph glyph-name="ldot" unicode="&#x140;" horiz-adv-x="311" 
d="M85 0v700h42v-700h-42zM252 301q-22 0 -36 14t-14 35t14.5 36t35.5 15t35.5 -15t14.5 -36t-14.5 -35t-35.5 -14z" />
    <glyph glyph-name="Lslash" unicode="&#x141;" horiz-adv-x="495" 
d="M134 42h332v-42h-376v297l-73 -38v40l73 38v363h44v-341l155 80v-40l-155 -80v-277z" />
    <glyph glyph-name="lslash" unicode="&#x142;" horiz-adv-x="212" 
d="M204 437v-38l-80 -43v-356h-42v333l-74 -40v38l74 40v329h42v-306z" />
    <glyph glyph-name="Nacute" unicode="&#x143;" horiz-adv-x="662" 
d="M221 730l-17 32l239 126l17 -32zM90 0v700h48l391 -629v629h43v-700h-48l-391 629v-629h-43z" />
    <glyph glyph-name="nacute" unicode="&#x144;" horiz-adv-x="562" 
d="M155 514l-16 35l257 129l16 -34zM85 0v450h42v-124q14 61 60 98.5t120 37.5q87 0 131 -50.5t44 -146.5v-265h-43v252q0 172 -144 172q-82 0 -125 -56t-43 -148v-220h-42z" />
    <glyph glyph-name="Ncommaaccent" unicode="&#x145;" horiz-adv-x="662" 
d="M90 0v700h48l391 -629v629h43v-700h-48l-391 629v-629h-43zM294 -201v24q60 0 64 52q3 18 -1 29q-8 -18 -30 -18q-19 0 -31 11.5t-12 29.5q0 19 12.5 31t32.5 12q28 0 44.5 -20.5t16.5 -54.5q0 -46 -25.5 -71t-70.5 -25z" />
    <glyph glyph-name="ncommaaccent" unicode="&#x146;" horiz-adv-x="562" 
d="M85 0v450h42v-124q14 61 60 98.5t120 37.5q87 0 131 -50.5t44 -146.5v-265h-43v252q0 172 -144 172q-82 0 -125 -56t-43 -148v-220h-42zM242 -201v24q60 0 64 52q3 18 -1 29q-8 -18 -30 -18q-19 0 -31 11.5t-12 29.5q0 19 12.5 31t32.5 12q28 0 44.5 -20.5t16.5 -54.5
q0 -46 -25.5 -71t-70.5 -25z" />
    <glyph glyph-name="Ncaron" unicode="&#x147;" horiz-adv-x="662" 
d="M330 739l-124 110l24 23l100 -90l100 90l24 -23zM90 0v700h48l391 -629v629h43v-700h-48l-391 629v-629h-43z" />
    <glyph glyph-name="ncaron" unicode="&#x148;" horiz-adv-x="562" 
d="M279 513l-165 146l25 27l140 -126l141 126l24 -27zM85 0v450h42v-124q14 61 60 98.5t120 37.5q87 0 131 -50.5t44 -146.5v-265h-43v252q0 172 -144 172q-82 0 -125 -56t-43 -148v-220h-42z" />
    <glyph glyph-name="napostrophe" unicode="&#x149;" horiz-adv-x="575" 
d="M52 511q-11 0 -16 2v26q7 -1 16 -1q23 0 37.5 14t16.5 38q3 27 -8 45q-11 -17 -35 -17q-19 0 -31.5 12.5t-12.5 32.5t13 33.5t35 13.5q32 0 52 -28t20 -71q0 -47 -24 -73.5t-63 -26.5zM98 0v450h42v-124q14 61 60 98.5t120 37.5q87 0 131 -50.5t44 -146.5v-265h-43v252
q0 172 -144 172q-82 0 -125 -56t-43 -148v-220h-42z" />
    <glyph glyph-name="Eng" unicode="&#x14a;" horiz-adv-x="662" 
d="M529 700h43v-795q0 -60 -30 -94.5t-82 -34.5q-37 0 -64 13v42q26 -13 59 -13q35 0 54 25t19 71v86h-4l-391 629v-629h-43v700h48l391 -629v629z" />
    <glyph glyph-name="eng" unicode="&#x14b;" horiz-adv-x="562" 
d="M482 265v-265h-1v-100q0 -58 -28 -91t-77 -33q-38 0 -63 13v41q25 -13 57 -13t50.5 24t18.5 67v344q0 172 -144 172q-82 0 -125 -56t-43 -148v-220h-42v450h42v-124q14 61 60 98.5t120 37.5q87 0 131 -50.5t44 -146.5z" />
    <glyph glyph-name="Omacron" unicode="&#x14c;" horiz-adv-x="803" 
d="M233 775v37h338v-37h-338zM402 -14q-162 0 -260.5 107t-98.5 257t98.5 257t260.5 107t260.5 -107t98.5 -257t-98.5 -257t-260.5 -107zM402 27q142 0 228 95t85 228q1 133 -85 228t-228 95t-228 -95t-86 -228t86 -228t228 -95z" />
    <glyph glyph-name="omacron" unicode="&#x14d;" horiz-adv-x="543" 
d="M112 554v36h317v-36h-317zM271 -12q-102 0 -165 68.5t-63 169.5q0 100 63 168.5t165 68.5q103 0 166 -68.5t63 -168.5q0 -101 -63 -169.5t-166 -68.5zM271 28q84 0 135.5 57t51.5 141q0 83 -51.5 140t-135.5 57t-135 -57t-51 -141q0 -83 51 -140t135 -57z" />
    <glyph glyph-name="Obreve" unicode="&#x14e;" horiz-adv-x="803" 
d="M402 738q-62 0 -106.5 33t-50.5 89h38q5 -42 38.5 -65t80.5 -23t81 23t39 65h37q-5 -56 -49.5 -89t-107.5 -33zM402 -14q-162 0 -260.5 107t-98.5 257t98.5 257t260.5 107t260.5 -107t98.5 -257t-98.5 -257t-260.5 -107zM402 27q142 0 228 95t85 228q1 133 -85 228
t-228 95t-228 -95t-86 -228t86 -228t228 -95z" />
    <glyph glyph-name="obreve" unicode="&#x14f;" horiz-adv-x="543" 
d="M271 509q-65 0 -109.5 37.5t-50.5 103.5h39q4 -50 38.5 -78t82.5 -28t82.5 28t38.5 78h38q-5 -66 -49.5 -103.5t-109.5 -37.5zM271 -12q-102 0 -165 68.5t-63 169.5q0 100 63 168.5t165 68.5q103 0 166 -68.5t63 -168.5q0 -101 -63 -169.5t-166 -68.5zM271 28
q84 0 135.5 57t51.5 141q0 83 -51.5 140t-135.5 57t-135 -57t-51 -141q0 -83 51 -140t135 -57z" />
    <glyph glyph-name="Ohungarumlaut" unicode="&#x150;" horiz-adv-x="803" 
d="M303 737l-28 13l132 131l38 -16zM492 736l-28 14l133 131l37 -17zM402 -14q-162 0 -260.5 107t-98.5 257t98.5 257t260.5 107t260.5 -107t98.5 -257t-98.5 -257t-260.5 -107zM402 27q142 0 228 95t85 228q1 133 -85 228t-228 95t-228 -95t-86 -228t86 -228t228 -95z" />
    <glyph glyph-name="ohungarumlaut" unicode="&#x151;" horiz-adv-x="543" 
d="M175 508l-27 14l125 166l38 -19zM355 508l-27 14l125 166l38 -19zM271 -12q-102 0 -165 68.5t-63 169.5q0 100 63 168.5t165 68.5q103 0 166 -68.5t63 -168.5q0 -101 -63 -169.5t-166 -68.5zM271 28q84 0 135.5 57t51.5 141q0 83 -51.5 140t-135.5 57t-135 -57t-51 -141
q0 -83 51 -140t135 -57z" />
    <glyph glyph-name="OE" unicode="&#x152;" horiz-adv-x="850" 
d="M777 659h-299v-291h299v-40h-299v-287h299v-41h-410q-146 0 -235 103t-89 247t89 247t235 103h410v-41zM367 41h67v618h-67q-126 0 -202.5 -91t-76.5 -218t76.5 -218t202.5 -91z" />
    <glyph glyph-name="oe" unicode="&#x153;" horiz-adv-x="924" 
d="M880 220h-379v-2q0 -86 48 -138.5t127 -52.5q57 0 99 26.5t58 71.5h42q-14 -61 -69 -99t-129 -38q-71 0 -123 34.5t-76 95.5q-27 -60 -81 -95t-126 -35q-102 0 -165 68.5t-63 169.5q0 100 63 168.5t165 68.5q72 0 126 -35t80 -94q25 61 76 94.5t120 33.5q93 0 151 -58
t58 -148q0 -12 -2 -36zM673 426q-73 0 -119.5 -46.5t-51.5 -123.5h338q0 75 -45.5 122.5t-121.5 47.5zM271 28q84 0 135.5 57t51.5 141q0 83 -51.5 140t-135.5 57t-135 -57t-51 -141q0 -83 51 -140t135 -57z" />
    <glyph glyph-name="Racute" unicode="&#x154;" horiz-adv-x="603" 
d="M428 856l-239 -126l-17 32l239 126zM553 465q0 -83 -44.5 -144.5t-117.5 -81.5l154 -239h-52l-148 231q-6 -1 -18 -1h-193v-230h-44v700h237q98 0 162 -67t64 -168zM325 270q79 0 131.5 55.5t52.5 139.5q0 85 -52 139.5t-132 54.5h-191v-389h191z" />
    <glyph glyph-name="racute" unicode="&#x155;" horiz-adv-x="350" 
d="M42 513l-16 35l257 129l16 -34zM85 0v450h42v-135q16 73 59 109.5t100 36.5q20 0 40 -4v-40q-13 3 -43 3q-42 0 -74 -21.5t-49 -56.5t-25 -72.5t-8 -76.5v-193h-42z" />
    <glyph glyph-name="Rcommaaccent" unicode="&#x156;" horiz-adv-x="603" 
d="M553 465q0 -83 -44.5 -144.5t-117.5 -81.5l154 -239h-52l-148 231q-6 -1 -18 -1h-193v-230h-44v700h237q98 0 162 -67t64 -168zM325 270q79 0 131.5 55.5t52.5 139.5q0 85 -52 139.5t-132 54.5h-191v-389h191zM297 -30q28 0 44.5 -20.5t16.5 -54.5q0 -46 -25.5 -71
t-70.5 -25v24q60 0 64 52q3 18 -1 29q-8 -18 -30 -18q-19 0 -31 11.5t-12 29.5q0 19 12.5 31t32.5 12z" />
    <glyph glyph-name="rcommaaccent" unicode="&#x157;" horiz-adv-x="350" 
d="M85 0v450h42v-135q16 73 59 109.5t100 36.5q20 0 40 -4v-40q-13 3 -43 3q-42 0 -74 -21.5t-49 -56.5t-25 -72.5t-8 -76.5v-193h-42zM72 -201v24q60 0 64 52q3 18 -1 29q-8 -18 -30 -18q-19 0 -31 11.5t-12 29.5q0 19 12.5 31t32.5 12q28 0 44.5 -20.5t16.5 -54.5
q0 -46 -25.5 -71t-70.5 -25z" />
    <glyph glyph-name="Rcaron" unicode="&#x158;" horiz-adv-x="603" 
d="M422 849l-124 -110l-124 110l24 23l100 -90l100 90zM553 465q0 -83 -44.5 -144.5t-117.5 -81.5l154 -239h-52l-148 231q-6 -1 -18 -1h-193v-230h-44v700h237q98 0 162 -67t64 -168zM325 270q79 0 131.5 55.5t52.5 139.5q0 85 -52 139.5t-132 54.5h-191v-389h191z" />
    <glyph glyph-name="rcaron" unicode="&#x159;" horiz-adv-x="350" 
d="M166 512l-165 146l25 27l140 -126l141 126l24 -27zM85 0v450h42v-135q16 73 59 109.5t100 36.5q20 0 40 -4v-40q-13 3 -43 3q-42 0 -74 -21.5t-49 -56.5t-25 -72.5t-8 -76.5v-193h-42z" />
    <glyph glyph-name="Sacute" unicode="&#x15a;" horiz-adv-x="566" 
d="M173 730l-17 32l239 126l17 -32zM293 -14q-114 0 -181 61t-67 164h44q0 -84 55.5 -134.5t147.5 -50.5q85 0 132.5 40t47.5 111q0 114 -130 145l-120 31q-155 34 -155 180q0 81 59 131t155 50q101 0 160 -54.5t59 -150.5h-44q0 78 -47 122t-129 44q-76 0 -122.5 -39
t-46.5 -102q0 -115 137 -146l120 -30q72 -17 110 -63t38 -118q0 -88 -59.5 -139.5t-163.5 -51.5z" />
    <glyph glyph-name="sacute" unicode="&#x15b;" horiz-adv-x="435" 
d="M89 514l-16 35l257 129l16 -34zM223 -12q-84 0 -132 41t-48 100h42q0 -44 36 -74t102 -30q55 0 88 23.5t33 65.5q0 29 -16 52t-47 30l-131 32q-95 24 -95 113q0 55 45 88t116 33q76 0 119.5 -34t43.5 -93h-42q-1 42 -34 67t-91 25q-50 0 -82.5 -22t-32.5 -64
q0 -60 75 -78l123 -31q48 -12 70 -43.5t22 -70.5q0 -61 -44.5 -95.5t-119.5 -34.5z" />
    <glyph glyph-name="Scircumflex" unicode="&#x15c;" horiz-adv-x="566" 
d="M281 873l124 -110l-24 -23l-100 90l-100 -90l-24 23zM293 -14q-114 0 -181 61t-67 164h44q0 -84 55.5 -134.5t147.5 -50.5q85 0 132.5 40t47.5 111q0 114 -130 145l-120 31q-155 34 -155 180q0 81 59 131t155 50q101 0 160 -54.5t59 -150.5h-44q0 78 -47 122t-129 44
q-76 0 -122.5 -39t-46.5 -102q0 -115 137 -146l120 -30q72 -17 110 -63t38 -118q0 -88 -59.5 -139.5t-163.5 -51.5z" />
    <glyph glyph-name="scircumflex" unicode="&#x15d;" horiz-adv-x="435" 
d="M213 679l165 -146l-24 -27l-141 126l-140 -126l-25 27zM223 -12q-84 0 -132 41t-48 100h42q0 -44 36 -74t102 -30q55 0 88 23.5t33 65.5q0 29 -16 52t-47 30l-131 32q-95 24 -95 113q0 55 45 88t116 33q76 0 119.5 -34t43.5 -93h-42q-1 42 -34 67t-91 25q-50 0 -82.5 -22
t-32.5 -64q0 -60 75 -78l123 -31q48 -12 70 -43.5t22 -70.5q0 -61 -44.5 -95.5t-119.5 -34.5z" />
    <glyph glyph-name="Scedilla" unicode="&#x15e;" horiz-adv-x="566" 
d="M516 177q0 -85 -56 -136t-154 -55v-56q14 23 54 23q33 0 54.5 -23t21.5 -59q0 -38 -23.5 -62t-63.5 -24q-33 0 -54.5 19t-23.5 49h29q2 -18 15 -29.5t35 -11.5q26 0 40.5 15t14.5 43q0 26 -13.5 42t-39.5 16q-34 0 -50 -28h-25v86q-107 4 -169.5 65t-62.5 160h44
q0 -84 55.5 -134.5t147.5 -50.5q85 0 132.5 40t47.5 111q0 114 -130 145l-120 31q-155 34 -155 180q0 81 59 131t155 50q101 0 160 -54.5t59 -150.5h-44q0 78 -47 122t-129 44q-76 0 -122.5 -39t-46.5 -102q0 -115 137 -146l120 -30q72 -17 110 -63t38 -118z" />
    <glyph glyph-name="scedilla" unicode="&#x15f;" horiz-adv-x="435" 
d="M282 -47q33 0 54.5 -23t21.5 -59q0 -38 -23.5 -62t-63.5 -24q-33 0 -54.5 19t-23.5 49h29q2 -18 15 -29.5t35 -11.5q26 0 40.5 15t14.5 43q0 26 -13.5 42t-39.5 16q-34 0 -50 -28h-25v89q-73 6 -114.5 45.5t-41.5 94.5h42q0 -44 36 -74t102 -30q55 0 88 23.5t33 65.5
q0 29 -16 52t-47 30l-131 32q-95 24 -95 113q0 55 45 88t116 33q76 0 119.5 -34t43.5 -93h-42q-1 42 -34 67t-91 25q-50 0 -82.5 -22t-32.5 -64q0 -60 75 -78l123 -31q48 -12 70 -43.5t22 -70.5q0 -60 -43 -94t-116 -36v-58q14 23 54 23z" />
    <glyph glyph-name="Scaron" unicode="&#x160;" horiz-adv-x="566" 
d="M282 739l-124 110l24 23l100 -90l100 90l24 -23zM293 -14q-114 0 -181 61t-67 164h44q0 -84 55.5 -134.5t147.5 -50.5q85 0 132.5 40t47.5 111q0 114 -130 145l-120 31q-155 34 -155 180q0 81 59 131t155 50q101 0 160 -54.5t59 -150.5h-44q0 78 -47 122t-129 44
q-76 0 -122.5 -39t-46.5 -102q0 -115 137 -146l120 -30q72 -17 110 -63t38 -118q0 -88 -59.5 -139.5t-163.5 -51.5z" />
    <glyph glyph-name="scaron" unicode="&#x161;" horiz-adv-x="435" 
d="M213 513l-165 146l25 27l140 -126l141 126l24 -27zM223 -12q-84 0 -132 41t-48 100h42q0 -44 36 -74t102 -30q55 0 88 23.5t33 65.5q0 29 -16 52t-47 30l-131 32q-95 24 -95 113q0 55 45 88t116 33q76 0 119.5 -34t43.5 -93h-42q-1 42 -34 67t-91 25q-50 0 -82.5 -22
t-32.5 -64q0 -60 75 -78l123 -31q48 -12 70 -43.5t22 -70.5q0 -61 -44.5 -95.5t-119.5 -34.5z" />
    <glyph glyph-name="uni0162" unicode="&#x162;" horiz-adv-x="500" 
d="M271 0h-6v-70q14 23 54 23q33 0 54.5 -23t21.5 -59q0 -38 -23.5 -62t-63.5 -24q-33 0 -54.5 19t-23.5 49h29q2 -18 15 -29.5t35 -11.5q26 0 40.5 15t14.5 43q0 26 -13.5 42t-39.5 16q-34 0 -50 -28h-25v100h-8v658h-219v42h482v-42h-220v-658z" />
    <glyph glyph-name="uni0163" unicode="&#x163;" horiz-adv-x="336" 
d="M293 -47q33 0 54.5 -23t21.5 -59q0 -38 -23.5 -62t-63.5 -24q-33 0 -54.5 19t-23.5 49h29q2 -18 15 -29.5t35 -11.5q26 0 40.5 15t14.5 43q0 26 -13.5 42t-39.5 16q-34 0 -50 -28h-25v95q-44 5 -70 37.5t-26 111.5v269h-93v37h93v157h41v-157h136v-37h-136v-263
q0 -70 22.5 -93t64.5 -23q40 0 64 7v-39q-24 -8 -67 -8v-64q14 23 54 23z" />
    <glyph glyph-name="Tcaron" unicode="&#x164;" horiz-adv-x="500" 
d="M249 739l-124 110l24 23l100 -90l100 90l24 -23zM228 0v658h-219v42h482v-42h-220v-658h-43z" />
    <glyph glyph-name="tcaron" unicode="&#x165;" horiz-adv-x="358" 
d="M256 620q-19 0 -31 12.5t-12 31.5t13 32.5t34 13.5q31 0 50.5 -27t19.5 -70q0 -46 -23.5 -71.5t-61.5 -25.5q-10 0 -15 2v25q7 -1 15 -1q22 0 36.5 14t16.5 37q3 26 -8 44q-11 -17 -34 -17zM155 150q0 -70 22.5 -93t64.5 -23q40 0 64 7v-39q-26 -8 -70 -8q-26 0 -44.5 5
t-38 19t-29.5 46t-10 80v269h-93v37h93v157h41v-157h136v-37h-136v-263z" />
    <glyph glyph-name="Tbar" unicode="&#x166;" horiz-adv-x="500" 
d="M491 658h-220v-172h152v-35h-152v-451h-43v451h-152v35h152v172h-219v42h482v-42z" />
    <glyph glyph-name="tbar" unicode="&#x167;" horiz-adv-x="337" 
d="M243 34q40 0 64 7v-39q-26 -8 -70 -8q-26 0 -44.5 5t-38 19t-29.5 46t-10 80v82h-94v33h94v154h-93v37h93v157h41v-157h136v-37h-136v-154h142v-33h-142v-76q0 -70 22.5 -93t64.5 -23z" />
    <glyph glyph-name="Utilde" unicode="&#x168;" horiz-adv-x="625" 
d="M391 762q-31 -1 -81 29.5t-72 30.5q-46 0 -78 -52l-23 19q41 68 101 68q26 0 77.5 -30t73.5 -30q45 0 76 51l23 -19q-38 -67 -97 -67zM313 -14q-113 0 -179 62.5t-66 177.5v474h43v-472q0 -97 54 -149t148 -52q93 0 147 52t54 149v472h44v-474q0 -114 -66 -177t-179 -63z
" />
    <glyph glyph-name="utilde" unicode="&#x169;" horiz-adv-x="563" 
d="M360 551q-28 0 -76 29t-71 29q-45 0 -77 -50l-21 23q39 65 99 65q24 0 74 -29.5t70 -29.5q42 0 73 49l22 -22q-37 -64 -93 -64zM260 -12q-83 0 -131.5 50t-48.5 146v266h42v-257q0 -76 36.5 -121t111.5 -45q81 0 123.5 59.5t42.5 133.5v230h42v-450h-42v122
q-16 -57 -63 -95.5t-113 -38.5z" />
    <glyph glyph-name="Umacron" unicode="&#x16a;" horiz-adv-x="625" 
d="M144 775v37h338v-37h-338zM313 -14q-113 0 -179 62.5t-66 177.5v474h43v-472q0 -97 54 -149t148 -52q93 0 147 52t54 149v472h44v-474q0 -114 -66 -177t-179 -63z" />
    <glyph glyph-name="umacron" unicode="&#x16b;" horiz-adv-x="563" 
d="M125 554v36h317v-36h-317zM260 -12q-83 0 -131.5 50t-48.5 146v266h42v-257q0 -76 36.5 -121t111.5 -45q81 0 123.5 59.5t42.5 133.5v230h42v-450h-42v122q-16 -57 -63 -95.5t-113 -38.5z" />
    <glyph glyph-name="Ubreve" unicode="&#x16c;" horiz-adv-x="625" 
d="M313 738q-62 0 -106.5 33t-50.5 89h38q5 -42 38.5 -65t80.5 -23t81 23t39 65h37q-5 -56 -49.5 -89t-107.5 -33zM313 -14q-113 0 -179 62.5t-66 177.5v474h43v-472q0 -97 54 -149t148 -52q93 0 147 52t54 149v472h44v-474q0 -114 -66 -177t-179 -63z" />
    <glyph glyph-name="ubreve" unicode="&#x16d;" horiz-adv-x="563" 
d="M284 509q-65 0 -109.5 37.5t-50.5 103.5h39q4 -50 38.5 -78t82.5 -28t82.5 28t38.5 78h38q-5 -66 -49.5 -103.5t-109.5 -37.5zM260 -12q-83 0 -131.5 50t-48.5 146v266h42v-257q0 -76 36.5 -121t111.5 -45q81 0 123.5 59.5t42.5 133.5v230h42v-450h-42v122
q-16 -57 -63 -95.5t-113 -38.5z" />
    <glyph glyph-name="Uring" unicode="&#x16e;" horiz-adv-x="625" 
d="M313 673q-48 0 -81.5 33.5t-33.5 80.5t33.5 80t81.5 33t81.5 -33t33.5 -80t-33.5 -80.5t-81.5 -33.5zM313 704q35 0 58.5 24t23.5 59t-23.5 58.5t-58.5 23.5t-58.5 -23.5t-23.5 -58.5t23.5 -59t58.5 -24zM313 -14q-113 0 -179 62.5t-66 177.5v474h43v-472q0 -97 54 -149
t148 -52q93 0 147 52t54 149v472h44v-474q0 -114 -66 -177t-179 -63z" />
    <glyph glyph-name="uring" unicode="&#x16f;" horiz-adv-x="563" 
d="M284 492q-45 0 -76 30t-31 77t31 77t76 30t76 -30t31 -77t-31 -77t-76 -30zM284 520q33 0 55 22t22 57t-22 57t-55 22t-55 -22t-22 -57t22 -57t55 -22zM260 -12q-83 0 -131.5 50t-48.5 146v266h42v-257q0 -76 36.5 -121t111.5 -45q81 0 123.5 59.5t42.5 133.5v230h42
v-450h-42v122q-16 -57 -63 -95.5t-113 -38.5z" />
    <glyph glyph-name="Uhungarumlaut" unicode="&#x170;" horiz-adv-x="625" 
d="M214 737l-28 13l132 131l38 -16zM403 736l-28 14l133 131l37 -17zM313 -14q-113 0 -179 62.5t-66 177.5v474h43v-472q0 -97 54 -149t148 -52q93 0 147 52t54 149v472h44v-474q0 -114 -66 -177t-179 -63z" />
    <glyph glyph-name="uhungarumlaut" unicode="&#x171;" horiz-adv-x="563" 
d="M188 508l-27 14l125 166l38 -19zM368 508l-27 14l125 166l38 -19zM260 -12q-83 0 -131.5 50t-48.5 146v266h42v-257q0 -76 36.5 -121t111.5 -45q81 0 123.5 59.5t42.5 133.5v230h42v-450h-42v122q-16 -57 -63 -95.5t-113 -38.5z" />
    <glyph glyph-name="Uogonek" unicode="&#x172;" horiz-adv-x="625" 
d="M514 700h44v-474q0 -90 -41.5 -149t-116.5 -80q-45 -17 -68 -46t-23 -60t18 -49.5t51 -18.5q30 0 68 15l-2 -35q-39 -15 -76 -15q-48 0 -73.5 25.5t-25.5 65.5q0 64 71 108q-9 -1 -27 -1q-113 0 -179 62.5t-66 177.5v474h43v-472q0 -97 54 -149t148 -52q93 0 147 52
t54 149v472z" />
    <glyph glyph-name="uogonek" unicode="&#x173;" horiz-adv-x="563" 
d="M449 -177q31 0 68 15l-2 -35q-39 -15 -76 -15q-48 0 -73.5 25.5t-25.5 65.5q0 76 95 121h1v122q-16 -57 -63 -95.5t-113 -38.5q-83 0 -131.5 50t-48.5 146v266h42v-257q0 -76 36.5 -121t111.5 -45q81 0 123.5 59.5t42.5 133.5v230h42v-450q-49 -17 -73.5 -46.5
t-24.5 -62.5q0 -31 18 -49.5t51 -18.5z" />
    <glyph glyph-name="Wcircumflex" unicode="&#x174;" horiz-adv-x="928" 
d="M463 873l124 -110l-24 -23l-100 90l-100 -90l-24 23zM242 0l-234 700h46l207 -632l185 632h37l184 -632l208 632h46l-235 -700h-36l-186 628l-185 -628h-37z" />
    <glyph glyph-name="wcircumflex" unicode="&#x175;" horiz-adv-x="707" 
d="M354 679l165 -146l-24 -27l-141 126l-140 -126l-25 27zM179 0l-166 450h45l139 -392l134 392h45l133 -392l140 392h46l-167 -450h-38l-137 397l-136 -397h-38z" />
    <glyph glyph-name="Ycircumflex" unicode="&#x176;" horiz-adv-x="533" 
d="M278 830l-100 -90l-24 23l124 110l124 -110l-24 -23zM490 700h48l-362 -700h-49l143 275l-270 425h51l242 -380z" />
    <glyph glyph-name="ycircumflex" unicode="&#x177;" horiz-adv-x="568" 
d="M282 679l165 -146l-24 -27l-141 126l-140 -126l-25 27zM440 450h43v-472q0 -114 -66 -166q-51 -42 -137 -42q-95 0 -149 46q-51 43 -51 115h43q1 -53 39 -88t118 -35q160 0 160 172v139q-19 -56 -65 -93t-114 -37q-181 0 -181 206v255h42v-248q0 -86 33.5 -129.5
t116.5 -43.5q80 0 124 59t44 133v229z" />
    <glyph glyph-name="Ydieresis" unicode="&#x178;" horiz-adv-x="533" 
d="M164 766q-20 0 -33.5 13.5t-13.5 33.5q0 21 13.5 35t33.5 14t34.5 -14t14.5 -35q0 -20 -14.5 -33.5t-34.5 -13.5zM396 766q-20 0 -34 13.5t-14 33.5q0 21 14 35t34 14t34 -14t14 -35q0 -20 -14 -33.5t-34 -13.5zM490 700h48l-362 -700h-49l143 275l-270 425h51l242 -380z
" />
    <glyph glyph-name="Zacute" unicode="&#x179;" horiz-adv-x="557" 
d="M165 730l-17 32l239 126l17 -32zM28 0l406 659h-380v41h456l-405 -659h417v-41h-494z" />
    <glyph glyph-name="zacute" unicode="&#x17a;" horiz-adv-x="433" 
d="M92 514l-16 35l257 129l16 -34zM28 0l306 412h-290v38h366l-307 -412h306v-38h-381z" />
    <glyph glyph-name="Zdotaccent" unicode="&#x17b;" horiz-adv-x="557" 
d="M274 765q-21 0 -34 13.5t-13 34.5t13 34.5t34 13.5t35 -14t14 -34q0 -21 -14 -34.5t-35 -13.5zM28 0l406 659h-380v41h456l-405 -659h417v-41h-494z" />
    <glyph glyph-name="zdotaccent" unicode="&#x17c;" horiz-adv-x="433" 
d="M216 553q-21 0 -35 14.5t-14 35.5t14 35t35 14q22 0 36 -14t14 -35t-14 -35.5t-36 -14.5zM28 0l306 412h-290v38h366l-307 -412h306v-38h-381z" />
    <glyph glyph-name="Zcaron" unicode="&#x17d;" horiz-adv-x="557" 
d="M274 739l-124 110l24 23l100 -90l100 90l24 -23zM28 0l406 659h-380v41h456l-405 -659h417v-41h-494z" />
    <glyph glyph-name="zcaron" unicode="&#x17e;" horiz-adv-x="433" 
d="M216 513l-165 146l25 27l140 -126l141 126l24 -27zM28 0l306 412h-290v38h366l-307 -412h306v-38h-381z" />
    <glyph glyph-name="florin" unicode="&#x192;" horiz-adv-x="427" 
d="M373 651q-42 0 -70 -24.5t-40 -92.5l-18 -103h146l-7 -38h-146l-83 -467q-26 -152 -149 -152q-38 0 -65 11l6 38q24 -10 57 -10q41 0 69 24t40 89l83 467h-104l7 38h104l18 104q27 155 152 155q37 0 62 -11l-6 -38q-24 10 -56 10z" />
    <glyph glyph-name="AEacute" unicode="&#x1fc;" horiz-adv-x="796" 
d="M679 856l-239 -126l-17 32l239 126zM724 659h-292v-291h292v-40h-292v-287h292v-41h-335v145h-251l-73 -145h-47l356 700h350v-41zM158 185h231v459z" />
    <glyph glyph-name="aeacute" unicode="&#x1fd;" horiz-adv-x="886" 
d="M581 644l-257 -130l-16 35l257 129zM844 255q0 -24 -2 -35h-380q1 -88 50 -141t129 -53q56 0 97 27t57 73h42q-14 -62 -68 -100.5t-128 -38.5q-70 0 -122.5 35t-77.5 96q-55 -130 -220 -130q-78 0 -125.5 34.5t-47.5 92.5q0 70 51 105q55 35 179 35h144v37
q0 63 -40.5 98.5t-117.5 35.5q-68 0 -111 -33t-47 -93h-42q3 74 57.5 118t142.5 44q153 0 188 -106q27 50 75.5 78t110.5 28q89 0 147.5 -59t58.5 -148zM463 255h339q0 75 -46 123t-119 48q-76 0 -123.5 -46t-50.5 -125zM422 192v6q-1 8 -1 22h-167q-162 0 -162 -103
q0 -45 38 -69t107 -24q80 0 132.5 46t52.5 122z" />
    <glyph glyph-name="Oslashacute" unicode="&#x1fe;" horiz-adv-x="803" 
d="M532 856l-239 -126l-17 32l239 126zM558 681q95 -43 149 -133t54 -198q0 -150 -98.5 -257t-260.5 -107q-71 0 -132 23l-32 -75l-33 14l32 75q-91 44 -142.5 132.5t-51.5 194.5q0 150 98.5 257t260.5 107q64 0 123 -19l30 70l33 -14zM88 350q0 -92 44 -170t122 -119
l254 595q-49 17 -106 17q-142 0 -228 -95t-86 -228zM402 27q142 0 228 95t85 228q1 95 -45 174.5t-128 118.5l-256 -596q54 -20 116 -20z" />
    <glyph glyph-name="oslashacute" unicode="&#x1ff;" horiz-adv-x="543" 
d="M402 625l-257 -130l-16 35l257 129zM386 434q54 -30 84 -85t30 -123q0 -101 -63 -169.5t-166 -68.5q-37 0 -73 11l-25 -59l-29 12l25 58q-59 28 -92.5 86t-33.5 130q0 100 63 168.5t165 68.5q48 0 87 -15l17 40l29 -12zM85 225q0 -59 26.5 -106.5t73.5 -71.5l157 363
q-32 13 -71 13q-84 0 -135 -57t-51 -141zM271 28q84 0 135.5 57t51.5 141q0 54 -23 99.5t-65 70.5l-156 -360q29 -8 57 -8z" />
    <glyph glyph-name="Scommaaccent" unicode="&#x218;" horiz-adv-x="566" 
d="M293 -14q-114 0 -181 61t-67 164h44q0 -84 55.5 -134.5t147.5 -50.5q85 0 132.5 40t47.5 111q0 114 -130 145l-120 31q-155 34 -155 180q0 81 59 131t155 50q101 0 160 -54.5t59 -150.5h-44q0 78 -47 122t-129 44q-76 0 -122.5 -39t-46.5 -102q0 -115 137 -146l120 -30
q72 -17 110 -63t38 -118q0 -88 -59.5 -139.5t-163.5 -51.5zM254 -201v24q60 0 64 52q3 18 -1 29q-8 -18 -30 -18q-19 0 -31 11.5t-12 29.5q0 19 12.5 31t32.5 12q28 0 44.5 -20.5t16.5 -54.5q0 -46 -25.5 -71t-70.5 -25z" />
    <glyph glyph-name="scommaaccent" unicode="&#x219;" horiz-adv-x="435" 
d="M223 -12q-84 0 -132 41t-48 100h42q0 -44 36 -74t102 -30q55 0 88 23.5t33 65.5q0 29 -16 52t-47 30l-131 32q-95 24 -95 113q0 55 45 88t116 33q76 0 119.5 -34t43.5 -93h-42q-1 42 -34 67t-91 25q-50 0 -82.5 -22t-32.5 -64q0 -60 75 -78l123 -31q48 -12 70 -43.5
t22 -70.5q0 -61 -44.5 -95.5t-119.5 -34.5zM176 -201v24q60 0 64 52q3 18 -1 29q-8 -18 -30 -18q-19 0 -31 11.5t-12 29.5q0 19 12.5 31t32.5 12q28 0 44.5 -20.5t16.5 -54.5q0 -46 -25.5 -71t-70.5 -25z" />
    <glyph glyph-name="uni021A" unicode="&#x21a;" horiz-adv-x="500" 
d="M228 0v658h-219v42h482v-42h-220v-658h-43zM213 -201v24q60 0 64 52q3 18 -1 29q-8 -18 -30 -18q-19 0 -31 11.5t-12 29.5q0 19 12.5 31t32.5 12q28 0 44.5 -20.5t16.5 -54.5q0 -46 -25.5 -71t-70.5 -25z" />
    <glyph glyph-name="uni021B" unicode="&#x21b;" horiz-adv-x="336" 
d="M242 34q40 0 64 7v-39q-26 -8 -70 -8q-26 0 -44.5 5t-38 19t-29.5 46t-10 80v269h-93v37h93v157h41v-157h136v-37h-136v-263q0 -70 22.5 -93t64.5 -23zM222 -30q28 0 44.5 -20.5t16.5 -54.5q0 -46 -25.5 -71t-70.5 -25v24q60 0 64 52q3 18 -1 29q-8 -18 -30 -18
q-19 0 -31 11.5t-12 29.5q0 19 12.5 31t32.5 12z" />
    <glyph glyph-name="uni0237" unicode="&#x237;" horiz-adv-x="215" 
d="M25 -224q-39 0 -64 13v41q26 -13 58 -13t50.5 24t18.5 67v542h42v-550q0 -58 -28 -91t-77 -33z" />
    <glyph glyph-name="uni0243" unicode="&#x243;" horiz-adv-x="577" 
d="M522 179q0 -76 -47.5 -123t-129.5 -55v-99h-36v98h-83v-98h-35v98h-101v682h101v98h35v-98h83v98h36v-100q80 -8 126 -54t46 -120q0 -68 -36 -111t-95 -52q59 -10 97.5 -54t38.5 -110zM312 642h-178v-280h197q61 0 101.5 38.5t40.5 101.5q0 66 -43.5 103t-117.5 37z
M316 40q74 0 118 37.5t44 104.5q0 63 -41 102t-102 39h-201v-283h182z" />
    <glyph glyph-name="uni02BC" unicode="&#x2bc;" horiz-adv-x="261" 
d="M124 742q31 0 52.5 -27.5t21.5 -71.5q0 -50 -26.5 -79t-69.5 -29q-12 0 -23 3v27q14 -2 21 -2q24 0 39.5 14.5t17.5 38.5q5 23 -4 43q-10 -13 -32 -13q-20 0 -33 13t-13 34t13 35t36 14z" />
    <glyph glyph-name="circumflex" unicode="&#x2c6;" horiz-adv-x="600" 
d="M186 679l165 -146l-24 -27l-141 126l-140 -126l-25 27z" />
    <glyph glyph-name="caron" unicode="&#x2c7;" horiz-adv-x="600" 
d="M186 513l-165 146l25 27l140 -126l141 126l24 -27z" />
    <glyph glyph-name="breve" unicode="&#x2d8;" horiz-adv-x="600" 
d="M239 509q-65 0 -109.5 37.5t-50.5 103.5h39q4 -50 38.5 -78t82.5 -28t82.5 28t38.5 78h38q-5 -66 -49.5 -103.5t-109.5 -37.5z" />
    <glyph glyph-name="dotaccent" unicode="&#x2d9;" horiz-adv-x="600" 
d="M300 553q-21 0 -35 14.5t-14 35.5t14 35t35 14q22 0 36 -14t14 -35t-14 -35.5t-36 -14.5z" />
    <glyph glyph-name="ring" unicode="&#x2da;" horiz-adv-x="600" 
d="M164 485q-45 0 -76 30t-31 77t31 77t76 30t76 -30t31 -77t-31 -77t-76 -30zM164 513q33 0 55 22t22 57t-22 57t-55 22t-55 -22t-22 -57t22 -57t55 -22z" />
    <glyph glyph-name="ogonek" unicode="&#x2db;" horiz-adv-x="600" 
d="M125 -212q-48 0 -73.5 25.5t-25.5 65.5q0 76 95 121h43q-49 -17 -73.5 -46.5t-24.5 -62.5q0 -31 18 -49.5t51 -18.5q31 0 68 15l-2 -35q-39 -15 -76 -15z" />
    <glyph glyph-name="tilde" unicode="&#x2dc;" horiz-adv-x="600" 
d="M289 551q-28 0 -76 29t-71 29q-45 0 -77 -50l-21 23q39 65 99 65q23 0 73.5 -29.5t70.5 -29.5q42 0 73 49l22 -22q-37 -64 -93 -64z" />
    <glyph glyph-name="hungarumlaut" unicode="&#x2dd;" horiz-adv-x="600" 
d="M87 508l-27 14l125 166l38 -19zM267 508l-27 14l125 166l38 -19z" />
    <glyph glyph-name="gravecomb" unicode="&#x300;" horiz-adv-x="0" 
d="M-35 514l-257 130l16 34l257 -129z" />
    <glyph glyph-name="acutecomb" unicode="&#x301;" horiz-adv-x="0" 
d="M-261 514l-16 35l257 129l16 -34z" />
    <glyph glyph-name="uni0302" unicode="&#x302;" horiz-adv-x="0" 
d="M-187 679l165 -146l-24 -27l-141 126l-140 -126l-25 27z" />
    <glyph glyph-name="tildecomb" unicode="&#x303;" horiz-adv-x="0" 
d="M-127 551q-28 0 -76 29t-71 29q-45 0 -77 -50l-21 23q39 65 99 65q23 0 73 -29.5t71 -29.5q42 0 73 49l22 -22q-37 -64 -93 -64z" />
    <glyph glyph-name="uni0304" unicode="&#x304;" horiz-adv-x="0" 
d="M-402 554v36h317v-36h-317z" />
    <glyph glyph-name="uni0306" unicode="&#x306;" horiz-adv-x="0" 
d="M-240 509q-65 0 -109.5 37.5t-50.5 103.5h39q4 -50 38.5 -78t82.5 -28t82.5 28t38.5 78h38q-5 -66 -49.5 -103.5t-109.5 -37.5z" />
    <glyph glyph-name="uni0307" unicode="&#x307;" horiz-adv-x="0" 
d="M-93 553q-21 0 -35 14.5t-14 35.5t14 35t35 14q22 0 36 -14t14 -35t-14 -35.5t-36 -14.5z" />
    <glyph glyph-name="uni0308" unicode="&#x308;" horiz-adv-x="0" 
d="M-319 554q-20 0 -33.5 13.5t-13.5 33.5q0 21 13.5 35t33.5 14q22 0 35.5 -14t13.5 -35q0 -20 -14 -33.5t-35 -13.5zM-125 554q-20 0 -33.5 13.5t-13.5 33.5q0 21 13.5 35t33.5 14q21 0 35 -14t14 -35q0 -20 -14 -33.5t-35 -13.5z" />
    <glyph glyph-name="uni030A" unicode="&#x30a;" horiz-adv-x="0" 
d="M-163 485q-45 0 -76 30t-31 77t31 77t76 30t76 -30t31 -77t-31 -77t-76 -30zM-163 513q33 0 55 22t22 57t-22 57t-55 22t-55 -22t-22 -57t22 -57t55 -22z" />
    <glyph glyph-name="uni030B" unicode="&#x30b;" horiz-adv-x="0" 
d="M-330 508l-27 14l125 166l38 -19zM-150 508l-27 14l125 166l38 -19z" />
    <glyph glyph-name="uni030C" unicode="&#x30c;" horiz-adv-x="0" 
d="M-187 513l-165 146l25 27l140 -126l141 126l24 -27z" />
    <glyph glyph-name="uni0312" unicode="&#x312;" horiz-adv-x="0" 
d="M-396 690v-24q-29 0 -45.5 -12t-18.5 -32q-5 -18 0 -31q7 19 31 19q19 0 30.5 -12t11.5 -30t-13 -30.5t-33 -12.5q-28 0 -44 21.5t-16 55.5q0 41 25.5 64.5t71.5 23.5z" />
    <glyph glyph-name="uni0326" unicode="&#x326;" horiz-adv-x="0" 
d="M-133 -201v24q60 0 64 52q3 18 -1 29q-8 -18 -30 -18q-19 0 -31 11.5t-12 29.5q0 19 12.5 31t32.5 12q28 0 44.5 -20.5t16.5 -54.5q0 -46 -25.5 -71t-70.5 -25z" />
    <glyph glyph-name="uni0327" unicode="&#x327;" horiz-adv-x="0" 
d="M-118 -215q-33 0 -54.5 19t-23.5 49h29q2 -18 15 -29.5t35 -11.5q26 0 40.5 15t14.5 43q0 26 -13.5 42t-39.5 16q-34 0 -50 -28h-25v100h29v-70q14 23 54 23q33 0 54.5 -23t21.5 -59q0 -38 -23.5 -62t-63.5 -24z" />
    <glyph glyph-name="uni0328" unicode="&#x328;" horiz-adv-x="0" 
d="M-132 -212q-48 0 -73.5 25.5t-25.5 65.5q0 76 95 121h43q-49 -17 -73.5 -46.5t-24.5 -62.5q0 -31 18 -49.5t51 -18.5q30 0 68 15l-2 -35q-39 -15 -76 -15z" />
    <glyph glyph-name="uni0394" unicode="&#x394;" horiz-adv-x="562" 
d="M23 0l240 700h36l241 -700h-517zM83 41h396l-198 593z" />
    <glyph glyph-name="uni03A9" unicode="&#x3a9;" horiz-adv-x="713" 
d="M68 0v41h218v48q-107 26 -175 113t-68 196q0 136 85 225.5t228 89.5q144 0 229 -89.5t85 -225.5q0 -109 -68 -196t-175 -113v-48h218v-41h-255v117q104 17 170 98t66 185q0 118 -72.5 195t-197.5 77t-197.5 -77t-72.5 -195q0 -104 66.5 -185t170.5 -98v-117h-255z" />
    <glyph glyph-name="uni03BC" unicode="&#x3bc;" horiz-adv-x="568" 
d="M441 450h42v-450h-42v122q-16 -57 -63 -95.5t-113 -38.5q-90 0 -138 58v-264h-42v668h42v-257q0 -76 36.5 -121t111.5 -45q81 0 123.5 59.5t42.5 133.5v230z" />
    <glyph glyph-name="pi" unicode="&#x3c0;" horiz-adv-x="574" 
d="M133 0v392h-48v39h404v-39h-47v-392h-42v392h-225v-392h-42z" />
    <glyph glyph-name="uni0401" unicode="&#x401;" horiz-adv-x="548" 
d="M174 766q-20 0 -33.5 13.5t-13.5 33.5q0 21 13.5 35t33.5 14t34.5 -14t14.5 -35q0 -20 -14.5 -33.5t-34.5 -13.5zM406 766q-20 0 -34 13.5t-14 33.5q0 21 14 35t34 14t34 -14t14 -35q0 -20 -14 -33.5t-34 -13.5zM90 0v700h385v-41h-341v-291h341v-40h-341v-287h341v-41
h-385z" />
    <glyph glyph-name="uni0402" unicode="&#x402;" horiz-adv-x="692" 
d="M436 465q93 0 153 -60t60 -177q0 -116 -58.5 -178.5t-168.5 -62.5q-36 0 -67 8v39q28 -7 60 -7q97 0 143.5 54.5t46.5 144.5q0 96 -47 147t-127 51q-97 0 -160 -45v-379h-43v658h-219v42h482v-42h-220v-237q70 44 165 44z" />
    <glyph glyph-name="uni0403" unicode="&#x403;" horiz-adv-x="469" 
d="M179 730l-17 32l239 126l17 -32zM90 700h370v-42h-326v-658h-44v700z" />
    <glyph glyph-name="uni0404" unicode="&#x404;" horiz-adv-x="763" 
d="M397 27q102 0 175 48t99 132h47q-29 -102 -115 -161.5t-206 -59.5q-154 0 -254 102.5t-100 261.5t100 261.5t254 102.5q119 0 205.5 -59t115.5 -161h-47q-26 83 -99 131t-175 48q-130 0 -215.5 -83.5t-92.5 -218.5h407v-41h-407q7 -135 92.5 -219t215.5 -84z" />
    <glyph glyph-name="uni0405" unicode="&#x405;" horiz-adv-x="566" 
d="M293 -14q-114 0 -181 61t-67 164h44q0 -84 55.5 -134.5t147.5 -50.5q85 0 132.5 40t47.5 111q0 114 -130 145l-120 31q-155 34 -155 180q0 81 59 131t155 50q101 0 160 -54.5t59 -150.5h-44q0 78 -47 122t-129 44q-76 0 -122.5 -39t-46.5 -102q0 -115 137 -146l120 -30
q72 -17 110 -63t38 -118q0 -88 -59.5 -139.5t-163.5 -51.5z" />
    <glyph glyph-name="uni0406" unicode="&#x406;" horiz-adv-x="224" 
d="M90 0v700h44v-700h-44z" />
    <glyph glyph-name="uni0407" unicode="&#x407;" horiz-adv-x="224" 
d="M56 767q-20 0 -33 13t-13 33t13 33.5t33 13.5t33.5 -13.5t13.5 -33.5t-13.5 -33t-33.5 -13zM167 767q-20 0 -33 13t-13 33t13 33.5t33 13.5t33.5 -13.5t13.5 -33.5t-13.5 -33t-33.5 -13zM90 0v700h44v-700h-44z" />
    <glyph glyph-name="uni0408" unicode="&#x408;" horiz-adv-x="537" 
d="M254 -14q-99 0 -162.5 59t-63.5 166h43q0 -88 52 -136t131 -48q77 0 124.5 50.5t47.5 140.5v482h43v-482q0 -108 -59 -170t-156 -62z" />
    <glyph glyph-name="uni0409" unicode="&#x409;" horiz-adv-x="1017" 
d="M794 387q77 0 129.5 -56t52.5 -138q0 -80 -54 -136.5t-132 -56.5h-246v660h-338v-421q0 -134 -38.5 -187.5t-107.5 -53.5h-36v42h28q56 0 83.5 44.5t27.5 155.5v460h425v-313h206zM790 41q59 0 100.5 44.5t41.5 107.5t-40.5 108t-97.5 45h-206v-305h202z" />
    <glyph glyph-name="uni040A" unicode="&#x40a;" horiz-adv-x="1005" 
d="M782 387q77 0 129.5 -56t52.5 -138q0 -80 -54 -136.5t-132 -56.5h-246v328h-398v-328h-44v700h44v-332h398v332h44v-313h206zM778 41q59 0 100.5 44.5t41.5 107.5t-40.5 108t-97.5 45h-206v-305h202z" />
    <glyph glyph-name="uni040B" unicode="&#x40b;" horiz-adv-x="734" 
d="M443 454q211 0 211 -223v-231h-43v222q0 93 -42 142t-136 49q-100 0 -162 -49v-364h-43v658h-219v42h482v-42h-220v-252q66 48 172 48z" />
    <glyph glyph-name="uni040C" unicode="&#x40c;" horiz-adv-x="576" 
d="M441 856l-239 -126l-17 32l239 126zM197 360l358 -360h-60l-361 367v-367h-44v700h44v-314h48q67 0 109 77l88 151q26 46 52 66.5t63 20.5h46v-41h-40q-28 0 -45.5 -15.5t-42.5 -58.5l-89 -150q-43 -76 -105 -76h-21z" />
    <glyph glyph-name="uni040E" unicode="&#x40e;" horiz-adv-x="533" 
d="M280 738q-62 0 -106.5 33t-50.5 89h38q5 -42 38.5 -65t80.5 -23t81 23t39 65h37q-5 -56 -49.5 -89t-107.5 -33zM490 700h48l-362 -700h-49l143 275l-270 425h51l242 -380z" />
    <glyph glyph-name="uni040F" unicode="&#x40f;" horiz-adv-x="629" 
d="M539 700v-700h-202v-120h-44v120h-203v700h44v-659h362v659h43z" />
    <glyph glyph-name="uni0410" unicode="&#x410;" horiz-adv-x="564" 
d="M495 0l-48 144h-330l-47 -144h-47l239 700h41l239 -700h-47zM131 185h303l-152 458z" />
    <glyph glyph-name="uni0411" unicode="&#x411;" horiz-adv-x="563" 
d="M90 0v700h376v-41h-332v-272h206q77 0 129.5 -56t52.5 -138q0 -80 -54 -136.5t-132 -56.5h-246zM134 41h202q59 0 100.5 44.5t41.5 107.5t-40.5 108t-97.5 45h-206v-305z" />
    <glyph glyph-name="uni0412" unicode="&#x412;" horiz-adv-x="577" 
d="M386 353q59 -10 97.5 -55.5t38.5 -113.5q0 -85 -56 -134.5t-150 -49.5h-226v700h223q93 0 148.5 -48t55.5 -132q0 -69 -35.5 -112.5t-95.5 -54.5zM312 660h-178v-288h197q61 0 101.5 39.5t40.5 104.5q0 68 -43.5 106t-117.5 38zM316 40q74 0 118 39t44 108
q0 64 -41 104.5t-102 40.5h-201v-292h182z" />
    <glyph glyph-name="uni0413" unicode="&#x413;" horiz-adv-x="469" 
d="M90 700h370v-42h-326v-658h-44v700z" />
    <glyph glyph-name="uni0414" unicode="&#x414;" horiz-adv-x="617" 
d="M525 41h28v-161h-42v120h-447v-120h-44v161h25q45 0 66.5 44t21.5 155v460h392v-659zM132 41h349v618h-303v-418q0 -142 -46 -200z" />
    <glyph glyph-name="uni0415" unicode="&#x415;" horiz-adv-x="548" 
d="M90 0v700h385v-41h-341v-291h341v-40h-341v-287h341v-41h-385z" />
    <glyph glyph-name="uni0416" unicode="&#x416;" horiz-adv-x="928" 
d="M549 360l358 -360h-60l-361 367v-367h-44v367l-361 -367h-60l358 360h-21q-62 0 -105 76l-89 150q-25 43 -42.5 58.5t-45.5 15.5h-40v41h46q37 0 63 -20.5t52 -66.5l88 -151q42 -77 109 -77h48v314h44v-314h48q67 0 109 77l88 151q26 46 52 66.5t63 20.5h46v-41h-40
q-28 0 -45.5 -15.5t-42.5 -58.5l-89 -150q-43 -76 -105 -76h-21z" />
    <glyph glyph-name="uni0417" unicode="&#x417;" horiz-adv-x="547" 
d="M91 193q0 -75 50 -120.5t133 -45.5t132 44.5t49 115.5t-46.5 113t-129.5 42h-57v40h57q77 0 121 40.5t44 104.5q0 65 -45.5 105.5t-121.5 40.5q-82 0 -131.5 -42t-49.5 -112h-44q0 87 61.5 141t162.5 54q95 0 153.5 -50t58.5 -135q0 -63 -37 -108.5t-102 -56.5
q69 -10 109.5 -58.5t40.5 -118.5q0 -90 -61.5 -145.5t-163.5 -55.5t-164 56.5t-62 150.5h43z" />
    <glyph glyph-name="uni0418" unicode="&#x418;" horiz-adv-x="664" 
d="M531 590l-397 -546v-44h-44v700h44v-589l397 545v44h43v-700h-43v590z" />
    <glyph glyph-name="uni0419" unicode="&#x419;" horiz-adv-x="664" 
d="M335 718q-64 0 -109 27t-50 75h38q5 -33 39 -51t82 -18t82.5 18t39.5 51h38q-6 -48 -50.5 -75t-109.5 -27zM531 590l-397 -546v-44h-44v700h44v-589l397 545v44h43v-700h-43v590z" />
    <glyph glyph-name="uni041A" unicode="&#x41a;" horiz-adv-x="576" 
d="M197 360l358 -360h-60l-361 367v-367h-44v700h44v-314h48q67 0 109 77l88 151q26 46 52 66.5t63 20.5h46v-41h-40q-28 0 -45.5 -15.5t-42.5 -58.5l-89 -150q-43 -76 -105 -76h-21z" />
    <glyph glyph-name="uni041B" unicode="&#x41b;" horiz-adv-x="677" 
d="M24 40h28q56 0 83.5 44.5t27.5 155.5v460h424v-700h-43v660h-338v-421q0 -134 -38.5 -187.5t-107.5 -53.5h-36v42z" />
    <glyph glyph-name="uni041C" unicode="&#x41c;" horiz-adv-x="813" 
d="M90 0v700h43l273 -641l273 641h44v-700h-43v606l-255 -606h-37l-255 607v-607h-43z" />
    <glyph glyph-name="uni041D" unicode="&#x41d;" horiz-adv-x="665" 
d="M90 0v700h44v-332h398v332h43v-700h-43v328h-398v-328h-44z" />
    <glyph glyph-name="uni041E" unicode="&#x41e;" horiz-adv-x="803" 
d="M402 -14q-162 0 -260.5 107t-98.5 257t98.5 257t260.5 107t260.5 -107t98.5 -257t-98.5 -257t-260.5 -107zM402 27q142 0 228 95t85 228q1 133 -85 228t-228 95t-228 -95t-86 -228t86 -228t228 -95z" />
    <glyph glyph-name="uni041F" unicode="&#x41f;" horiz-adv-x="659" 
d="M134 659v-659h-44v700h479v-700h-44v659h-391z" />
    <glyph glyph-name="uni0420" unicode="&#x420;" horiz-adv-x="574" 
d="M327 700q98 0 162 -67t64 -168q0 -102 -64 -168.5t-162 -66.5h-193v-230h-44v700h237zM325 270q79 0 131.5 55.5t52.5 139.5q0 85 -52 139.5t-132 54.5h-191v-389h191z" />
    <glyph glyph-name="uni0421" unicode="&#x421;" horiz-adv-x="774" 
d="M401 -14q-162 0 -260 105.5t-98 258.5q0 154 98 259t260 105q132 0 215.5 -61.5t111.5 -163.5h-47q-28 85 -97.5 134.5t-181.5 49.5q-143 0 -228.5 -93t-85.5 -230t85.5 -230t228.5 -93q112 0 181.5 49.5t97.5 134.5h47q-28 -102 -111.5 -163.5t-215.5 -61.5z" />
    <glyph glyph-name="uni0422" unicode="&#x422;" horiz-adv-x="500" 
d="M228 0v658h-219v42h482v-42h-220v-658h-43z" />
    <glyph glyph-name="uni0423" unicode="&#x423;" horiz-adv-x="533" 
d="M490 700h48l-362 -700h-49l143 275l-270 425h51l242 -380z" />
    <glyph glyph-name="uni0424" unicode="&#x424;" horiz-adv-x="706" 
d="M446 598q106 0 172.5 -71.5t66.5 -176.5q0 -104 -66.5 -175.5t-172.5 -71.5h-71v-103h-44v103h-71q-106 0 -172.5 71.5t-66.5 175.5q0 105 66.5 176.5t172.5 71.5h71v102h44v-102h71zM65 350q0 -87 54 -146.5t141 -59.5h71v413h-71q-87 0 -141 -59.5t-54 -147.5zM446 144
q87 0 141 59.5t54 146.5q0 88 -54 147.5t-141 59.5h-71v-413h71z" />
    <glyph glyph-name="uni0425" unicode="&#x425;" horiz-adv-x="580" 
d="M30 0l235 350l-235 350h50l210 -314l210 314h50l-235 -350l235 -350h-50l-210 313l-210 -313h-50z" />
    <glyph glyph-name="uni0426" unicode="&#x426;" horiz-adv-x="632" 
d="M539 41h29v-161h-42v120h-436v700h44v-659h362v659h43v-659z" />
    <glyph glyph-name="uni0427" unicode="&#x427;" horiz-adv-x="572" 
d="M438 0v294q-67 -48 -171 -48q-212 0 -212 223v231h44v-222q0 -93 41.5 -142t135.5 -49q100 0 162 49v364h44v-700h-44z" />
    <glyph glyph-name="uni0428" unicode="&#x428;" horiz-adv-x="922" 
d="M90 0v700h44v-659h305v659h44v-659h305v659h44v-700h-742z" />
    <glyph glyph-name="uni0429" unicode="&#x429;" horiz-adv-x="924" 
d="M832 41h28v-161h-42v120h-728v700h44v-659h305v659h44v-659h305v659h44v-659z" />
    <glyph glyph-name="uni042A" unicode="&#x42a;" horiz-adv-x="704" 
d="M481 387q77 0 129.5 -56t52.5 -138q0 -80 -54 -136.5t-132 -56.5h-246v659h-223v41h267v-313h206zM477 41q59 0 100.5 44.5t41.5 107.5t-40.5 108t-97.5 45h-206v-305h202z" />
    <glyph glyph-name="uni042B" unicode="&#x42b;" horiz-adv-x="747" 
d="M90 0v700h44v-313h206q77 0 129.5 -56t52.5 -138q0 -80 -54 -136.5t-132 -56.5h-246zM613 0v700h44v-700h-44zM134 41h202q59 0 100.5 44.5t41.5 107.5t-40.5 108t-97.5 45h-206v-305z" />
    <glyph glyph-name="uni042C" unicode="&#x42c;" horiz-adv-x="563" 
d="M90 0v700h44v-313h206q77 0 129.5 -56t52.5 -138q0 -80 -54 -136.5t-132 -56.5h-246zM134 41h202q59 0 100.5 44.5t41.5 107.5t-40.5 108t-97.5 45h-206v-305z" />
    <glyph glyph-name="uni042D" unicode="&#x42d;" horiz-adv-x="763" 
d="M366 714q154 0 254 -102.5t100 -261.5t-100 -261.5t-254 -102.5q-120 0 -206 59.5t-115 161.5h47q26 -84 99 -132t175 -48q130 0 215.5 84t92.5 219h-407v41h407q-7 135 -92.5 218.5t-215.5 83.5q-102 0 -175 -48t-99 -131h-47q29 102 115.5 161t205.5 59z" />
    <glyph glyph-name="uni042E" unicode="&#x42e;" horiz-adv-x="1022" 
d="M621 714q162 0 260.5 -107t98.5 -257t-98.5 -257t-260.5 -107q-156 0 -253.5 100t-104.5 243h-129v-329h-44v700h44v-330h128q8 144 105.5 244t253.5 100zM621 27q142 0 228 95t85 228q1 133 -85 228t-228 95t-228 -95t-86 -228t86 -228t228 -95z" />
    <glyph glyph-name="uni042F" unicode="&#x42f;" horiz-adv-x="603" 
d="M276 700h237v-700h-44v230h-193q-12 0 -18 1l-148 -231h-52l154 239q-73 20 -117.5 81.5t-44.5 144.5q0 101 64 168t162 67zM278 270h191v389h-191q-80 0 -132 -54.5t-52 -139.5q0 -84 52.5 -139.5t131.5 -55.5z" />
    <glyph glyph-name="uni0430" unicode="&#x430;" horiz-adv-x="590" 
d="M269 -12q-103 0 -164.5 67t-61.5 169q0 103 62.5 170.5t164.5 67.5q69 0 120 -35t73 -94v117h42v-450h-42v116q-22 -58 -74 -93t-120 -35zM273 27q86 0 139 57.5t53 139.5q0 84 -52.5 141.5t-139.5 57.5q-85 0 -136.5 -56t-51.5 -143q0 -85 51.5 -141t136.5 -56z" />
    <glyph glyph-name="uni0431" unicode="&#x431;" horiz-adv-x="563" 
d="M293 -12q-111 0 -172 77t-61 207q0 107 15 182.5t51.5 132.5t101 85t158.5 28h92v-41h-104q-143 0 -206.5 -84t-65.5 -251q23 65 75 101.5t120 36.5q101 0 162 -68.5t61 -167.5q0 -100 -63 -169t-164 -69zM292 27q84 0 135 57.5t51 140.5t-51 140.5t-135 57.5
q-85 0 -136 -57t-51 -141t51 -141t136 -57z" />
    <glyph glyph-name="uni0432" unicode="&#x432;" horiz-adv-x="495" 
d="M85 450h222q59 0 92 -33.5t33 -80.5q0 -38 -25.5 -68t-68.5 -37q43 -1 71 -35t28 -77q0 -48 -35.5 -83.5t-94.5 -35.5h-222v450zM308 247q34 0 57.5 26t23.5 60t-24 58.5t-60 24.5h-178v-169h181zM127 213v-179h181q35 0 60.5 26t25.5 61q0 36 -25 64t-60 28h-182z" />
    <glyph glyph-name="uni0433" unicode="&#x433;" horiz-adv-x="372" 
d="M348 450v-40h-221v-410h-42v450h263z" />
    <glyph glyph-name="uni0434" unicode="&#x434;" horiz-adv-x="535" 
d="M445 41h29v-161h-42v120h-368v-120h-44v161h41q53 18 53 144v265h331v-409zM120 38h283v375h-247v-226q0 -103 -36 -149z" />
    <glyph glyph-name="uni0435" unicode="&#x435;" horiz-adv-x="509" 
d="M465 220h-379v-2q0 -86 48 -138.5t127 -52.5q57 0 99 26.5t58 71.5h42q-14 -61 -69 -99t-129 -38q-99 0 -159 65t-60 173q0 107 59 171.5t156 64.5q93 0 151 -58t58 -148q0 -12 -2 -36zM258 426q-73 0 -119.5 -46.5t-51.5 -123.5h338q0 75 -45.5 122.5t-121.5 47.5z" />
    <glyph glyph-name="uni0436" unicode="&#x436;" horiz-adv-x="720" 
d="M438 225l244 -225h-57l-244 225v-225h-42v225l-244 -225h-57l244 225h-4q-27 0 -45.5 14.5t-38.5 48.5l-50 77q-3 4 -8.5 12t-7.5 11t-7 9t-8.5 8.5t-9 5.5t-11.5 4t-14 1h-26v39h37q28 0 44.5 -14.5t39.5 -49.5l61 -93q34 -58 74 -58h31v210h42v-210h31q40 0 74 58
l61 93q23 35 39.5 49.5t44.5 14.5h37v-39h-26q-9 0 -16.5 -2t-12 -4t-10.5 -9t-8 -9t-9.5 -13t-9.5 -14l-50 -77q-20 -34 -38.5 -48.5t-45.5 -14.5h-4z" />
    <glyph glyph-name="uni0437" unicode="&#x437;" horiz-adv-x="477" 
d="M104 122q0 -44 37 -69.5t101 -25.5q61 0 97 25t36 68q0 41 -30 66t-81 25h-70v35h69q47 0 75 25.5t28 65.5q0 39 -32.5 63.5t-87.5 24.5q-61 0 -96 -25t-35 -65h-45q0 56 48.5 91.5t126.5 35.5q74 0 119.5 -34t45.5 -87q0 -43 -25.5 -73.5t-69.5 -37.5q47 -4 75 -35
t28 -78q0 -57 -49.5 -92.5t-128.5 -35.5q-82 0 -131.5 36.5t-49.5 96.5h45z" />
    <glyph glyph-name="uni0438" unicode="&#x438;" horiz-adv-x="552" 
d="M425 366l-298 -334v-32h-42v450h42v-367l298 335v32h42v-450h-42v366z" />
    <glyph glyph-name="uni0439" unicode="&#x439;" horiz-adv-x="552" 
d="M277 484q-65 0 -109.5 35.5t-50.5 97.5h39q4 -46 38 -72t83 -26q48 0 82.5 26t38.5 72h38q-5 -62 -49.5 -97.5t-109.5 -35.5zM425 366l-298 -334v-32h-42v450h42v-367l298 335v32h42v-450h-42v366z" />
    <glyph glyph-name="uni043A" unicode="&#x43a;" horiz-adv-x="466" 
d="M184 225l244 -225h-57l-244 225v-225h-42v450h42v-210h31q40 0 74 58l61 93q23 35 39.5 49.5t44.5 14.5h37v-39h-26q-9 0 -16.5 -2t-12 -4t-10.5 -9t-8 -9t-9.5 -13t-9.5 -14l-50 -77q-20 -34 -38.5 -48.5t-45.5 -14.5h-4z" />
    <glyph glyph-name="uni043B" unicode="&#x43b;" horiz-adv-x="539" 
d="M30 40h19q38 0 57.5 32.5t19.5 110.5v267h328v-450h-42v410h-244v-225q0 -186 -110 -186h-28v41z" />
    <glyph glyph-name="uni043C" unicode="&#x43c;" horiz-adv-x="679" 
d="M85 0v450h66l188 -391l188 391h67l-1 -450h-41v410l-199 -410h-27l-200 410v-410h-41z" />
    <glyph glyph-name="uni043D" unicode="&#x43d;" horiz-adv-x="551" 
d="M85 0v450h42v-206h297v206h42v-450h-42v206h-297v-206h-42z" />
    <glyph glyph-name="uni043E" unicode="&#x43e;" horiz-adv-x="543" 
d="M271 -12q-102 0 -165 68.5t-63 169.5q0 100 63 168.5t165 68.5q103 0 166 -68.5t63 -168.5q0 -101 -63 -169.5t-166 -68.5zM271 28q84 0 135.5 57t51.5 141q0 83 -51.5 140t-135.5 57t-135 -57t-51 -141q0 -83 51 -140t135 -57z" />
    <glyph glyph-name="uni043F" unicode="&#x43f;" horiz-adv-x="561" 
d="M476 0h-42v413h-307v-413h-42v450h391v-450z" />
    <glyph glyph-name="uni0440" unicode="&#x440;" horiz-adv-x="590" 
d="M323 462q98 0 161 -67t63 -171q0 -102 -64 -169t-162 -67q-67 0 -119 34.5t-75 93.5v-334h-43v245h1v423h42v-117q23 61 75.5 95t120.5 34zM317 27q82 0 135 56t53 141q0 86 -53 142.5t-135 56.5q-84 0 -138 -56.5t-54 -142.5q0 -85 54.5 -141t137.5 -56z" />
    <glyph glyph-name="uni0441" unicode="&#x441;" horiz-adv-x="513" 
d="M266 -11q-101 0 -162 65.5t-61 170.5t61 170t162 65q86 0 140.5 -43t63.5 -115h-43q-10 57 -53 88t-108 31q-83 0 -132 -54t-49 -142q0 -89 49 -142.5t132 -53.5q66 0 108.5 30.5t52.5 87.5h43q-9 -72 -63.5 -115t-140.5 -43z" />
    <glyph glyph-name="uni0442" unicode="&#x442;" horiz-adv-x="421" 
d="M388 450v-40h-156v-410h-43v410h-155v40h354z" />
    <glyph glyph-name="uni0443" unicode="&#x443;" horiz-adv-x="568" 
d="M440 450h43v-472q0 -114 -66 -166q-51 -42 -137 -42q-95 0 -149 46q-51 43 -51 115h43q1 -53 39 -88t118 -35q160 0 160 172v139q-19 -56 -65 -93t-114 -37q-181 0 -181 206v255h42v-248q0 -86 33.5 -129.5t116.5 -43.5q80 0 124 59t44 133v229z" />
    <glyph glyph-name="uni0444" unicode="&#x444;" horiz-adv-x="562" 
d="M519 226q0 -98 -60.5 -167.5t-157.5 -70.5v-206h-41v206q-96 2 -156.5 71.5t-60.5 166.5q0 98 61 166.5t156 70.5v237h41v-237q97 -1 157.5 -70.5t60.5 -166.5zM300 27q79 1 128 59t49 140q0 81 -49 139t-128 59v-397zM85 226q0 -82 48.5 -140t127.5 -59v397
q-80 -1 -128 -58.5t-48 -139.5z" />
    <glyph glyph-name="uni0445" unicode="&#x445;" horiz-adv-x="453" 
d="M25 0l176 225l-175 225h51l149 -193l149 193h52l-176 -225l177 -225h-52l-150 194l-150 -194h-51z" />
    <glyph glyph-name="uni0446" unicode="&#x446;" horiz-adv-x="570" 
d="M480 41h29v-161h-42v120h-382v450h42v-412h311v412h42v-409z" />
    <glyph glyph-name="uni0447" unicode="&#x447;" horiz-adv-x="490" 
d="M362 0v188q-58 -33 -140 -33q-87 0 -130.5 38t-43.5 121v136h42v-132q0 -65 34.5 -95t104.5 -30q83 0 133 34v223h43v-450h-43z" />
    <glyph glyph-name="uni0448" unicode="&#x448;" horiz-adv-x="802" 
d="M422 38h253v412h42v-450h-632v450h42v-412h253v412h42v-412z" />
    <glyph glyph-name="uni0449" unicode="&#x449;" horiz-adv-x="807" 
d="M717 41h28v-161h-42v120h-618v450h42v-412h253v412h42v-412h253v412h42v-409z" />
    <glyph glyph-name="uni044A" unicode="&#x44a;" horiz-adv-x="487" 
d="M317 268q58 0 96 -38.5t38 -95.5q0 -56 -39.5 -95t-97.5 -39h-185v411h-105v39h147v-182h146zM312 37q41 0 68.5 28.5t27.5 68.5t-26.5 69t-65.5 29h-145v-195h141z" />
    <glyph glyph-name="uni044B" unicode="&#x44b;" horiz-adv-x="616" 
d="M85 450h42v-182h146q58 0 96 -38.5t38 -95.5q0 -56 -39.5 -95t-97.5 -39h-185v450zM488 0v450h42v-450h-42zM127 232v-195h141q41 0 68.5 28.5t27.5 68.5t-26.5 69t-65.5 29h-145z" />
    <glyph glyph-name="uni044C" unicode="&#x44c;" horiz-adv-x="443" 
d="M85 450h42v-182h146q58 0 96 -38.5t38 -95.5q0 -56 -39.5 -95t-97.5 -39h-185v450zM127 232v-195h141q41 0 68.5 28.5t27.5 68.5t-26.5 69t-65.5 29h-145z" />
    <glyph glyph-name="uni044D" unicode="&#x44d;" horiz-adv-x="521" 
d="M88 286h-43q6 75 58.5 125.5t149.5 50.5q109 0 167 -68t58 -168q0 -99 -59.5 -168.5t-165.5 -69.5q-94 0 -148 46.5t-63 119.5h44q10 -57 52 -92t117 -35q82 0 128.5 52t49.5 130h-219v35h219q-3 77 -48 128t-130 51q-78 0 -119 -39t-48 -98z" />
    <glyph glyph-name="uni044E" unicode="&#x44e;" horiz-adv-x="705" 
d="M433 463q103 0 166 -68.5t63 -168.5q0 -101 -63 -169.5t-166 -68.5q-96 0 -157.5 60.5t-69.5 153.5h-79v-202h-42v450h42v-210h78q5 96 67 159.5t161 63.5zM433 28q84 0 135.5 57t51.5 141q0 83 -51.5 140t-135.5 57t-135 -57t-51 -141q0 -83 51 -140t135 -57z" />
    <glyph glyph-name="uni044F" unicode="&#x44f;" horiz-adv-x="509" 
d="M68 0l119 165q-53 4 -90 46t-37 94q0 60 42.5 102.5t109.5 42.5h212v-450h-41v161h-150l-114 -161h-51zM218 199h165v214h-165q-51 0 -83 -32t-32 -76t31.5 -75t83.5 -31z" />
    <glyph glyph-name="uni0451" unicode="&#x451;" horiz-adv-x="509" 
d="M161 554q-20 0 -33.5 13.5t-13.5 33.5q0 21 13.5 35t33.5 14q22 0 35.5 -14t13.5 -35q0 -20 -14 -33.5t-35 -13.5zM355 554q-20 0 -33.5 13.5t-13.5 33.5q0 21 13.5 35t33.5 14q21 0 35 -14t14 -35q0 -20 -14 -33.5t-35 -13.5zM465 220h-379v-2q0 -86 48 -138.5
t127 -52.5q57 0 99 26.5t58 71.5h42q-14 -61 -69 -99t-129 -38q-99 0 -159 65t-60 173q0 107 59 171.5t156 64.5q93 0 151 -58t58 -148q0 -12 -2 -36zM258 426q-73 0 -119.5 -46.5t-51.5 -123.5h338q0 75 -45.5 122.5t-121.5 47.5z" />
    <glyph glyph-name="uni0452" unicode="&#x452;" horiz-adv-x="565" 
d="M486 265v-265h-1v-100q0 -58 -28 -91t-77 -33q-38 0 -63 13v41q25 -13 57 -13t50.5 24t18.5 67v344q0 172 -144 172q-82 0 -125 -56t-43 -148v-220h-42v560h-72v37h72v103h42v-103h214v-37h-214v-234q14 61 60 98.5t120 37.5q87 0 131 -50.5t44 -146.5z" />
    <glyph glyph-name="uni0453" unicode="&#x453;" horiz-adv-x="372" 
d="M114 514l-16 35l257 129l16 -34zM348 450v-40h-221v-410h-42v450h263z" />
    <glyph glyph-name="uni0454" unicode="&#x454;" horiz-adv-x="521" 
d="M433 286q-7 59 -48 98t-119 39q-85 0 -130 -51t-48 -128h219v-35h-219q3 -78 49.5 -130t128.5 -52q75 0 117 35t52 92h44q-9 -73 -63 -119.5t-148 -46.5q-106 0 -165.5 69.5t-59.5 168.5q0 100 58 168t167 68q97 0 149.5 -50.5t58.5 -125.5h-43z" />
    <glyph glyph-name="uni0455" unicode="&#x455;" horiz-adv-x="435" 
d="M223 -12q-84 0 -132 41t-48 100h42q0 -44 36 -74t102 -30q55 0 88 23.5t33 65.5q0 29 -16 52t-47 30l-131 32q-95 24 -95 113q0 55 45 88t116 33q76 0 119.5 -34t43.5 -93h-42q-1 42 -34 67t-91 25q-50 0 -82.5 -22t-32.5 -64q0 -60 75 -78l123 -31q48 -12 70 -43.5
t22 -70.5q0 -61 -44.5 -95.5t-119.5 -34.5z" />
    <glyph glyph-name="uni0456" unicode="&#x456;" horiz-adv-x="212" 
d="M106 553q-21 0 -35 14.5t-14 35.5t14 35t35 14q22 0 36 -14t14 -35t-14 -35.5t-36 -14.5zM85 0v450h42v-450h-42z" />
    <glyph glyph-name="uni0457" unicode="&#x457;" horiz-adv-x="212" 
d="M47 556q-19 0 -31.5 13t-12.5 32t12.5 32t31.5 13t32 -13t13 -32t-13 -32t-32 -13zM164 556q-19 0 -31.5 13t-12.5 32t12.5 32t31.5 13t32 -13t13 -32t-13 -32t-32 -13zM85 0v450h42v-450h-42z" />
    <glyph glyph-name="uni0458" unicode="&#x458;" horiz-adv-x="215" 
d="M109 553q-21 0 -35 14.5t-14 35.5t14 35t35 14q22 0 36 -14t14 -35t-14 -35.5t-36 -14.5zM25 -224q-39 0 -64 13v41q26 -13 58 -13t50.5 24t18.5 67v542h42v-550q0 -58 -28 -91t-77 -33z" />
    <glyph glyph-name="uni0459" unicode="&#x459;" horiz-adv-x="771" 
d="M601 268q58 0 96 -38.5t38 -95.5q0 -56 -39.5 -95t-97.5 -39h-186v410h-244v-225q0 -186 -110 -186h-28v41h19q38 0 57.5 32.5t19.5 110.5v267h329v-182h146zM596 37q41 0 68.5 28.5t27.5 68.5t-26.5 69t-65.5 29h-145v-195h141z" />
    <glyph glyph-name="uni045A" unicode="&#x45a;" horiz-adv-x="782" 
d="M612 268q58 0 96 -38.5t38 -95.5q0 -56 -39.5 -95t-97.5 -39h-185v206h-297v-206h-42v450h42v-206h297v206h42v-182h146zM607 37q41 0 68.5 28.5t27.5 68.5t-26.5 69t-65.5 29h-145v-195h141z" />
    <glyph glyph-name="uni045B" unicode="&#x45b;" horiz-adv-x="565" 
d="M311 462q87 0 131 -50.5t44 -146.5v-265h-43v252q0 172 -144 172q-82 0 -125 -56t-43 -148v-220h-42v560h-72v37h72v103h42v-103h214v-37h-214v-234q14 61 60 98.5t120 37.5z" />
    <glyph glyph-name="uni045C" unicode="&#x45c;" horiz-adv-x="466" 
d="M383 644l-257 -130l-16 35l257 129zM184 225l244 -225h-57l-244 225v-225h-42v450h42v-210h31q40 0 74 58l61 93q23 35 39.5 49.5t44.5 14.5h37v-39h-26q-9 0 -16.5 -2t-12 -4t-10.5 -9t-8 -9t-9.5 -13t-9.5 -14l-50 -77q-20 -34 -38.5 -48.5t-45.5 -14.5h-4z" />
    <glyph glyph-name="uni045E" unicode="&#x45e;" horiz-adv-x="568" 
d="M282 494q-65 0 -109.5 35.5t-50.5 97.5h39q4 -46 38 -72t83 -26q48 0 82.5 26t38.5 72h38q-5 -62 -49.5 -97.5t-109.5 -35.5zM440 450h43v-472q0 -114 -66 -166q-51 -42 -137 -42q-95 0 -149 46q-51 43 -51 115h43q1 -53 39 -88t118 -35q160 0 160 172v139
q-19 -56 -65 -93t-114 -37q-181 0 -181 206v255h42v-248q0 -86 33.5 -129.5t116.5 -43.5q80 0 124 59t44 133v229z" />
    <glyph glyph-name="uni045F" unicode="&#x45f;" horiz-adv-x="565" 
d="M480 450v-450h-175v-91h-43v91h-177v450h42v-412h311v412h42z" />
    <glyph glyph-name="uni0462" unicode="&#x462;" horiz-adv-x="701" 
d="M478 387q77 0 129.5 -56t52.5 -138q0 -80 -54 -136.5t-132 -56.5h-246v658h-219v42h482v-42h-219v-271h206zM474 41q59 0 100.5 44.5t41.5 107.5t-40.5 108t-97.5 45h-206v-305h202z" />
    <glyph glyph-name="uni0463" unicode="&#x463;" horiz-adv-x="443" 
d="M273 268q58 0 96 -38.5t38 -95.5q0 -56 -39.5 -95t-97.5 -39h-185v431h-76v37h76v232h42v-232h140v-37h-140v-163h146zM268 37q41 0 68.5 28.5t27.5 68.5t-26.5 69t-65.5 29h-145v-195h141z" />
    <glyph glyph-name="uni0472" unicode="&#x472;" horiz-adv-x="803" 
d="M402 714q162 0 260.5 -107t98.5 -257t-98.5 -257t-260.5 -107t-260.5 107t-98.5 257t98.5 257t260.5 107zM402 673q-137 0 -222.5 -89t-91.5 -217h627q-5 128 -90.5 217t-222.5 89zM402 27q138 0 223 89.5t90 217.5h-627q6 -128 91 -217.5t223 -89.5z" />
    <glyph glyph-name="uni0473" unicode="&#x473;" horiz-adv-x="543" 
d="M271 463q103 0 166 -68.5t63 -168.5q0 -101 -63 -169.5t-166 -68.5q-102 0 -165 68.5t-63 169.5q0 100 63 168.5t165 68.5zM271 423q-80 0 -130 -51.5t-55 -129.5h371q-5 78 -55.5 129.5t-130.5 51.5zM271 28q80 0 130.5 51.5t55.5 130.5h-372q5 -78 55.5 -130t130.5 -52
z" />
    <glyph glyph-name="uni0474" unicode="&#x474;" horiz-adv-x="615" 
d="M291 0h-36l-251 700h46l223 -635l185 527q21 61 51 86.5t81 25.5h24v-40h-21q-33 0 -55 -17t-37 -60z" />
    <glyph glyph-name="uni0475" unicode="&#x475;" horiz-adv-x="505" 
d="M247 0h-33l-206 450h45l178 -394l133 296q25 56 48.5 79.5t63.5 23.5h21v-40h-13q-26 0 -43 -14.5t-33 -51.5z" />
    <glyph glyph-name="uni048A" unicode="&#x48a;" horiz-adv-x="666" 
d="M335 718q-64 0 -109 27t-50 75h38q5 -33 39 -51t82 -18t82.5 18t39.5 51h38q-6 -48 -50.5 -75t-109.5 -27zM574 41h28v-161h-42v120h-29v590l-397 -546v-44h-44v700h44v-589l397 545v44h43v-659z" />
    <glyph glyph-name="uni048B" unicode="&#x48b;" horiz-adv-x="556" 
d="M277 484q-65 0 -109.5 35.5t-50.5 97.5h39q4 -46 38 -72t83 -26q48 0 82.5 26t38.5 72h38q-5 -62 -49.5 -97.5t-109.5 -35.5zM467 41h28v-161h-42v120h-28v366l-298 -334v-32h-42v450h42v-367l298 335v32h42v-409z" />
    <glyph glyph-name="uni048C" unicode="&#x48c;" horiz-adv-x="563" 
d="M340 387q77 0 129.5 -56t52.5 -138q0 -80 -54 -136.5t-132 -56.5h-246v555h-73v37h73v108h44v-108h211v-37h-211v-168h206zM336 41q59 0 100.5 44.5t41.5 107.5t-40.5 108t-97.5 45h-206v-305h202z" />
    <glyph glyph-name="uni048D" unicode="&#x48d;" horiz-adv-x="443" 
d="M273 268q58 0 96 -38.5t38 -95.5q0 -56 -39.5 -95t-97.5 -39h-185v431h-76v37h76v232h42v-232h140v-37h-140v-163h146zM268 37q41 0 68.5 28.5t27.5 68.5t-26.5 69t-65.5 29h-145v-195h141z" />
    <glyph glyph-name="uni048E" unicode="&#x48e;" horiz-adv-x="574" 
d="M553 465q0 -63 -26 -114.5t-72 -82.5l73 -73l-23 -23l-80 79q-47 -21 -98 -21h-193v-230h-44v700h237q98 0 162 -67t64 -168zM325 270q39 0 69 13l-102 101l23 23l109 -109q85 56 85 167q0 85 -52 139.5t-132 54.5h-191v-389h191z" />
    <glyph glyph-name="uni048F" unicode="&#x48f;" horiz-adv-x="590" 
d="M547 224q0 -110 -74 -179l71 -70l-23 -23l-73 73q-56 -37 -127 -37q-67 0 -119 34.5t-75 93.5v-334h-43v245h1v423h42v-117q23 61 75.5 95t120.5 34q98 0 161 -67t63 -171zM317 27q56 0 101 28l-110 109l23 23l113 -112q61 56 61 149q0 86 -53 142.5t-135 56.5
q-84 0 -138 -56.5t-54 -142.5q0 -85 54.5 -141t137.5 -56z" />
    <glyph glyph-name="uni0490" unicode="&#x490;" horiz-adv-x="469" 
d="M416 798h44v-140h-326v-658h-44v700h326v98z" />
    <glyph glyph-name="uni0491" unicode="&#x491;" horiz-adv-x="372" 
d="M304 548h44v-138h-221v-410h-42v450h219v98z" />
    <glyph glyph-name="uni0492" unicode="&#x492;" horiz-adv-x="469" 
d="M460 658h-326v-242h199v-37h-199v-379h-44v379h-85v37h85v284h370v-42z" />
    <glyph glyph-name="uni0493" unicode="&#x493;" horiz-adv-x="372" 
d="M348 410h-221v-146h143v-37h-143v-227h-42v227h-73v37h73v186h263v-40z" />
    <glyph glyph-name="uni0494" unicode="&#x494;" horiz-adv-x="597" 
d="M305 439q212 0 212 -223v-311q0 -60 -30 -94.5t-82 -34.5q-37 0 -64 13v42q26 -13 59 -13q35 0 54 25t19 71v293q0 93 -41.5 142t-135.5 49q-100 0 -162 -49v-349h-44v700h370v-42h-326v-267q65 48 171 48z" />
    <glyph glyph-name="uni0495" unicode="&#x495;" horiz-adv-x="494" 
d="M270 278q83 0 136 -57t53 -167q0 -114 -53.5 -176.5t-155.5 -62.5q-25 0 -59 8v39q25 -7 52 -7q89 0 131 54t42 144t-41 138t-110 48q-78 0 -138 -36v-203h-42v450h263v-40h-221v-165q71 33 143 33z" />
    <glyph glyph-name="uni0496" unicode="&#x496;" horiz-adv-x="933" 
d="M869 40h42v-160h-42v120h-22l-361 367v-367h-44v367l-361 -367h-60l358 360h-21q-62 0 -105 76l-89 150q-25 43 -42.5 58.5t-45.5 15.5h-40v41h46q37 0 63 -20.5t52 -66.5l88 -151q42 -77 109 -77h48v314h44v-314h48q67 0 109 77l88 151q26 46 52 66.5t63 20.5h46v-41
h-40q-28 0 -45.5 -15.5t-42.5 -58.5l-89 -150q-43 -76 -105 -76h-21l320 -322v2z" />
    <glyph glyph-name="uni0497" unicode="&#x497;" horiz-adv-x="743" 
d="M682 0h-8v-119h-42v119h-7l-244 225v-225h-42v225l-244 -225h-57l244 225h-4q-27 0 -45.5 14.5t-38.5 48.5l-50 77q-3 4 -8.5 12t-7.5 11t-7 9t-8.5 8.5t-9 5.5t-11.5 4t-14 1h-26v39h37q28 0 44.5 -14.5t39.5 -49.5l61 -93q34 -58 74 -58h31v210h42v-210h31q40 0 74 58
l61 93q23 35 39.5 49.5t44.5 14.5h37v-39h-26q-9 0 -16.5 -2t-12 -4t-10.5 -9t-8 -9t-9.5 -13t-9.5 -14l-50 -77q-20 -34 -38.5 -48.5t-45.5 -14.5h-4l203 -187h33v-31z" />
    <glyph glyph-name="uni0498" unicode="&#x498;" horiz-adv-x="547" 
d="M499 187q0 -86 -55 -140t-149 -60v-57q14 23 54 23q33 0 54.5 -23t21.5 -59q0 -38 -23.5 -62t-63.5 -24q-33 0 -54.5 19t-23.5 49h29q2 -18 15 -29.5t35 -11.5q26 0 40.5 15t14.5 43q0 26 -13.5 42t-39.5 16q-34 0 -50 -28h-25v86q-99 2 -158.5 58.5t-59.5 148.5h43
q0 -75 50 -120.5t133 -45.5t132 44.5t49 115.5t-46.5 113t-129.5 42h-57v40h57q77 0 121 40.5t44 104.5q0 65 -45.5 105.5t-121.5 40.5q-82 0 -131.5 -42t-49.5 -112h-44q0 87 61.5 141t162.5 54q95 0 153.5 -50t58.5 -135q0 -63 -37 -108.5t-102 -56.5q69 -10 109.5 -58.5
t40.5 -118.5z" />
    <glyph glyph-name="uni0499" unicode="&#x499;" horiz-adv-x="477" 
d="M418 117q0 -54 -45.5 -89t-118.5 -39v-59q14 23 54 23q33 0 54.5 -23t21.5 -59q0 -38 -23.5 -62t-63.5 -24q-33 0 -54.5 19t-23.5 49h29q2 -18 15 -29.5t35 -11.5q26 0 40.5 15t14.5 43q0 26 -13.5 42t-39.5 16q-34 0 -50 -28h-25v89q-76 4 -121 40.5t-45 92.5h45
q0 -44 37 -69.5t101 -25.5q61 0 97 25t36 68q0 41 -30 66t-81 25h-70v35h69q47 0 75 25.5t28 65.5q0 39 -32.5 63.5t-87.5 24.5q-61 0 -96 -25t-35 -65h-45q0 56 48.5 91.5t126.5 35.5q74 0 119.5 -34t45.5 -87q0 -43 -25.5 -73.5t-69.5 -37.5q47 -4 75 -35t28 -78z" />
    <glyph glyph-name="uni049A" unicode="&#x49a;" horiz-adv-x="579" 
d="M516 40h42v-160h-42v120h-21l-361 367v-367h-44v700h44v-314h48q67 0 109 77l88 151q26 46 52 66.5t63 20.5h46v-41h-40q-28 0 -45.5 -15.5t-42.5 -58.5l-89 -150q-43 -76 -105 -76h-21l319 -321v1z" />
    <glyph glyph-name="uni049B" unicode="&#x49b;" horiz-adv-x="492" 
d="M389 38h42v-157h-42v119h-18l-244 225v-225h-42v450h42v-210h31q40 0 74 58l61 93q23 35 39.5 49.5t44.5 14.5h37v-39h-26q-9 0 -16.5 -2t-12 -4t-10.5 -9t-8 -9t-9.5 -13t-9.5 -14l-50 -77q-20 -34 -38.5 -48.5t-45.5 -14.5h-4l205 -189v2z" />
    <glyph glyph-name="uni049C" unicode="&#x49c;" horiz-adv-x="636" 
d="M615 0h-60l-357 348v-155h-25v159h-39v-352h-44v700h44v-314h39v167h25v-167h29q82 0 124 77l88 151q27 47 53 67t62 20h46v-41h-40q-28 0 -45.5 -15.5t-42.5 -58.5l-89 -150q-43 -76 -120 -76h-21z" />
    <glyph glyph-name="uni049D" unicode="&#x49d;" horiz-adv-x="488" 
d="M449 0h-58l-213 200v-125h-22v136h-29v-211h-42v450h42v-210h29v136h22v-136q34 0 74 58l61 93q23 35 40 49.5t46 14.5h37v-39h-27q-8 0 -14 -1t-11.5 -4t-8.5 -5t-8.5 -8.5t-7 -9t-7.5 -11.5l-8 -12l-51 -77q-24 -35 -40.5 -49t-42.5 -14h-4z" />
    <glyph glyph-name="uni049E" unicode="&#x49e;" horiz-adv-x="655" 
d="M277 360l358 -360h-60l-361 367v-367h-44v544h-80v37h80v119h44v-119h139v-37h-139v-158h48q67 0 109 77l88 151q26 46 52 66.5t63 20.5h46v-41h-40q-28 0 -45.5 -15.5t-42.5 -58.5l-89 -150q-43 -76 -105 -76h-21z" />
    <glyph glyph-name="uni049F" unicode="&#x49f;" horiz-adv-x="466" 
d="M184 225l244 -225h-57l-244 225v-225h-42v341h-47v31h47v78h42v-78h84v-31h-84v-101h31q40 0 74 58l61 93q23 35 39.5 49.5t44.5 14.5h37v-39h-26q-9 0 -16.5 -2t-12 -4t-10.5 -9t-8 -9t-9.5 -13t-9.5 -14l-50 -77q-20 -34 -38.5 -48.5t-45.5 -14.5h-4z" />
    <glyph glyph-name="uni04A0" unicode="&#x4a0;" horiz-adv-x="717" 
d="M338 360l358 -360h-60l-361 367v-367h-44v659h-223v41h267v-314h48q67 0 109 77l88 151q26 46 52 66.5t63 20.5h46v-41h-40q-28 0 -45.5 -15.5t-42.5 -58.5l-89 -150q-43 -76 -105 -76h-21z" />
    <glyph glyph-name="uni04A1" unicode="&#x4a1;" horiz-adv-x="510" 
d="M228 225l244 -225h-57l-244 225v-225h-42v411h-105v39h147v-210h31q40 0 74 58l61 93q23 35 39.5 49.5t44.5 14.5h37v-39h-26q-9 0 -16.5 -2t-12 -4t-10.5 -9t-8 -9t-9.5 -13t-9.5 -14l-50 -77q-20 -34 -38.5 -48.5t-45.5 -14.5h-4z" />
    <glyph glyph-name="uni04A2" unicode="&#x4a2;" horiz-adv-x="667" 
d="M575 41h28v-161h-42v120h-29v328h-398v-328h-44v700h44v-332h398v332h43v-659z" />
    <glyph glyph-name="uni04A3" unicode="&#x4a3;" horiz-adv-x="555" 
d="M466 41h28v-161h-42v120h-28v206h-297v-206h-42v450h42v-206h297v206h42v-409z" />
    <glyph glyph-name="uni04A4" unicode="&#x4a4;" horiz-adv-x="910" 
d="M901 700v-42h-326v-658h-44v328h-397v-328h-44v700h44v-332h397v332h370z" />
    <glyph glyph-name="uni04A5" unicode="&#x4a5;" horiz-adv-x="710" 
d="M687 450v-40h-221v-410h-42v206h-297v-206h-42v450h42v-206h297v206h263z" />
    <glyph glyph-name="uni04A6" unicode="&#x4a6;" horiz-adv-x="1032" 
d="M741 452q211 0 211 -224v-323q0 -60 -30 -94.5t-82 -34.5q-37 0 -64 13v42q26 -13 59 -13q35 0 54 25t19 71v305q0 94 -41.5 143t-135.5 49q-100 0 -162 -49v-362h-44v659h-391v-659h-44v700h479v-296q68 48 172 48z" />
    <glyph glyph-name="uni04A7" unicode="&#x4a7;" horiz-adv-x="842" 
d="M619 278q83 0 135.5 -57t52.5 -167q0 -114 -53 -176.5t-155 -62.5q-27 0 -59 8v39q25 -7 52 -7q89 0 130.5 54t41.5 144t-40.5 138t-109.5 48q-80 0 -138 -36v-203h-42v413h-307v-413h-42v450h391v-205q72 33 143 33z" />
    <glyph glyph-name="uni04A8" unicode="&#x4a8;" horiz-adv-x="765" 
d="M612 22q58 0 109 29v-41q-51 -27 -107 -27q-68 0 -113 24q-51 -24 -126 -24q-149 0 -240.5 101t-91.5 268q0 160 99.5 262.5t266.5 102.5q76 0 139 -21v-42q-74 22 -141 22q-142 0 -230.5 -93t-88.5 -232q0 -147 81 -238t211 -91q45 0 81 10q-66 39 -101 113.5t-35 167.5
q0 107 51 172t140 65q88 0 137 -61.5t49 -164.5q0 -97 -40 -175.5t-116 -117.5q36 -10 66 -9zM369 309q0 -89 37.5 -158t99.5 -103q73 33 113.5 104t40.5 166q0 88 -39 139.5t-105 51.5q-68 0 -107.5 -54.5t-39.5 -145.5z" />
    <glyph glyph-name="uni04A9" unicode="&#x4a9;" horiz-adv-x="565" 
d="M443 21q46 0 88 20v-34q-44 -20 -85 -20q-49 0 -81 17q-38 -21 -88 -21q-106 0 -170 58.5t-64 175.5q0 113 72.5 179t193.5 66q51 0 90 -14v-38q-39 14 -89 14q-102 0 -163.5 -54.5t-61.5 -151.5q0 -96 51 -147t141 -51q23 0 43 3q-87 50 -87 162q0 72 37 113t102 41
q66 0 101.5 -40.5t35.5 -108.5q0 -111 -99 -167q22 -2 33 -2zM273 185q0 -112 93 -150q49 20 76.5 60t27.5 94q0 50 -23.5 82t-73.5 32q-46 0 -73 -29t-27 -89z" />
    <glyph glyph-name="uni04AA" unicode="&#x4aa;" horiz-adv-x="774" 
d="M402 27q112 0 181.5 49.5t97.5 134.5h47q-27 -99 -106.5 -160t-205.5 -65v-56q14 23 54 23q33 0 54.5 -23t21.5 -59q0 -38 -23.5 -62t-63.5 -24q-33 0 -54.5 19t-23.5 49h29q2 -18 15 -29.5t35 -11.5q26 0 40.5 15t14.5 43q0 26 -13.5 42t-39.5 16q-34 0 -50 -28h-25v86
q-157 5 -250.5 109.5t-93.5 254.5q0 154 98 259t260 105q132 0 215.5 -61.5t111.5 -163.5h-47q-28 85 -97.5 134.5t-181.5 49.5q-143 0 -228.5 -93t-85.5 -230t85.5 -230t228.5 -93z" />
    <glyph glyph-name="uni04AB" unicode="&#x4ab;" horiz-adv-x="513" 
d="M266 29q66 0 108.5 30.5t52.5 87.5h43q-9 -69 -60 -111.5t-131 -46.5v-59q14 23 54 23q33 0 54.5 -23t21.5 -59q0 -38 -23.5 -62t-63.5 -24q-33 0 -54.5 19t-23.5 49h29q2 -18 15 -29.5t35 -11.5q26 0 40.5 15t14.5 43q0 26 -13.5 42t-39.5 16q-34 0 -50 -28h-25v89
q-95 6 -151 71t-56 165q0 105 61 170t162 65q86 0 140.5 -43t63.5 -115h-43q-10 57 -53 88t-108 31q-83 0 -132 -54t-49 -142q0 -89 49 -142.5t132 -53.5z" />
    <glyph glyph-name="uni04AC" unicode="&#x4ac;" horiz-adv-x="500" 
d="M491 658h-220v-617h28v-161h-42v120h-29v658h-219v42h482v-42z" />
    <glyph glyph-name="uni04AD" unicode="&#x4ad;" horiz-adv-x="421" 
d="M388 410h-156v-369h28v-161h-42v120h-29v410h-155v40h354v-40z" />
    <glyph glyph-name="uni04AE" unicode="&#x4ae;" horiz-adv-x="550" 
d="M252 0v277l-253 423h51l225 -379l225 379h51l-253 -423v-277h-46z" />
    <glyph glyph-name="uni04AF" unicode="&#x4af;" horiz-adv-x="464" 
d="M456 450l-203 -443v-225h-42v222l-203 446h45l179 -394l178 394h46z" />
    <glyph glyph-name="uni04B0" unicode="&#x4b0;" horiz-adv-x="550" 
d="M298 277v-63h126v-36h-126v-178h-46v178h-126v36h126v63l-253 423h51l225 -379l225 379h51z" />
    <glyph glyph-name="uni04B1" unicode="&#x4b1;" horiz-adv-x="464" 
d="M253 7v-41h148v-37h-148v-147h-42v147h-147v37h147v38l-203 446h45l179 -394l178 394h46z" />
    <glyph glyph-name="uni04B2" unicode="&#x4b2;" horiz-adv-x="619" 
d="M522 41h34v-161h-42v120h-14l-210 313l-210 -313h-50l235 350l-235 350h50l210 -314l210 314h50l-235 -350z" />
    <glyph glyph-name="uni04B3" unicode="&#x4b3;" horiz-adv-x="513" 
d="M414 41h37v-161h-42v120h-15l-150 194l-150 -194h-51l176 225l-175 225h51l149 -193l149 193h52l-176 -225z" />
    <glyph glyph-name="uni04B4" unicode="&#x4b4;" horiz-adv-x="746" 
d="M654 41h29v-161h-43v120h-435v658h-196v42h437v-42h-197v-617h361v659h44v-659z" />
    <glyph glyph-name="uni04B5" unicode="&#x4b5;" horiz-adv-x="669" 
d="M579 41h29v-161h-42v120h-382v410h-150v40h344v-40h-151v-372h310v412h42v-409z" />
    <glyph glyph-name="uni04B6" unicode="&#x4b6;" horiz-adv-x="578" 
d="M482 41h32v-161h-42v120h-34v294q-67 -48 -171 -48q-212 0 -212 223v231h44v-222q0 -93 41.5 -142t135.5 -49q100 0 162 49v364h44v-659z" />
    <glyph glyph-name="uni04B7" unicode="&#x4b7;" horiz-adv-x="501" 
d="M405 41h35v-161h-42v120h-36v188q-58 -33 -140 -33q-87 0 -130.5 38t-43.5 121v136h42v-132q0 -65 34.5 -95t104.5 -30q83 0 133 34v223h43v-409z" />
    <glyph glyph-name="uni04B8" unicode="&#x4b8;" horiz-adv-x="572" 
d="M438 700h44v-700h-44v294q-60 -43 -145 -47v-124h-33v123q-205 4 -205 223v231h44v-222q0 -89 37.5 -138t123.5 -53v135h33v-135q87 4 145 49v364z" />
    <glyph glyph-name="uni04B9" unicode="&#x4b9;" horiz-adv-x="490" 
d="M362 450h43v-450h-43v188q-42 -23 -103 -30v-103h-27v100h-10q-87 0 -130.5 38t-43.5 121v136h42v-132q0 -65 34.5 -95t104.5 -30h3v116h27v-114q63 5 103 32v223z" />
    <glyph glyph-name="uni04BA" unicode="&#x4ba;" horiz-adv-x="572" 
d="M134 700v-294q67 48 171 48q212 0 212 -223v-231h-44v222q0 93 -41.5 142t-135.5 49q-100 0 -162 -49v-364h-44v700h44z" />
    <glyph glyph-name="uni04BB" unicode="&#x4bb;" horiz-adv-x="565" 
d="M311 462q87 0 131 -50.5t44 -146.5v-265h-43v252q0 172 -144 172q-82 0 -125 -56t-43 -148v-220h-42v700h42v-374q14 61 60 98.5t120 37.5z" />
    <glyph glyph-name="uni04BC" unicode="&#x4bc;" horiz-adv-x="907" 
d="M524 713q150 0 245.5 -105t94.5 -256v-22h-651q5 -129 84 -216t227 -87q202 0 273 183h50q-31 -100 -114 -162t-209 -62q-165 0 -258 98.5t-99 245.5h-29q-46 0 -74.5 29.5t-28.5 75.5v28h41v-26q0 -32 18 -50.5t52 -18.5h21q7 145 103.5 245t253.5 100zM819 368
q-3 126 -85 215t-211 89q-137 0 -222 -87.5t-88 -216.5h606z" />
    <glyph glyph-name="uni04BD" unicode="&#x4bd;" horiz-adv-x="595" 
d="M172 220v-2q0 -86 48 -138.5t127 -52.5q57 0 99 26.5t58 71.5h42q-14 -61 -69 -99t-129 -38q-98 0 -157.5 63.5t-61.5 168.5h-21q-46 0 -74.5 29t-28.5 74v27h38v-26q0 -32 18.5 -50t51.5 -18h17q9 95 66.5 150.5t147.5 55.5q93 0 151 -58t58 -148q0 -12 -2 -36h-379z
M344 426q-73 0 -119.5 -46.5t-51.5 -123.5h338q0 75 -45.5 122.5t-121.5 47.5z" />
    <glyph glyph-name="uni04BE" unicode="&#x4be;" horiz-adv-x="907" 
d="M398 766q-20 0 -33.5 13.5t-13.5 33.5q0 21 13.5 35t33.5 14t34.5 -14t14.5 -35q0 -20 -14.5 -33.5t-34.5 -13.5zM630 766q-20 0 -34 13.5t-14 33.5q0 21 14 35t34 14t34 -14t14 -35q0 -20 -14 -33.5t-34 -13.5zM524 713q150 0 245.5 -105t94.5 -256v-22h-651
q5 -129 84 -216t227 -87q202 0 273 183h50q-31 -100 -114 -162t-209 -62q-165 0 -258 98.5t-99 245.5h-29q-46 0 -74.5 29.5t-28.5 75.5v28h41v-26q0 -32 18 -50.5t52 -18.5h21q7 145 103.5 245t253.5 100zM819 368q-3 126 -85 215t-211 89q-137 0 -222 -87.5t-88 -216.5
h606z" />
    <glyph glyph-name="uni04BF" unicode="&#x4bf;" horiz-adv-x="595" 
d="M172 220v-2q0 -86 48 -138.5t127 -52.5q57 0 99 26.5t58 71.5h42q-10 -44 -42 -77t-79 -48h1q-49 -17 -73.5 -46.5t-24.5 -62.5q0 -31 18 -49.5t51 -18.5q31 0 68 15l-2 -35q-39 -15 -76 -15q-48 0 -73.5 25.5t-25.5 65.5q0 65 73 109h-13q-98 0 -157.5 63.5t-61.5 168.5
h-21q-46 0 -74.5 29t-28.5 74v27h38v-26q0 -32 18.5 -50t51.5 -18h17q9 95 66.5 150.5t147.5 55.5q93 0 151 -58t58 -148q0 -12 -2 -36h-379zM344 426q-73 0 -119.5 -46.5t-51.5 -123.5h338q0 75 -45.5 122.5t-121.5 47.5z" />
    <glyph glyph-name="uni04C0" unicode="&#x4c0;" horiz-adv-x="224" 
d="M90 0v700h44v-700h-44z" />
    <glyph glyph-name="uni04C1" unicode="&#x4c1;" horiz-adv-x="928" 
d="M464 738q-64 0 -109 27t-50 75h38q5 -33 39 -51t82 -18t82.5 18t39.5 51h38q-6 -48 -50.5 -75t-109.5 -27zM549 360l358 -360h-60l-361 367v-367h-44v367l-361 -367h-60l358 360h-21q-62 0 -105 76l-89 150q-25 43 -42.5 58.5t-45.5 15.5h-40v41h46q37 0 63 -20.5
t52 -66.5l88 -151q42 -77 109 -77h48v314h44v-314h48q67 0 109 77l88 151q26 46 52 66.5t63 20.5h46v-41h-40q-28 0 -45.5 -15.5t-42.5 -58.5l-89 -150q-43 -76 -105 -76h-21z" />
    <glyph glyph-name="uni04C2" unicode="&#x4c2;" horiz-adv-x="720" 
d="M360 494q-65 0 -109.5 35.5t-50.5 97.5h39q4 -46 38 -72t83 -26q48 0 82.5 26t38.5 72h38q-5 -62 -49.5 -97.5t-109.5 -35.5zM438 225l244 -225h-57l-244 225v-225h-42v225l-244 -225h-57l244 225h-4q-27 0 -45.5 14.5t-38.5 48.5l-50 77q-3 4 -8.5 12t-7.5 11t-7 9
t-8.5 8.5t-9 5.5t-11.5 4t-14 1h-26v39h37q28 0 44.5 -14.5t39.5 -49.5l61 -93q34 -58 74 -58h31v210h42v-210h31q40 0 74 58l61 93q23 35 39.5 49.5t44.5 14.5h37v-39h-26q-9 0 -16.5 -2t-12 -4t-10.5 -9t-8 -9t-9.5 -13t-9.5 -14l-50 -77q-20 -34 -38.5 -48.5t-45.5 -14.5
h-4z" />
    <glyph glyph-name="uni04C3" unicode="&#x4c3;" horiz-adv-x="593" 
d="M346 391q89 0 146 -52t57 -151q0 -95 -56.5 -148.5t-160.5 -53.5q-39 0 -84 8v40q33 -8 77 -8q93 0 137 44t44 117q0 80 -45 122.5t-120 42.5h-183v3l-24 29v-384h-44v700h44v-315h27v6h54q49 15 81 72l87 151q27 47 53 67t62 20h46v-41h-39q-28 0 -45.5 -15.5
t-43.5 -58.5l-88 -150q-16 -27 -36 -45h54z" />
    <glyph glyph-name="uni04C4" unicode="&#x4c4;" horiz-adv-x="470" 
d="M244 240q84 0 137.5 -51.5t53.5 -151.5q0 -102 -54 -159t-156 -57q-27 0 -59 8v39q25 -7 54 -7q88 0 130 48t42 127q0 82 -41 125.5t-114 43.5h-110v-205h-42v450h42v-210h31q35 0 74 58l61 93q23 35 39.5 49.5t44.5 14.5h37v-39h-26q-9 0 -16.5 -2t-12 -4t-10.5 -9
t-8 -9t-9.5 -13t-9.5 -14l-50 -77q-23 -36 -40 -48h12z" />
    <glyph glyph-name="uni04C5" unicode="&#x4c5;" horiz-adv-x="677" 
d="M587 41h29l-61 -161h-44l45 120h-12v660h-338v-421q0 -134 -38.5 -187.5t-107.5 -53.5h-36v42h28q56 0 83.5 44.5t27.5 155.5v460h424v-659z" />
    <glyph glyph-name="uni04C6" unicode="&#x4c6;" horiz-adv-x="539" 
d="M454 41h29l-61 -161h-44l45 120h-11v410h-244v-225q0 -186 -110 -186h-28v41h19q38 0 57.5 32.5t19.5 110.5v267h328v-409z" />
    <glyph glyph-name="uni04C7" unicode="&#x4c7;" horiz-adv-x="665" 
d="M532 700h43v-795q0 -60 -30 -94.5t-82 -34.5q-37 0 -64 13v42q26 -13 59 -13q35 0 54 25t19 71v112h1v302h-398v-328h-44v700h44v-332h398v332z" />
    <glyph glyph-name="uni04C8" unicode="&#x4c8;" horiz-adv-x="551" 
d="M424 450h42v-550q0 -58 -28.5 -91t-77.5 -33q-38 0 -63 13v41q25 -13 58 -13q32 0 50.5 24t18.5 67v298h-297v-206h-42v450h42v-206h297v206z" />
    <glyph glyph-name="uni04C9" unicode="&#x4c9;" horiz-adv-x="665" 
d="M575 41h29l-61 -161h-44l45 120h-12v328h-398v-328h-44v700h44v-332h398v332h43v-659z" />
    <glyph glyph-name="uni04CA" unicode="&#x4ca;" horiz-adv-x="551" 
d="M466 41h29l-61 -161h-44l45 120h-11v206h-297v-206h-42v450h42v-206h297v206h42v-409z" />
    <glyph glyph-name="uni04CB" unicode="&#x4cb;" horiz-adv-x="572" 
d="M482 700v-700h-30v-120h-44v161h30v253q-67 -48 -171 -48q-212 0 -212 223v231h44v-222q0 -93 41.5 -142t135.5 -49q100 0 162 49v364h44z" />
    <glyph glyph-name="uni04CC" unicode="&#x4cc;" horiz-adv-x="490" 
d="M405 450v-450h-29v-120h-44v161h30v147q-58 -33 -140 -33q-87 0 -130.5 38t-43.5 121v136h42v-132q0 -65 34.5 -95t104.5 -30q83 0 133 34v223h43z" />
    <glyph glyph-name="uni04CD" unicode="&#x4cd;" horiz-adv-x="813" 
d="M723 41h29l-61 -161h-44l45 120h-12v606l-255 -606h-37l-255 607v-607h-43v700h43l273 -641l273 641h44v-659z" />
    <glyph glyph-name="uni04CE" unicode="&#x4ce;" horiz-adv-x="679" 
d="M593 41h29l-61 -161h-44l45 120h-10v410l-199 -410h-27l-200 410v-410h-41v450h66l188 -391l188 391h67z" />
    <glyph glyph-name="uni04CF" unicode="&#x4cf;" horiz-adv-x="212" 
d="M85 0v450h42v-450h-42z" />
    <glyph glyph-name="uni04D0" unicode="&#x4d0;" horiz-adv-x="564" 
d="M283 738q-64 0 -109 27t-50 75h38q5 -33 39 -51t82 -18t82.5 18t39.5 51h38q-6 -48 -50.5 -75t-109.5 -27zM495 0l-48 144h-330l-47 -144h-47l239 700h41l239 -700h-47zM131 185h303l-152 458z" />
    <glyph glyph-name="uni04D1" unicode="&#x4d1;" horiz-adv-x="590" 
d="M276 494q-65 0 -109.5 35.5t-50.5 97.5h39q4 -46 38 -72t83 -26q48 0 82.5 26t38.5 72h38q-5 -62 -49.5 -97.5t-109.5 -35.5zM269 -12q-103 0 -164.5 67t-61.5 169q0 103 62.5 170.5t164.5 67.5q69 0 120 -35t73 -94v117h42v-450h-42v116q-22 -58 -74 -93t-120 -35z
M273 27q86 0 139 57.5t53 139.5q0 84 -52.5 141.5t-139.5 57.5q-85 0 -136.5 -56t-51.5 -143q0 -85 51.5 -141t136.5 -56z" />
    <glyph glyph-name="uni04D2" unicode="&#x4d2;" horiz-adv-x="564" 
d="M167 766q-20 0 -33.5 13.5t-13.5 33.5q0 21 13.5 35t33.5 14t34.5 -14t14.5 -35q0 -20 -14.5 -33.5t-34.5 -13.5zM399 766q-20 0 -34 13.5t-14 33.5q0 21 14 35t34 14t34 -14t14 -35q0 -20 -14 -33.5t-34 -13.5zM495 0l-48 144h-330l-47 -144h-47l239 700h41l239 -700
h-47zM131 185h303l-152 458z" />
    <glyph glyph-name="uni04D3" unicode="&#x4d3;" horiz-adv-x="590" 
d="M178 554q-20 0 -33.5 13.5t-13.5 33.5q0 21 13.5 35t33.5 14q22 0 35.5 -14t13.5 -35q0 -20 -14 -33.5t-35 -13.5zM372 554q-20 0 -33.5 13.5t-13.5 33.5q0 21 13.5 35t33.5 14q21 0 35 -14t14 -35q0 -20 -14 -33.5t-35 -13.5zM269 -12q-103 0 -164.5 67t-61.5 169
q0 103 62.5 170.5t164.5 67.5q69 0 120 -35t73 -94v117h42v-450h-42v116q-22 -58 -74 -93t-120 -35zM273 27q86 0 139 57.5t53 139.5q0 84 -52.5 141.5t-139.5 57.5q-85 0 -136.5 -56t-51.5 -143q0 -85 51.5 -141t136.5 -56z" />
    <glyph glyph-name="uni04D4" unicode="&#x4d4;" horiz-adv-x="796" 
d="M724 659h-292v-291h292v-40h-292v-287h292v-41h-335v145h-251l-73 -145h-47l356 700h350v-41zM158 185h231v459z" />
    <glyph glyph-name="uni04D5" unicode="&#x4d5;" horiz-adv-x="886" 
d="M844 255q0 -24 -2 -35h-380q1 -88 50 -141t129 -53q56 0 97 27t57 73h42q-14 -62 -68 -100.5t-128 -38.5q-70 0 -122.5 35t-77.5 96q-55 -130 -220 -130q-78 0 -125.5 34.5t-47.5 92.5q0 70 51 105q55 35 179 35h144v37q0 63 -40.5 98.5t-117.5 35.5q-68 0 -111 -33
t-47 -93h-42q3 74 57.5 118t142.5 44q153 0 188 -106q27 50 75.5 78t110.5 28q89 0 147.5 -59t58.5 -148zM463 255h339q0 75 -46 123t-119 48q-76 0 -123.5 -46t-50.5 -125zM422 192v6q-1 8 -1 22h-167q-162 0 -162 -103q0 -45 38 -69t107 -24q80 0 132.5 46t52.5 122z" />
    <glyph glyph-name="uni04D6" unicode="&#x4d6;" horiz-adv-x="548" 
d="M290 738q-64 0 -109 27t-50 75h38q5 -33 39 -51t82 -18t82.5 18t39.5 51h38q-6 -48 -50.5 -75t-109.5 -27zM90 0v700h385v-41h-341v-291h341v-40h-341v-287h341v-41h-385z" />
    <glyph glyph-name="uni04D7" unicode="&#x4d7;" horiz-adv-x="509" 
d="M259 494q-65 0 -109.5 35.5t-50.5 97.5h39q4 -46 38 -72t83 -26q48 0 82.5 26t38.5 72h38q-5 -62 -49.5 -97.5t-109.5 -35.5zM465 220h-379v-2q0 -86 48 -138.5t127 -52.5q57 0 99 26.5t58 71.5h42q-14 -61 -69 -99t-129 -38q-99 0 -159 65t-60 173q0 107 59 171.5
t156 64.5q93 0 151 -58t58 -148q0 -12 -2 -36zM258 426q-73 0 -119.5 -46.5t-51.5 -123.5h338q0 75 -45.5 122.5t-121.5 47.5z" />
    <glyph glyph-name="uni04D8" unicode="&#x4d8;" horiz-adv-x="782" 
d="M383 -13q-150 0 -245.5 105t-94.5 256v22h651q-5 129 -84 216t-227 87q-202 0 -273 -183h-50q31 100 114 162t209 62q115 0 197.5 -51.5t121 -132t38.5 -179.5q0 -151 -97 -257.5t-260 -106.5zM384 28q137 0 222 87.5t88 216.5h-606q3 -126 85 -215t211 -89z" />
    <glyph glyph-name="uni04D9" unicode="&#x4d9;" horiz-adv-x="509" 
d="M247 462q99 0 159 -65t60 -173q0 -107 -59 -171.5t-156 -64.5q-93 0 -151 58t-58 148q0 12 2 36h379v2q0 86 -48 138.5t-127 52.5q-57 0 -99 -26.5t-58 -71.5h-42q14 61 69 99t129 38zM251 24q73 0 119.5 46.5t51.5 123.5h-338q0 -75 45.5 -122.5t121.5 -47.5z" />
    <glyph glyph-name="uni04DA" unicode="&#x4da;" horiz-adv-x="782" 
d="M265 766q-20 0 -33.5 13.5t-13.5 33.5q0 21 13.5 35t33.5 14t34.5 -14t14.5 -35q0 -20 -14.5 -33.5t-34.5 -13.5zM497 766q-20 0 -34 13.5t-14 33.5q0 21 14 35t34 14t34 -14t14 -35q0 -20 -14 -33.5t-34 -13.5zM383 -13q-150 0 -245.5 105t-94.5 256v22h651
q-5 129 -84 216t-227 87q-202 0 -273 -183h-50q31 100 114 162t209 62q115 0 197.5 -51.5t121 -132t38.5 -179.5q0 -151 -97 -257.5t-260 -106.5zM384 28q137 0 222 87.5t88 216.5h-606q3 -126 85 -215t211 -89z" />
    <glyph glyph-name="uni04DB" unicode="&#x4db;" horiz-adv-x="509" 
d="M158 554q-20 0 -33.5 13.5t-13.5 33.5q0 21 13.5 35t33.5 14q22 0 35.5 -14t13.5 -35q0 -20 -14 -33.5t-35 -13.5zM352 554q-20 0 -33.5 13.5t-13.5 33.5q0 21 13.5 35t33.5 14q21 0 35 -14t14 -35q0 -20 -14 -33.5t-35 -13.5zM247 462q99 0 159 -65t60 -173
q0 -107 -59 -171.5t-156 -64.5q-93 0 -151 58t-58 148q0 12 2 36h379v2q0 86 -48 138.5t-127 52.5q-57 0 -99 -26.5t-58 -71.5h-42q14 61 69 99t129 38zM251 24q73 0 119.5 46.5t51.5 123.5h-338q0 -75 45.5 -122.5t121.5 -47.5z" />
    <glyph glyph-name="uni04DC" unicode="&#x4dc;" horiz-adv-x="928" 
d="M348 766q-20 0 -33.5 13.5t-13.5 33.5q0 21 13.5 35t33.5 14t34.5 -14t14.5 -35q0 -20 -14.5 -33.5t-34.5 -13.5zM580 766q-20 0 -34 13.5t-14 33.5q0 21 14 35t34 14t34 -14t14 -35q0 -20 -14 -33.5t-34 -13.5zM549 360l358 -360h-60l-361 367v-367h-44v367l-361 -367
h-60l358 360h-21q-62 0 -105 76l-89 150q-25 43 -42.5 58.5t-45.5 15.5h-40v41h46q37 0 63 -20.5t52 -66.5l88 -151q42 -77 109 -77h48v314h44v-314h48q67 0 109 77l88 151q26 46 52 66.5t63 20.5h46v-41h-40q-28 0 -45.5 -15.5t-42.5 -58.5l-89 -150q-43 -76 -105 -76h-21z
" />
    <glyph glyph-name="uni04DD" unicode="&#x4dd;" horiz-adv-x="720" 
d="M262 554q-20 0 -33.5 13.5t-13.5 33.5q0 21 13.5 35t33.5 14q22 0 35.5 -14t13.5 -35q0 -20 -14 -33.5t-35 -13.5zM456 554q-20 0 -33.5 13.5t-13.5 33.5q0 21 13.5 35t33.5 14q21 0 35 -14t14 -35q0 -20 -14 -33.5t-35 -13.5zM438 225l244 -225h-57l-244 225v-225h-42
v225l-244 -225h-57l244 225h-4q-27 0 -45.5 14.5t-38.5 48.5l-50 77q-3 4 -8.5 12t-7.5 11t-7 9t-8.5 8.5t-9 5.5t-11.5 4t-14 1h-26v39h37q28 0 44.5 -14.5t39.5 -49.5l61 -93q34 -58 74 -58h31v210h42v-210h31q40 0 74 58l61 93q23 35 39.5 49.5t44.5 14.5h37v-39h-26
q-9 0 -16.5 -2t-12 -4t-10.5 -9t-8 -9t-9.5 -13t-9.5 -14l-50 -77q-20 -34 -38.5 -48.5t-45.5 -14.5h-4z" />
    <glyph glyph-name="uni04DE" unicode="&#x4de;" horiz-adv-x="547" 
d="M154 766q-20 0 -33.5 13.5t-13.5 33.5q0 21 13.5 35t33.5 14t34.5 -14t14.5 -35q0 -20 -14.5 -33.5t-34.5 -13.5zM386 766q-20 0 -34 13.5t-14 33.5q0 21 14 35t34 14t34 -14t14 -35q0 -20 -14 -33.5t-34 -13.5zM91 193q0 -75 50 -120.5t133 -45.5t132 44.5t49 115.5
t-46.5 113t-129.5 42h-57v40h57q77 0 121 40.5t44 104.5q0 65 -45.5 105.5t-121.5 40.5q-82 0 -131.5 -42t-49.5 -112h-44q0 87 61.5 141t162.5 54q95 0 153.5 -50t58.5 -135q0 -63 -37 -108.5t-102 -56.5q69 -10 109.5 -58.5t40.5 -118.5q0 -90 -61.5 -145.5t-163.5 -55.5
t-164 56.5t-62 150.5h43z" />
    <glyph glyph-name="uni04DF" unicode="&#x4df;" horiz-adv-x="477" 
d="M147 554q-20 0 -33.5 13.5t-13.5 33.5q0 21 13.5 35t33.5 14q22 0 35.5 -14t13.5 -35q0 -20 -14 -33.5t-35 -13.5zM341 554q-20 0 -33.5 13.5t-13.5 33.5q0 21 13.5 35t33.5 14q21 0 35 -14t14 -35q0 -20 -14 -33.5t-35 -13.5zM104 122q0 -44 37 -69.5t101 -25.5
q61 0 97 25t36 68q0 41 -30 66t-81 25h-70v35h69q47 0 75 25.5t28 65.5q0 39 -32.5 63.5t-87.5 24.5q-61 0 -96 -25t-35 -65h-45q0 56 48.5 91.5t126.5 35.5q74 0 119.5 -34t45.5 -87q0 -43 -25.5 -73.5t-69.5 -37.5q47 -4 75 -35t28 -78q0 -57 -49.5 -92.5t-128.5 -35.5
q-82 0 -131.5 36.5t-49.5 96.5h45z" />
    <glyph glyph-name="uni04E0" unicode="&#x4e0;" horiz-adv-x="544" 
d="M274 -13q-102 0 -164 56.5t-62 150.5h43q0 -75 51 -120.5t133 -45.5t131 47t49 122q0 76 -47 121.5t-130 45.5h-68l216 296h-346v40h422l-222 -300q100 1 159 -53t59 -149q0 -94 -62 -152.5t-162 -58.5z" />
    <glyph glyph-name="uni04E1" unicode="&#x4e1;" horiz-adv-x="491" 
d="M221 -230q-94 0 -148.5 50.5t-54.5 137.5h42q1 -68 44.5 -108.5t117.5 -40.5q77 0 119 49t42 132q0 84 -49 131.5t-150 47.5h-40l211 243h-313v38h390l-217 -249q105 -3 158 -60.5t53 -150.5q0 -101 -54 -160.5t-151 -59.5z" />
    <glyph glyph-name="uni04E2" unicode="&#x4e2;" horiz-adv-x="664" 
d="M166 755v37h338v-37h-338zM531 590l-397 -546v-44h-44v700h44v-589l397 545v44h43v-700h-43v590z" />
    <glyph glyph-name="uni04E3" unicode="&#x4e3;" horiz-adv-x="552" 
d="M118 544v36h317v-36h-317zM425 366l-298 -334v-32h-42v450h42v-367l298 335v32h42v-450h-42v366z" />
    <glyph glyph-name="uni04E4" unicode="&#x4e4;" horiz-adv-x="664" 
d="M219 746q-20 0 -33.5 13.5t-13.5 33.5q0 21 13.5 35t33.5 14t34.5 -14t14.5 -35q0 -20 -14.5 -33.5t-34.5 -13.5zM451 746q-20 0 -34 13.5t-14 33.5q0 21 14 35t34 14t34 -14t14 -35q0 -20 -14 -33.5t-34 -13.5zM531 590l-397 -546v-44h-44v700h44v-589l397 545v44h43
v-700h-43v590z" />
    <glyph glyph-name="uni04E5" unicode="&#x4e5;" horiz-adv-x="552" 
d="M179 544q-20 0 -33.5 13.5t-13.5 33.5q0 21 13.5 35t33.5 14q22 0 35.5 -14t13.5 -35q0 -20 -14 -33.5t-35 -13.5zM373 544q-20 0 -33.5 13.5t-13.5 33.5q0 21 13.5 35t33.5 14q21 0 35 -14t14 -35q0 -20 -14 -33.5t-35 -13.5zM425 366l-298 -334v-32h-42v450h42v-367
l298 335v32h42v-450h-42v366z" />
    <glyph glyph-name="uni04E6" unicode="&#x4e6;" horiz-adv-x="803" 
d="M286 766q-20 0 -33.5 13.5t-13.5 33.5q0 21 13.5 35t33.5 14t34.5 -14t14.5 -35q0 -20 -14.5 -33.5t-34.5 -13.5zM518 766q-20 0 -34 13.5t-14 33.5q0 21 14 35t34 14t34 -14t14 -35q0 -20 -14 -33.5t-34 -13.5zM402 -14q-162 0 -260.5 107t-98.5 257t98.5 257t260.5 107
t260.5 -107t98.5 -257t-98.5 -257t-260.5 -107zM402 27q142 0 228 95t85 228q1 133 -85 228t-228 95t-228 -95t-86 -228t86 -228t228 -95z" />
    <glyph glyph-name="uni04E7" unicode="&#x4e7;" horiz-adv-x="543" 
d="M173 554q-20 0 -33.5 13.5t-13.5 33.5q0 21 13.5 35t33.5 14q22 0 35.5 -14t13.5 -35q0 -20 -14 -33.5t-35 -13.5zM367 554q-20 0 -33.5 13.5t-13.5 33.5q0 21 13.5 35t33.5 14q21 0 35 -14t14 -35q0 -20 -14 -33.5t-35 -13.5zM271 -12q-102 0 -165 68.5t-63 169.5
q0 100 63 168.5t165 68.5q103 0 166 -68.5t63 -168.5q0 -101 -63 -169.5t-166 -68.5zM271 28q84 0 135.5 57t51.5 141q0 83 -51.5 140t-135.5 57t-135 -57t-51 -141q0 -83 51 -140t135 -57z" />
    <glyph glyph-name="uni04E8" unicode="&#x4e8;" horiz-adv-x="803" 
d="M402 714q162 0 260.5 -107t98.5 -257t-98.5 -257t-260.5 -107t-260.5 107t-98.5 257t98.5 257t260.5 107zM402 673q-137 0 -222.5 -89t-91.5 -217h627q-5 128 -90.5 217t-222.5 89zM402 27q138 0 223 89.5t90 217.5h-627q6 -128 91 -217.5t223 -89.5z" />
    <glyph glyph-name="uni04E9" unicode="&#x4e9;" horiz-adv-x="543" 
d="M271 463q103 0 166 -68.5t63 -168.5q0 -101 -63 -169.5t-166 -68.5q-102 0 -165 68.5t-63 169.5q0 100 63 168.5t165 68.5zM271 423q-80 0 -130 -51.5t-55 -130.5h372q-5 78 -56 130t-131 52zM271 28q80 0 130.5 51t55.5 129h-371q5 -78 55.5 -129t129.5 -51z" />
    <glyph glyph-name="uni04EA" unicode="&#x4ea;" horiz-adv-x="803" 
d="M286 766q-20 0 -33.5 13.5t-13.5 33.5q0 21 13.5 35t33.5 14t34.5 -14t14.5 -35q0 -20 -14.5 -33.5t-34.5 -13.5zM518 766q-20 0 -34 13.5t-14 33.5q0 21 14 35t34 14t34 -14t14 -35q0 -20 -14 -33.5t-34 -13.5zM402 714q162 0 260.5 -107t98.5 -257t-98.5 -257
t-260.5 -107t-260.5 107t-98.5 257t98.5 257t260.5 107zM402 673q-137 0 -222.5 -89t-91.5 -217h627q-5 128 -90.5 217t-222.5 89zM402 27q138 0 223 89.5t90 217.5h-627q6 -128 91 -217.5t223 -89.5z" />
    <glyph glyph-name="uni04EB" unicode="&#x4eb;" horiz-adv-x="543" 
d="M173 554q-20 0 -33.5 13.5t-13.5 33.5q0 21 13.5 35t33.5 14q22 0 35.5 -14t13.5 -35q0 -20 -14 -33.5t-35 -13.5zM367 554q-20 0 -33.5 13.5t-13.5 33.5q0 21 13.5 35t33.5 14q21 0 35 -14t14 -35q0 -20 -14 -33.5t-35 -13.5zM271 463q103 0 166 -68.5t63 -168.5
q0 -101 -63 -169.5t-166 -68.5q-102 0 -165 68.5t-63 169.5q0 100 63 168.5t165 68.5zM271 423q-80 0 -130 -51.5t-55 -130.5h372q-5 78 -56 130t-131 52zM271 28q80 0 130.5 51t55.5 129h-371q5 -78 55.5 -129t129.5 -51z" />
    <glyph glyph-name="uni04EC" unicode="&#x4ec;" horiz-adv-x="763" 
d="M253 766q-20 0 -33.5 13.5t-13.5 33.5q0 21 13.5 35t33.5 14t34.5 -14t14.5 -35q0 -20 -14.5 -33.5t-34.5 -13.5zM485 766q-20 0 -34 13.5t-14 33.5q0 21 14 35t34 14t34 -14t14 -35q0 -20 -14 -33.5t-34 -13.5zM366 714q154 0 254 -102.5t100 -261.5t-100 -261.5
t-254 -102.5q-120 0 -206 59.5t-115 161.5h47q26 -84 99 -132t175 -48q130 0 215.5 84t92.5 219h-407v41h407q-7 135 -92.5 218.5t-215.5 83.5q-102 0 -175 -48t-99 -131h-47q29 102 115.5 161t205.5 59z" />
    <glyph glyph-name="uni04ED" unicode="&#x4ed;" horiz-adv-x="521" 
d="M156 554q-20 0 -33.5 13.5t-13.5 33.5q0 21 13.5 35t33.5 14q22 0 35.5 -14t13.5 -35q0 -20 -14 -33.5t-35 -13.5zM350 554q-20 0 -33.5 13.5t-13.5 33.5q0 21 13.5 35t33.5 14q21 0 35 -14t14 -35q0 -20 -14 -33.5t-35 -13.5zM88 286h-43q6 75 58.5 125.5t149.5 50.5
q109 0 167 -68t58 -168q0 -99 -59.5 -168.5t-165.5 -69.5q-94 0 -148 46.5t-63 119.5h44q10 -57 52 -92t117 -35q82 0 128.5 52t49.5 130h-219v35h219q-3 77 -48 128t-130 51q-78 0 -119 -39t-48 -98z" />
    <glyph glyph-name="uni04EE" unicode="&#x4ee;" horiz-adv-x="533" 
d="M449 812v-37h-338v37h338zM490 700h48l-362 -700h-49l143 275l-270 425h51l242 -380z" />
    <glyph glyph-name="uni04EF" unicode="&#x4ef;" horiz-adv-x="568" 
d="M123 554v36h317v-36h-317zM440 450h43v-472q0 -114 -66 -166q-51 -42 -137 -42q-95 0 -149 46q-51 43 -51 115h43q1 -53 39 -88t118 -35q160 0 160 172v139q-19 -56 -65 -93t-114 -37q-181 0 -181 206v255h42v-248q0 -86 33.5 -129.5t116.5 -43.5q80 0 124 59t44 133v229
z" />
    <glyph glyph-name="uni04F0" unicode="&#x4f0;" horiz-adv-x="533" 
d="M164 766q-20 0 -33.5 13.5t-13.5 33.5q0 21 13.5 35t33.5 14t34.5 -14t14.5 -35q0 -20 -14.5 -33.5t-34.5 -13.5zM396 766q-20 0 -34 13.5t-14 33.5q0 21 14 35t34 14t34 -14t14 -35q0 -20 -14 -33.5t-34 -13.5zM490 700h48l-362 -700h-49l143 275l-270 425h51l242 -380z
" />
    <glyph glyph-name="uni04F1" unicode="&#x4f1;" horiz-adv-x="568" 
d="M184 554q-20 0 -33.5 13.5t-13.5 33.5q0 21 13.5 35t33.5 14q22 0 35.5 -14t13.5 -35q0 -20 -14 -33.5t-35 -13.5zM378 554q-20 0 -33.5 13.5t-13.5 33.5q0 21 13.5 35t33.5 14q21 0 35 -14t14 -35q0 -20 -14 -33.5t-35 -13.5zM440 450h43v-472q0 -114 -66 -166
q-51 -42 -137 -42q-95 0 -149 46q-51 43 -51 115h43q1 -53 39 -88t118 -35q160 0 160 172v139q-19 -56 -65 -93t-114 -37q-181 0 -181 206v255h42v-248q0 -86 33.5 -129.5t116.5 -43.5q80 0 124 59t44 133v229z" />
    <glyph glyph-name="uni04F2" unicode="&#x4f2;" horiz-adv-x="533" 
d="M323 865l-142 -128l-28 13l132 131zM512 864l-142 -128l-28 14l133 131zM490 700h48l-362 -700h-49l143 275l-270 425h51l242 -380z" />
    <glyph glyph-name="uni04F3" unicode="&#x4f3;" horiz-adv-x="568" 
d="M186 508l-27 14l125 166l38 -19zM366 508l-27 14l125 166l38 -19zM440 450h43v-472q0 -114 -66 -166q-51 -42 -137 -42q-95 0 -149 46q-51 43 -51 115h43q1 -53 39 -88t118 -35q160 0 160 172v139q-19 -56 -65 -93t-114 -37q-181 0 -181 206v255h42v-248
q0 -86 33.5 -129.5t116.5 -43.5q80 0 124 59t44 133v229z" />
    <glyph glyph-name="uni04F4" unicode="&#x4f4;" horiz-adv-x="572" 
d="M156 766q-20 0 -33.5 13.5t-13.5 33.5q0 21 13.5 35t33.5 14t34.5 -14t14.5 -35q0 -20 -14.5 -33.5t-34.5 -13.5zM388 766q-20 0 -34 13.5t-14 33.5q0 21 14 35t34 14t34 -14t14 -35q0 -20 -14 -33.5t-34 -13.5zM438 0v294q-67 -48 -171 -48q-212 0 -212 223v231h44v-222
q0 -93 41.5 -142t135.5 -49q100 0 162 49v364h44v-700h-44z" />
    <glyph glyph-name="uni04F5" unicode="&#x4f5;" horiz-adv-x="490" 
d="M129 554q-20 0 -33.5 13.5t-13.5 33.5q0 21 13.5 35t33.5 14q22 0 35.5 -14t13.5 -35q0 -20 -14 -33.5t-35 -13.5zM323 554q-20 0 -33.5 13.5t-13.5 33.5q0 21 13.5 35t33.5 14q21 0 35 -14t14 -35q0 -20 -14 -33.5t-35 -13.5zM362 0v188q-58 -33 -140 -33
q-87 0 -130.5 38t-43.5 121v136h42v-132q0 -65 34.5 -95t104.5 -30q83 0 133 34v223h43v-450h-43z" />
    <glyph glyph-name="uni04F6" unicode="&#x4f6;" horiz-adv-x="469" 
d="M460 658h-326v-617h28v-161h-42v120h-30v700h370v-42z" />
    <glyph glyph-name="uni04F7" unicode="&#x4f7;" horiz-adv-x="372" 
d="M348 410h-221v-369h28v-161h-42v120h-28v450h263v-40z" />
    <glyph glyph-name="uni04F8" unicode="&#x4f8;" horiz-adv-x="747" 
d="M265 766q-20 0 -33.5 13.5t-13.5 33.5q0 21 13.5 35t33.5 14t34.5 -14t14.5 -35q0 -20 -14.5 -33.5t-34.5 -13.5zM497 766q-20 0 -34 13.5t-14 33.5q0 21 14 35t34 14t34 -14t14 -35q0 -20 -14 -33.5t-34 -13.5zM90 0v700h44v-313h206q77 0 129.5 -56t52.5 -138
q0 -80 -54 -136.5t-132 -56.5h-246zM613 0v700h44v-700h-44zM134 41h202q59 0 100.5 44.5t41.5 107.5t-40.5 108t-97.5 45h-206v-305z" />
    <glyph glyph-name="uni04F9" unicode="&#x4f9;" horiz-adv-x="616" 
d="M208 554q-20 0 -33.5 13.5t-13.5 33.5q0 21 13.5 35t33.5 14q22 0 35.5 -14t13.5 -35q0 -20 -14 -33.5t-35 -13.5zM402 554q-20 0 -33.5 13.5t-13.5 33.5q0 21 13.5 35t33.5 14q21 0 35 -14t14 -35q0 -20 -14 -33.5t-35 -13.5zM85 450h42v-182h146q58 0 96 -38.5
t38 -95.5q0 -56 -39.5 -95t-97.5 -39h-185v450zM488 0v450h42v-450h-42zM127 232v-195h141q41 0 68.5 28.5t27.5 68.5t-26.5 69t-65.5 29h-145z" />
    <glyph glyph-name="uni04FC" unicode="&#x4fc;" horiz-adv-x="580" 
d="M428 -223q-33 0 -59 13v42q29 -13 55 -13q78 0 78 97q0 46 -19.5 93t-68.5 119l-124 185l-210 -313h-50l235 350l-235 350h50l210 -314l210 314h50l-235 -350l134 -199q54 -81 75.5 -134t21.5 -105q0 -135 -118 -135z" />
    <glyph glyph-name="uni04FD" unicode="&#x4fd;" horiz-adv-x="453" 
d="M316 -224q-33 0 -58 13v38q29 -13 53 -13q75 0 75 92q0 42 -22 87.5t-68 106.5l-70 94l-150 -194h-51l176 225l-175 225h51l149 -193l149 193h52l-176 -225l80 -106q53 -70 74.5 -119.5t21.5 -99.5q0 -58 -28.5 -91t-82.5 -33z" />
    <glyph glyph-name="uni0510" unicode="&#x510;" horiz-adv-x="547" 
d="M456 193h43q0 -94 -62 -150.5t-164 -56.5t-163.5 55.5t-61.5 145.5q0 70 40.5 118.5t109.5 58.5q-65 11 -102 56.5t-37 108.5q0 85 58.5 135t153.5 50q101 0 162.5 -54t61.5 -141h-44q0 70 -49.5 112t-131.5 42q-76 0 -121.5 -40.5t-45.5 -105.5q0 -64 44 -104.5
t121 -40.5h57v-40h-57q-83 0 -129.5 -42t-46.5 -113t49 -115.5t132 -44.5t133 45.5t50 120.5z" />
    <glyph glyph-name="uni0511" unicode="&#x511;" horiz-adv-x="477" 
d="M373 122h45q0 -60 -49.5 -96.5t-131.5 -36.5q-79 0 -128.5 35.5t-49.5 92.5q0 47 28 78t75 35q-44 7 -69.5 37.5t-25.5 73.5q0 53 45.5 87t119.5 34q78 0 126.5 -35.5t48.5 -91.5h-45q0 40 -35 65t-96 25q-55 0 -87.5 -24.5t-32.5 -63.5q0 -40 28 -65.5t75 -25.5h69v-35
h-70q-51 0 -81 -25t-30 -66q0 -43 36 -68t97 -25q64 0 101 25.5t37 69.5z" />
    <glyph glyph-name="uni0512" unicode="&#x512;" horiz-adv-x="677" 
d="M163 700h424v-795q0 -60 -30 -94.5t-82 -34.5q-37 0 -64 13v42q26 -13 59 -13q35 0 54 25t19 71v112h1v634h-338v-421q0 -134 -38.5 -187.5t-107.5 -53.5h-36v42h28q56 0 83.5 44.5t27.5 155.5v460z" />
    <glyph glyph-name="uni0513" unicode="&#x513;" horiz-adv-x="539" 
d="M126 450h328v-550q0 -58 -28 -91t-77 -33q-38 0 -63 13v41q25 -13 57 -13t50.5 24t18.5 67v502h-244v-225q0 -186 -110 -186h-28v41h19q38 0 57.5 32.5t19.5 110.5v267z" />
    <glyph glyph-name="uni051C" unicode="&#x51c;" horiz-adv-x="928" 
d="M242 0l-234 700h46l207 -632l185 632h37l184 -632l208 632h46l-235 -700h-36l-186 628l-185 -628h-37z" />
    <glyph glyph-name="uni051D" unicode="&#x51d;" horiz-adv-x="707" 
d="M179 0l-166 450h45l139 -392l134 392h45l133 -392l140 392h46l-167 -450h-38l-137 397l-136 -397h-38z" />
    <glyph glyph-name="uni0524" unicode="&#x524;" horiz-adv-x="659" 
d="M569 41h29v-161h-42v120h-31v659h-391v-659h-44v700h479v-659z" />
    <glyph glyph-name="uni0525" unicode="&#x525;" horiz-adv-x="566" 
d="M476 41h29v-161h-42v120h-29v413h-307v-413h-42v450h391v-409z" />
    <glyph glyph-name="uni0526" unicode="&#x526;" horiz-adv-x="608" 
d="M517 41h28v-161h-43v120h-29v222q0 93 -41.5 142t-135.5 49q-100 0 -162 -49v-364h-44v700h44v-294q65 48 171 48q212 0 212 -223v-190z" />
    <glyph glyph-name="uni0527" unicode="&#x527;" horiz-adv-x="574" 
d="M486 41h27v-161h-42v120h-28v252q0 172 -144 172q-82 0 -125 -56t-43 -148v-220h-42v700h42v-374q14 61 60 98.5t120 37.5q87 0 131 -50.5t44 -146.5v-224z" />
    <glyph glyph-name="uni0E3F" unicode="&#xe3f;" horiz-adv-x="577" 
d="M386 343q59 -10 97.5 -54t38.5 -110q0 -83 -56 -131t-150 -48h-16v-98h-35v98h-175v682h175v98h35v-98h13q93 0 148.5 -47t55.5 -129q0 -68 -36 -111t-95 -52zM312 642h-178v-280h197q61 0 101.5 38.5t40.5 101.5q0 66 -43.5 103t-117.5 37zM316 40q74 0 118 37.5
t44 104.5q0 63 -41 102t-102 39h-201v-283h182z" />
    <glyph glyph-name="Wgrave" unicode="&#x1e80;" horiz-adv-x="928" 
d="M574 730l-239 126l17 32l239 -126zM242 0l-234 700h46l207 -632l185 632h37l184 -632l208 632h46l-235 -700h-36l-186 628l-185 -628h-37z" />
    <glyph glyph-name="wgrave" unicode="&#x1e81;" horiz-adv-x="707" 
d="M472 511l-257 130l16 34l257 -129zM179 0l-166 450h45l139 -392l134 392h45l133 -392l140 392h46l-167 -450h-38l-137 397l-136 -397h-38z" />
    <glyph glyph-name="Wacute" unicode="&#x1e82;" horiz-adv-x="928" 
d="M355 730l-17 32l239 126l17 -32zM242 0l-234 700h46l207 -632l185 632h37l184 -632l208 632h46l-235 -700h-36l-186 628l-185 -628h-37z" />
    <glyph glyph-name="wacute" unicode="&#x1e83;" horiz-adv-x="707" 
d="M230 514l-16 35l257 129l16 -34zM179 0l-166 450h45l139 -392l134 392h45l133 -392l140 392h46l-167 -450h-38l-137 397l-136 -397h-38z" />
    <glyph glyph-name="Wdieresis" unicode="&#x1e84;" horiz-adv-x="928" 
d="M349 766q-20 0 -33.5 13.5t-13.5 33.5q0 21 13.5 35t33.5 14t34.5 -14t14.5 -35q0 -20 -14.5 -33.5t-34.5 -13.5zM581 766q-20 0 -34 13.5t-14 33.5q0 21 14 35t34 14t34 -14t14 -35q0 -20 -14 -33.5t-34 -13.5zM242 0l-234 700h46l207 -632l185 632h37l184 -632l208 632
h46l-235 -700h-36l-186 628l-185 -628h-37z" />
    <glyph glyph-name="wdieresis" unicode="&#x1e85;" horiz-adv-x="707" 
d="M256 554q-20 0 -33.5 13.5t-13.5 33.5q0 21 13.5 35t33.5 14q22 0 35.5 -14t13.5 -35q0 -20 -14 -33.5t-35 -13.5zM450 554q-20 0 -33.5 13.5t-13.5 33.5q0 21 13.5 35t33.5 14q21 0 35 -14t14 -35q0 -20 -14 -33.5t-35 -13.5zM179 0l-166 450h45l139 -392l134 392h45
l133 -392l140 392h46l-167 -450h-38l-137 397l-136 -397h-38z" />
    <glyph glyph-name="Ygrave" unicode="&#x1ef2;" horiz-adv-x="533" 
d="M406 762l-17 -32l-239 126l17 32zM490 700h48l-362 -700h-49l143 275l-270 425h51l242 -380z" />
    <glyph glyph-name="ygrave" unicode="&#x1ef3;" horiz-adv-x="568" 
d="M400 511l-257 130l16 34l257 -129zM440 450h43v-472q0 -114 -66 -166q-51 -42 -137 -42q-95 0 -149 46q-51 43 -51 115h43q1 -53 39 -88t118 -35q160 0 160 172v139q-19 -56 -65 -93t-114 -37q-181 0 -181 206v255h42v-248q0 -86 33.5 -129.5t116.5 -43.5q80 0 124 59
t44 133v229z" />
    <glyph glyph-name="uni2002" unicode="&#x2002;" horiz-adv-x="500" 
 />
    <glyph glyph-name="uni2003" unicode="&#x2003;" horiz-adv-x="1000" 
 />
    <glyph glyph-name="uni2004" unicode="&#x2004;" horiz-adv-x="0" 
 />
    <glyph glyph-name="uni2005" unicode="&#x2005;" horiz-adv-x="250" 
 />
    <glyph glyph-name="uni2009" unicode="&#x2009;" horiz-adv-x="135" 
 />
    <glyph glyph-name="uni200A" unicode="&#x200a;" horiz-adv-x="75" 
 />
    <glyph glyph-name="endash" unicode="&#x2013;" horiz-adv-x="577" 
d="M58 242v36h462v-36h-462z" />
    <glyph glyph-name="emdash" unicode="&#x2014;" horiz-adv-x="759" 
d="M58 249v37h644v-37h-644z" />
    <glyph glyph-name="quoteleft" unicode="&#x2018;" horiz-adv-x="261" 
d="M149 531q-31 0 -52.5 27.5t-21.5 71.5q0 50 26.5 79t69.5 29q13 0 23 -3v-27q-14 2 -21 2q-24 0 -39.5 -14.5t-17.5 -38.5q-5 -23 4 -43q10 13 32 13q20 0 33 -13t13 -34t-13 -35t-36 -14z" />
    <glyph glyph-name="quoteright" unicode="&#x2019;" horiz-adv-x="261" 
d="M112 718q31 0 52.5 -27.5t21.5 -71.5q0 -50 -26.5 -79t-69.5 -29q-12 0 -23 3v27q14 -2 21 -2q24 0 39.5 14.5t17.5 38.5q5 23 -4 43q-10 -13 -32 -13q-20 0 -33 13t-13 34t13 35t36 14z" />
    <glyph glyph-name="quotesinglbase" unicode="&#x201a;" horiz-adv-x="261" 
d="M112 91q31 0 52.5 -27.5t21.5 -71.5q0 -50 -26.5 -79t-69.5 -29q-12 0 -23 3v27q14 -2 21 -2q24 0 39.5 14.5t17.5 38.5q5 23 -4 43q-10 -13 -32 -13q-20 0 -33 13t-13 34t13 35t36 14z" />
    <glyph glyph-name="quotedblleft" unicode="&#x201c;" horiz-adv-x="413" 
d="M149 531q-31 0 -52.5 27.5t-21.5 71.5q0 50 26.5 79t69.5 29q13 0 23 -3v-27q-14 2 -21 2q-24 0 -39.5 -14.5t-17.5 -38.5q-5 -23 4 -43q10 13 32 13q20 0 33 -13t13 -34t-13 -35t-36 -14zM302 531q-31 0 -52.5 27.5t-21.5 71.5q0 50 26.5 79t69.5 29q12 0 23 -3v-27
q-14 2 -21 2q-24 0 -39.5 -14.5t-17.5 -38.5q-5 -23 4 -43q10 13 32 13q20 0 33 -13t13 -34t-13 -35t-36 -14z" />
    <glyph glyph-name="quotedblright" unicode="&#x201d;" horiz-adv-x="413" 
d="M112 718q31 0 52.5 -27.5t21.5 -71.5q0 -50 -26.5 -79t-69.5 -29q-12 0 -23 3v27q14 -2 21 -2q24 0 39.5 14.5t17.5 38.5q5 23 -4 43q-10 -13 -32 -13q-20 0 -33 13t-13 34t13 35t36 14zM264 718q31 0 52.5 -27.5t21.5 -71.5q0 -50 -26.5 -79t-69.5 -29q-12 0 -23 3v27
q14 -2 21 -2q24 0 39.5 14.5t17.5 38.5q5 23 -4 43q-10 -13 -32 -13q-20 0 -33 13t-13 34t13 35t36 14z" />
    <glyph glyph-name="quotedblbase" unicode="&#x201e;" horiz-adv-x="413" 
d="M112 91q31 0 52.5 -27.5t21.5 -71.5q0 -50 -26.5 -79t-69.5 -29q-12 0 -23 3v27q14 -2 21 -2q24 0 39.5 14.5t17.5 38.5q5 23 -4 43q-10 -13 -32 -13q-20 0 -33 13t-13 34t13 35t36 14zM264 91q31 0 52.5 -27.5t21.5 -71.5q0 -50 -26.5 -79t-69.5 -29q-12 0 -23 3v27
q14 -2 21 -2q24 0 39.5 14.5t17.5 38.5q5 23 -4 43q-10 -13 -32 -13q-20 0 -33 13t-13 34t13 35t36 14z" />
    <glyph glyph-name="dagger" unicode="&#x2020;" horiz-adv-x="424" 
d="M190 -182v580h-140v39h140v280h42v-280h142v-39h-142v-580h-42z" />
    <glyph glyph-name="daggerdbl" unicode="&#x2021;" horiz-adv-x="424" 
d="M190 -182v210h-140v38h140v332h-140v39h140v280h42v-280h142v-39h-142v-332h142v-38h-142v-210h-42z" />
    <glyph glyph-name="bullet" unicode="&#x2022;" horiz-adv-x="368" 
d="M184 196q-48 0 -82 34t-34 82q0 49 34 83t82 34q49 0 83 -34t34 -83q0 -48 -34 -82t-83 -34z" />
    <glyph glyph-name="ellipsis" unicode="&#x2026;" horiz-adv-x="732" 
d="M140 -9q-22 0 -36 14.5t-14 35.5t14 35.5t36 14.5q21 0 35.5 -14.5t14.5 -35.5t-14.5 -35.5t-35.5 -14.5zM366 -9q-22 0 -36 14.5t-14 35.5t14 35.5t36 14.5q21 0 35.5 -14.5t14.5 -35.5t-14.5 -35.5t-35.5 -14.5zM592 -9q-22 0 -36 14.5t-14 35.5t14 35.5t36 14.5
q21 0 35.5 -14.5t14.5 -35.5t-14.5 -35.5t-35.5 -14.5z" />
    <glyph glyph-name="perthousand" unicode="&#x2030;" horiz-adv-x="1128" 
d="M151 -8l-31 18l472 682l30 -17zM191 351q-78 0 -124.5 49.5t-46.5 120.5t46.5 120.5t124.5 49.5t124.5 -49.5t46.5 -120.5t-46.5 -120.5t-124.5 -49.5zM191 386q61 0 97 39.5t36 95.5t-36 95.5t-97 39.5t-96.5 -39.5t-35.5 -95.5t35.5 -95.5t96.5 -39.5zM558 -5
q-78 0 -124.5 49.5t-46.5 120.5t46.5 120.5t124.5 49.5t124.5 -49.5t46.5 -120.5t-46.5 -120.5t-124.5 -49.5zM936 -5q-78 0 -124.5 49.5t-46.5 120.5t46.5 120.5t124.5 49.5t124.5 -49.5t46.5 -120.5t-46.5 -120.5t-124.5 -49.5zM558 30q61 0 97 39.5t36 95.5t-36 95.5
t-97 39.5t-96.5 -39.5t-35.5 -95.5t35.5 -95.5t96.5 -39.5zM936 30q61 0 97 39.5t36 95.5t-36 95.5t-97 39.5t-96.5 -39.5t-35.5 -95.5t35.5 -95.5t96.5 -39.5z" />
    <glyph glyph-name="guilsinglleft" unicode="&#x2039;" horiz-adv-x="260" 
d="M212 76l-203 185l203 185l27 -26l-174 -159l174 -158z" />
    <glyph glyph-name="guilsinglright" unicode="&#x203a;" horiz-adv-x="260" 
d="M48 76l-27 27l174 158l-174 159l27 26l203 -185z" />
    <glyph glyph-name="fraction" unicode="&#x2044;" horiz-adv-x="138" 
d="M-152 -9l-31 19l473 682l30 -19z" />
    <glyph glyph-name="uni2070" unicode="&#x2070;" horiz-adv-x="411" 
d="M206 394q-76 0 -116 52t-40 152t40 152t116 52q75 0 114.5 -52t39.5 -152t-39.5 -152t-114.5 -52zM206 428q115 0 115 170t-115 170q-116 0 -116 -170t116 -170z" />
    <glyph glyph-name="uni2074" unicode="&#x2074;" horiz-adv-x="379" 
d="M344 568v-33h-71v-136h-38v136h-171v259h37v-226h134v124h38v-124h71z" />
    <glyph glyph-name="uni2075" unicode="&#x2075;" horiz-adv-x="386" 
d="M197 394q-61 0 -97.5 28.5t-39.5 76.5h38q2 -33 29 -53t71 -20q48 0 76.5 29t28.5 79q0 48 -26.5 75t-72.5 27q-72 0 -99 -55h-35v213h243v-31h-209v-147q30 50 107 50q59 0 94 -35t35 -97q0 -65 -39.5 -102.5t-103.5 -37.5z" />
    <glyph glyph-name="uni2076" unicode="&#x2076;" horiz-adv-x="385" 
d="M192 672q64 0 103 -40t39 -100q0 -59 -39 -99.5t-103 -40.5t-103 40.5t-39 99.5q0 48 24 81h-1l123 181h45l-90 -127q22 5 41 5zM192 425q47 0 75.5 30.5t28.5 76.5t-28 77t-76 31t-77 -31t-29 -77t29 -76.5t77 -30.5z" />
    <glyph glyph-name="uni2077" unicode="&#x2077;" horiz-adv-x="335" 
d="M58 400l208 362h-220v32h276l-220 -394h-44z" />
    <glyph glyph-name="uni2078" unicode="&#x2078;" horiz-adv-x="383" 
d="M191 394q-64 0 -103 30t-39 80q0 39 24 65.5t65 33.5q-38 7 -60 32.5t-22 61.5q0 47 37 75.5t98 28.5t98.5 -28.5t37.5 -75.5q0 -36 -22 -61t-60 -33q41 -7 64.5 -33.5t23.5 -65.5q0 -50 -39 -80t-103 -30zM191 618q45 0 71.5 20.5t26.5 55.5t-27 56.5t-71 21.5
t-71 -21.5t-27 -56.5q0 -34 27 -55t71 -21zM191 423q47 0 75.5 23t28.5 61t-28 60t-76 22q-47 0 -75 -22t-28 -60t28.5 -61t74.5 -23z" />
    <glyph glyph-name="uni2079" unicode="&#x2079;" horiz-adv-x="385" 
d="M335 662q0 -48 -24 -81h1l-123 -181h-45l90 127q-22 -5 -41 -5q-64 0 -103 40t-39 100q0 59 39 99.5t103 40.5t103 -40.5t39 -99.5zM89 662q0 -46 28.5 -77t75.5 -31q48 0 77 31t29 77t-29 76.5t-77 30.5q-47 0 -75.5 -30.5t-28.5 -76.5z" />
    <glyph glyph-name="uni207A" unicode="&#x207a;" horiz-adv-x="388" 
d="M179 466v105h-101v29h101v105h30v-105h101v-29h-101v-105h-30z" />
    <glyph glyph-name="uni207B" unicode="&#x207b;" horiz-adv-x="388" 
d="M78 571v29h232v-29h-232z" />
    <glyph glyph-name="uni207C" unicode="&#x207c;" horiz-adv-x="387" 
d="M69 629v28h249v-28h-249zM69 515v28h249v-28h-249z" />
    <glyph glyph-name="uni207D" unicode="&#x207d;" horiz-adv-x="211" 
d="M174 330q-118 111 -118 269q0 157 118 270l24 -22q-109 -104 -109 -248q0 -77 27 -135.5t82 -112.5z" />
    <glyph glyph-name="uni207E" unicode="&#x207e;" horiz-adv-x="211" 
d="M37 330l-24 21q55 54 82 112.5t27 135.5q0 144 -109 248l24 22q118 -113 118 -270q0 -158 -118 -269z" />
    <glyph glyph-name="uni2080" unicode="&#x2080;" horiz-adv-x="411" 
d="M206 -79q-76 0 -116 52t-40 152t40 152t116 52q75 0 114.5 -52t39.5 -152t-39.5 -152t-114.5 -52zM206 -45q115 0 115 170t-115 170q-116 0 -116 -170t116 -170z" />
    <glyph glyph-name="uni2081" unicode="&#x2081;" horiz-adv-x="257" 
d="M128 -73v297h-90v29q54 0 73.5 15t19.5 53h33v-394h-36z" />
    <glyph glyph-name="uni2082" unicode="&#x2082;" horiz-adv-x="367" 
d="M43 -73q0 68 23.5 106t81.5 65l68 31q63 29 63 91q0 34 -24 55t-62 21q-47 0 -74 -27t-27 -73h-39q0 60 38.5 96t100.5 36q58 0 92.5 -29t34.5 -77q0 -80 -80 -117l-68 -31q-43 -20 -62.5 -46t-20.5 -68h232v-33h-277z" />
    <glyph glyph-name="uni2083" unicode="&#x2083;" horiz-adv-x="376" 
d="M187 -79q-64 0 -102 32t-38 86h39q0 -40 27.5 -63.5t74.5 -23.5q45 0 72 22.5t27 59.5q0 38 -26 60t-72 22h-35v30h35q43 0 68 20.5t25 55.5q0 34 -26 55t-67 21q-43 0 -69.5 -22t-26.5 -58h-38q0 49 36.5 79.5t98.5 30.5q59 0 94.5 -28.5t35.5 -76.5q0 -77 -86 -92
q39 -2 65.5 -30.5t26.5 -68.5q0 -50 -38 -80.5t-101 -30.5z" />
    <glyph glyph-name="uni2084" unicode="&#x2084;" horiz-adv-x="379" 
d="M344 95v-33h-71v-136h-38v136h-171v259h37v-226h134v124h38v-124h71z" />
    <glyph glyph-name="uni2085" unicode="&#x2085;" horiz-adv-x="386" 
d="M197 -79q-61 0 -97.5 28.5t-39.5 76.5h38q2 -33 29 -53t71 -20q48 0 76.5 29t28.5 79q0 48 -26.5 75t-72.5 27q-72 0 -99 -55h-35v213h243v-31h-209v-147q30 50 107 50q59 0 94 -35t35 -97q0 -65 -39.5 -102.5t-103.5 -37.5z" />
    <glyph glyph-name="uni2086" unicode="&#x2086;" horiz-adv-x="385" 
d="M192 199q64 0 103 -40t39 -100q0 -59 -39 -99.5t-103 -40.5t-103 40.5t-39 99.5q0 48 24 81h-1l123 181h45l-90 -127q22 5 41 5zM192 -48q47 0 75.5 30.5t28.5 76.5t-28 77t-76 31t-77 -31t-29 -77t29 -76.5t77 -30.5z" />
    <glyph glyph-name="uni2087" unicode="&#x2087;" horiz-adv-x="335" 
d="M58 -73l208 362h-220v32h276l-220 -394h-44z" />
    <glyph glyph-name="uni2088" unicode="&#x2088;" horiz-adv-x="383" 
d="M191 -79q-64 0 -103 30t-39 80q0 39 24 65.5t65 33.5q-38 7 -60 32.5t-22 61.5q0 47 37 75.5t98 28.5t98.5 -28.5t37.5 -75.5q0 -36 -22 -61t-60 -33q41 -7 64.5 -33.5t23.5 -65.5q0 -50 -39 -80t-103 -30zM191 145q45 0 71.5 20.5t26.5 55.5t-27 56.5t-71 21.5
t-71 -21.5t-27 -56.5q0 -34 27 -55t71 -21zM191 -50q47 0 75.5 23t28.5 61t-28 60t-76 22q-47 0 -75 -22t-28 -60t28.5 -61t74.5 -23z" />
    <glyph glyph-name="uni2089" unicode="&#x2089;" horiz-adv-x="385" 
d="M335 189q0 -48 -24 -81h1l-123 -181h-45l90 127q-22 -5 -41 -5q-64 0 -103 40t-39 100q0 59 39 99.5t103 40.5t103 -40.5t39 -99.5zM89 189q0 -46 28.5 -77t75.5 -31q48 0 77 31t29 77t-29 76.5t-77 30.5q-47 0 -75.5 -30.5t-28.5 -76.5z" />
    <glyph glyph-name="uni208A" unicode="&#x208a;" horiz-adv-x="388" 
d="M179 -13v105h-101v29h101v105h30v-105h101v-29h-101v-105h-30z" />
    <glyph glyph-name="uni208B" unicode="&#x208b;" horiz-adv-x="388" 
d="M78 92v29h232v-29h-232z" />
    <glyph glyph-name="uni208C" unicode="&#x208c;" horiz-adv-x="387" 
d="M69 150v28h249v-28h-249zM69 36v28h249v-28h-249z" />
    <glyph glyph-name="uni208D" unicode="&#x208d;" horiz-adv-x="211" 
d="M174 -149q-118 111 -118 269q0 157 118 270l24 -22q-109 -104 -109 -248q0 -77 27 -135.5t82 -112.5z" />
    <glyph glyph-name="uni208E" unicode="&#x208e;" horiz-adv-x="211" 
d="M37 -149l-24 21q55 54 82 112.5t27 135.5q0 144 -109 248l24 22q118 -113 118 -270q0 -158 -118 -269z" />
    <glyph glyph-name="uni20A9" unicode="&#x20a9;" horiz-adv-x="781" 
d="M763 412h-89l-24 -107h113v-36h-121l-61 -269h-43l-148 611l-147 -611h-42l-61 269h-121v36h113l-24 107h-89v35h81l-53 233h45l131 -611l149 611h38l148 -611l131 611h45l-52 -233h81v-35z" />
    <glyph glyph-name="Euro" unicode="&#x20ac;" horiz-adv-x="582" 
d="M316 30q143 0 171 162h43q-15 -91 -68 -146.5t-146 -55.5q-197 0 -224 260h-68l9 33h56q-2 38 -2 59q0 20 2 56h-61l8 33h55q27 261 225 261q93 0 146 -54.5t68 -145.5h-43q-30 160 -171 160q-160 0 -183 -221h241l-9 -33h-235q-1 -18 -1 -56q0 -21 2 -59h239l-9 -33
h-228q24 -220 183 -220z" />
    <glyph glyph-name="uni20AE" unicode="&#x20ae;" horiz-adv-x="500" 
d="M491 639h-220v-196l139 66v-38l-139 -66v-96l139 66v-39l-139 -66v-270h-43v249l-141 -67v39l141 67v96l-141 -67v39l141 67v216h-219v41h482v-41z" />
    <glyph glyph-name="uni20B4" unicode="&#x20b4;" horiz-adv-x="571" 
d="M353 348l-128 -52h298l-9 -30h-346q-53 -39 -53 -103t42.5 -100t117.5 -36q84 0 132.5 42.5t48.5 113.5h41q0 -89 -59.5 -142.5t-163.5 -53.5q-94 0 -148 46t-54 129q0 61 35 104h-58l9 30h82q23 17 53 29l141 57l2 1h-287l9 30h333q50 40 50 114q0 58 -40 92t-110 34
q-75 0 -119 -37.5t-44 -103.5h-41q0 84 55.5 132t148.5 48q89 0 140.5 -44t51.5 -120q0 -69 -37 -115h77l-9 -30h-99q-26 -20 -62 -35z" />
    <glyph glyph-name="uni20B8" unicode="&#x20b8;" horiz-adv-x="500" 
d="M9 639v41h482v-41h-482zM228 0v497h-219v41h482v-41h-220v-497h-43z" />
    <glyph glyph-name="uni20B9" unicode="&#x20b9;" horiz-adv-x="503" 
d="M342 646q96 -62 102 -184h77l-9 -34h-68q-4 -77 -47.5 -133.5t-111.5 -75.5l152 -219h-51l-147 211q-6 -1 -19 -1h-147v40h145q75 0 126.5 50t56.5 128h-328v34h328q-5 78 -56 127.5t-127 49.5h-145v41h448l-9 -34h-170z" />
    <glyph glyph-name="uni20BA" unicode="&#x20ba;" horiz-adv-x="436" 
d="M383 263h43q0 -129 -73.5 -196t-234.5 -67h-41v230l-51 -26v37l51 26v100l-51 -26v37l51 26v276h43v-255l190 95v-37l-190 -95v-100l190 95v-37l-190 -95v-210q143 0 203 57.5t60 164.5z" />
    <glyph glyph-name="uni20BD" unicode="&#x20bd;" horiz-adv-x="565" 
d="M318 210h-178v-80h183v-33h-183v-97h-44v97h-100v33h100v80h-100v40h100v430h222q98 0 162 -67t64 -168q0 -102 -64 -168.5t-162 -66.5zM140 639v-389h177q79 0 131 55.5t52 139.5q0 85 -51.5 139.5t-131.5 54.5h-177z" />
    <glyph glyph-name="uni2113" unicode="&#x2113;" horiz-adv-x="370" 
d="M236 -10q-22 0 -41.5 5t-46 20.5t-42.5 54t-16 96.5v16l-64 -56l-22 32l86 72v277q0 107 28.5 158.5t102.5 51.5q62 0 95.5 -43t33.5 -125q0 -75 -53 -152t-169 -184v-46q0 -48 10.5 -78t31 -42t34.5 -15t35 -3q55 0 89 38l13 -30q-15 -15 -24 -23t-31 -16t-50 -8z
M128 263q98 93 140.5 159t42.5 128q0 131 -89 131q-52 0 -73 -42.5t-21 -126.5v-249z" />
    <glyph glyph-name="uni2116" unicode="&#x2116;" horiz-adv-x="1100" 
d="M90 0v700h48l391 -629v629h43v-700h-48l-391 629v-629h-43zM823 92q-83 0 -134 53t-51 129q0 77 51 131t134 54q84 0 135.5 -54t51.5 -131t-51.5 -129.5t-135.5 -52.5zM823 130q64 0 104.5 42t40.5 102q0 61 -40.5 103.5t-104.5 42.5t-103.5 -42.5t-39.5 -103.5
q0 -60 39.5 -102t103.5 -42zM638 0v39h372v-39h-372z" />
    <glyph glyph-name="trademark" unicode="&#x2122;" horiz-adv-x="823" 
d="M118 293v374h-109v33h254v-33h-109v-374h-36zM353 293v407h49l141 -351l141 351h49v-407h-35v349l-139 -349h-33l-138 349v-349h-35z" />
    <glyph glyph-name="uni2126" unicode="&#x2126;" horiz-adv-x="713" 
d="M68 0v41h218v48q-107 26 -175 113t-68 196q0 136 85 225.5t228 89.5q144 0 229 -89.5t85 -225.5q0 -109 -68 -196t-175 -113v-48h218v-41h-255v117q104 17 170 98t66 185q0 118 -72.5 195t-197.5 77t-197.5 -77t-72.5 -195q0 -104 66.5 -185t170.5 -98v-117h-255z" />
    <glyph glyph-name="estimated" unicode="&#x212e;" horiz-adv-x="517" 
d="M268 -12q-108 0 -166.5 68.5t-58.5 168.5q0 105 59 171t163 66q88 0 148.5 -58.5t60.5 -145.5q0 -16 -1 -28h-347v-166q55 -55 142 -55q66 0 113.5 32t62.5 79h22q-15 -56 -68 -94t-130 -38zM126 252h265v141q-51 49 -126 49q-85 0 -139 -54v-136z" />
    <glyph glyph-name="uni2153" unicode="&#x2153;" horiz-adv-x="733" 
d="M97 -9l-31 19l473 682l30 -19zM128 286v297h-90v29q54 0 73.5 15t19.5 53h33v-394h-36zM544 -6q-64 0 -102 32t-38 86h39q0 -40 27.5 -63.5t74.5 -23.5q45 0 72 22.5t27 59.5q0 38 -26 60t-72 22h-35v30h35q43 0 68 20.5t25 55.5q0 34 -26 55t-67 21q-43 0 -69.5 -22
t-26.5 -58h-38q0 49 36.5 79.5t98.5 30.5q59 0 94.5 -28.5t35.5 -76.5q0 -77 -86 -92q39 -2 65.5 -30.5t26.5 -68.5q0 -50 -38 -80.5t-101 -30.5z" />
    <glyph glyph-name="uni2154" unicode="&#x2154;" horiz-adv-x="851" 
d="M215 -9l-31 19l473 682l30 -19zM43 286q0 68 23.5 106t81.5 65l68 31q63 28 63 91q0 34 -24 55t-62 21q-47 0 -74 -27t-27 -73h-39q0 60 38.5 96t100.5 36q58 0 92.5 -29t34.5 -77q0 -80 -80 -117l-68 -31q-43 -20 -62.5 -46t-20.5 -68h232v-33h-277zM662 -6
q-64 0 -102 32t-38 86h39q0 -40 27.5 -63.5t74.5 -23.5q45 0 72 22.5t27 59.5q0 38 -26 60t-72 22h-35v30h35q43 0 68 20.5t25 55.5q0 34 -26 55t-67 21q-43 0 -69.5 -22t-26.5 -58h-38q0 49 36.5 79.5t98.5 30.5q59 0 94.5 -28.5t35.5 -76.5q0 -77 -86 -92
q39 -2 65.5 -30.5t26.5 -68.5q0 -50 -38 -80.5t-101 -30.5z" />
    <glyph glyph-name="arrowleft" unicode="&#x2190;" horiz-adv-x="720" 
d="M252 134l-242 216l242 216l25 -27l-191 -170h624v-38h-624l191 -169z" />
    <glyph glyph-name="arrowup" unicode="&#x2191;" horiz-adv-x="477" 
d="M220 0v624l-170 -191l-27 26l216 241l216 -241l-28 -26l-170 191v-624h-37z" />
    <glyph glyph-name="arrowright" unicode="&#x2192;" horiz-adv-x="720" 
d="M469 133l-26 28l191 170h-624v37h624l-191 170l26 27l241 -216z" />
    <glyph glyph-name="arrowdown" unicode="&#x2193;" horiz-adv-x="477" 
d="M239 0l-216 242l27 25l170 -191v624h37v-624l170 191l28 -25z" />
    <glyph glyph-name="uni2196" unicode="&#x2196;" horiz-adv-x="538" 
d="M496 89l-441 441l15 -254l-38 -2l-17 323l323 -17l-1 -38l-256 15l442 -441z" />
    <glyph glyph-name="uni2197" unicode="&#x2197;" horiz-adv-x="538" 
d="M42 89l-27 27l441 441l-254 -15l-2 38l323 17l-17 -323l-38 2l15 255z" />
    <glyph glyph-name="uni2198" unicode="&#x2198;" horiz-adv-x="538" 
d="M523 103l-323 17l2 38l255 -15l-442 441l27 27l441 -441l-15 255l38 1z" />
    <glyph glyph-name="uni2199" unicode="&#x2199;" horiz-adv-x="538" 
d="M15 103l17 323l38 -1l-15 -256l441 442l27 -27l-441 -441l255 15l1 -38z" />
    <glyph glyph-name="partialdiff" unicode="&#x2202;" horiz-adv-x="562" 
d="M268 714q123 0 183.5 -89t60.5 -287q0 -171 -53 -261.5t-181 -90.5q-111 0 -169.5 62.5t-58.5 156.5q0 100 59.5 165t159.5 65q56 0 109.5 -26.5t90.5 -84.5v17q0 177 -49 255t-152 78q-83 0 -127 -49t-44 -126h-44q0 94 56 154.5t159 60.5zM276 27q95 0 139 60.5
t52 183.5q-30 64 -82.5 94t-111.5 30q-83 0 -132 -53.5t-49 -135.5q0 -79 46.5 -129t137.5 -50z" />
    <glyph glyph-name="emptyset" unicode="&#x2205;" 
d="M546 523l-56 -56q52 -60 52 -150q0 -99 -62.5 -160.5t-159.5 -61.5q-89 0 -150 52l-55 -55l-20 20l55 55q-52 60 -52 150q0 99 62.5 160.5t159.5 61.5q89 0 150 -52l56 56zM130 317q0 -76 43 -127l276 276q-52 44 -128 44q-84 0 -137.5 -53t-53.5 -140zM511 317
q0 77 -43 128l-276 -276q53 -44 129 -44q84 0 137 52.5t53 139.5z" />
    <glyph glyph-name="uni2206" unicode="&#x2206;" horiz-adv-x="562" 
d="M23 0l240 700h36l241 -700h-517zM83 41h396l-198 593z" />
    <glyph glyph-name="product" unicode="&#x220f;" horiz-adv-x="643" 
d="M98 -218v972h-48v40h543v-40h-48v-972h-43v972h-361v-972h-43z" />
    <glyph glyph-name="summation" unicode="&#x2211;" horiz-adv-x="620" 
d="M50 -218v41l358 465l-358 466v40h520v-42h-465l357 -464l-357 -464h465v-42h-520z" />
    <glyph glyph-name="minus" unicode="&#x2212;" horiz-adv-x="504" 
d="M58 295v39h389v-39h-389z" />
    <glyph glyph-name="radical" unicode="&#x221a;" horiz-adv-x="780" 
d="M326 -218l-153 427h-123v40h153l141 -399l340 944h46l-368 -1012h-36z" />
    <glyph glyph-name="infinity" unicode="&#x221e;" horiz-adv-x="879" 
d="M245 88q-92 0 -143.5 58.5t-51.5 142.5q0 85 51.5 143t143.5 58q58 0 111 -37.5t84 -110.5q31 73 84 110.5t111 37.5q92 0 143 -58t51 -143t-51 -143t-143 -58q-58 0 -111 37t-84 110q-31 -73 -84 -110t-111 -37zM245 127q54 0 102.5 41t69.5 121q-21 79 -70 120.5
t-102 41.5q-73 0 -113.5 -47t-40.5 -115t40.5 -115t113.5 -47zM635 127q72 0 113 47t41 115t-41 115t-113 47q-54 0 -103 -41.5t-70 -120.5q21 -80 70 -121t103 -41z" />
    <glyph glyph-name="integral" unicode="&#x222b;" horiz-adv-x="390" 
d="M118 -222q-41 0 -68 12v40q28 -14 57 -14q32 0 49.5 24t17.5 67v760q0 61 27 94t71 33q43 0 68 -12v-40q-27 13 -57 13q-31 0 -49 -24t-18 -66v-760q0 -61 -27 -94t-71 -33z" />
    <glyph glyph-name="approxequal" unicode="&#x2248;" horiz-adv-x="541" 
d="M373 346q-37 0 -105.5 34t-109.5 34q-58 0 -100 -49v43q40 46 102 46q40 0 111 -34t103 -34q50 0 108 53v-42q-54 -51 -109 -51zM375 181q-37 0 -105 34t-109 34q-57 0 -101 -49v43q42 46 100 46q40 0 112.5 -34t102.5 -34q52 0 108 53v-42q-49 -51 -108 -51z" />
    <glyph glyph-name="notequal" unicode="&#x2260;" horiz-adv-x="539" 
d="M482 383h-159l-69 -139h228v-39h-247l-61 -123h-37l61 123h-140v39h159l69 139h-228v39h247l61 123h37l-61 -123h140v-39z" />
    <glyph glyph-name="lessequal" unicode="&#x2264;" horiz-adv-x="504" 
d="M446 232l-388 122v35l388 122v-42l-323 -97l323 -98v-42zM446 111h-389v39h389v-39z" />
    <glyph glyph-name="greaterequal" unicode="&#x2265;" horiz-adv-x="504" 
d="M58 232v42l323 98l-323 97v42l388 -122v-35zM58 111v39h389v-39h-389z" />
    <glyph glyph-name="uni2460" unicode="&#x2460;" horiz-adv-x="802" 
d="M401 -17q-163 0 -260.5 105t-97.5 262t97.5 262t260.5 105t260.5 -105t97.5 -262t-97.5 -262t-260.5 -105zM401 17q145 0 233 96t88 237t-88 237t-233 96t-233 -96t-88 -237t88 -237t233 -96zM394 171v270h-81v26q49 0 66.5 13.5t17.5 48.5h30v-358h-33z" />
    <glyph glyph-name="uni2461" unicode="&#x2461;" horiz-adv-x="802" 
d="M401 -17q-163 0 -260.5 105t-97.5 262t97.5 262t260.5 105t260.5 -105t97.5 -262t-97.5 -262t-260.5 -105zM401 17q145 0 233 96t88 237t-88 237t-233 96t-233 -96t-88 -237t88 -237t233 -96zM265 171q0 62 21.5 96.5t74.5 58.5l61 29q58 25 58 82q0 31 -22 50t-57 19
q-42 0 -66.5 -24t-24.5 -66h-36q0 54 35 87t92 33q52 0 83.5 -26.5t31.5 -70.5q0 -72 -73 -106l-62 -28q-39 -18 -56.5 -42t-18.5 -62h211v-30h-252z" />
    <glyph glyph-name="uni2462" unicode="&#x2462;" horiz-adv-x="802" 
d="M401 -17q-163 0 -260.5 105t-97.5 262t97.5 262t260.5 105t260.5 -105t97.5 -262t-97.5 -262t-260.5 -105zM401 17q145 0 233 96t88 237t-88 237t-233 96t-233 -96t-88 -237t88 -237t233 -96zM401 166q-59 0 -93 29t-34 78h35q0 -36 25 -57.5t68 -21.5q41 0 65.5 20.5
t24.5 53.5q0 35 -23.5 55t-65.5 20h-32v27h32q40 0 62 18.5t22 50.5q0 31 -23 50t-61 19q-40 0 -63.5 -20t-23.5 -52h-35q0 45 33.5 72.5t89.5 27.5q53 0 85.5 -26.5t32.5 -69.5q0 -69 -78 -84q35 -2 59 -27.5t24 -62.5q0 -45 -34.5 -72.5t-91.5 -27.5z" />
    <glyph glyph-name="uni2463" unicode="&#x2463;" horiz-adv-x="802" 
d="M401 717q163 0 260.5 -105t97.5 -262t-97.5 -262t-260.5 -105t-260.5 105t-97.5 262t97.5 262t260.5 105zM401 17q145 0 233 96t88 237t-88 237t-233 96t-233 -96t-88 -237t88 -237t233 -96zM480 437v-112h65v-30h-65v-124h-34v124h-156v235h34v-205h122v112h34z" />
    <glyph glyph-name="uni2464" unicode="&#x2464;" horiz-adv-x="802" 
d="M401 -17q-163 0 -260.5 105t-97.5 262t97.5 262t260.5 105t260.5 -105t97.5 -262t-97.5 -262t-260.5 -105zM401 17q145 0 233 96t88 237t-88 237t-233 96t-233 -96t-88 -237t88 -237t233 -96zM398 166q-55 0 -88.5 25.5t-35.5 69.5h34q2 -30 26.5 -48t64.5 -18
q43 0 69 26t26 72q0 43 -24 68t-66 25q-64 0 -90 -50h-31v193h221v-28h-190v-134q26 46 97 46q54 0 85.5 -32t31.5 -88q0 -59 -36 -93t-94 -34z" />
    <glyph glyph-name="uni2465" unicode="&#x2465;" horiz-adv-x="802" 
d="M401 717q163 0 260.5 -105t97.5 -262t-97.5 -262t-260.5 -105t-260.5 105t-97.5 262t97.5 262t260.5 105zM401 17q145 0 233 96t88 237t-88 237t-233 96t-233 -96t-88 -237t88 -237t233 -96zM398 422q58 0 93.5 -36.5t35.5 -90.5t-35.5 -90.5t-93.5 -36.5
q-59 0 -94.5 36.5t-35.5 90.5q0 42 22 75l-1 -1l112 164h41l-81 -115q22 4 37 4zM398 198q43 0 68.5 27.5t25.5 69.5t-25.5 70t-68.5 28q-44 0 -70.5 -28t-26.5 -70t26.5 -69.5t70.5 -27.5z" />
    <glyph glyph-name="uni2466" unicode="&#x2466;" horiz-adv-x="802" 
d="M401 -17q-163 0 -260.5 105t-97.5 262t97.5 262t260.5 105t260.5 -105t97.5 -262t-97.5 -262t-260.5 -105zM401 17q145 0 233 96t88 237t-88 237t-233 96t-233 -96t-88 -237t88 -237t233 -96zM312 171l189 329h-200v29h251l-200 -358h-40z" />
    <glyph glyph-name="uni2467" unicode="&#x2467;" horiz-adv-x="802" 
d="M401 -17q-163 0 -260.5 105t-97.5 262t97.5 262t260.5 105t260.5 -105t97.5 -262t-97.5 -262t-260.5 -105zM401 17q145 0 233 96t88 237t-88 237t-233 96t-233 -96t-88 -237t88 -237t233 -96zM401 166q-59 0 -94 27t-35 73q0 35 21.5 59t58.5 31q-35 7 -54.5 29.5
t-19.5 55.5q0 43 34 69t89 26t89 -26t34 -69q0 -33 -20 -55.5t-54 -29.5q37 -7 58.5 -31t21.5 -59q0 -46 -35.5 -73t-93.5 -27zM401 369q41 0 65 19t24 50q0 32 -25 51.5t-64 19.5q-40 0 -64.5 -19.5t-24.5 -51.5q0 -31 24.5 -50t64.5 -19zM401 192q43 0 68.5 21t25.5 55
q0 35 -25.5 55t-68.5 20t-68.5 -20t-25.5 -55q0 -34 25.5 -55t68.5 -21z" />
    <glyph glyph-name="uni2468" unicode="&#x2468;" horiz-adv-x="802" 
d="M401 717q163 0 260.5 -105t97.5 -262t-97.5 -262t-260.5 -105t-260.5 105t-97.5 262t97.5 262t260.5 105zM401 17q145 0 233 96t88 237t-88 237t-233 96t-233 -96t-88 -237t88 -237t233 -96zM405 533q59 0 94.5 -36.5t35.5 -90.5q0 -43 -21 -73l-112 -165h-41l81 115
q-22 -4 -37 -4q-58 0 -93.5 36.5t-35.5 90.5t35.5 90.5t93.5 36.5zM311 406q0 -42 25.5 -70t68.5 -28q44 0 70.5 28t26.5 70t-26.5 69.5t-70.5 27.5q-43 0 -68.5 -27.5t-25.5 -69.5z" />
    <glyph glyph-name="uni24EA" unicode="&#x24ea;" horiz-adv-x="802" 
d="M401 -17q-163 0 -260.5 105t-97.5 262t97.5 262t260.5 105t260.5 -105t97.5 -262t-97.5 -262t-260.5 -105zM401 17q145 0 233 96t88 237t-88 237t-233 96t-233 -96t-88 -237t88 -237t233 -96zM401 166q-69 0 -105.5 47t-36.5 138t36.5 138t105.5 47q68 0 104 -47t36 -138
t-36 -138t-104 -47zM401 196q105 0 105 155t-105 155t-105 -155t105 -155z" />
    <glyph glyph-name="uni24FF" unicode="&#x24ff;" horiz-adv-x="802" 
d="M401 -17q-163 0 -260.5 105t-97.5 262t97.5 262t260.5 105t260.5 -105t97.5 -262t-97.5 -262t-260.5 -105zM401 166q68 0 104.5 47.5t36.5 137.5t-36.5 137.5t-104.5 47.5q-69 0 -105 -47t-36 -138t36 -138t105 -47zM401 196q-105 0 -105 155t105 155t105 -155t-105 -155
z" />
    <glyph glyph-name="lozenge" unicode="&#x25ca;" horiz-adv-x="545" 
d="M253 0l-203 396l203 398h40l202 -398l-202 -396h-40zM273 47l177 349l-177 351l-178 -351z" />
    <glyph glyph-name="uni2776" unicode="&#x2776;" horiz-adv-x="802" 
d="M401 -17q-163 0 -260.5 105t-97.5 262t97.5 262t260.5 105t260.5 -105t97.5 -262t-97.5 -262t-260.5 -105zM405 171h33v358h-30q0 -35 -17.5 -48.5t-66.5 -13.5v-26h81v-270z" />
    <glyph glyph-name="uni2777" unicode="&#x2777;" horiz-adv-x="802" 
d="M401 -17q-163 0 -260.5 105t-97.5 262t97.5 262t260.5 105t260.5 -105t97.5 -262t-97.5 -262t-260.5 -105zM266 171h251v30h-211q1 38 18.5 61.5t57.5 41.5l62 29q72 33 72 105q0 44 -31.5 70.5t-83.5 26.5q-57 0 -91.5 -32.5t-34.5 -87.5h34q0 42 25 66.5t67 24.5
q35 0 57 -19t22 -50q0 -57 -57 -83l-62 -28q-53 -25 -74 -59t-21 -96z" />
    <glyph glyph-name="uni2778" unicode="&#x2778;" horiz-adv-x="802" 
d="M401 -17q-163 0 -260.5 105t-97.5 262t97.5 262t260.5 105t260.5 -105t97.5 -262t-97.5 -262t-260.5 -105zM401 166q58 0 92 27.5t34 73.5q0 36 -24 62t-60 27q79 14 79 84q0 43 -32.5 69t-86.5 26q-56 0 -89 -27.5t-33 -72.5h35q0 33 23.5 53t63.5 20q38 0 61 -19
t23 -50q0 -32 -22.5 -50.5t-62.5 -18.5h-31v-28h32q42 0 65.5 -19.5t23.5 -54.5q0 -33 -24.5 -54t-66.5 -21t-67 21.5t-25 58.5h-35q0 -50 34 -78.5t93 -28.5z" />
    <glyph glyph-name="uni2779" unicode="&#x2779;" horiz-adv-x="802" 
d="M401 -17q-163 0 -260.5 105t-97.5 262t97.5 262t260.5 105t260.5 -105t97.5 -262t-97.5 -262t-260.5 -105zM429 171h34v123h65v30h-65v113h-34v-113h-122v206h-33v-236h155v-123z" />
    <glyph glyph-name="uni277A" unicode="&#x277a;" horiz-adv-x="802" 
d="M401 -17q-163 0 -260.5 105t-97.5 262t97.5 262t260.5 105t260.5 -105t97.5 -262t-97.5 -262t-260.5 -105zM399 166q58 0 93.5 34t35.5 93q0 56 -31.5 88t-85.5 32q-70 0 -97 -46v134h190v28h-222v-194h33q12 26 32.5 38t56.5 12q42 0 66.5 -24.5t24.5 -67.5
q0 -46 -26.5 -72.5t-69.5 -26.5q-40 0 -64.5 18.5t-26.5 48.5h-34q2 -44 35.5 -69.5t89.5 -25.5z" />
    <glyph glyph-name="uni277B" unicode="&#x277b;" horiz-adv-x="802" 
d="M401 -17q-163 0 -260.5 105t-97.5 262t97.5 262t260.5 105t260.5 -105t97.5 -262t-97.5 -262t-260.5 -105zM400 169q57 0 92.5 36t35.5 90t-34.5 90.5t-91.5 37.5q-24 0 -42 -9l84 119h-40l-105 -154q-29 -42 -29 -84q0 -54 35.5 -90t94.5 -36zM400 198q-44 0 -70.5 28
t-26.5 69q0 42 26.5 70t70.5 28q43 0 68.5 -28t25.5 -70q0 -41 -25.5 -69t-68.5 -28z" />
    <glyph glyph-name="uni277C" unicode="&#x277c;" horiz-adv-x="802" 
d="M401 -17q-163 0 -260.5 105t-97.5 262t97.5 262t260.5 105t260.5 -105t97.5 -262t-97.5 -262t-260.5 -105zM311 171h40l200 358h-250v-30h199z" />
    <glyph glyph-name="uni277D" unicode="&#x277d;" horiz-adv-x="802" 
d="M401 -17q-163 0 -260.5 105t-97.5 262t97.5 262t260.5 105t260.5 -105t97.5 -262t-97.5 -262t-260.5 -105zM400 166q59 0 94 26.5t35 72.5q0 36 -21.5 60t-58.5 30q35 8 55 31t20 55q0 43 -34 68.5t-90 25.5q-55 0 -89 -25.5t-34 -68.5q0 -32 20 -55.5t55 -30.5
q-38 -6 -59.5 -30t-21.5 -60q0 -45 35.5 -72t93.5 -27zM400 369q-40 0 -64.5 19t-24.5 50q0 32 24.5 51.5t64.5 19.5t64.5 -19.5t24.5 -51.5q0 -31 -24.5 -50t-64.5 -19zM400 192q-43 0 -68.5 21t-25.5 55t25.5 54.5t68.5 20.5t69 -20.5t26 -54.5t-26 -55t-69 -21z" />
    <glyph glyph-name="uni277E" unicode="&#x277e;" horiz-adv-x="802" 
d="M401 -17q-163 0 -260.5 105t-97.5 262t97.5 262t260.5 105t260.5 -105t97.5 -262t-97.5 -262t-260.5 -105zM356 168h40l111 161q22 35 22 77q0 54 -35.5 90t-93.5 36t-93.5 -36t-35.5 -90t35 -90.5t92 -37.5q24 0 42 9zM400 308q-43 0 -69 28t-26 70q0 41 26 69t69 28
q44 0 70 -28t26 -69q0 -42 -26 -70t-70 -28z" />
    <glyph glyph-name="uniF8FF" unicode="&#xf8ff;" horiz-adv-x="800" 
d="M400 -17q-109 0 -193.5 52.5t-127.5 135.5t-43 179t43 179t127.5 135.5t193.5 52.5t193.5 -52.5t127.5 -135.5t43 -179t-43 -179t-127.5 -135.5t-193.5 -52.5zM400 6q140 0 239.5 100.5t99.5 243.5q0 138 -98 241.5t-241 103.5t-241.5 -103t-98.5 -242q0 -143 99 -243.5
t241 -100.5zM243 457q-17 0 -29.5 13t-12.5 30q0 18 12.5 30.5t29.5 12.5q18 0 30.5 -12.5t12.5 -30.5q0 -17 -12.5 -30t-30.5 -13zM540 457q-17 0 -29.5 13t-12.5 30q0 18 12.5 30.5t29.5 12.5q18 0 30.5 -12.5t12.5 -30.5q0 -17 -12.5 -30t-30.5 -13zM219 259l179 268
l-110 -243h178v-25h-247zM132 207q0 38 26 52l23 13q11 6 13 17.5t2 39.5h17q0 -57 -20 -69l-22 -13q-23 -13 -23 -40h-16zM616 157l-16 4q5 17 3 26t-16 15l-41 20q-55 27 -31 98l15 -5q-20 -61 27 -82l40 -19q20 -9 22.5 -26.5t-3.5 -30.5zM366 66q-102 0 -198 162
q82 -49 116 -60q35 -11 72 -11q148 0 220 37q1 0 3 2q-22 -49 -88 -89.5t-125 -40.5zM366 92q31 0 71.5 16.5t62.5 30t32 21.5q-9 -2 -40.5 -9.5t-45 -10t-39 -5.5t-49.5 -3q-30 0 -69.5 11.5t-63.5 30.5q26 -42 69 -62t72 -20z" />
    <glyph glyph-name="dollar.tf" 
d="M556 172q0 -83 -55 -132t-151 -54v-86h-36v86q-108 5 -169.5 65t-61.5 155h44q0 -80 54.5 -130t150.5 -50q85 0 132.5 38.5t47.5 106.5q0 111 -124 139l-124 24q-158 33 -158 174q0 74 54.5 127t153.5 55v90h36v-91q89 -8 139.5 -60t52.5 -139h-43q-2 77 -49 119t-129 42
q-83 0 -127 -41t-44 -101q0 -112 136 -138l127 -26q65 -14 104 -57t39 -116z" />
    <glyph glyph-name="cent.tf" 
d="M329 145q66 0 108.5 30.5t52.5 87.5h43q-8 -69 -58 -111.5t-129 -46.5v-105h-36v106q-93 6 -148.5 70.5t-55.5 164.5t55.5 164t148.5 70v105h36v-104q79 -4 129 -46.5t58 -111.5h-43q-10 57 -53 88t-108 31q-83 0 -132 -54t-49 -142q0 -89 49 -142.5t132 -53.5z" />
    <glyph glyph-name="sterling.tf" 
d="M203 226q0 -119 -64 -185h381v-41h-431v34q35 34 52.5 75t17.5 111v138h-72v35h72v84q0 105 52.5 160t147.5 55q90 0 141.5 -50.5t51.5 -134.5h-43q0 67 -39.5 107t-110.5 40q-82 0 -119 -47t-37 -141v-73h202v-35h-202v-132z" />
    <glyph glyph-name="florin.tf" 
d="M505 651q-42 0 -70 -24.5t-40 -92.5l-18 -103h146l-7 -38h-146l-83 -467q-26 -152 -149 -152q-38 0 -65 11l6 38q24 -10 57 -10q41 0 69 24t40 89l83 467h-104l7 38h104l18 104q27 155 152 155q37 0 62 -11l-6 -38q-24 10 -56 10z" />
    <glyph glyph-name="yen.tf" 
d="M564 680l-218 -410h166v-32h-169v-104h169v-34h-169v-100h-45v100h-169v34h169v104h-169v32h166l-218 410h50l194 -374l193 374h50z" />
    <glyph glyph-name="Euro.tf" 
d="M359 30q143 0 171 162h43q-15 -91 -68 -146.5t-146 -55.5q-197 0 -224 260h-68l9 33h56q-2 38 -2 59q0 20 2 56h-61l9 33h54q27 261 225 261q93 0 146 -54.5t68 -145.5h-43q-28 160 -171 160q-87 0 -129 -58.5t-53 -162.5h240l-9 -33h-234q-1 -18 -1 -56q0 -21 2 -59h238
l-8 -33h-228q24 -220 182 -220z" />
    <glyph glyph-name="uni20A9.tf" 
d="M624 412h-56l-20 -107h76v-36h-83l-50 -269h-47l-122 615l-122 -615h-47l-51 269h-86v36h80l-21 107h-59v35h53l-44 233h46l107 -609l120 609h47l120 -609l107 609h46l-44 -233h50v-35z" />
    <glyph glyph-name="uni20B4.tf" 
d="M455 383q-26 -20 -62 -35l-129 -52h288v-30h-345q-53 -39 -53 -103t42.5 -100t117.5 -36q85 0 133.5 42.5t48.5 113.5h41q0 -89 -60 -142.5t-164 -53.5q-93 0 -147 46t-54 129q0 63 35 104h-64v30h96q26 18 54 29l141 57l2 1h-293v30h348q50 40 50 114q0 58 -40 92
t-110 34q-75 0 -119 -37.5t-44 -103.5h-42q0 84 55.5 132t148.5 48q90 0 141 -44t51 -120q0 -70 -36 -115h66v-30h-97z" />
    <glyph glyph-name="uni20B8.tf" 
d="M79 639v41h482v-41h-482zM298 0v497h-219v41h482v-41h-220v-497h-43z" />
    <glyph glyph-name="uni20AE.tf" 
d="M561 639h-220v-196l139 66v-38l-139 -66v-96l139 66v-39l-139 -66v-270h-43v249l-141 -67v39l141 67v96l-141 -67v39l141 67v216h-219v41h482v-41z" />
    <glyph glyph-name="perthousand.tf" 
d="M238 518q0 -72 -31 -121t-84 -49t-84 49t-31 121t31 121t84 49q52 0 83.5 -49t31.5 -121zM329 687l21 -9l-250 -692l-21 9zM40 518q0 -59 22.5 -97.5t60.5 -38.5q37 0 59.5 38.5t22.5 97.5q0 60 -22.5 98.5t-59.5 38.5q-38 0 -60.5 -39t-22.5 -98zM517 336q53 0 84 -49
t31 -121t-31 -121t-84 -49q-68 0 -98 79q-32 -79 -99 -79q-53 0 -84 49t-31 121t31 121t84 49q67 0 99 -78q30 78 98 78zM320 30q38 0 60 38.5t22 97.5q0 60 -22 98.5t-60 38.5t-60 -38.5t-22 -98.5q0 -59 22 -97.5t60 -38.5zM517 30q38 0 60.5 38.5t22.5 97.5t-22.5 98
t-60.5 39q-37 0 -59.5 -39t-22.5 -98t22.5 -97.5t59.5 -38.5z" />
    <glyph glyph-name="zero.zero" horiz-adv-x="605" 
d="M302 692q122 0 186 -89.5t64 -260.5q0 -172 -64 -262t-186 -90t-185.5 90t-63.5 262q0 171 63.5 260.5t185.5 89.5zM95 342q0 -190 79 -266l232 549q-44 27 -104 27q-207 0 -207 -310zM302 30q208 0 208 312q0 189 -79 264l-232 -549q42 -27 103 -27z" />
    <glyph glyph-name="zero.tf.zero" 
d="M320 690q104 0 170.5 -68t66.5 -167v-235q0 -98 -66.5 -165.5t-170.5 -67.5t-170 67.5t-66 165.5v235q0 99 66 167t170 68zM127 220q0 -87 61 -143l232 546q-43 26 -100 26q-85 0 -139 -56.5t-54 -137.5v-235zM513 220v235q0 92 -64 147l-233 -546q45 -28 104 -28
q86 0 139.5 55.5t53.5 136.5z" />
    <glyph glyph-name="zero.tf" 
d="M320 -13q-104 0 -170 67.5t-66 165.5v235q0 99 66 167t170 68t170.5 -68t66.5 -167v-235q0 -98 -66.5 -165.5t-170.5 -67.5zM320 28q86 0 139.5 55.5t53.5 136.5v235q0 82 -53.5 138t-139.5 56q-85 0 -139 -56.5t-54 -137.5v-235q0 -81 54 -136.5t139 -55.5z" />
    <glyph glyph-name="one.tf" 
d="M349 41h209v-41h-475v41h223v484h-184v39h15q93 0 131.5 25.5t41.5 90.5h39v-639z" />
    <glyph glyph-name="two.tf" 
d="M68 0q0 115 43 178.5t152 109.5l129 53q125 53 125 167q0 64 -49.5 103.5t-129.5 39.5q-93 0 -149 -50.5t-56 -135.5h-48q0 103 69 164.5t184 61.5q103 0 165 -49.5t62 -131.5q0 -139 -149 -201l-130 -55q-88 -37 -126 -85.5t-40 -127.5h454v-41h-506z" />
    <glyph glyph-name="three.tf" 
d="M321 -10q-115 0 -184 54t-69 145h47q0 -73 56.5 -116t149.5 -43t148.5 41.5t55.5 109.5q0 69 -54 110t-145 41h-63v39h62q86 0 136.5 37.5t50.5 102.5q0 64 -51.5 103t-136.5 39q-88 0 -142 -41t-54 -108h-45q0 85 65.5 136t174.5 51q106 0 171 -49.5t65 -129.5
q0 -65 -42 -107t-120 -54q72 -2 123 -52t51 -119q0 -86 -69 -138t-181 -52z" />
    <glyph glyph-name="four.tf" 
d="M573 281v-41h-161v-241h-46v241h-298v440h46v-399h252v221h46v-221h161z" />
    <glyph glyph-name="five.tf" 
d="M312 -10q-103 0 -169.5 48t-70.5 128h45q4 -61 58 -98t137 -37q99 0 154.5 52.5t55.5 144.5q0 90 -53 139.5t-150 49.5q-135 0 -184 -101h-47v364h458v-40h-415v-275q25 44 77 68t120 24q112 0 176 -61t64 -168q0 -110 -68.5 -174t-187.5 -64z" />
    <glyph glyph-name="six.tf" 
d="M322 463q111 0 181 -67t70 -171t-70 -170.5t-183 -66.5t-182.5 66t-69.5 170q0 80 42 139l228 317h54l-169 -233q48 16 99 16zM320 28q91 0 149.5 56t58.5 142q0 85 -58.5 141t-149.5 56t-149.5 -56t-58.5 -141q0 -86 58.5 -142t149.5 -56z" />
    <glyph glyph-name="seven.tf" 
d="M123 0l387 639h-443v41h516l-410 -680h-50z" />
    </font>
</defs>
</svg>
