<svg xmlns="http://www.w3.org/2000/svg" xmlns:xlink="http://www.w3.org/1999/xlink" width="14" height="17" viewBox="0 0 14 17">
  <defs>
    <clipPath id="clip-path">
      <path id="Path_34812" data-name="Path 34812" d="M10.3-17h.122A3.618,3.618,0,0,1,9.5-14.257a2.881,2.881,0,0,1-2.527,1.174,3.51,3.51,0,0,1,.943-2.658A4.084,4.084,0,0,1,10.3-17Z" fill="none"/>
    </clipPath>
    <clipPath id="clip-path-2">
      <path id="Path_34811" data-name="Path 34811" d="M-115,525H260V-287H-115Z" fill="none"/>
    </clipPath>
    <clipPath id="clip-path-3">
      <path id="Path_34815" data-name="Path 34815" d="M14-4.522v.034a9.856,9.856,0,0,1-1.43,2.728c-.545.743-1.213,1.742-2.406,1.742-1.031,0-1.715-.656-2.772-.674C6.275-.709,5.66-.143,4.638,0H4.29a3.112,3.112,0,0,1-1.8-1.226A10.681,10.681,0,0,1,0-7.4v-.761a4.97,4.97,0,0,1,2.2-4.089,3.74,3.74,0,0,1,2.491-.571,6.316,6.316,0,0,1,1.221.346,3.4,3.4,0,0,0,1.22.362,2.951,2.951,0,0,0,.856-.259,5.313,5.313,0,0,1,2.754-.484A3.827,3.827,0,0,1,13.547-11.2a3.558,3.558,0,0,0-1.83,3.538A3.656,3.656,0,0,0,14-4.522Z" fill="none"/>
    </clipPath>
  </defs>
  <g id="Group_27339" data-name="Group 27339" transform="translate(0 17)">
    <g id="Group_27336" data-name="Group 27336" clip-path="url(#clip-path)">
      <g id="Group_27335" data-name="Group 27335" clip-path="url(#clip-path-2)">
        <path id="Path_34810" data-name="Path 34810" d="M1.964-22H15.44V-8.073H1.964Z" fill="#fff"/>
      </g>
    </g>
    <g id="Group_27338" data-name="Group 27338" clip-path="url(#clip-path-3)">
      <g id="Group_27337" data-name="Group 27337" clip-path="url(#clip-path-2)">
        <path id="Path_34813" data-name="Path 34813" d="M-5-17.9H19V5H-5Z" fill="#fff"/>
      </g>
    </g>
  </g>
</svg>
