<svg xmlns="http://www.w3.org/2000/svg" xmlns:xlink="http://www.w3.org/1999/xlink" width="25.267" height="24" viewBox="0 0 25.267 24">
  <defs>
    <clipPath id="clip-path">
      <path id="Path_35279" data-name="Path 35279" d="M13.5-6A6.453,6.453,0,0,0,20-12.4q0-3.537-6.771-9.6Q7-15.942,7-12.4A6.453,6.453,0,0,0,13.5-6Z" transform="translate(-7 22)" fill="none"/>
    </clipPath>
  </defs>
  <g id="Group_27912" data-name="Group 27912" transform="translate(-0.9 26.111)">
    <g id="Group_27903" data-name="Group 27903" transform="translate(6.572 -22)" clip-path="url(#clip-path)">
      <path id="Path_35278" data-name="Path 35278" d="M2-27H25V-1H2Z" transform="translate(-7 22)" fill="#222635"/>
    </g>
    <g id="Group_27904" data-name="Group 27904" transform="translate(1.4 -24.611)">
      <path id="Path_35280" data-name="Path 35280" d="M.4.389H7.6" transform="translate(-0.4 -0.389)" fill="none" stroke="#222635" stroke-linecap="square" stroke-width="1"/>
    </g>
    <g id="Group_27905" data-name="Group 27905" transform="translate(1.4 -23.833)">
      <path id="Path_35281" data-name="Path 35281" d="M.4.389V5.833" transform="translate(-0.4 -0.389)" fill="none" stroke="#222635" stroke-linecap="square" stroke-width="1"/>
    </g>
    <g id="Group_27906" data-name="Group 27906" transform="translate(25.667 -25.611) rotate(180)">
      <path id="Path_35282" data-name="Path 35282" d="M0,0H7.2" fill="none" stroke="#222635" stroke-linecap="square" stroke-width="1"/>
    </g>
    <g id="Group_27907" data-name="Group 27907" transform="translate(25.667 -19.389) rotate(180)">
      <path id="Path_35283" data-name="Path 35283" d="M0,5.444V0" transform="translate(0)" fill="none" stroke="#222635" stroke-linecap="square" stroke-width="1"/>
    </g>
    <g id="Group_27908" data-name="Group 27908" transform="translate(25.667 -2.611) rotate(180)">
      <path id="Path_35284" data-name="Path 35284" d="M0,0H7.2" transform="translate(0 0)" fill="none" stroke="#222635" stroke-linecap="square" stroke-width="1"/>
    </g>
    <g id="Group_27909" data-name="Group 27909" transform="translate(25.667 -3.389) rotate(180)">
      <path id="Path_35285" data-name="Path 35285" d="M0,0V5.444" transform="translate(0 0)" fill="none" stroke="#222635" stroke-linecap="square" stroke-width="1"/>
    </g>
    <g id="Group_27910" data-name="Group 27910" transform="translate(1.4 -2.611)">
      <path id="Path_35286" data-name="Path 35286" d="M.4-.389H7.6" transform="translate(-0.4 0.389)" fill="none" stroke="#222635" stroke-linecap="square" stroke-width="1"/>
    </g>
    <g id="Group_27911" data-name="Group 27911" transform="translate(1.4 -8.834)">
      <path id="Path_35287" data-name="Path 35287" d="M.4-.389V-5.833" transform="translate(-0.4 5.833)" fill="none" stroke="#222635" stroke-linecap="square" stroke-width="1"/>
    </g>
  </g>
</svg>
