<svg xmlns="http://www.w3.org/2000/svg" xmlns:xlink="http://www.w3.org/1999/xlink" width="65.333" height="89.833" viewBox="0 0 65.333 89.833">
  <defs>
    <clipPath id="clip-path">
      <path id="Path_35305" data-name="Path 35305" d="M77.667-85.75a4,4,0,0,1,4,4V-8.083a4,4,0,0,1-4,4H20.333a4,4,0,0,1-4-4V-81.75a4,4,0,0,1,4-4H32.666v2.042a6.125,6.125,0,0,0,5.9,6.121l.225,0H59.208a6.125,6.125,0,0,0,6.125-6.125h0V-85.75Z" fill="none"/>
    </clipPath>
    <clipPath id="clip-path-2">
      <path id="Path_35304" data-name="Path 35304" d="M-139,605H236V-207H-139Z" fill="none"/>
    </clipPath>
    <clipPath id="clip-path-3">
      <path id="Path_35308" data-name="Path 35308" d="M49-93.917a4.083,4.083,0,0,1,4.083,4.083H60.25a1,1,0,0,1,1,1v6.167a1,1,0,0,1-1,1H37.75a1,1,0,0,1-1-1v-6.167a1,1,0,0,1,1-1h7.167A4.083,4.083,0,0,1,49-93.917Z" fill="none"/>
    </clipPath>
    <clipPath id="clip-path-5">
      <path id="Path_35311" data-name="Path 35311" d="M32.583-57.167H45a4,4,0,0,1,4,4V-53a4,4,0,0,1-4,4H32.583a4,4,0,0,1-4-4v-.167A4,4,0,0,1,32.583-57.167Z" fill="none"/>
    </clipPath>
    <clipPath id="clip-path-7">
      <path id="Path_35314" data-name="Path 35314" d="M32.583-40.833h28.75a4,4,0,0,1,4,4v.167a4,4,0,0,1-4,4H32.583a4,4,0,0,1-4-4v-.167A4,4,0,0,1,32.583-40.833Z" fill="none"/>
    </clipPath>
  </defs>
  <g id="Group_27933" data-name="Group 27933" transform="translate(-16.333 93.917)">
    <g id="Group_27926" data-name="Group 27926" clip-path="url(#clip-path)">
      <g id="Group_27925" data-name="Group 27925" clip-path="url(#clip-path-2)">
        <path id="Path_35303" data-name="Path 35303" d="M11.333-90.75H86.667V.917H11.333Z" fill="#2bbe76"/>
      </g>
    </g>
    <g id="Group_27928" data-name="Group 27928" clip-path="url(#clip-path-3)">
      <g id="Group_27927" data-name="Group 27927" clip-path="url(#clip-path-2)">
        <path id="Path_35306" data-name="Path 35306" d="M31.75-98.917h34.5v22.25H31.75Z" fill="#2d313e"/>
      </g>
    </g>
    <g id="Group_27930" data-name="Group 27930" clip-path="url(#clip-path-5)">
      <g id="Group_27929" data-name="Group 27929" clip-path="url(#clip-path-2)">
        <path id="Path_35309" data-name="Path 35309" d="M23.583-62.167H54V-44H23.583Z" fill="#2d313e"/>
      </g>
    </g>
    <g id="Group_27932" data-name="Group 27932" clip-path="url(#clip-path-7)">
      <g id="Group_27931" data-name="Group 27931" clip-path="url(#clip-path-2)">
        <path id="Path_35312" data-name="Path 35312" d="M23.583-45.833h46.75v18.167H23.583Z" fill="#2d313e"/>
      </g>
    </g>
  </g>
</svg>
