<svg xmlns="http://www.w3.org/2000/svg" xmlns:xlink="http://www.w3.org/1999/xlink" width="18.972" height="19.662" viewBox="0 0 18.972 19.662">
  <defs>
    <clipPath id="clip-path">
      <path id="Path_34407" data-name="Path 34407" d="M8.438-16.575V-18.71a.37.37,0,0,1,.37-.37.37.37,0,0,1,.246.093l3.529,3.137a.37.37,0,0,1,.031.522l-.015.016L9.069-11.782a.37.37,0,0,1-.523,0,.37.37,0,0,1-.108-.262v-2.066h0q-1-.06-4.187,0A.247.247,0,0,1,4-14.356s0,0,0,0v-1.966a.247.247,0,0,1,.247-.247h0Q8.044-16.536,8.438-16.575Z" transform="translate(-4 19.08)" fill="#fff"/>
    </clipPath>
    <clipPath id="clip-path-2">
      <path id="Path_34406" data-name="Path 34406" d="M-509,155.78h377.727V-2654H-509Z" transform="translate(509 2654)" fill="#fff"/>
    </clipPath>
  </defs>
  <g id="Group_27090" data-name="Group 27090" transform="translate(-1166.999 -668.999)">
    <path id="Subtraction_9" data-name="Subtraction 9" d="M8.874,19.662a1.163,1.163,0,0,1-.183-.017L.808,18.185A.982.982,0,0,1,0,17.218V2.448a.984.984,0,0,1,.808-.97L8.691.017A1.122,1.122,0,0,1,8.874,0a.985.985,0,0,1,.96.774H13.8V8.011c-.626,0-1.29,0-1.975-.008V2.681H9.859V7.986l-.294,0H9.425a.381.381,0,0,0-.379.382V11.41a.381.381,0,0,0,.379.372h.006l.427-.007v6.9a.8.8,0,0,1-.018.179A.976.976,0,0,1,8.874,19.662ZM6.984,8.009A1.306,1.306,0,0,0,5.75,9.375a1.308,1.308,0,0,0,1.235,1.369A1.307,1.307,0,0,0,8.215,9.375,1.305,1.305,0,0,0,6.984,8.009ZM13.8,18.888H11.828V11.75c.611-.005,1.118-.008,1.551-.008H13.8v7.144Z" transform="translate(1166.999 668.999)" fill="#fff"/>
    <g id="Group_27089" data-name="Group 27089" transform="translate(1177.264 675.126)">
      <g id="Group_27088" data-name="Group 27088" transform="translate(0 0)" clip-path="url(#clip-path)">
        <g id="Group_27087" data-name="Group 27087" transform="translate(-252.969 -1299.323)" clip-path="url(#clip-path-2)">
          <path id="Path_34405" data-name="Path 34405" d="M-1-11.742H12.638V-24.08H-1Z" transform="translate(251.503 1320.938)" fill="#fff"/>
        </g>
      </g>
    </g>
  </g>
</svg>
