<svg xmlns="http://www.w3.org/2000/svg" xmlns:xlink="http://www.w3.org/1999/xlink" width="76.667" height="105.917" viewBox="0 0 76.667 105.917">
  <defs>
    <clipPath id="clip-path">
      <path id="Path_34540" data-name="Path 34540" d="M79.667-101.75a2,2,0,0,1,2,2v77.667a2,2,0,0,1-2,2H18.333a2,2,0,0,1-2-2V-99.75a2,2,0,0,1,2-2H32.666v2.042a6.125,6.125,0,0,0,5.9,6.121l.225,0H59.208a6.125,6.125,0,0,0,6.125-6.125h0v-2.042Z" fill="none"/>
    </clipPath>
    <clipPath id="clip-path-2">
      <path id="Path_34539" data-name="Path 34539" d="M-139,608H236V-517H-139Z" fill="none"/>
    </clipPath>
    <clipPath id="clip-path-3">
      <path id="Path_34543" data-name="Path 34543" d="M49-109.917a4.083,4.083,0,0,1,4.083,4.083H60.75a.5.5,0,0,1,.5.5v7.167a.5.5,0,0,1-.5.5H37.25a.5.5,0,0,1-.5-.5v-7.167a.5.5,0,0,1,.5-.5h7.667A4.083,4.083,0,0,1,49-109.917Z" fill="none"/>
    </clipPath>
    <clipPath id="clip-path-5">
      <path id="Path_34546" data-name="Path 34546" d="M30.583-73.167H47a2,2,0,0,1,2,2V-67a2,2,0,0,1-2,2H30.583a2,2,0,0,1-2-2v-4.167A2,2,0,0,1,30.583-73.167Z" fill="none"/>
    </clipPath>
    <clipPath id="clip-path-7">
      <path id="Path_34549" data-name="Path 34549" d="M30.583-56.833h32.75a2,2,0,0,1,2,2v4.167a2,2,0,0,1-2,2H30.583a2,2,0,0,1-2-2v-4.167A2,2,0,0,1,30.583-56.833Z" fill="none"/>
    </clipPath>
    <clipPath id="clip-path-9">
      <path id="Path_34552" data-name="Path 34552" d="M67-42H81A12,12,0,0,1,93-30v14A12,12,0,0,1,81-4H67A12,12,0,0,1,55-16V-30A12,12,0,0,1,67-42Z" fill="none"/>
    </clipPath>
    <clipPath id="clip-path-11">
      <path id="Path_34555" data-name="Path 34555" d="M81.925-25.561l-8.448,8.448a1.5,1.5,0,0,1-1.075.439l-3.523-.035a1.5,1.5,0,0,1-1.485-1.462L67.307-21.6a1.5,1.5,0,0,1,.439-1.1l8.522-8.522a1.5,1.5,0,0,1,2.121,0l3.536,3.536A1.5,1.5,0,0,1,81.925-25.561Z" fill="none"/>
    </clipPath>
    <clipPath id="clip-path-13">
      <path id="Path_34558" data-name="Path 34558" d="M68-14H81a1,1,0,0,1,1,1,1,1,0,0,1-1,1H68a1,1,0,0,1-1-1A1,1,0,0,1,68-14Z" fill="none"/>
    </clipPath>
  </defs>
  <g id="Group_27215" data-name="Group 27215" transform="translate(-16.333 109.917)">
    <g id="Group_27202" data-name="Group 27202" clip-path="url(#clip-path)">
      <g id="Group_27201" data-name="Group 27201" clip-path="url(#clip-path-2)">
        <path id="Path_34538" data-name="Path 34538" d="M11.333-106.75H86.667v91.667H11.333Z" fill="#2bbe76"/>
      </g>
    </g>
    <g id="Group_27204" data-name="Group 27204" clip-path="url(#clip-path-3)">
      <g id="Group_27203" data-name="Group 27203" clip-path="url(#clip-path-2)">
        <path id="Path_34541" data-name="Path 34541" d="M31.75-114.917h34.5v22.25H31.75Z" fill="#222635"/>
      </g>
    </g>
    <g id="Group_27206" data-name="Group 27206" clip-path="url(#clip-path-5)">
      <g id="Group_27205" data-name="Group 27205" clip-path="url(#clip-path-2)">
        <path id="Path_34544" data-name="Path 34544" d="M23.583-78.167H54V-60H23.583Z" fill="#222635"/>
      </g>
    </g>
    <g id="Group_27208" data-name="Group 27208" clip-path="url(#clip-path-7)">
      <g id="Group_27207" data-name="Group 27207" clip-path="url(#clip-path-2)">
        <path id="Path_34547" data-name="Path 34547" d="M23.583-61.833h46.75v18.167H23.583Z" fill="#222635"/>
      </g>
    </g>
    <g id="Group_27210" data-name="Group 27210" clip-path="url(#clip-path-9)">
      <g id="Group_27209" data-name="Group 27209" clip-path="url(#clip-path-2)">
        <path id="Path_34550" data-name="Path 34550" d="M50-47H98V1H50Z" fill="#fff"/>
      </g>
    </g>
    <g id="Group_27212" data-name="Group 27212" clip-path="url(#clip-path-11)">
      <g id="Group_27211" data-name="Group 27211" clip-path="url(#clip-path-2)">
        <path id="Path_34553" data-name="Path 34553" d="M70.671-7.236,57.943-19.964,77.329-39.349,90.057-26.621Z" fill="#222635"/>
      </g>
    </g>
    <g id="Group_27214" data-name="Group 27214" clip-path="url(#clip-path-13)">
      <g id="Group_27213" data-name="Group 27213" clip-path="url(#clip-path-2)">
        <path id="Path_34556" data-name="Path 34556" d="M62-19H87V-7H62Z" fill="#2bbe76"/>
      </g>
    </g>
  </g>
</svg>
