<svg xmlns="http://www.w3.org/2000/svg" width="22.688" height="21.069" viewBox="0 0 22.688 21.069">
  <g id="Group_27116" data-name="Group 27116" transform="translate(-2.001 21.999)">
    <path id="Exclusion_1" data-name="Exclusion 1" d="M12609.254,5114.14a1.136,1.136,0,0,1-.943-.506l-2.351-3.548h-4.558a3.4,3.4,0,0,1-3.4-3.4v-10.212a3.405,3.405,0,0,1,3.4-3.4h15.881a3.407,3.407,0,0,1,3.405,3.4v10.212a3.407,3.407,0,0,1-3.405,3.4h-5.118l-1.916,3.468A1.136,1.136,0,0,1,12609.254,5114.14Zm-6.718-11.995a1.134,1.134,0,0,0,0,2.268h5.673a1.134,1.134,0,0,0,0-2.268Zm0-4.539a1.135,1.135,0,0,0,0,2.271h10.212a1.135,1.135,0,0,0,0-2.271Z" transform="translate(-12596 -5115.07)" fill="#222635"/>
  </g>
</svg>
