<svg id="Group_27284" data-name="Group 27284" xmlns="http://www.w3.org/2000/svg" xmlns:xlink="http://www.w3.org/1999/xlink" width="18" height="14.849" viewBox="0 0 18 14.849">
  <defs>
    <clipPath id="clip-path">
      <path id="Path_34617" data-name="Path 34617" d="M21-13.5s-4.091,6-9,6q-.466,0-.9-.039l8.112-8.112A18.654,18.654,0,0,1,21-13.5Z" transform="translate(-11.096 15.652)" fill="#a7a7a7"/>
    </clipPath>
    <clipPath id="clip-path-2">
      <path id="Path_34616" data-name="Path 34616" d="M-302,5420H464V-278H-302Z" transform="translate(302 278)" fill="#a7a7a7"/>
    </clipPath>
    <clipPath id="clip-path-3">
      <path id="Path_34620" data-name="Path 34620" d="M12-19.5a6.95,6.95,0,0,1,2.506.495L12-16.5a3,3,0,0,0-3,3H9L5.527-10.027A10.92,10.92,0,0,1,3-13.5S5.455-19.5,12-19.5Z" transform="translate(-3 19.5)" fill="#a7a7a7"/>
    </clipPath>
    <clipPath id="clip-path-5">
      <path id="Path_34623" data-name="Path 34623" d="M5.1-7.065,18.535-20.5l1.414,1.414L6.514-5.651Z" transform="translate(-5.1 20.5)" fill="#a7a7a7"/>
    </clipPath>
  </defs>
  <g id="Group_27279" data-name="Group 27279" transform="translate(8.096 4.848)" clip-path="url(#clip-path)">
    <g id="Group_27278" data-name="Group 27278" transform="translate(-313.096 -262.348)" clip-path="url(#clip-path-2)">
      <path id="Path_34615" data-name="Path 34615" d="M6.1-20.652H26V-2.5H6.1Z" transform="translate(302 278)" fill="#a7a7a7"/>
    </g>
  </g>
  <g id="Group_27281" data-name="Group 27281" transform="translate(0 1)" clip-path="url(#clip-path-3)">
    <g id="Group_27280" data-name="Group 27280" transform="translate(-305 -258.5)" clip-path="url(#clip-path-2)">
      <path id="Path_34618" data-name="Path 34618" d="M-2-24.5H19.506V-5.027H-2Z" transform="translate(302 278)" fill="#a7a7a7"/>
    </g>
  </g>
  <g id="Group_27283" data-name="Group 27283" transform="translate(2.1)" clip-path="url(#clip-path-5)">
    <g id="Group_27282" data-name="Group 27282" transform="translate(-307.1 -257.5)" clip-path="url(#clip-path-2)">
      <path id="Path_34621" data-name="Path 34621" d="M-1.971-7.065,18.535-27.571l8.485,8.485L6.514,1.42Z" transform="translate(302 278)" fill="#a7a7a7"/>
    </g>
  </g>
</svg>
