<svg xmlns="http://www.w3.org/2000/svg" width="20" height="20" viewBox="0 0 20 20">
  <g id="Group_26572" data-name="Group 26572" transform="translate(-118 -647)" opacity="0.498">
    <g id="noun-faq-4166553" transform="translate(26.12 625.125)">
      <path id="Path_33847" data-name="Path 33847" d="M98.49,21.875a6.61,6.61,0,1,0,6.61,6.61A6.613,6.613,0,0,0,98.49,21.875Zm-.516,7.941a.322.322,0,0,1,.188-.163,1.309,1.309,0,0,1,.4-.043.541.541,0,0,1,.389.117.5.5,0,0,1,.121.37l-.01.318a.543.543,0,0,1-.059.17q-.1.179-.472.179a.719.719,0,0,1-.494-.121.667.667,0,0,1-.121-.466.826.826,0,0,1,.062-.361ZM98.8,29.1a1.637,1.637,0,0,1-.63,0,.252.252,0,0,1-.163-.111.41.41,0,0,1-.056-.142,1.306,1.306,0,0,1-.01-.191V26.694a1.368,1.368,0,0,1,.01-.194.385.385,0,0,1,.058-.146.278.278,0,0,1,.167-.114,1.48,1.48,0,0,1,.63,0,.256.256,0,0,1,.163.117.434.434,0,0,1,.056.148,1.373,1.373,0,0,1,.01.195v1.957a1.3,1.3,0,0,1-.01.191.36.36,0,0,1-.058.139.273.273,0,0,1-.167.109Z" transform="translate(0)" fill="#fff"/>
      <path id="Path_33848" data-name="Path 33848" d="M275.67,198.235a6.61,6.61,0,1,1-7.4,7.4,7.6,7.6,0,0,0,5.151-2.214l-.015.039a.528.528,0,0,0-.037.188c0,.14.124.257.371.352a.905.905,0,0,0,.308.074.245.245,0,0,0,.192-.083.723.723,0,0,0,.13-.243l.018-.075a.311.311,0,0,1,.133-.145.625.625,0,0,1,.337-.071.474.474,0,0,1,.342.11.417.417,0,0,1,.115.312.382.382,0,0,1-.152.319.936.936,0,0,1-.33.166.742.742,0,0,0-.33.2.573.573,0,0,0-.151.42l-.006.049a1.315,1.315,0,0,0,.009.182.386.386,0,0,0,.053.133.241.241,0,0,0,.151.105,1.09,1.09,0,0,0,.287.031,1.169,1.169,0,0,0,.288-.028.264.264,0,0,0,.155-.092.309.309,0,0,0,.056-.121,1.077,1.077,0,0,0,.009-.161l.1-.031a1.539,1.539,0,0,0,.506-.346,1.062,1.062,0,0,0,.231-.355,1.232,1.232,0,0,0,.1-.491,1.347,1.347,0,0,0-.414-.976,1.433,1.433,0,0,0-1.068-.42,1.5,1.5,0,0,0-.562.1c-.042.017-.082.035-.119.052a7.592,7.592,0,0,0,1.55-4.389Zm-1.35,7.906A.294.294,0,0,1,274.5,206a1.348,1.348,0,0,1,.4-.043.542.542,0,0,1,.393.12.67.67,0,0,1,.12.466.835.835,0,0,1-.062.367.311.311,0,0,1-.188.161,1.412,1.412,0,0,1-.392.04.584.584,0,0,1-.407-.13.5.5,0,0,1-.105-.359l.01-.315a.527.527,0,0,1,.058-.17Z" transform="translate(-169.557 -169.526)" fill="#fff"/>
    </g>
  </g>
</svg>
