<svg xmlns="http://www.w3.org/2000/svg" xmlns:xlink="http://www.w3.org/1999/xlink" width="19.223" height="19.223" viewBox="0 0 19.223 19.223">
  <defs>
    <clipPath id="clip-path">
      <path id="Path_34380" data-name="Path 34380" d="M12.272-12.457A4.272,4.272,0,0,1,8-16.728,4.272,4.272,0,0,1,12.272-21a4.272,4.272,0,0,1,4.272,4.272A4.272,4.272,0,0,1,12.272-12.457Z" transform="translate(-8 21)" fill="none"/>
    </clipPath>
    <clipPath id="clip-path-2">
      <path id="Path_34379" data-name="Path 34379" d="M-35,914.061H365.472V-156H-35Z" transform="translate(35 156)" fill="none"/>
    </clipPath>
    <clipPath id="clip-path-3">
      <path id="Path_34383" data-name="Path 34383" d="M3-3.312C3.415-8.409,7.551-11,12.594-11c5.113,0,9.314,2.449,9.627,7.689a.734.734,0,0,1-.8.854H3.777A1.182,1.182,0,0,1,3-3.312Z" transform="translate(-3 11)" fill="none"/>
    </clipPath>
  </defs>
  <g id="Group_27053" data-name="Group 27053" transform="translate(-3 21)">
    <g id="Group_27050" data-name="Group 27050" transform="translate(8.34 -21)" clip-path="url(#clip-path)">
      <g id="Group_27049" data-name="Group 27049" transform="translate(-45.921 -144.17)" clip-path="url(#clip-path-2)">
        <path id="Path_34378" data-name="Path 34378" d="M3-26H22.223V-6.777H3Z" transform="translate(37.581 164.83)" fill="#2bbe76"/>
      </g>
    </g>
    <g id="Group_27052" data-name="Group 27052" transform="translate(3 -10.321)" clip-path="url(#clip-path-3)">
      <g id="Group_27051" data-name="Group 27051" transform="translate(-40.581 -154.849)" clip-path="url(#clip-path-2)">
        <path id="Path_34381" data-name="Path 34381" d="M-2-16H27.9V3.223H-2Z" transform="translate(37.242 165.51)" fill="#222635"/>
      </g>
    </g>
  </g>
</svg>
