<svg xmlns="http://www.w3.org/2000/svg" width="25" height="25.003" viewBox="0 0 25 25.003">
  <g id="Group_355" data-name="Group 355" transform="translate(0 -0.178)">
    <g id="Group_149" data-name="Group 149" transform="translate(0 0.178)">
      <path id="Path_88" data-name="Path 88" d="M214.986,357.3a12.5,12.5,0,1,0,12.5,12.5A12.515,12.515,0,0,0,214.986,357.3Z" transform="translate(-202.486 -357.302)" fill="#3a5e99"/>
    </g>
    <path id="Path_141" data-name="Path 141" d="M212.442,359.569c-.218-.017-.451-.035-.686-.035-.285-.015-.585-.015-.887-.015a3.329,3.329,0,0,0-1.155.25,2.56,2.56,0,0,0-1.475,1.556,3.048,3.048,0,0,0-.166.788c-.017.2-.035.4-.035.587v1.605c0,.052,0,.052-.049.052h-1.978v2.359h1.96c.067,0,.067,0,.067.052V374h2.478v-7.285h1.943l.032-.032c.035-.25.07-.518.1-.771.035-.236.067-.468.1-.721.014-.233.049-.468.081-.718,0-.035.017-.067.017-.116h-2.26c-.067,0-.067,0-.067-.052V362.7a3.112,3.112,0,0,1,.067-.4.838.838,0,0,1,.57-.521,2.1,2.1,0,0,1,.553-.067h1.222v-2.059c0-.035,0-.049-.035-.049A3.109,3.109,0,0,0,212.442,359.569Z" transform="translate(-196.512 -353.842)" fill="#fff" stroke="#fff" stroke-width="0.5"/>
  </g>
</svg>
