<svg xmlns="http://www.w3.org/2000/svg" xmlns:xlink="http://www.w3.org/1999/xlink" width="20" height="20" viewBox="0 0 20 20">
  <defs>
    <clipPath id="clip-path">
      <path id="Path_34501" data-name="Path 34501" d="M10.778-10.286a1.127,1.127,0,0,1,1.111,1.143v8A1.127,1.127,0,0,1,10.778,0H5.222A1.127,1.127,0,0,1,4.111-1.143v-8a1.127,1.127,0,0,1,1.111-1.143Zm10,0a1.127,1.127,0,0,1,1.111,1.143v8A1.127,1.127,0,0,1,20.778,0H15.222a1.127,1.127,0,0,1-1.111-1.143v-8a1.127,1.127,0,0,1,1.111-1.143ZM21.889-16A1.127,1.127,0,0,1,23-14.857v1.143a1.127,1.127,0,0,1-1.111,1.143H4.111A1.127,1.127,0,0,1,3-13.714v-1.143A1.127,1.127,0,0,1,4.111-16Z" transform="translate(-3 16)" fill="#fff"/>
    </clipPath>
    <clipPath id="clip-path-2">
      <path id="Path_34500" data-name="Path 34500" d="M-233,2912H618.111V-3600H-233Z" transform="translate(233 3600)" fill="#fff"/>
    </clipPath>
    <clipPath id="clip-path-3">
      <path id="Path_34504" data-name="Path 34504" d="M14.445-19.832a1,1,0,0,1,1.387.277,1,1,0,0,1-.277,1.387L12-15.8l-3.555-2.37a1,1,0,0,1-.277-1.387,1,1,0,0,1,1.387-.277L12-18.2Z" transform="translate(-8 20)" fill="#fff"/>
    </clipPath>
    <clipPath id="clip-path-4">
      <path id="Path_34503" data-name="Path 34503" d="M-233,2098H533V-3600H-233Z" transform="translate(233 3600)" fill="#fff"/>
    </clipPath>
  </defs>
  <g id="Group_27172" data-name="Group 27172" transform="translate(-3 20)">
    <g id="Group_27169" data-name="Group 27169" transform="translate(3 -16)" clip-path="url(#clip-path)">
      <g id="Group_27168" data-name="Group 27168" transform="translate(-262.222 -4096.003)" clip-path="url(#clip-path-2)">
        <path id="Path_34499" data-name="Path 34499" d="M-2-21H29.111V6.429H-2Z" transform="translate(258.667 4111.289)" fill="#fff"/>
      </g>
    </g>
    <g id="Group_27171" data-name="Group 27171" transform="translate(9 -20)" clip-path="url(#clip-path-3)">
      <g id="Group_27170" data-name="Group 27170" transform="translate(-241 -3580)" clip-path="url(#clip-path-4)">
        <path id="Path_34502" data-name="Path 34502" d="M3-25H21v14.2H3Z" transform="translate(233 3600)" fill="#fff"/>
      </g>
    </g>
  </g>
</svg>
