<svg xmlns="http://www.w3.org/2000/svg" xmlns:xlink="http://www.w3.org/1999/xlink" width="100" height="90" viewBox="0 0 100 90">
  <defs>
    <clipPath id="clip-path">
      <path id="Path_35328" data-name="Path 35328" d="M5-69.1c.5-9.161,5.3-17.724,14.911-23.125,9.468-5.311,19.054-4.864,28.521.358,3.255,1.79,4.468,3.372.888,6.177a54.669,54.669,0,0,0-5.888,5.848c-4.2,4.506-4.32,10.414-.355,14.561,3.817,4,10.059,4.058,14.5,0,2.485-2.3,4.882-4.715,7.16-7.221,1.479-1.641,2.515-1.731,4.083-.09,8.61,8.832,17.338,17.545,26.006,26.318,2.515,2.566,3.107,5.52.385,8.176-2.692,2.626-5.592,1.94-8.136-.567C80.862-44.869,74.708-51.135,68.5-57.342c-1.331-1.343-2.811-3.73-4.882-1.731-2.1,2,.118,3.581,1.479,4.953,5.947,6.027,11.953,12.025,17.9,18.082,3.521,3.581,3.965,6.8,1.124,9.19-3.343,2.8-6.124,1.373-8.817-1.4-6.006-6.207-12.13-12.264-18.225-18.381-1.3-1.283-2.692-3.193-4.556-1.253-1.834,1.88,0,3.4,1.243,4.685q9.231,9.4,18.58,18.679c2.633,2.626,3.639,5.371.976,8.534A2.952,2.952,0,0,1,71.395-15c-1.036-.03-.769-1.1-.858-1.82C69.974-21.952,67.1-25,62.164-25.951c-1.8-.358-2.544-.955-2.811-2.835-.68-4.655-3.639-7.4-8.136-8.3-1.716-.358-2.6-.746-2.87-2.715a9.294,9.294,0,0,0-8.077-8.355c-2.1-.388-2.574-1.283-3.047-3.163-2.1-8.474-10.74-10.891-17.13-4.923A81.243,81.243,0,0,0,13.938-50c-1.775,2.059-2.752,1.462-4.083-.507C6.837-55.074,4.914-61.1,5-69.1Z" fill="#fff"/>
    </clipPath>
    <clipPath id="clip-path-2">
      <path id="Path_35327" data-name="Path 35327" d="M-133,474H242V-338H-133Z" fill="#fff"/>
    </clipPath>
    <clipPath id="clip-path-3">
      <path id="Path_35331" data-name="Path 35331" d="M105-68.445c0,8.113-1.663,13.4-4.522,18.383-1.488,2.583-2.509,2.735-4.639.486-8.753-9.358-17.826-18.443-26.55-27.832-2.626-2.826-4.435-3.1-6.973-.03-2.655,3.221-5.689,6.107-8.636,9.055-2.538,2.522-5.427,3.1-7.994.334s-2.042-5.712.5-8.325c3.968-4.1,7.7-8.508,11.962-12.245,9.044-7.87,19.344-9.571,30.109-4.5C99.194-87.982,104.5-78.594,105-68.445Z" fill="#fff"/>
    </clipPath>
    <clipPath id="clip-path-5">
      <path id="Path_35334" data-name="Path 35334" d="M21.422-39a5.044,5.044,0,0,1-4.739-2.969,4.616,4.616,0,0,1,.5-5.531c2.662-2.882,5.47-5.648,8.366-8.326,1.609-1.485,3.6-1.456,5.528-.495A4.977,4.977,0,0,1,34-51.606C33.971-48.17,24.844-39.029,21.422-39Z" fill="#fff"/>
    </clipPath>
    <clipPath id="clip-path-7">
      <path id="Path_35337" data-name="Path 35337" d="M55.635-6a5.274,5.274,0,0,1-4.841-2.737,4.683,4.683,0,0,1,.5-5.853c2.625-2.883,5.453-5.591,8.311-8.241a4.518,4.518,0,0,1,5.483-.466A4.956,4.956,0,0,1,68-18.609C67.971-15.289,58.989-6.116,55.635-6Z" fill="#fff"/>
    </clipPath>
    <clipPath id="clip-path-9">
      <path id="Path_35340" data-name="Path 35340" d="M56-29.535a4.62,4.62,0,0,1-1.223,3.269c-2.621,2.661-5.214,5.352-7.981,7.839a4.728,4.728,0,0,1-6.9-.145c-2.214-2.112-2.621-4.8-.5-7.174,2.476-2.777,5.243-5.323,7.951-7.9a4.694,4.694,0,0,1,5.825-.636A5.073,5.073,0,0,1,56-29.535Z" fill="#fff"/>
    </clipPath>
    <clipPath id="clip-path-11">
      <path id="Path_35343" data-name="Path 35343" d="M44.995-40.531a4.753,4.753,0,0,1-1.434,3.62c-2.458,2.433-4.828,4.953-7.373,7.241-2.516,2.259-5.267,2.259-7.607-.2-2.136-2.288-2.107-4.895.088-7.212,2.458-2.607,5.033-5.126,7.7-7.559a4.753,4.753,0,0,1,5.852-.637A4.867,4.867,0,0,1,44.995-40.531Z" fill="#fff"/>
    </clipPath>
  </defs>
  <g id="Group_27959" data-name="Group 27959" transform="translate(-5 96)">
    <g id="Group_27948" data-name="Group 27948" clip-path="url(#clip-path)">
      <g id="Group_27947" data-name="Group 27947" clip-path="url(#clip-path-2)">
        <path id="Path_35326" data-name="Path 35326" d="M0-101H102v91H0Z" fill="#fff"/>
      </g>
    </g>
    <g id="Group_27950" data-name="Group 27950" clip-path="url(#clip-path-3)">
      <g id="Group_27949" data-name="Group 27949" clip-path="url(#clip-path-2)">
        <path id="Path_35329" data-name="Path 35329" d="M39-101h71v58H39Z" fill="#fff"/>
      </g>
    </g>
    <g id="Group_27952" data-name="Group 27952" clip-path="url(#clip-path-5)">
      <g id="Group_27951" data-name="Group 27951" clip-path="url(#clip-path-2)">
        <path id="Path_35332" data-name="Path 35332" d="M11-62H39v28H11Z" fill="#fff"/>
      </g>
    </g>
    <g id="Group_27954" data-name="Group 27954" clip-path="url(#clip-path-7)">
      <g id="Group_27953" data-name="Group 27953" clip-path="url(#clip-path-2)">
        <path id="Path_35335" data-name="Path 35335" d="M45-29H73V-1H45Z" fill="#fff"/>
      </g>
    </g>
    <g id="Group_27956" data-name="Group 27956" clip-path="url(#clip-path-9)">
      <g id="Group_27955" data-name="Group 27955" clip-path="url(#clip-path-2)">
        <path id="Path_35338" data-name="Path 35338" d="M33-40H61v28H33Z" fill="#fff"/>
      </g>
    </g>
    <g id="Group_27958" data-name="Group 27958" clip-path="url(#clip-path-11)">
      <g id="Group_27957" data-name="Group 27957" clip-path="url(#clip-path-2)">
        <path id="Path_35341" data-name="Path 35341" d="M22-51H50v28H22Z" fill="#fff"/>
      </g>
    </g>
  </g>
</svg>
