<svg xmlns="http://www.w3.org/2000/svg" width="20.598" height="22.743" viewBox="0 0 20.598 22.743">
  <path id="Icon_ionic-md-share" data-name="Icon ionic-md-share" d="M21.655,19.209a3.127,3.127,0,0,0-2.238.857l-8.2-4.743a3.843,3.843,0,0,0,.115-.8,3.841,3.841,0,0,0-.115-.8L19.3,9.037a3.434,3.434,0,1,0-1.09-2.515,3.82,3.82,0,0,0,.115.8l-8.09,4.685a3.454,3.454,0,0,0-2.352-.914A3.4,3.4,0,0,0,4.5,14.523a3.454,3.454,0,0,0,5.795,2.515l8.147,4.743a2.867,2.867,0,0,0-.115.743,3.328,3.328,0,1,0,3.328-3.314Z" transform="translate(-4.5 -3.094)" fill="#2bbf76"/>
</svg>
