<svg xmlns="http://www.w3.org/2000/svg" width="14.778" height="14" viewBox="0 0 14.778 14">
  <path id="Icon_material-account-balance-wallet" data-name="Icon material-account-balance-wallet" d="M18.5,16.167v.778A1.56,1.56,0,0,1,16.944,18.5H6.056A1.555,1.555,0,0,1,4.5,16.944V6.056A1.555,1.555,0,0,1,6.056,4.5H16.944A1.56,1.56,0,0,1,18.5,6.056v.778h-7A1.555,1.555,0,0,0,9.944,8.389v6.222A1.555,1.555,0,0,0,11.5,16.167Zm-7-1.556h7.778V8.389H11.5Zm3.111-1.944A1.167,1.167,0,1,1,15.778,11.5,1.165,1.165,0,0,1,14.611,12.667Z" transform="translate(-4.5 -4.5)" fill="#fff"/>
</svg>
