<svg xmlns="http://www.w3.org/2000/svg" xmlns:xlink="http://www.w3.org/1999/xlink" width="25" height="25" viewBox="0 0 25 25">
  <defs>
    <linearGradient id="linear-gradient" x1="0.5" y1="1" x2="0.5" gradientUnits="objectBoundingBox">
      <stop offset="0" stop-color="#f7c11f"/>
      <stop offset="1" stop-color="#7a1cc8"/>
    </linearGradient>
  </defs>
  <g id="Group_21945" data-name="Group 21945" transform="translate(0 0)">
    <path id="Path_78" data-name="Path 78" d="M12.5,25A12.5,12.5,0,1,1,25,12.5,12.514,12.514,0,0,1,12.5,25Z" transform="translate(0 0)" fill="url(#linear-gradient)"/>
    <g id="instagram-logo" transform="translate(6 6)">
      <path id="Path_30918" data-name="Path 30918" d="M9.347,0H3.563A3.567,3.567,0,0,0,0,3.563V9.347A3.567,3.567,0,0,0,3.563,12.91H9.347A3.567,3.567,0,0,0,12.91,9.347V3.563A3.567,3.567,0,0,0,9.347,0Zm2.417,9.347a2.42,2.42,0,0,1-2.417,2.417H3.563A2.42,2.42,0,0,1,1.145,9.347V3.563A2.42,2.42,0,0,1,3.563,1.145H9.347a2.42,2.42,0,0,1,2.417,2.417V9.347Z" transform="translate(0 0)" fill="#fff"/>
      <path id="Path_30919" data-name="Path 30919" d="M44.295,40.97A3.326,3.326,0,1,0,47.621,44.3,3.33,3.33,0,0,0,44.295,40.97Zm0,5.507A2.181,2.181,0,1,1,46.476,44.3,2.184,2.184,0,0,1,44.295,46.477Z" transform="translate(-37.84 -37.841)" fill="#fff"/>
      <path id="Path_30920" data-name="Path 30920" d="M119.761,28.251a.839.839,0,1,0,.594.246A.843.843,0,0,0,119.761,28.251Z" transform="translate(-109.84 -26.094)" fill="#fff"/>
    </g>
  </g>
</svg>
