<svg xmlns="http://www.w3.org/2000/svg" xmlns:xlink="http://www.w3.org/1999/xlink" width="60.333" height="55.654" viewBox="0 0 60.333 55.654">
  <defs>
    <clipPath id="clip-path">
      <path id="Path_35290" data-name="Path 35290" d="M9.333-40.667l10.3-1.931a2,2,0,0,1,.737,0l10.3,1.931h0V-28.1a11,11,0,0,1-5.17,9.328l-4.967,3.1a1,1,0,0,1-1.06,0l-4.967-3.1A11,11,0,0,1,9.333-28.1v-12.57Z" fill="none"/>
    </clipPath>
    <clipPath id="clip-path-2">
      <path id="Path_35289" data-name="Path 35289" d="M-149,337H226V-475H-149Z" fill="none"/>
    </clipPath>
    <clipPath id="clip-path-3">
      <path id="Path_35293" data-name="Path 35293" d="M18.114-30l-1.886-1.886a1.333,1.333,0,0,1,0-1.886,1.333,1.333,0,0,1,1.886,0L20-31.886l1.886-1.886a1.333,1.333,0,0,1,1.886,0,1.333,1.333,0,0,1,0,1.886L21.886-30l1.886,1.886a1.333,1.333,0,0,1,0,1.886,1.333,1.333,0,0,1-1.886,0L20-28.114l-1.886,1.886a1.333,1.333,0,0,1-1.886,0,1.333,1.333,0,0,1,0-1.886Z" fill="none"/>
    </clipPath>
    <clipPath id="clip-path-5">
      <path id="Path_35296" data-name="Path 35296" d="M67.667-71.167a2,2,0,0,1,2,2V-32a2,2,0,0,1-2,2H41.115a23.751,23.751,0,0,0-23.7-22.166,23.858,23.858,0,0,0-4.75.475V-69.167a2,2,0,0,1,2-2Zm-3.826,6.791a2.375,2.375,0,0,0-3.217-.965h0L41.167-54.864,21.709-65.341a2.375,2.375,0,0,0-3.217.965,2.375,2.375,0,0,0,.965,3.217h0L40.041-50.076a2.375,2.375,0,0,0,2.252,0h0L62.876-61.159A2.375,2.375,0,0,0,63.841-64.376Z" fill="none"/>
    </clipPath>
  </defs>
  <g id="Group_27919" data-name="Group 27919" transform="translate(-9.333 71.167)">
    <g id="Group_27914" data-name="Group 27914" clip-path="url(#clip-path)">
      <g id="Group_27913" data-name="Group 27913" clip-path="url(#clip-path-2)">
        <path id="Path_35288" data-name="Path 35288" d="M4.333-47.632H35.667v37.119H4.333Z" fill="#222635"/>
      </g>
    </g>
    <g id="Group_27916" data-name="Group 27916" clip-path="url(#clip-path-3)">
      <g id="Group_27915" data-name="Group 27915" clip-path="url(#clip-path-2)">
        <path id="Path_35291" data-name="Path 35291" d="M10.838-39.162H29.162v18.324H10.838Z" fill="#fff"/>
      </g>
    </g>
    <g id="Group_27918" data-name="Group 27918" clip-path="url(#clip-path-5)">
      <g id="Group_27917" data-name="Group 27917" clip-path="url(#clip-path-2)">
        <path id="Path_35294" data-name="Path 35294" d="M7.666-76.167h67V-25h-67Z" fill="#2bbe76"/>
      </g>
    </g>
  </g>
</svg>
