<svg xmlns="http://www.w3.org/2000/svg" xmlns:xlink="http://www.w3.org/1999/xlink" width="20" height="20" viewBox="0 0 20 20">
  <defs>
    <clipPath id="clip-path">
      <path id="Path_35355" data-name="Path 35355" d="M12-6a1,1,0,0,1,1,1v2a1,1,0,0,1-1,1,1,1,0,0,1-1-1V-5A1,1,0,0,1,12-6Zm9-7a1,1,0,0,1,1,1,1,1,0,0,1-1,1H19a1,1,0,0,1-1-1,1,1,0,0,1,1-1ZM5-13a1,1,0,0,1,1,1,1,1,0,0,1-1,1H3a1,1,0,0,1-1-1,1,1,0,0,1,1-1Zm7-9a1,1,0,0,1,1,1v2a1,1,0,0,1-1,1,1,1,0,0,1-1-1v-2A1,1,0,0,1,12-22Z" fill="#fff"/>
    </clipPath>
    <clipPath id="clip-path-2">
      <path id="Path_35354" data-name="Path 35354" d="M-233,80H533V-5618H-233Z" fill="#fff"/>
    </clipPath>
    <clipPath id="clip-path-3">
      <path id="Path_35358" data-name="Path 35358" d="M12-10a2,2,0,0,0,2-2,2,2,0,0,0-2-2,2,2,0,0,0-2,2A2,2,0,0,0,12-10Z" fill="#fff"/>
    </clipPath>
    <clipPath id="clip-path-5">
      <path id="Path_35361" data-name="Path 35361" d="M12-7a5,5,0,0,0,5-5,5,5,0,0,0-5-5,5,5,0,0,0-5,5A5,5,0,0,0,12-7Zm0,2a7,7,0,0,1-7-7,7,7,0,0,1,7-7,7,7,0,0,1,7,7A7,7,0,0,1,12-5Z" fill="#fff"/>
    </clipPath>
  </defs>
  <g id="Group_27975" data-name="Group 27975" transform="translate(-2 22)">
    <g id="Group_27970" data-name="Group 27970" clip-path="url(#clip-path)">
      <g id="Group_27969" data-name="Group 27969" clip-path="url(#clip-path-2)">
        <path id="Path_35353" data-name="Path 35353" d="M-3-27H27V3H-3Z" fill="#fff"/>
      </g>
    </g>
    <g id="Group_27972" data-name="Group 27972" clip-path="url(#clip-path-3)">
      <g id="Group_27971" data-name="Group 27971" clip-path="url(#clip-path-2)">
        <path id="Path_35356" data-name="Path 35356" d="M5-19H19V-5H5Z" fill="#fff"/>
      </g>
    </g>
    <g id="Group_27974" data-name="Group 27974" clip-path="url(#clip-path-5)">
      <g id="Group_27973" data-name="Group 27973" clip-path="url(#clip-path-2)">
        <path id="Path_35359" data-name="Path 35359" d="M0-24H24V0H0Z" fill="#fff"/>
      </g>
    </g>
  </g>
</svg>
