<svg xmlns="http://www.w3.org/2000/svg" width="23.635" height="16.544" viewBox="0 0 23.635 16.544">
  <path id="Path_33932" data-name="Path 33932" d="M103.454,107.672a.985.985,0,1,1-.288-.7A.985.985,0,0,1,103.454,107.672Zm-6.3-6.3a.985.985,0,1,0-.288.7A.985.985,0,0,0,97.151,101.37Zm10.832,3.151a2.762,2.762,0,0,0,2.22,2.705,1.17,1.17,0,0,1,.931,1.153v2.445a1.972,1.972,0,0,1-1.97,1.97H89.47a1.972,1.972,0,0,1-1.97-1.97v-2.445a1.17,1.17,0,0,1,.931-1.153,2.757,2.757,0,0,0,0-5.411,1.17,1.17,0,0,1-.931-1.153V98.218a1.972,1.972,0,0,1,1.97-1.97h19.7a1.972,1.972,0,0,1,1.97,1.97v2.445a1.17,1.17,0,0,1-.931,1.153,2.762,2.762,0,0,0-2.22,2.705Zm-11.817-.985a2.169,2.169,0,1,0-1.531-.635A2.167,2.167,0,0,0,96.166,103.536Zm.024,4.948,7.09-7.09a.591.591,0,0,0-.836-.836l-7.09,7.09a.591.591,0,0,0,.836.836Zm8.445-.812A2.169,2.169,0,1,0,104,109.2,2.167,2.167,0,0,0,104.635,107.672Z" transform="translate(-87.5 -96.249)" fill="#fff"/>
</svg>
