<svg xmlns="http://www.w3.org/2000/svg" width="16.566" height="21.002" viewBox="0 0 16.566 21.002">
  <g id="Group_26556" data-name="Group 26556" transform="translate(-120.998 -774)" opacity="0.498">
    <g id="Group_26766" data-name="Group 26766" transform="translate(117 797.966)">
      <path id="Subtraction_4" data-name="Subtraction 4" d="M13529.281,991.035a1.04,1.04,0,0,1-.55-.16l-3.592-2.242a8.816,8.816,0,0,1-4.142-7.471v-9.611l7.9-1.481a2.053,2.053,0,0,1,.762,0l7.9,1.481v9.611a8.816,8.816,0,0,1-4.142,7.471l-3.591,2.242A1.048,1.048,0,0,1,13529.281,991.035Zm0-14.64a2.59,2.59,0,0,0-2.589,2.586v.52h0a1.032,1.032,0,0,0-1.03,1.032v3.109a1.034,1.034,0,0,0,1.033,1.033h5.178a1.036,1.036,0,0,0,1.036-1.033v-3.109a1.036,1.036,0,0,0-1.036-1.033v-.52A2.59,2.59,0,0,0,13529.281,976.4Zm1.553,3.105h-3.105v-.52a1.553,1.553,0,0,1,3.105,0v.519Z" transform="translate(-13517 -994)" fill="#fff"/>
    </g>
  </g>
</svg>
