<svg xmlns="http://www.w3.org/2000/svg" xmlns:xlink="http://www.w3.org/1999/xlink" width="20" height="12" viewBox="0 0 20 12">
  <defs>
    <clipPath id="clip-path">
      <path id="Path_33964" data-name="Path 33964" d="M4-18h9a2,2,0,0,1,2,2v8a2,2,0,0,1-2,2H4A2,2,0,0,1,2-8v-8A2,2,0,0,1,4-18Z" fill="#fff"/>
    </clipPath>
    <clipPath id="clip-path-2">
      <path id="Path_33963" data-name="Path 33963" d="M-371,3713H395V-1985H-371Z" fill="#fff"/>
    </clipPath>
    <clipPath id="clip-path-3">
      <path id="Path_33967" data-name="Path 33967" d="M22-15.586v7.172a1,1,0,0,1-1,1,1,1,0,0,1-.707-.293l-3.586-3.586a1,1,0,0,1,0-1.414l3.586-3.586a1,1,0,0,1,1.414,0A1,1,0,0,1,22-15.586Z" fill="#fff"/>
    </clipPath>
  </defs>
  <g id="Group_26553" data-name="Group 26553" transform="translate(-119 -324)" opacity="0.497">
    <g id="Group_26716" data-name="Group 26716" transform="translate(115 342)">
      <g id="Group_26713" data-name="Group 26713" transform="translate(2)" clip-path="url(#clip-path)">
        <g id="Group_26712" data-name="Group 26712" clip-path="url(#clip-path-2)">
          <path id="Path_33962" data-name="Path 33962" d="M-3-23H20V-1H-3Z" fill="#fff"/>
        </g>
      </g>
      <g id="Group_26715" data-name="Group 26715" transform="translate(2)" clip-path="url(#clip-path-3)">
        <g id="Group_26714" data-name="Group 26714" clip-path="url(#clip-path-2)">
          <path id="Path_33965" data-name="Path 33965" d="M11.414-21.586H27V-2.414H11.414Z" fill="#fff"/>
        </g>
      </g>
    </g>
  </g>
</svg>
