<svg xmlns="http://www.w3.org/2000/svg" xmlns:xlink="http://www.w3.org/1999/xlink" width="35.805" height="25.063" viewBox="0 0 35.805 25.063">
  <defs>
    <clipPath id="clip-path">
      <path id="Path_34303" data-name="Path 34303" d="M3.79-19H36.014a1.79,1.79,0,0,1,1.79,1.79,1.79,1.79,0,0,1-1.79,1.79H3.79A1.79,1.79,0,0,1,2-17.21,1.79,1.79,0,0,1,3.79-19Z" transform="translate(-2 19)" fill="none"/>
    </clipPath>
    <clipPath id="clip-path-2">
      <path id="Path_34302" data-name="Path 34302" d="M-509,5401.756H862.32V-4799H-509Z" transform="translate(509 4799)" fill="none"/>
    </clipPath>
    <clipPath id="clip-path-3">
      <path id="Path_34306" data-name="Path 34306" d="M3.79-7H36.014A1.79,1.79,0,0,1,37.8-5.21a1.79,1.79,0,0,1-1.79,1.79H3.79A1.79,1.79,0,0,1,2-5.21,1.79,1.79,0,0,1,3.79-7Z" transform="translate(-2 7)" fill="none"/>
    </clipPath>
    <clipPath id="clip-path-5">
      <path id="Path_34309" data-name="Path 34309" d="M3.79-15H9.161a1.79,1.79,0,0,1,1.79,1.79,1.79,1.79,0,0,1-1.79,1.79H3.79A1.79,1.79,0,0,1,2-13.21,1.79,1.79,0,0,1,3.79-15Z" transform="translate(-2 15)" fill="none"/>
    </clipPath>
    <clipPath id="clip-path-7">
      <path id="Path_34312" data-name="Path 34312" d="M17.79-11h7.161a1.79,1.79,0,0,1,1.79,1.79,1.79,1.79,0,0,1-1.79,1.79H17.79A1.79,1.79,0,0,1,16-9.21,1.79,1.79,0,0,1,17.79-11Z" transform="translate(-16 11)" fill="none"/>
    </clipPath>
    <clipPath id="clip-path-9">
      <path id="Path_34315" data-name="Path 34315" d="M10.79-15H30.483a1.79,1.79,0,0,1,1.79,1.79,1.79,1.79,0,0,1-1.79,1.79H10.79A1.79,1.79,0,0,1,9-13.21,1.79,1.79,0,0,1,10.79-15Z" transform="translate(-9 15)" fill="none"/>
    </clipPath>
    <clipPath id="clip-path-11">
      <path id="Path_34318" data-name="Path 34318" d="M3.79-11h17.9a1.79,1.79,0,0,1,1.79,1.79,1.79,1.79,0,0,1-1.79,1.79H3.79A1.79,1.79,0,0,1,2-9.21,1.79,1.79,0,0,1,3.79-11Z" transform="translate(-2 11)" fill="none"/>
    </clipPath>
  </defs>
  <g id="Group_26984" data-name="Group 26984" transform="translate(-2 19)">
    <g id="Group_26973" data-name="Group 26973" transform="translate(2 -19)" clip-path="url(#clip-path)">
      <g id="Group_26972" data-name="Group 26972" transform="translate(-914.81 -8557.32)" clip-path="url(#clip-path-2)">
        <path id="Path_34301" data-name="Path 34301" d="M-3-24H50.707V-2.517H-3Z" transform="translate(908.859 8572.37)" fill="#2bbe76"/>
      </g>
    </g>
    <g id="Group_26975" data-name="Group 26975" transform="translate(2 2.483)" clip-path="url(#clip-path-3)">
      <g id="Group_26974" data-name="Group 26974" transform="translate(-914.81 -8578.804)" clip-path="url(#clip-path-2)">
        <path id="Path_34304" data-name="Path 34304" d="M-3-12H50.707V9.483H-3Z" transform="translate(908.859 8581.852)" fill="#2bbe76"/>
      </g>
    </g>
    <g id="Group_26977" data-name="Group 26977" transform="translate(2 -11.839)" clip-path="url(#clip-path-5)">
      <g id="Group_26976" data-name="Group 26976" transform="translate(-914.81 -8564.481)" clip-path="url(#clip-path-2)">
        <path id="Path_34307" data-name="Path 34307" d="M-3-20H23.854V1.483H-3Z" transform="translate(908.859 8575.529)" fill="#2bbe76"/>
      </g>
    </g>
    <g id="Group_26979" data-name="Group 26979" transform="translate(27.063 -4.678)" clip-path="url(#clip-path-7)">
      <g id="Group_26978" data-name="Group 26978" transform="translate(-939.873 -8571.643)" clip-path="url(#clip-path-2)">
        <path id="Path_34310" data-name="Path 34310" d="M11-16H39.644V5.483H11Z" transform="translate(919.922 8578.691)" fill="#2bbe76"/>
      </g>
    </g>
    <g id="Group_26981" data-name="Group 26981" transform="translate(14.532 -11.839)" clip-path="url(#clip-path-9)">
      <g id="Group_26980" data-name="Group 26980" transform="translate(-927.341 -8564.481)" clip-path="url(#clip-path-2)">
        <path id="Path_34313" data-name="Path 34313" d="M4-20H45.175V1.483H4Z" transform="translate(914.39 8575.529)" fill="#2bbe76"/>
      </g>
    </g>
    <g id="Group_26983" data-name="Group 26983" transform="translate(2 -4.678)" clip-path="url(#clip-path-11)">
      <g id="Group_26982" data-name="Group 26982" transform="translate(-914.81 -8571.643)" clip-path="url(#clip-path-2)">
        <path id="Path_34316" data-name="Path 34316" d="M-3-16H36.385V5.483H-3Z" transform="translate(908.859 8578.691)" fill="#2bbe76"/>
      </g>
    </g>
  </g>
</svg>
