<svg xmlns="http://www.w3.org/2000/svg" xmlns:xlink="http://www.w3.org/1999/xlink" width="102.747" height="78.125" viewBox="0 0 102.747 78.125">
  <defs>
    <clipPath id="clip-path">
      <path id="Path_35299" data-name="Path 35299" d="M46.875-78.917v46.875l11.93,3.977a24,24,0,0,0,7.589,1.232H99.248a6,6,0,0,0,5.883-4.823l7.915-39.575a6,6,0,0,0-4.707-7.06,6,6,0,0,0-1.576-.1L75.521-76.312h0l1.9-20.865a7.134,7.134,0,0,0-6.459-7.751q-.322-.029-.646-.029a13.8,13.8,0,0,0-11.832,6.7L46.875-78.917Z" fill="none"/>
    </clipPath>
    <clipPath id="clip-path-2">
      <path id="Path_35298" data-name="Path 35298" d="M-125,588H250V-224H-125Z" fill="none"/>
    </clipPath>
    <clipPath id="clip-path-3">
      <path id="Path_35302" data-name="Path 35302" d="M12.417-84.125H34.458a2,2,0,0,1,2,2v53.292a2,2,0,0,1-2,2H12.417a2,2,0,0,1-2-2V-82.125A2,2,0,0,1,12.417-84.125Z" fill="none"/>
    </clipPath>
  </defs>
  <g id="Group_27924" data-name="Group 27924" transform="translate(-10.417 104.958)">
    <g id="Group_27921" data-name="Group 27921" clip-path="url(#clip-path)">
      <g id="Group_27920" data-name="Group 27920" clip-path="url(#clip-path-2)">
        <path id="Path_35297" data-name="Path 35297" d="M41.875-109.958h76.289v88.125H41.875Z" fill="#2bbe76"/>
      </g>
    </g>
    <g id="Group_27923" data-name="Group 27923" clip-path="url(#clip-path-3)">
      <g id="Group_27922" data-name="Group 27922" clip-path="url(#clip-path-2)">
        <path id="Path_35300" data-name="Path 35300" d="M5.417-89.125H41.458v67.292H5.417Z" fill="#2d313e"/>
      </g>
    </g>
  </g>
</svg>
