<svg xmlns="http://www.w3.org/2000/svg" xmlns:xlink="http://www.w3.org/1999/xlink" width="92.652" height="79.784" viewBox="0 0 92.652 79.784">
  <defs>
    <clipPath id="clip-path">
      <path id="Path_35270" data-name="Path 35270" d="M50.756-72.853,7.861,4.357A1.287,1.287,0,0,0,8.986,6.269H99.065a1.287,1.287,0,0,0,1.1-1.957L52.979-72.9a1.287,1.287,0,0,0-1.769-.427A1.287,1.287,0,0,0,50.756-72.853Z" transform="translate(-7.699 73.515)" fill="none"/>
    </clipPath>
    <clipPath id="clip-path-2">
      <path id="Path_35269" data-name="Path 35269" d="M-138,543.656H344.446V-501H-138Z" transform="translate(138 501)" fill="none"/>
    </clipPath>
    <clipPath id="clip-path-3">
      <path id="Path_35273" data-name="Path 35273" d="M39.787-53.5h6.433a1.287,1.287,0,0,1,1.287,1.287v28.947a1.287,1.287,0,0,1-1.287,1.287H39.787A1.287,1.287,0,0,1,38.5-23.267V-52.213A1.287,1.287,0,0,1,39.787-53.5Z" transform="translate(-38.5 53.5)" fill="none"/>
    </clipPath>
    <clipPath id="clip-path-5">
      <path id="Path_35276" data-name="Path 35276" d="M39.787-25.5h6.433a1.287,1.287,0,0,1,1.287,1.287v6.433a1.287,1.287,0,0,1-1.287,1.287H39.787A1.287,1.287,0,0,1,38.5-17.781v-6.433A1.287,1.287,0,0,1,39.787-25.5Z" transform="translate(-38.5 25.5)" fill="none"/>
    </clipPath>
  </defs>
  <g id="Group_27902" data-name="Group 27902" transform="translate(-7.699 73.515)">
    <g id="Group_27897" data-name="Group 27897" transform="translate(7.699 -73.515)" clip-path="url(#clip-path)">
      <g id="Group_27896" data-name="Group 27896" transform="translate(-187.445 -549.969)" clip-path="url(#clip-path-2)">
        <path id="Path_35268" data-name="Path 35268" d="M2.7-78.515H108.217V14.134H2.7Z" transform="translate(178.313 622.051)" fill="#2bbe76"/>
      </g>
    </g>
    <g id="Group_27899" data-name="Group 27899" transform="translate(47.325 -47.765)" clip-path="url(#clip-path-3)">
      <g id="Group_27898" data-name="Group 27898" transform="translate(-227.071 -575.719)" clip-path="url(#clip-path-2)">
        <path id="Path_35271" data-name="Path 35271" d="M33.5-58.5H55.371v44.385H33.5Z" transform="translate(187.139 627.786)" fill="#222635"/>
      </g>
    </g>
    <g id="Group_27901" data-name="Group 27901" transform="translate(47.325 -11.743)" clip-path="url(#clip-path-5)">
      <g id="Group_27900" data-name="Group 27900" transform="translate(-227.071 -611.741)" clip-path="url(#clip-path-2)">
        <path id="Path_35274" data-name="Path 35274" d="M33.5-30.5H55.371V-8.629H33.5Z" transform="translate(187.139 635.809)" fill="#222635"/>
      </g>
    </g>
  </g>
</svg>
