<svg id="Group_356" data-name="Group 356" xmlns="http://www.w3.org/2000/svg" width="24.997" height="25" viewBox="0 0 24.997 25">
  <g id="Group_148" data-name="Group 148" transform="translate(0)">
    <path id="Path_86" data-name="Path 86" d="M228.412,357.3a12.5,12.5,0,1,0,12.5,12.5A12.515,12.515,0,0,0,228.412,357.3Z" transform="translate(-215.913 -357.302)" fill="#019ecd"/>
  </g>
  <path id="Path_142" data-name="Path 142" d="M229.777,360.377c-.146.069-.274.138-.409.2-.289.12-.584.234-.876.343a.3.3,0,0,1-.34-.09,2.484,2.484,0,0,0-.21-.194,2.246,2.246,0,0,0-1.224-.467,2.322,2.322,0,0,0-1.516.374,2.606,2.606,0,0,0-1.11,2.358c0,.1.011.188.019.295a6.911,6.911,0,0,1-4.958-2.549,2.207,2.207,0,0,0-.252,1.745,2.523,2.523,0,0,0,.927,1.519,2.751,2.751,0,0,1-1.03-.276,2.545,2.545,0,0,0,1.856,2.454,2.529,2.529,0,0,1-.98.037,2.488,2.488,0,0,0,2.207,1.745,5.13,5.13,0,0,1-3.457,1.038,7.932,7.932,0,0,0,.911.491,6.682,6.682,0,0,0,4.817.282,6.449,6.449,0,0,0,3.893-3.25,7.771,7.771,0,0,0,.913-3.691.25.25,0,0,1,.093-.2,5.065,5.065,0,0,0,.89-.911c.056-.074.1-.157.151-.234a7.375,7.375,0,0,1-1.259.305A2.3,2.3,0,0,0,229.777,360.377Z" transform="translate(-211.423 -352.157)" fill="#fff"/>
</svg>
