<svg xmlns="http://www.w3.org/2000/svg" width="21.357" height="20.476" viewBox="0 0 21.357 20.476">
  <g id="verify" transform="translate(0 -25.575)">
    <g id="Layer_2_87_" transform="translate(0 25.575)">
      <path id="Path_33818" data-name="Path 33818" d="M19.88,20.72a3.609,3.609,0,0,1-.736-.656,3.371,3.371,0,0,1,.209-1.024,2.821,2.821,0,0,0-.036-2.5,2.838,2.838,0,0,0-2.387-.81,3.5,3.5,0,0,1-1.019-.11,3.462,3.462,0,0,1-.414-.926c-.272-.775-.611-1.74-1.519-2.035a2.76,2.76,0,0,0-2.369.736,3.32,3.32,0,0,1-.931.524,3.314,3.314,0,0,1-.932-.524,2.763,2.763,0,0,0-2.369-.736c-.908.3-1.247,1.259-1.519,2.034a3.53,3.53,0,0,1-.41.923,3.418,3.418,0,0,1-1.023.113,2.838,2.838,0,0,0-2.386.81A2.822,2.822,0,0,0,2,19.04a3.466,3.466,0,0,1,.211,1.017,3.483,3.483,0,0,1-.738.663C.819,21.222,0,21.846,0,22.813S.819,24.4,1.477,24.907a3.609,3.609,0,0,1,.736.656A3.371,3.371,0,0,1,2,26.587a2.821,2.821,0,0,0,.036,2.5,2.838,2.838,0,0,0,2.387.81,3.5,3.5,0,0,1,1.019.11,3.462,3.462,0,0,1,.414.926c.272.775.611,1.74,1.519,2.035a1.6,1.6,0,0,0,.5.08,3.523,3.523,0,0,0,1.87-.816,3.319,3.319,0,0,1,.931-.524,3.315,3.315,0,0,1,.932.524,2.764,2.764,0,0,0,2.369.736c.908-.3,1.247-1.259,1.519-2.034a3.53,3.53,0,0,1,.41-.923,3.418,3.418,0,0,1,1.023-.113,2.838,2.838,0,0,0,2.386-.81,2.822,2.822,0,0,0,.036-2.5,3.466,3.466,0,0,1-.211-1.017,3.483,3.483,0,0,1,.738-.663c.658-.5,1.476-1.127,1.476-2.093s-.819-1.592-1.477-2.093Zm-5.235.5L10.2,25.667a.89.89,0,0,1-1.258,0h0L6.712,23.442a.89.89,0,1,1,1.242-1.274l.016.016,1.6,1.6,3.82-3.82A.89.89,0,1,1,14.66,21.2Z" transform="translate(0 -12.575)" fill="#468beb"/>
    </g>
  </g>
</svg>
